G04 #@! TF.GenerationSoftware,KiCad,Pcbnew,8.0.1*
G04 #@! TF.CreationDate,2025-03-12T15:21:45+01:00*
G04 #@! TF.ProjectId,panel_E,70616e65-6c5f-4452-9e6b-696361645f70,E*
G04 #@! TF.SameCoordinates,Original*
G04 #@! TF.FileFunction,Legend,Top*
G04 #@! TF.FilePolarity,Positive*
%FSLAX46Y46*%
G04 Gerber Fmt 4.6, Leading zero omitted, Abs format (unit mm)*
G04 Created by KiCad (PCBNEW 8.0.1) date 2025-03-12 15:21:45*
%MOMM*%
%LPD*%
G01*
G04 APERTURE LIST*
G04 Aperture macros list*
%AMRoundRect*
0 Rectangle with rounded corners*
0 $1 Rounding radius*
0 $2 $3 $4 $5 $6 $7 $8 $9 X,Y pos of 4 corners*
0 Add a 4 corners polygon primitive as box body*
4,1,4,$2,$3,$4,$5,$6,$7,$8,$9,$2,$3,0*
0 Add four circle primitives for the rounded corners*
1,1,$1+$1,$2,$3*
1,1,$1+$1,$4,$5*
1,1,$1+$1,$6,$7*
1,1,$1+$1,$8,$9*
0 Add four rect primitives between the rounded corners*
20,1,$1+$1,$2,$3,$4,$5,0*
20,1,$1+$1,$4,$5,$6,$7,0*
20,1,$1+$1,$6,$7,$8,$9,0*
20,1,$1+$1,$8,$9,$2,$3,0*%
%AMFreePoly0*
4,1,19,0.550000,-0.750000,0.000000,-0.750000,0.000000,-0.744911,-0.071157,-0.744911,-0.207708,-0.704816,-0.327430,-0.627875,-0.420627,-0.520320,-0.479746,-0.390866,-0.500000,-0.250000,-0.500000,0.250000,-0.479746,0.390866,-0.420627,0.520320,-0.327430,0.627875,-0.207708,0.704816,-0.071157,0.744911,0.000000,0.744911,0.000000,0.750000,0.550000,0.750000,0.550000,-0.750000,0.550000,-0.750000,
$1*%
%AMFreePoly1*
4,1,19,0.000000,0.744911,0.071157,0.744911,0.207708,0.704816,0.327430,0.627875,0.420627,0.520320,0.479746,0.390866,0.500000,0.250000,0.500000,-0.250000,0.479746,-0.390866,0.420627,-0.520320,0.327430,-0.627875,0.207708,-0.704816,0.071157,-0.744911,0.000000,-0.744911,0.000000,-0.750000,-0.550000,-0.750000,-0.550000,0.750000,0.000000,0.750000,0.000000,0.744911,0.000000,0.744911,
$1*%
G04 Aperture macros list end*
%ADD10C,0.300000*%
%ADD11C,0.400000*%
%ADD12C,0.120000*%
%ADD13C,0.100000*%
%ADD14RoundRect,0.225000X0.225000X0.250000X-0.225000X0.250000X-0.225000X-0.250000X0.225000X-0.250000X0*%
%ADD15C,0.500000*%
%ADD16R,0.750000X1.000000*%
%ADD17RoundRect,0.200000X0.275000X-0.200000X0.275000X0.200000X-0.275000X0.200000X-0.275000X-0.200000X0*%
%ADD18RoundRect,0.225000X0.250000X-0.225000X0.250000X0.225000X-0.250000X0.225000X-0.250000X-0.225000X0*%
%ADD19RoundRect,0.200000X-0.200000X-0.275000X0.200000X-0.275000X0.200000X0.275000X-0.200000X0.275000X0*%
%ADD20FreePoly0,90.000000*%
%ADD21R,1.500000X1.000000*%
%ADD22FreePoly1,90.000000*%
%ADD23RoundRect,0.225000X-0.250000X0.225000X-0.250000X-0.225000X0.250000X-0.225000X0.250000X0.225000X0*%
%ADD24C,1.152000*%
%ADD25RoundRect,0.218750X0.218750X0.256250X-0.218750X0.256250X-0.218750X-0.256250X0.218750X-0.256250X0*%
%ADD26RoundRect,0.225000X-0.225000X-0.250000X0.225000X-0.250000X0.225000X0.250000X-0.225000X0.250000X0*%
%ADD27C,2.000000*%
%ADD28RoundRect,0.112500X-0.187500X-0.112500X0.187500X-0.112500X0.187500X0.112500X-0.187500X0.112500X0*%
%ADD29RoundRect,0.112500X0.112500X-0.187500X0.112500X0.187500X-0.112500X0.187500X-0.112500X-0.187500X0*%
%ADD30R,0.800000X2.700000*%
%ADD31RoundRect,1.000000X5.000000X-0.000010X5.000000X0.000010X-5.000000X0.000010X-5.000000X-0.000010X0*%
%ADD32RoundRect,0.750000X5.000000X-0.000010X5.000000X0.000010X-5.000000X0.000010X-5.000000X-0.000010X0*%
%ADD33RoundRect,0.150000X0.512500X0.150000X-0.512500X0.150000X-0.512500X-0.150000X0.512500X-0.150000X0*%
%ADD34RoundRect,0.150000X0.150000X-0.512500X0.150000X0.512500X-0.150000X0.512500X-0.150000X-0.512500X0*%
%ADD35RoundRect,0.150000X-0.150000X0.512500X-0.150000X-0.512500X0.150000X-0.512500X0.150000X0.512500X0*%
%ADD36RoundRect,0.200000X-0.275000X0.200000X-0.275000X-0.200000X0.275000X-0.200000X0.275000X0.200000X0*%
%ADD37RoundRect,0.200000X0.200000X0.275000X-0.200000X0.275000X-0.200000X-0.275000X0.200000X-0.275000X0*%
%ADD38RoundRect,0.150000X-0.512500X-0.150000X0.512500X-0.150000X0.512500X0.150000X-0.512500X0.150000X0*%
%ADD39RoundRect,0.112500X-0.112500X0.187500X-0.112500X-0.187500X0.112500X-0.187500X0.112500X0.187500X0*%
G04 APERTURE END LIST*
D10*
X12607140Y-89178328D02*
X12607140Y-87678328D01*
X13249998Y-89178328D02*
X13249998Y-88392614D01*
X13249998Y-88392614D02*
X13178569Y-88249757D01*
X13178569Y-88249757D02*
X13035712Y-88178328D01*
X13035712Y-88178328D02*
X12821426Y-88178328D01*
X12821426Y-88178328D02*
X12678569Y-88249757D01*
X12678569Y-88249757D02*
X12607140Y-88321185D01*
X13749998Y-88178328D02*
X14321426Y-88178328D01*
X13964283Y-87678328D02*
X13964283Y-88964042D01*
X13964283Y-88964042D02*
X14035712Y-89106900D01*
X14035712Y-89106900D02*
X14178569Y-89178328D01*
X14178569Y-89178328D02*
X14321426Y-89178328D01*
X14607141Y-88178328D02*
X15178569Y-88178328D01*
X14821426Y-87678328D02*
X14821426Y-88964042D01*
X14821426Y-88964042D02*
X14892855Y-89106900D01*
X14892855Y-89106900D02*
X15035712Y-89178328D01*
X15035712Y-89178328D02*
X15178569Y-89178328D01*
X15678569Y-88178328D02*
X15678569Y-89678328D01*
X15678569Y-88249757D02*
X15821427Y-88178328D01*
X15821427Y-88178328D02*
X16107141Y-88178328D01*
X16107141Y-88178328D02*
X16249998Y-88249757D01*
X16249998Y-88249757D02*
X16321427Y-88321185D01*
X16321427Y-88321185D02*
X16392855Y-88464042D01*
X16392855Y-88464042D02*
X16392855Y-88892614D01*
X16392855Y-88892614D02*
X16321427Y-89035471D01*
X16321427Y-89035471D02*
X16249998Y-89106900D01*
X16249998Y-89106900D02*
X16107141Y-89178328D01*
X16107141Y-89178328D02*
X15821427Y-89178328D01*
X15821427Y-89178328D02*
X15678569Y-89106900D01*
X16964284Y-89106900D02*
X17107141Y-89178328D01*
X17107141Y-89178328D02*
X17392855Y-89178328D01*
X17392855Y-89178328D02*
X17535712Y-89106900D01*
X17535712Y-89106900D02*
X17607141Y-88964042D01*
X17607141Y-88964042D02*
X17607141Y-88892614D01*
X17607141Y-88892614D02*
X17535712Y-88749757D01*
X17535712Y-88749757D02*
X17392855Y-88678328D01*
X17392855Y-88678328D02*
X17178570Y-88678328D01*
X17178570Y-88678328D02*
X17035712Y-88606900D01*
X17035712Y-88606900D02*
X16964284Y-88464042D01*
X16964284Y-88464042D02*
X16964284Y-88392614D01*
X16964284Y-88392614D02*
X17035712Y-88249757D01*
X17035712Y-88249757D02*
X17178570Y-88178328D01*
X17178570Y-88178328D02*
X17392855Y-88178328D01*
X17392855Y-88178328D02*
X17535712Y-88249757D01*
X18249998Y-89035471D02*
X18321427Y-89106900D01*
X18321427Y-89106900D02*
X18249998Y-89178328D01*
X18249998Y-89178328D02*
X18178570Y-89106900D01*
X18178570Y-89106900D02*
X18249998Y-89035471D01*
X18249998Y-89035471D02*
X18249998Y-89178328D01*
X18249998Y-88249757D02*
X18321427Y-88321185D01*
X18321427Y-88321185D02*
X18249998Y-88392614D01*
X18249998Y-88392614D02*
X18178570Y-88321185D01*
X18178570Y-88321185D02*
X18249998Y-88249757D01*
X18249998Y-88249757D02*
X18249998Y-88392614D01*
X20035713Y-87606900D02*
X18749999Y-89535471D01*
X21607142Y-87606900D02*
X20321428Y-89535471D01*
X22750000Y-88178328D02*
X22750000Y-89392614D01*
X22750000Y-89392614D02*
X22678571Y-89535471D01*
X22678571Y-89535471D02*
X22607142Y-89606900D01*
X22607142Y-89606900D02*
X22464285Y-89678328D01*
X22464285Y-89678328D02*
X22250000Y-89678328D01*
X22250000Y-89678328D02*
X22107142Y-89606900D01*
X22750000Y-89106900D02*
X22607142Y-89178328D01*
X22607142Y-89178328D02*
X22321428Y-89178328D01*
X22321428Y-89178328D02*
X22178571Y-89106900D01*
X22178571Y-89106900D02*
X22107142Y-89035471D01*
X22107142Y-89035471D02*
X22035714Y-88892614D01*
X22035714Y-88892614D02*
X22035714Y-88464042D01*
X22035714Y-88464042D02*
X22107142Y-88321185D01*
X22107142Y-88321185D02*
X22178571Y-88249757D01*
X22178571Y-88249757D02*
X22321428Y-88178328D01*
X22321428Y-88178328D02*
X22607142Y-88178328D01*
X22607142Y-88178328D02*
X22750000Y-88249757D01*
X23464285Y-89178328D02*
X23464285Y-88178328D01*
X23464285Y-87678328D02*
X23392857Y-87749757D01*
X23392857Y-87749757D02*
X23464285Y-87821185D01*
X23464285Y-87821185D02*
X23535714Y-87749757D01*
X23535714Y-87749757D02*
X23464285Y-87678328D01*
X23464285Y-87678328D02*
X23464285Y-87821185D01*
X23964286Y-88178328D02*
X24535714Y-88178328D01*
X24178571Y-87678328D02*
X24178571Y-88964042D01*
X24178571Y-88964042D02*
X24250000Y-89106900D01*
X24250000Y-89106900D02*
X24392857Y-89178328D01*
X24392857Y-89178328D02*
X24535714Y-89178328D01*
X25035714Y-89178328D02*
X25035714Y-87678328D01*
X25678572Y-89178328D02*
X25678572Y-88392614D01*
X25678572Y-88392614D02*
X25607143Y-88249757D01*
X25607143Y-88249757D02*
X25464286Y-88178328D01*
X25464286Y-88178328D02*
X25250000Y-88178328D01*
X25250000Y-88178328D02*
X25107143Y-88249757D01*
X25107143Y-88249757D02*
X25035714Y-88321185D01*
X27035715Y-88178328D02*
X27035715Y-89178328D01*
X26392857Y-88178328D02*
X26392857Y-88964042D01*
X26392857Y-88964042D02*
X26464286Y-89106900D01*
X26464286Y-89106900D02*
X26607143Y-89178328D01*
X26607143Y-89178328D02*
X26821429Y-89178328D01*
X26821429Y-89178328D02*
X26964286Y-89106900D01*
X26964286Y-89106900D02*
X27035715Y-89035471D01*
X27750000Y-89178328D02*
X27750000Y-87678328D01*
X27750000Y-88249757D02*
X27892858Y-88178328D01*
X27892858Y-88178328D02*
X28178572Y-88178328D01*
X28178572Y-88178328D02*
X28321429Y-88249757D01*
X28321429Y-88249757D02*
X28392858Y-88321185D01*
X28392858Y-88321185D02*
X28464286Y-88464042D01*
X28464286Y-88464042D02*
X28464286Y-88892614D01*
X28464286Y-88892614D02*
X28392858Y-89035471D01*
X28392858Y-89035471D02*
X28321429Y-89106900D01*
X28321429Y-89106900D02*
X28178572Y-89178328D01*
X28178572Y-89178328D02*
X27892858Y-89178328D01*
X27892858Y-89178328D02*
X27750000Y-89106900D01*
X29107143Y-89035471D02*
X29178572Y-89106900D01*
X29178572Y-89106900D02*
X29107143Y-89178328D01*
X29107143Y-89178328D02*
X29035715Y-89106900D01*
X29035715Y-89106900D02*
X29107143Y-89035471D01*
X29107143Y-89035471D02*
X29107143Y-89178328D01*
X30464287Y-89106900D02*
X30321429Y-89178328D01*
X30321429Y-89178328D02*
X30035715Y-89178328D01*
X30035715Y-89178328D02*
X29892858Y-89106900D01*
X29892858Y-89106900D02*
X29821429Y-89035471D01*
X29821429Y-89035471D02*
X29750001Y-88892614D01*
X29750001Y-88892614D02*
X29750001Y-88464042D01*
X29750001Y-88464042D02*
X29821429Y-88321185D01*
X29821429Y-88321185D02*
X29892858Y-88249757D01*
X29892858Y-88249757D02*
X30035715Y-88178328D01*
X30035715Y-88178328D02*
X30321429Y-88178328D01*
X30321429Y-88178328D02*
X30464287Y-88249757D01*
X31321429Y-89178328D02*
X31178572Y-89106900D01*
X31178572Y-89106900D02*
X31107143Y-89035471D01*
X31107143Y-89035471D02*
X31035715Y-88892614D01*
X31035715Y-88892614D02*
X31035715Y-88464042D01*
X31035715Y-88464042D02*
X31107143Y-88321185D01*
X31107143Y-88321185D02*
X31178572Y-88249757D01*
X31178572Y-88249757D02*
X31321429Y-88178328D01*
X31321429Y-88178328D02*
X31535715Y-88178328D01*
X31535715Y-88178328D02*
X31678572Y-88249757D01*
X31678572Y-88249757D02*
X31750001Y-88321185D01*
X31750001Y-88321185D02*
X31821429Y-88464042D01*
X31821429Y-88464042D02*
X31821429Y-88892614D01*
X31821429Y-88892614D02*
X31750001Y-89035471D01*
X31750001Y-89035471D02*
X31678572Y-89106900D01*
X31678572Y-89106900D02*
X31535715Y-89178328D01*
X31535715Y-89178328D02*
X31321429Y-89178328D01*
X32464286Y-89178328D02*
X32464286Y-88178328D01*
X32464286Y-88321185D02*
X32535715Y-88249757D01*
X32535715Y-88249757D02*
X32678572Y-88178328D01*
X32678572Y-88178328D02*
X32892858Y-88178328D01*
X32892858Y-88178328D02*
X33035715Y-88249757D01*
X33035715Y-88249757D02*
X33107144Y-88392614D01*
X33107144Y-88392614D02*
X33107144Y-89178328D01*
X33107144Y-88392614D02*
X33178572Y-88249757D01*
X33178572Y-88249757D02*
X33321429Y-88178328D01*
X33321429Y-88178328D02*
X33535715Y-88178328D01*
X33535715Y-88178328D02*
X33678572Y-88249757D01*
X33678572Y-88249757D02*
X33750001Y-88392614D01*
X33750001Y-88392614D02*
X33750001Y-89178328D01*
X35535715Y-87606900D02*
X34250001Y-89535471D01*
X35964287Y-89106900D02*
X36107144Y-89178328D01*
X36107144Y-89178328D02*
X36392858Y-89178328D01*
X36392858Y-89178328D02*
X36535715Y-89106900D01*
X36535715Y-89106900D02*
X36607144Y-88964042D01*
X36607144Y-88964042D02*
X36607144Y-88892614D01*
X36607144Y-88892614D02*
X36535715Y-88749757D01*
X36535715Y-88749757D02*
X36392858Y-88678328D01*
X36392858Y-88678328D02*
X36178573Y-88678328D01*
X36178573Y-88678328D02*
X36035715Y-88606900D01*
X36035715Y-88606900D02*
X35964287Y-88464042D01*
X35964287Y-88464042D02*
X35964287Y-88392614D01*
X35964287Y-88392614D02*
X36035715Y-88249757D01*
X36035715Y-88249757D02*
X36178573Y-88178328D01*
X36178573Y-88178328D02*
X36392858Y-88178328D01*
X36392858Y-88178328D02*
X36535715Y-88249757D01*
X37250001Y-89178328D02*
X37250001Y-87678328D01*
X37250001Y-88249757D02*
X37392859Y-88178328D01*
X37392859Y-88178328D02*
X37678573Y-88178328D01*
X37678573Y-88178328D02*
X37821430Y-88249757D01*
X37821430Y-88249757D02*
X37892859Y-88321185D01*
X37892859Y-88321185D02*
X37964287Y-88464042D01*
X37964287Y-88464042D02*
X37964287Y-88892614D01*
X37964287Y-88892614D02*
X37892859Y-89035471D01*
X37892859Y-89035471D02*
X37821430Y-89106900D01*
X37821430Y-89106900D02*
X37678573Y-89178328D01*
X37678573Y-89178328D02*
X37392859Y-89178328D01*
X37392859Y-89178328D02*
X37250001Y-89106900D01*
X38464287Y-88178328D02*
X38821430Y-89178328D01*
X39178573Y-88178328D02*
X38821430Y-89178328D01*
X38821430Y-89178328D02*
X38678573Y-89535471D01*
X38678573Y-89535471D02*
X38607144Y-89606900D01*
X38607144Y-89606900D02*
X38464287Y-89678328D01*
X40392859Y-89178328D02*
X40392859Y-87678328D01*
X40392859Y-89106900D02*
X40250001Y-89178328D01*
X40250001Y-89178328D02*
X39964287Y-89178328D01*
X39964287Y-89178328D02*
X39821430Y-89106900D01*
X39821430Y-89106900D02*
X39750001Y-89035471D01*
X39750001Y-89035471D02*
X39678573Y-88892614D01*
X39678573Y-88892614D02*
X39678573Y-88464042D01*
X39678573Y-88464042D02*
X39750001Y-88321185D01*
X39750001Y-88321185D02*
X39821430Y-88249757D01*
X39821430Y-88249757D02*
X39964287Y-88178328D01*
X39964287Y-88178328D02*
X40250001Y-88178328D01*
X40250001Y-88178328D02*
X40392859Y-88249757D01*
X41107144Y-88606900D02*
X42250002Y-88606900D01*
X42892859Y-89106900D02*
X43035716Y-89178328D01*
X43035716Y-89178328D02*
X43321430Y-89178328D01*
X43321430Y-89178328D02*
X43464287Y-89106900D01*
X43464287Y-89106900D02*
X43535716Y-88964042D01*
X43535716Y-88964042D02*
X43535716Y-88892614D01*
X43535716Y-88892614D02*
X43464287Y-88749757D01*
X43464287Y-88749757D02*
X43321430Y-88678328D01*
X43321430Y-88678328D02*
X43107145Y-88678328D01*
X43107145Y-88678328D02*
X42964287Y-88606900D01*
X42964287Y-88606900D02*
X42892859Y-88464042D01*
X42892859Y-88464042D02*
X42892859Y-88392614D01*
X42892859Y-88392614D02*
X42964287Y-88249757D01*
X42964287Y-88249757D02*
X43107145Y-88178328D01*
X43107145Y-88178328D02*
X43321430Y-88178328D01*
X43321430Y-88178328D02*
X43464287Y-88249757D01*
X44178573Y-88178328D02*
X44178573Y-89678328D01*
X44178573Y-88249757D02*
X44321431Y-88178328D01*
X44321431Y-88178328D02*
X44607145Y-88178328D01*
X44607145Y-88178328D02*
X44750002Y-88249757D01*
X44750002Y-88249757D02*
X44821431Y-88321185D01*
X44821431Y-88321185D02*
X44892859Y-88464042D01*
X44892859Y-88464042D02*
X44892859Y-88892614D01*
X44892859Y-88892614D02*
X44821431Y-89035471D01*
X44821431Y-89035471D02*
X44750002Y-89106900D01*
X44750002Y-89106900D02*
X44607145Y-89178328D01*
X44607145Y-89178328D02*
X44321431Y-89178328D01*
X44321431Y-89178328D02*
X44178573Y-89106900D01*
X46178574Y-89178328D02*
X46178574Y-88392614D01*
X46178574Y-88392614D02*
X46107145Y-88249757D01*
X46107145Y-88249757D02*
X45964288Y-88178328D01*
X45964288Y-88178328D02*
X45678574Y-88178328D01*
X45678574Y-88178328D02*
X45535716Y-88249757D01*
X46178574Y-89106900D02*
X46035716Y-89178328D01*
X46035716Y-89178328D02*
X45678574Y-89178328D01*
X45678574Y-89178328D02*
X45535716Y-89106900D01*
X45535716Y-89106900D02*
X45464288Y-88964042D01*
X45464288Y-88964042D02*
X45464288Y-88821185D01*
X45464288Y-88821185D02*
X45535716Y-88678328D01*
X45535716Y-88678328D02*
X45678574Y-88606900D01*
X45678574Y-88606900D02*
X46035716Y-88606900D01*
X46035716Y-88606900D02*
X46178574Y-88535471D01*
X47535717Y-89106900D02*
X47392859Y-89178328D01*
X47392859Y-89178328D02*
X47107145Y-89178328D01*
X47107145Y-89178328D02*
X46964288Y-89106900D01*
X46964288Y-89106900D02*
X46892859Y-89035471D01*
X46892859Y-89035471D02*
X46821431Y-88892614D01*
X46821431Y-88892614D02*
X46821431Y-88464042D01*
X46821431Y-88464042D02*
X46892859Y-88321185D01*
X46892859Y-88321185D02*
X46964288Y-88249757D01*
X46964288Y-88249757D02*
X47107145Y-88178328D01*
X47107145Y-88178328D02*
X47392859Y-88178328D01*
X47392859Y-88178328D02*
X47535717Y-88249757D01*
X48750002Y-89106900D02*
X48607145Y-89178328D01*
X48607145Y-89178328D02*
X48321431Y-89178328D01*
X48321431Y-89178328D02*
X48178573Y-89106900D01*
X48178573Y-89106900D02*
X48107145Y-88964042D01*
X48107145Y-88964042D02*
X48107145Y-88392614D01*
X48107145Y-88392614D02*
X48178573Y-88249757D01*
X48178573Y-88249757D02*
X48321431Y-88178328D01*
X48321431Y-88178328D02*
X48607145Y-88178328D01*
X48607145Y-88178328D02*
X48750002Y-88249757D01*
X48750002Y-88249757D02*
X48821431Y-88392614D01*
X48821431Y-88392614D02*
X48821431Y-88535471D01*
X48821431Y-88535471D02*
X48107145Y-88678328D01*
X50535716Y-87606900D02*
X49250002Y-89535471D01*
X50892859Y-88178328D02*
X51250002Y-89178328D01*
X51250002Y-89178328D02*
X51607145Y-88178328D01*
X52821431Y-89178328D02*
X52821431Y-88392614D01*
X52821431Y-88392614D02*
X52750002Y-88249757D01*
X52750002Y-88249757D02*
X52607145Y-88178328D01*
X52607145Y-88178328D02*
X52321431Y-88178328D01*
X52321431Y-88178328D02*
X52178573Y-88249757D01*
X52821431Y-89106900D02*
X52678573Y-89178328D01*
X52678573Y-89178328D02*
X52321431Y-89178328D01*
X52321431Y-89178328D02*
X52178573Y-89106900D01*
X52178573Y-89106900D02*
X52107145Y-88964042D01*
X52107145Y-88964042D02*
X52107145Y-88821185D01*
X52107145Y-88821185D02*
X52178573Y-88678328D01*
X52178573Y-88678328D02*
X52321431Y-88606900D01*
X52321431Y-88606900D02*
X52678573Y-88606900D01*
X52678573Y-88606900D02*
X52821431Y-88535471D01*
X53535716Y-88178328D02*
X53535716Y-89678328D01*
X53535716Y-88249757D02*
X53678574Y-88178328D01*
X53678574Y-88178328D02*
X53964288Y-88178328D01*
X53964288Y-88178328D02*
X54107145Y-88249757D01*
X54107145Y-88249757D02*
X54178574Y-88321185D01*
X54178574Y-88321185D02*
X54250002Y-88464042D01*
X54250002Y-88464042D02*
X54250002Y-88892614D01*
X54250002Y-88892614D02*
X54178574Y-89035471D01*
X54178574Y-89035471D02*
X54107145Y-89106900D01*
X54107145Y-89106900D02*
X53964288Y-89178328D01*
X53964288Y-89178328D02*
X53678574Y-89178328D01*
X53678574Y-89178328D02*
X53535716Y-89106900D01*
X55464288Y-89106900D02*
X55321431Y-89178328D01*
X55321431Y-89178328D02*
X55035717Y-89178328D01*
X55035717Y-89178328D02*
X54892859Y-89106900D01*
X54892859Y-89106900D02*
X54821431Y-88964042D01*
X54821431Y-88964042D02*
X54821431Y-88392614D01*
X54821431Y-88392614D02*
X54892859Y-88249757D01*
X54892859Y-88249757D02*
X55035717Y-88178328D01*
X55035717Y-88178328D02*
X55321431Y-88178328D01*
X55321431Y-88178328D02*
X55464288Y-88249757D01*
X55464288Y-88249757D02*
X55535717Y-88392614D01*
X55535717Y-88392614D02*
X55535717Y-88535471D01*
X55535717Y-88535471D02*
X54821431Y-88678328D01*
X56178573Y-88606900D02*
X57321431Y-88606900D01*
X58250002Y-89178328D02*
X58107145Y-89106900D01*
X58107145Y-89106900D02*
X58035716Y-88964042D01*
X58035716Y-88964042D02*
X58035716Y-87678328D01*
X58821430Y-89178328D02*
X58821430Y-88178328D01*
X58821430Y-87678328D02*
X58750002Y-87749757D01*
X58750002Y-87749757D02*
X58821430Y-87821185D01*
X58821430Y-87821185D02*
X58892859Y-87749757D01*
X58892859Y-87749757D02*
X58821430Y-87678328D01*
X58821430Y-87678328D02*
X58821430Y-87821185D01*
X60178574Y-88178328D02*
X60178574Y-89392614D01*
X60178574Y-89392614D02*
X60107145Y-89535471D01*
X60107145Y-89535471D02*
X60035716Y-89606900D01*
X60035716Y-89606900D02*
X59892859Y-89678328D01*
X59892859Y-89678328D02*
X59678574Y-89678328D01*
X59678574Y-89678328D02*
X59535716Y-89606900D01*
X60178574Y-89106900D02*
X60035716Y-89178328D01*
X60035716Y-89178328D02*
X59750002Y-89178328D01*
X59750002Y-89178328D02*
X59607145Y-89106900D01*
X59607145Y-89106900D02*
X59535716Y-89035471D01*
X59535716Y-89035471D02*
X59464288Y-88892614D01*
X59464288Y-88892614D02*
X59464288Y-88464042D01*
X59464288Y-88464042D02*
X59535716Y-88321185D01*
X59535716Y-88321185D02*
X59607145Y-88249757D01*
X59607145Y-88249757D02*
X59750002Y-88178328D01*
X59750002Y-88178328D02*
X60035716Y-88178328D01*
X60035716Y-88178328D02*
X60178574Y-88249757D01*
X60892859Y-89178328D02*
X60892859Y-87678328D01*
X61535717Y-89178328D02*
X61535717Y-88392614D01*
X61535717Y-88392614D02*
X61464288Y-88249757D01*
X61464288Y-88249757D02*
X61321431Y-88178328D01*
X61321431Y-88178328D02*
X61107145Y-88178328D01*
X61107145Y-88178328D02*
X60964288Y-88249757D01*
X60964288Y-88249757D02*
X60892859Y-88321185D01*
X62035717Y-88178328D02*
X62607145Y-88178328D01*
X62250002Y-87678328D02*
X62250002Y-88964042D01*
X62250002Y-88964042D02*
X62321431Y-89106900D01*
X62321431Y-89106900D02*
X62464288Y-89178328D01*
X62464288Y-89178328D02*
X62607145Y-89178328D01*
D11*
X19357141Y-45356819D02*
X20023808Y-45356819D01*
X20309522Y-46404438D02*
X19357141Y-46404438D01*
X19357141Y-46404438D02*
X19357141Y-44404438D01*
X19357141Y-44404438D02*
X20309522Y-44404438D01*
X21071427Y-46309200D02*
X21357141Y-46404438D01*
X21357141Y-46404438D02*
X21833332Y-46404438D01*
X21833332Y-46404438D02*
X22023808Y-46309200D01*
X22023808Y-46309200D02*
X22119046Y-46213961D01*
X22119046Y-46213961D02*
X22214284Y-46023485D01*
X22214284Y-46023485D02*
X22214284Y-45833009D01*
X22214284Y-45833009D02*
X22119046Y-45642533D01*
X22119046Y-45642533D02*
X22023808Y-45547295D01*
X22023808Y-45547295D02*
X21833332Y-45452057D01*
X21833332Y-45452057D02*
X21452379Y-45356819D01*
X21452379Y-45356819D02*
X21261903Y-45261580D01*
X21261903Y-45261580D02*
X21166665Y-45166342D01*
X21166665Y-45166342D02*
X21071427Y-44975866D01*
X21071427Y-44975866D02*
X21071427Y-44785390D01*
X21071427Y-44785390D02*
X21166665Y-44594914D01*
X21166665Y-44594914D02*
X21261903Y-44499676D01*
X21261903Y-44499676D02*
X21452379Y-44404438D01*
X21452379Y-44404438D02*
X21928570Y-44404438D01*
X21928570Y-44404438D02*
X22214284Y-44499676D01*
X24595237Y-46404438D02*
X24595237Y-44404438D01*
X25452380Y-46309200D02*
X25738094Y-46404438D01*
X25738094Y-46404438D02*
X26214285Y-46404438D01*
X26214285Y-46404438D02*
X26404761Y-46309200D01*
X26404761Y-46309200D02*
X26499999Y-46213961D01*
X26499999Y-46213961D02*
X26595237Y-46023485D01*
X26595237Y-46023485D02*
X26595237Y-45833009D01*
X26595237Y-45833009D02*
X26499999Y-45642533D01*
X26499999Y-45642533D02*
X26404761Y-45547295D01*
X26404761Y-45547295D02*
X26214285Y-45452057D01*
X26214285Y-45452057D02*
X25833332Y-45356819D01*
X25833332Y-45356819D02*
X25642856Y-45261580D01*
X25642856Y-45261580D02*
X25547618Y-45166342D01*
X25547618Y-45166342D02*
X25452380Y-44975866D01*
X25452380Y-44975866D02*
X25452380Y-44785390D01*
X25452380Y-44785390D02*
X25547618Y-44594914D01*
X25547618Y-44594914D02*
X25642856Y-44499676D01*
X25642856Y-44499676D02*
X25833332Y-44404438D01*
X25833332Y-44404438D02*
X26309523Y-44404438D01*
X26309523Y-44404438D02*
X26595237Y-44499676D01*
X27166666Y-44404438D02*
X28309523Y-44404438D01*
X27738094Y-46404438D02*
X27738094Y-44404438D01*
X31166667Y-45356819D02*
X30500000Y-45356819D01*
X30500000Y-46404438D02*
X30500000Y-44404438D01*
X30500000Y-44404438D02*
X31452381Y-44404438D01*
X32214286Y-44404438D02*
X32214286Y-46023485D01*
X32214286Y-46023485D02*
X32309524Y-46213961D01*
X32309524Y-46213961D02*
X32404762Y-46309200D01*
X32404762Y-46309200D02*
X32595238Y-46404438D01*
X32595238Y-46404438D02*
X32976191Y-46404438D01*
X32976191Y-46404438D02*
X33166667Y-46309200D01*
X33166667Y-46309200D02*
X33261905Y-46213961D01*
X33261905Y-46213961D02*
X33357143Y-46023485D01*
X33357143Y-46023485D02*
X33357143Y-44404438D01*
X32404762Y-43737771D02*
X32500000Y-43833009D01*
X32500000Y-43833009D02*
X32404762Y-43928247D01*
X32404762Y-43928247D02*
X32309524Y-43833009D01*
X32309524Y-43833009D02*
X32404762Y-43737771D01*
X32404762Y-43737771D02*
X32404762Y-43928247D01*
X33166667Y-43737771D02*
X33261905Y-43833009D01*
X33261905Y-43833009D02*
X33166667Y-43928247D01*
X33166667Y-43928247D02*
X33071429Y-43833009D01*
X33071429Y-43833009D02*
X33166667Y-43737771D01*
X33166667Y-43737771D02*
X33166667Y-43928247D01*
X34309524Y-46404438D02*
X34309524Y-44404438D01*
X34309524Y-44404438D02*
X35452381Y-46404438D01*
X35452381Y-46404438D02*
X35452381Y-44404438D01*
X37071429Y-45356819D02*
X36404762Y-45356819D01*
X36404762Y-46404438D02*
X36404762Y-44404438D01*
X36404762Y-44404438D02*
X37357143Y-44404438D01*
X39357144Y-44404438D02*
X40023810Y-46404438D01*
X40023810Y-46404438D02*
X40690477Y-44404438D01*
X41738096Y-44404438D02*
X42119049Y-44404438D01*
X42119049Y-44404438D02*
X42309525Y-44499676D01*
X42309525Y-44499676D02*
X42500001Y-44690152D01*
X42500001Y-44690152D02*
X42595239Y-45071104D01*
X42595239Y-45071104D02*
X42595239Y-45737771D01*
X42595239Y-45737771D02*
X42500001Y-46118723D01*
X42500001Y-46118723D02*
X42309525Y-46309200D01*
X42309525Y-46309200D02*
X42119049Y-46404438D01*
X42119049Y-46404438D02*
X41738096Y-46404438D01*
X41738096Y-46404438D02*
X41547620Y-46309200D01*
X41547620Y-46309200D02*
X41357144Y-46118723D01*
X41357144Y-46118723D02*
X41261906Y-45737771D01*
X41261906Y-45737771D02*
X41261906Y-45071104D01*
X41261906Y-45071104D02*
X41357144Y-44690152D01*
X41357144Y-44690152D02*
X41547620Y-44499676D01*
X41547620Y-44499676D02*
X41738096Y-44404438D01*
X44595239Y-46404438D02*
X43928572Y-45452057D01*
X43452382Y-46404438D02*
X43452382Y-44404438D01*
X43452382Y-44404438D02*
X44214287Y-44404438D01*
X44214287Y-44404438D02*
X44404763Y-44499676D01*
X44404763Y-44499676D02*
X44500001Y-44594914D01*
X44500001Y-44594914D02*
X44595239Y-44785390D01*
X44595239Y-44785390D02*
X44595239Y-45071104D01*
X44595239Y-45071104D02*
X44500001Y-45261580D01*
X44500001Y-45261580D02*
X44404763Y-45356819D01*
X44404763Y-45356819D02*
X44214287Y-45452057D01*
X44214287Y-45452057D02*
X43452382Y-45452057D01*
X46785716Y-44404438D02*
X48119049Y-44404438D01*
X48119049Y-44404438D02*
X46785716Y-46404438D01*
X46785716Y-46404438D02*
X48119049Y-46404438D01*
X48690478Y-44404438D02*
X49166668Y-46404438D01*
X49166668Y-46404438D02*
X49547621Y-44975866D01*
X49547621Y-44975866D02*
X49928573Y-46404438D01*
X49928573Y-46404438D02*
X50404764Y-44404438D01*
X51547620Y-44404438D02*
X51928573Y-44404438D01*
X51928573Y-44404438D02*
X52119049Y-44499676D01*
X52119049Y-44499676D02*
X52309525Y-44690152D01*
X52309525Y-44690152D02*
X52404763Y-45071104D01*
X52404763Y-45071104D02*
X52404763Y-45737771D01*
X52404763Y-45737771D02*
X52309525Y-46118723D01*
X52309525Y-46118723D02*
X52119049Y-46309200D01*
X52119049Y-46309200D02*
X51928573Y-46404438D01*
X51928573Y-46404438D02*
X51547620Y-46404438D01*
X51547620Y-46404438D02*
X51357144Y-46309200D01*
X51357144Y-46309200D02*
X51166668Y-46118723D01*
X51166668Y-46118723D02*
X51071430Y-45737771D01*
X51071430Y-45737771D02*
X51071430Y-45071104D01*
X51071430Y-45071104D02*
X51166668Y-44690152D01*
X51166668Y-44690152D02*
X51357144Y-44499676D01*
X51357144Y-44499676D02*
X51547620Y-44404438D01*
X51357144Y-43737771D02*
X51452382Y-43833009D01*
X51452382Y-43833009D02*
X51357144Y-43928247D01*
X51357144Y-43928247D02*
X51261906Y-43833009D01*
X51261906Y-43833009D02*
X51357144Y-43737771D01*
X51357144Y-43737771D02*
X51357144Y-43928247D01*
X52119049Y-43737771D02*
X52214287Y-43833009D01*
X52214287Y-43833009D02*
X52119049Y-43928247D01*
X52119049Y-43928247D02*
X52023811Y-43833009D01*
X52023811Y-43833009D02*
X52119049Y-43737771D01*
X52119049Y-43737771D02*
X52119049Y-43928247D01*
X54214287Y-46404438D02*
X53261906Y-46404438D01*
X53261906Y-46404438D02*
X53261906Y-44404438D01*
X55547621Y-45356819D02*
X54880954Y-45356819D01*
X54880954Y-46404438D02*
X54880954Y-44404438D01*
X54880954Y-44404438D02*
X55833335Y-44404438D01*
X12547616Y-3309200D02*
X12833330Y-3404438D01*
X12833330Y-3404438D02*
X13309521Y-3404438D01*
X13309521Y-3404438D02*
X13499997Y-3309200D01*
X13499997Y-3309200D02*
X13595235Y-3213961D01*
X13595235Y-3213961D02*
X13690473Y-3023485D01*
X13690473Y-3023485D02*
X13690473Y-2833009D01*
X13690473Y-2833009D02*
X13595235Y-2642533D01*
X13595235Y-2642533D02*
X13499997Y-2547295D01*
X13499997Y-2547295D02*
X13309521Y-2452057D01*
X13309521Y-2452057D02*
X12928568Y-2356819D01*
X12928568Y-2356819D02*
X12738092Y-2261580D01*
X12738092Y-2261580D02*
X12642854Y-2166342D01*
X12642854Y-2166342D02*
X12547616Y-1975866D01*
X12547616Y-1975866D02*
X12547616Y-1785390D01*
X12547616Y-1785390D02*
X12642854Y-1594914D01*
X12642854Y-1594914D02*
X12738092Y-1499676D01*
X12738092Y-1499676D02*
X12928568Y-1404438D01*
X12928568Y-1404438D02*
X13404759Y-1404438D01*
X13404759Y-1404438D02*
X13690473Y-1499676D01*
X15214283Y-2356819D02*
X15499997Y-2452057D01*
X15499997Y-2452057D02*
X15595235Y-2547295D01*
X15595235Y-2547295D02*
X15690473Y-2737771D01*
X15690473Y-2737771D02*
X15690473Y-3023485D01*
X15690473Y-3023485D02*
X15595235Y-3213961D01*
X15595235Y-3213961D02*
X15499997Y-3309200D01*
X15499997Y-3309200D02*
X15309521Y-3404438D01*
X15309521Y-3404438D02*
X14547616Y-3404438D01*
X14547616Y-3404438D02*
X14547616Y-1404438D01*
X14547616Y-1404438D02*
X15214283Y-1404438D01*
X15214283Y-1404438D02*
X15404759Y-1499676D01*
X15404759Y-1499676D02*
X15499997Y-1594914D01*
X15499997Y-1594914D02*
X15595235Y-1785390D01*
X15595235Y-1785390D02*
X15595235Y-1975866D01*
X15595235Y-1975866D02*
X15499997Y-2166342D01*
X15499997Y-2166342D02*
X15404759Y-2261580D01*
X15404759Y-2261580D02*
X15214283Y-2356819D01*
X15214283Y-2356819D02*
X14547616Y-2356819D01*
X16928568Y-2452057D02*
X16928568Y-3404438D01*
X16261902Y-1404438D02*
X16928568Y-2452057D01*
X16928568Y-2452057D02*
X17595235Y-1404438D01*
X18261902Y-3404438D02*
X18261902Y-1404438D01*
X18261902Y-1404438D02*
X18738092Y-1404438D01*
X18738092Y-1404438D02*
X19023807Y-1499676D01*
X19023807Y-1499676D02*
X19214283Y-1690152D01*
X19214283Y-1690152D02*
X19309521Y-1880628D01*
X19309521Y-1880628D02*
X19404759Y-2261580D01*
X19404759Y-2261580D02*
X19404759Y-2547295D01*
X19404759Y-2547295D02*
X19309521Y-2928247D01*
X19309521Y-2928247D02*
X19214283Y-3118723D01*
X19214283Y-3118723D02*
X19023807Y-3309200D01*
X19023807Y-3309200D02*
X18738092Y-3404438D01*
X18738092Y-3404438D02*
X18261902Y-3404438D01*
X21499998Y-1404438D02*
X22166664Y-3404438D01*
X22166664Y-3404438D02*
X22833331Y-1404438D01*
X23404760Y-2833009D02*
X24357141Y-2833009D01*
X23214284Y-3404438D02*
X23880950Y-1404438D01*
X23880950Y-1404438D02*
X24547617Y-3404438D01*
X25214284Y-3404438D02*
X25214284Y-1404438D01*
X25214284Y-1404438D02*
X25976189Y-1404438D01*
X25976189Y-1404438D02*
X26166665Y-1499676D01*
X26166665Y-1499676D02*
X26261903Y-1594914D01*
X26261903Y-1594914D02*
X26357141Y-1785390D01*
X26357141Y-1785390D02*
X26357141Y-2071104D01*
X26357141Y-2071104D02*
X26261903Y-2261580D01*
X26261903Y-2261580D02*
X26166665Y-2356819D01*
X26166665Y-2356819D02*
X25976189Y-2452057D01*
X25976189Y-2452057D02*
X25214284Y-2452057D01*
X27214284Y-2356819D02*
X27880951Y-2356819D01*
X28166665Y-3404438D02*
X27214284Y-3404438D01*
X27214284Y-3404438D02*
X27214284Y-1404438D01*
X27214284Y-1404438D02*
X28166665Y-1404438D01*
X31499999Y-3404438D02*
X30547618Y-3404438D01*
X30547618Y-3404438D02*
X30547618Y-1404438D01*
X32166666Y-3404438D02*
X32166666Y-1404438D01*
X34166666Y-1499676D02*
X33976190Y-1404438D01*
X33976190Y-1404438D02*
X33690476Y-1404438D01*
X33690476Y-1404438D02*
X33404761Y-1499676D01*
X33404761Y-1499676D02*
X33214285Y-1690152D01*
X33214285Y-1690152D02*
X33119047Y-1880628D01*
X33119047Y-1880628D02*
X33023809Y-2261580D01*
X33023809Y-2261580D02*
X33023809Y-2547295D01*
X33023809Y-2547295D02*
X33119047Y-2928247D01*
X33119047Y-2928247D02*
X33214285Y-3118723D01*
X33214285Y-3118723D02*
X33404761Y-3309200D01*
X33404761Y-3309200D02*
X33690476Y-3404438D01*
X33690476Y-3404438D02*
X33880952Y-3404438D01*
X33880952Y-3404438D02*
X34166666Y-3309200D01*
X34166666Y-3309200D02*
X34261904Y-3213961D01*
X34261904Y-3213961D02*
X34261904Y-2547295D01*
X34261904Y-2547295D02*
X33880952Y-2547295D01*
X35119047Y-3404438D02*
X35119047Y-1404438D01*
X35119047Y-2356819D02*
X36261904Y-2356819D01*
X36261904Y-3404438D02*
X36261904Y-1404438D01*
X36928571Y-1404438D02*
X38071428Y-1404438D01*
X37499999Y-3404438D02*
X37499999Y-1404438D01*
X41404762Y-3404438D02*
X40738095Y-2452057D01*
X40261905Y-3404438D02*
X40261905Y-1404438D01*
X40261905Y-1404438D02*
X41023810Y-1404438D01*
X41023810Y-1404438D02*
X41214286Y-1499676D01*
X41214286Y-1499676D02*
X41309524Y-1594914D01*
X41309524Y-1594914D02*
X41404762Y-1785390D01*
X41404762Y-1785390D02*
X41404762Y-2071104D01*
X41404762Y-2071104D02*
X41309524Y-2261580D01*
X41309524Y-2261580D02*
X41214286Y-2356819D01*
X41214286Y-2356819D02*
X41023810Y-2452057D01*
X41023810Y-2452057D02*
X40261905Y-2452057D01*
X43023810Y-3309200D02*
X42833334Y-3404438D01*
X42833334Y-3404438D02*
X42452381Y-3404438D01*
X42452381Y-3404438D02*
X42261905Y-3309200D01*
X42261905Y-3309200D02*
X42166667Y-3118723D01*
X42166667Y-3118723D02*
X42166667Y-2356819D01*
X42166667Y-2356819D02*
X42261905Y-2166342D01*
X42261905Y-2166342D02*
X42452381Y-2071104D01*
X42452381Y-2071104D02*
X42833334Y-2071104D01*
X42833334Y-2071104D02*
X43023810Y-2166342D01*
X43023810Y-2166342D02*
X43119048Y-2356819D01*
X43119048Y-2356819D02*
X43119048Y-2547295D01*
X43119048Y-2547295D02*
X42166667Y-2737771D01*
X43785715Y-2071104D02*
X44261905Y-3404438D01*
X44261905Y-3404438D02*
X44738096Y-2071104D01*
X45500001Y-3213961D02*
X45595239Y-3309200D01*
X45595239Y-3309200D02*
X45500001Y-3404438D01*
X45500001Y-3404438D02*
X45404763Y-3309200D01*
X45404763Y-3309200D02*
X45500001Y-3213961D01*
X45500001Y-3213961D02*
X45500001Y-3404438D01*
X46452382Y-2356819D02*
X47119049Y-2356819D01*
X47404763Y-3404438D02*
X46452382Y-3404438D01*
X46452382Y-3404438D02*
X46452382Y-1404438D01*
X46452382Y-1404438D02*
X47404763Y-1404438D01*
X50166668Y-1404438D02*
X50357145Y-1404438D01*
X50357145Y-1404438D02*
X50547621Y-1499676D01*
X50547621Y-1499676D02*
X50642859Y-1594914D01*
X50642859Y-1594914D02*
X50738097Y-1785390D01*
X50738097Y-1785390D02*
X50833335Y-2166342D01*
X50833335Y-2166342D02*
X50833335Y-2642533D01*
X50833335Y-2642533D02*
X50738097Y-3023485D01*
X50738097Y-3023485D02*
X50642859Y-3213961D01*
X50642859Y-3213961D02*
X50547621Y-3309200D01*
X50547621Y-3309200D02*
X50357145Y-3404438D01*
X50357145Y-3404438D02*
X50166668Y-3404438D01*
X50166668Y-3404438D02*
X49976192Y-3309200D01*
X49976192Y-3309200D02*
X49880954Y-3213961D01*
X49880954Y-3213961D02*
X49785716Y-3023485D01*
X49785716Y-3023485D02*
X49690478Y-2642533D01*
X49690478Y-2642533D02*
X49690478Y-2166342D01*
X49690478Y-2166342D02*
X49785716Y-1785390D01*
X49785716Y-1785390D02*
X49880954Y-1594914D01*
X49880954Y-1594914D02*
X49976192Y-1499676D01*
X49976192Y-1499676D02*
X50166668Y-1404438D01*
X51500002Y-1404438D02*
X52738097Y-1404438D01*
X52738097Y-1404438D02*
X52071430Y-2166342D01*
X52071430Y-2166342D02*
X52357145Y-2166342D01*
X52357145Y-2166342D02*
X52547621Y-2261580D01*
X52547621Y-2261580D02*
X52642859Y-2356819D01*
X52642859Y-2356819D02*
X52738097Y-2547295D01*
X52738097Y-2547295D02*
X52738097Y-3023485D01*
X52738097Y-3023485D02*
X52642859Y-3213961D01*
X52642859Y-3213961D02*
X52547621Y-3309200D01*
X52547621Y-3309200D02*
X52357145Y-3404438D01*
X52357145Y-3404438D02*
X51785716Y-3404438D01*
X51785716Y-3404438D02*
X51595240Y-3309200D01*
X51595240Y-3309200D02*
X51500002Y-3213961D01*
X55023811Y-1309200D02*
X53309526Y-3880628D01*
X55595240Y-1594914D02*
X55690478Y-1499676D01*
X55690478Y-1499676D02*
X55880954Y-1404438D01*
X55880954Y-1404438D02*
X56357145Y-1404438D01*
X56357145Y-1404438D02*
X56547621Y-1499676D01*
X56547621Y-1499676D02*
X56642859Y-1594914D01*
X56642859Y-1594914D02*
X56738097Y-1785390D01*
X56738097Y-1785390D02*
X56738097Y-1975866D01*
X56738097Y-1975866D02*
X56642859Y-2261580D01*
X56642859Y-2261580D02*
X55500002Y-3404438D01*
X55500002Y-3404438D02*
X56738097Y-3404438D01*
X57976192Y-1404438D02*
X58166669Y-1404438D01*
X58166669Y-1404438D02*
X58357145Y-1499676D01*
X58357145Y-1499676D02*
X58452383Y-1594914D01*
X58452383Y-1594914D02*
X58547621Y-1785390D01*
X58547621Y-1785390D02*
X58642859Y-2166342D01*
X58642859Y-2166342D02*
X58642859Y-2642533D01*
X58642859Y-2642533D02*
X58547621Y-3023485D01*
X58547621Y-3023485D02*
X58452383Y-3213961D01*
X58452383Y-3213961D02*
X58357145Y-3309200D01*
X58357145Y-3309200D02*
X58166669Y-3404438D01*
X58166669Y-3404438D02*
X57976192Y-3404438D01*
X57976192Y-3404438D02*
X57785716Y-3309200D01*
X57785716Y-3309200D02*
X57690478Y-3213961D01*
X57690478Y-3213961D02*
X57595240Y-3023485D01*
X57595240Y-3023485D02*
X57500002Y-2642533D01*
X57500002Y-2642533D02*
X57500002Y-2166342D01*
X57500002Y-2166342D02*
X57595240Y-1785390D01*
X57595240Y-1785390D02*
X57690478Y-1594914D01*
X57690478Y-1594914D02*
X57785716Y-1499676D01*
X57785716Y-1499676D02*
X57976192Y-1404438D01*
X59404764Y-1594914D02*
X59500002Y-1499676D01*
X59500002Y-1499676D02*
X59690478Y-1404438D01*
X59690478Y-1404438D02*
X60166669Y-1404438D01*
X60166669Y-1404438D02*
X60357145Y-1499676D01*
X60357145Y-1499676D02*
X60452383Y-1594914D01*
X60452383Y-1594914D02*
X60547621Y-1785390D01*
X60547621Y-1785390D02*
X60547621Y-1975866D01*
X60547621Y-1975866D02*
X60452383Y-2261580D01*
X60452383Y-2261580D02*
X59309526Y-3404438D01*
X59309526Y-3404438D02*
X60547621Y-3404438D01*
X62357145Y-1404438D02*
X61404764Y-1404438D01*
X61404764Y-1404438D02*
X61309526Y-2356819D01*
X61309526Y-2356819D02*
X61404764Y-2261580D01*
X61404764Y-2261580D02*
X61595240Y-2166342D01*
X61595240Y-2166342D02*
X62071431Y-2166342D01*
X62071431Y-2166342D02*
X62261907Y-2261580D01*
X62261907Y-2261580D02*
X62357145Y-2356819D01*
X62357145Y-2356819D02*
X62452383Y-2547295D01*
X62452383Y-2547295D02*
X62452383Y-3023485D01*
X62452383Y-3023485D02*
X62357145Y-3213961D01*
X62357145Y-3213961D02*
X62261907Y-3309200D01*
X62261907Y-3309200D02*
X62071431Y-3404438D01*
X62071431Y-3404438D02*
X61595240Y-3404438D01*
X61595240Y-3404438D02*
X61404764Y-3309200D01*
X61404764Y-3309200D02*
X61309526Y-3213961D01*
D12*
G04 #@! TO.C,1-C5*
X50515580Y-30990000D02*
X50234420Y-30990000D01*
X50515580Y-32010000D02*
X50234420Y-32010000D01*
G04 #@! TO.C,3-SW1*
X22625000Y-75200000D02*
X22625000Y-77800000D01*
X23075000Y-74750000D02*
X22625000Y-75200000D01*
X23075000Y-78250000D02*
X22625000Y-77800000D01*
X26375000Y-73750000D02*
X24375000Y-73750000D01*
X26375000Y-79250000D02*
X24375000Y-79250000D01*
X27675000Y-74750000D02*
X28125000Y-75200000D01*
X27675000Y-78250000D02*
X28125000Y-77800000D01*
X28125000Y-75200000D02*
X28125000Y-77800000D01*
G04 #@! TO.C,3-R7*
X44602500Y-81937258D02*
X44602500Y-81462742D01*
X45647500Y-81937258D02*
X45647500Y-81462742D01*
G04 #@! TO.C,3-C6*
X42865000Y-78640580D02*
X42865000Y-78359420D01*
X43885000Y-78640580D02*
X43885000Y-78359420D01*
G04 #@! TO.C,2-R4*
X53937742Y-57727500D02*
X54412258Y-57727500D01*
X53937742Y-58772500D02*
X54412258Y-58772500D01*
G04 #@! TO.C,2-C7*
X46515580Y-55990000D02*
X46234420Y-55990000D01*
X46515580Y-57010000D02*
X46234420Y-57010000D01*
G04 #@! TO.C,1-JP4*
X60875000Y-34850000D02*
X60875000Y-32050000D01*
X61575000Y-31400000D02*
X62175000Y-31400000D01*
X62175000Y-35500000D02*
X61575000Y-35500000D01*
X62875000Y-32050000D02*
X62875000Y-34850000D01*
X63075000Y-34650000D02*
X63375000Y-34350000D01*
X63075000Y-34650000D02*
X63375000Y-34950000D01*
X63375000Y-34950000D02*
X63375000Y-34350000D01*
X60875000Y-32100000D02*
G75*
G02*
X61575000Y-31400000I700000J0D01*
G01*
X61575000Y-35500000D02*
G75*
G02*
X60875000Y-34800000I-1J699999D01*
G01*
X62175000Y-31400000D02*
G75*
G02*
X62875000Y-32100000I0J-700000D01*
G01*
X62875000Y-34800000D02*
G75*
G02*
X62175000Y-35500000I-699999J-1D01*
G01*
G04 #@! TO.C,0-C4*
X48115000Y-19559420D02*
X48115000Y-19840580D01*
X49135000Y-19559420D02*
X49135000Y-19840580D01*
G04 #@! TO.C,1-JP1*
X60875000Y-29900000D02*
X60875000Y-27100000D01*
X61575000Y-26450000D02*
X62175000Y-26450000D01*
X62175000Y-30550000D02*
X61575000Y-30550000D01*
X62875000Y-27100000D02*
X62875000Y-29900000D01*
X63075000Y-29700000D02*
X63375000Y-29400000D01*
X63075000Y-29700000D02*
X63375000Y-30000000D01*
X63375000Y-30000000D02*
X63375000Y-29400000D01*
X60875000Y-27150000D02*
G75*
G02*
X61575000Y-26450000I700000J0D01*
G01*
X61575000Y-30550000D02*
G75*
G02*
X60875000Y-29850000I-1J699999D01*
G01*
X62175000Y-26450000D02*
G75*
G02*
X62875000Y-27150000I0J-700000D01*
G01*
X62875000Y-29850000D02*
G75*
G02*
X62175000Y-30550000I-699999J-1D01*
G01*
G04 #@! TO.C,1-C2*
X37365000Y-36859420D02*
X37365000Y-37140580D01*
X38385000Y-36859420D02*
X38385000Y-37140580D01*
G04 #@! TO.C,2-R9*
X42852500Y-57737258D02*
X42852500Y-57262742D01*
X43897500Y-57737258D02*
X43897500Y-57262742D01*
G04 #@! TO.C,3-D2*
X24575000Y-81735000D02*
X26860000Y-81735000D01*
X26860000Y-80265000D02*
X24575000Y-80265000D01*
X26860000Y-81735000D02*
X26860000Y-80265000D01*
G04 #@! TO.C,0-C5*
X50515580Y-12990000D02*
X50234420Y-12990000D01*
X50515580Y-14010000D02*
X50234420Y-14010000D01*
G04 #@! TO.C,2-C3*
X46234420Y-59690000D02*
X46515580Y-59690000D01*
X46234420Y-60710000D02*
X46515580Y-60710000D01*
G04 #@! TO.C,0-J2*
X66126000Y-9250000D02*
G75*
G02*
X63624000Y-9250000I-1251000J0D01*
G01*
X63624000Y-9250000D02*
G75*
G02*
X66126000Y-9250000I1251000J0D01*
G01*
G04 #@! TO.C,2-J3*
X66126000Y-56750000D02*
G75*
G02*
X63624000Y-56750000I-1251000J0D01*
G01*
X63624000Y-56750000D02*
G75*
G02*
X66126000Y-56750000I1251000J0D01*
G01*
G04 #@! TO.C,1-SW1*
X22625000Y-31200000D02*
X22625000Y-33800000D01*
X23075000Y-30750000D02*
X22625000Y-31200000D01*
X23075000Y-34250000D02*
X22625000Y-33800000D01*
X26375000Y-29750000D02*
X24375000Y-29750000D01*
X26375000Y-35250000D02*
X24375000Y-35250000D01*
X27675000Y-30750000D02*
X28125000Y-31200000D01*
X27675000Y-34250000D02*
X28125000Y-33800000D01*
X28125000Y-31200000D02*
X28125000Y-33800000D01*
G04 #@! TO.C,0-D4*
X44765000Y-13400000D02*
X44765000Y-15100000D01*
X44765000Y-13400000D02*
X47425000Y-13400000D01*
X44765000Y-15100000D02*
X47425000Y-15100000D01*
G04 #@! TO.C,3-J4*
X66126000Y-78250000D02*
G75*
G02*
X63624000Y-78250000I-1251000J0D01*
G01*
X63624000Y-78250000D02*
G75*
G02*
X66126000Y-78250000I1251000J0D01*
G01*
G04 #@! TO.C,2-D5*
X49525000Y-65360000D02*
X49525000Y-62700000D01*
X49525000Y-65360000D02*
X51225000Y-65360000D01*
X51225000Y-65360000D02*
X51225000Y-62700000D01*
G04 #@! TO.C,3-J5*
X66126000Y-81750000D02*
G75*
G02*
X63624000Y-81750000I-1251000J0D01*
G01*
X63624000Y-81750000D02*
G75*
G02*
X66126000Y-81750000I1251000J0D01*
G01*
G04 #@! TO.C,3-R8*
X46352500Y-81937258D02*
X46352500Y-81462742D01*
X47397500Y-81937258D02*
X47397500Y-81462742D01*
D13*
G04 #@! TO.C,3-L2*
X51075000Y-71350000D02*
X49675000Y-71350000D01*
X51075000Y-74150000D02*
X49675000Y-74150000D01*
D12*
G04 #@! TO.C,0-D2*
X24575000Y-19735000D02*
X26860000Y-19735000D01*
X26860000Y-18265000D02*
X24575000Y-18265000D01*
X26860000Y-19735000D02*
X26860000Y-18265000D01*
G04 #@! TO.C,2-D4*
X44765000Y-57400000D02*
X44765000Y-59100000D01*
X44765000Y-57400000D02*
X47425000Y-57400000D01*
X44765000Y-59100000D02*
X47425000Y-59100000D01*
G04 #@! TO.C,1-R7*
X44602500Y-37937258D02*
X44602500Y-37462742D01*
X45647500Y-37937258D02*
X45647500Y-37462742D01*
G04 #@! TO.C,3-U5*
X41512500Y-70440000D02*
X40712500Y-70440000D01*
X41512500Y-70440000D02*
X42312500Y-70440000D01*
X41512500Y-73560000D02*
X40712500Y-73560000D01*
X41512500Y-73560000D02*
X42312500Y-73560000D01*
X43052500Y-73840000D02*
X42572500Y-73840000D01*
X42812500Y-73510000D01*
X43052500Y-73840000D01*
G36*
X43052500Y-73840000D02*
G01*
X42572500Y-73840000D01*
X42812500Y-73510000D01*
X43052500Y-73840000D01*
G37*
D13*
G04 #@! TO.C,3-L1*
X60075000Y-80100000D02*
X58675000Y-80100000D01*
X60075000Y-82900000D02*
X58675000Y-82900000D01*
D12*
G04 #@! TO.C,3-J2*
X66126000Y-71250000D02*
G75*
G02*
X63624000Y-71250000I-1251000J0D01*
G01*
X63624000Y-71250000D02*
G75*
G02*
X66126000Y-71250000I1251000J0D01*
G01*
G04 #@! TO.C,1-R8*
X46352500Y-37937258D02*
X46352500Y-37462742D01*
X47397500Y-37937258D02*
X47397500Y-37462742D01*
G04 #@! TO.C,3-R5*
X37852500Y-72237258D02*
X37852500Y-71762742D01*
X38897500Y-72237258D02*
X38897500Y-71762742D01*
G04 #@! TO.C,2-R8*
X46352500Y-63937258D02*
X46352500Y-63462742D01*
X47397500Y-63937258D02*
X47397500Y-63462742D01*
G04 #@! TO.C,2-R7*
X44602500Y-63937258D02*
X44602500Y-63462742D01*
X45647500Y-63937258D02*
X45647500Y-63462742D01*
G04 #@! TO.C,3-Q1*
X57065000Y-72750000D02*
X57065000Y-71950000D01*
X57065000Y-72750000D02*
X57065000Y-73550000D01*
X60185000Y-72750000D02*
X60185000Y-71950000D01*
X60185000Y-72750000D02*
X60185000Y-73550000D01*
X57115000Y-74050000D02*
X56785000Y-74290000D01*
X56785000Y-73810000D01*
X57115000Y-74050000D01*
G36*
X57115000Y-74050000D02*
G01*
X56785000Y-74290000D01*
X56785000Y-73810000D01*
X57115000Y-74050000D01*
G37*
G04 #@! TO.C,3-R11*
X59352500Y-77487258D02*
X59352500Y-77012742D01*
X60397500Y-77487258D02*
X60397500Y-77012742D01*
G04 #@! TO.C,0-U1*
X52815000Y-10750000D02*
X52815000Y-9950000D01*
X52815000Y-10750000D02*
X52815000Y-11550000D01*
X55935000Y-10750000D02*
X55935000Y-9950000D01*
X55935000Y-10750000D02*
X55935000Y-11550000D01*
X56215000Y-9690000D02*
X55885000Y-9450000D01*
X56215000Y-9210000D01*
X56215000Y-9690000D01*
G36*
X56215000Y-9690000D02*
G01*
X55885000Y-9450000D01*
X56215000Y-9210000D01*
X56215000Y-9690000D01*
G37*
G04 #@! TO.C,1-J5*
X66126000Y-37750000D02*
G75*
G02*
X63624000Y-37750000I-1251000J0D01*
G01*
X63624000Y-37750000D02*
G75*
G02*
X66126000Y-37750000I1251000J0D01*
G01*
G04 #@! TO.C,3-C1*
X57234420Y-75740000D02*
X57515580Y-75740000D01*
X57234420Y-76760000D02*
X57515580Y-76760000D01*
G04 #@! TO.C,2-C5*
X50515580Y-56990000D02*
X50234420Y-56990000D01*
X50515580Y-58010000D02*
X50234420Y-58010000D01*
G04 #@! TO.C,0-U2*
X39065000Y-19000000D02*
X39065000Y-18200000D01*
X39065000Y-19000000D02*
X39065000Y-19800000D01*
X42185000Y-19000000D02*
X42185000Y-18200000D01*
X42185000Y-19000000D02*
X42185000Y-19800000D01*
X42465000Y-17940000D02*
X42135000Y-17700000D01*
X42465000Y-17460000D01*
X42465000Y-17940000D01*
G36*
X42465000Y-17940000D02*
G01*
X42135000Y-17700000D01*
X42465000Y-17460000D01*
X42465000Y-17940000D01*
G37*
G04 #@! TO.C,0-R10*
X61852500Y-19262742D02*
X61852500Y-19737258D01*
X62897500Y-19262742D02*
X62897500Y-19737258D01*
G04 #@! TO.C,3-J3*
X66126000Y-74750000D02*
G75*
G02*
X63624000Y-74750000I-1251000J0D01*
G01*
X63624000Y-74750000D02*
G75*
G02*
X66126000Y-74750000I1251000J0D01*
G01*
G04 #@! TO.C,0-J4*
X66126000Y-16250000D02*
G75*
G02*
X63624000Y-16250000I-1251000J0D01*
G01*
X63624000Y-16250000D02*
G75*
G02*
X66126000Y-16250000I1251000J0D01*
G01*
G04 #@! TO.C,3-R6*
X57612258Y-77477500D02*
X57137742Y-77477500D01*
X57612258Y-78522500D02*
X57137742Y-78522500D01*
G04 #@! TO.C,2-R1*
X37352500Y-58512258D02*
X37352500Y-58037742D01*
X38397500Y-58512258D02*
X38397500Y-58037742D01*
G04 #@! TO.C,1-R3*
X54412258Y-33477500D02*
X53937742Y-33477500D01*
X54412258Y-34522500D02*
X53937742Y-34522500D01*
G04 #@! TO.C,1-R5*
X37852500Y-28237258D02*
X37852500Y-27762742D01*
X38897500Y-28237258D02*
X38897500Y-27762742D01*
G04 #@! TO.C,1-R1*
X37352500Y-32512258D02*
X37352500Y-32037742D01*
X38397500Y-32512258D02*
X38397500Y-32037742D01*
G04 #@! TO.C,1-D4*
X44765000Y-31400000D02*
X44765000Y-33100000D01*
X44765000Y-31400000D02*
X47425000Y-31400000D01*
X44765000Y-33100000D02*
X47425000Y-33100000D01*
G04 #@! TO.C,0-Q1*
X57065000Y-10750000D02*
X57065000Y-9950000D01*
X57065000Y-10750000D02*
X57065000Y-11550000D01*
X60185000Y-10750000D02*
X60185000Y-9950000D01*
X60185000Y-10750000D02*
X60185000Y-11550000D01*
X57115000Y-12050000D02*
X56785000Y-12290000D01*
X56785000Y-11810000D01*
X57115000Y-12050000D01*
G36*
X57115000Y-12050000D02*
G01*
X56785000Y-12290000D01*
X56785000Y-11810000D01*
X57115000Y-12050000D01*
G37*
G04 #@! TO.C,0-U7*
X39065000Y-14200000D02*
X39065000Y-13400000D01*
X39065000Y-14200000D02*
X39065000Y-15000000D01*
X42185000Y-14200000D02*
X42185000Y-13400000D01*
X42185000Y-14200000D02*
X42185000Y-15000000D01*
X39115000Y-15500000D02*
X38785000Y-15740000D01*
X38785000Y-15260000D01*
X39115000Y-15500000D01*
G36*
X39115000Y-15500000D02*
G01*
X38785000Y-15740000D01*
X38785000Y-15260000D01*
X39115000Y-15500000D01*
G37*
D13*
G04 #@! TO.C,0-L2*
X51075000Y-9350000D02*
X49675000Y-9350000D01*
X51075000Y-12150000D02*
X49675000Y-12150000D01*
D12*
G04 #@! TO.C,2-U6*
X53965000Y-63262500D02*
X53965000Y-62462500D01*
X53965000Y-63262500D02*
X53965000Y-64062500D01*
X57085000Y-63262500D02*
X57085000Y-62462500D01*
X57085000Y-63262500D02*
X57085000Y-64062500D01*
X54015000Y-64562500D02*
X53685000Y-64802500D01*
X53685000Y-64322500D01*
X54015000Y-64562500D01*
G36*
X54015000Y-64562500D02*
G01*
X53685000Y-64802500D01*
X53685000Y-64322500D01*
X54015000Y-64562500D01*
G37*
G04 #@! TO.C,0-R2*
X42852500Y-19912258D02*
X42852500Y-19437742D01*
X43897500Y-19912258D02*
X43897500Y-19437742D01*
G04 #@! TO.C,1-R4*
X53937742Y-31727500D02*
X54412258Y-31727500D01*
X53937742Y-32772500D02*
X54412258Y-32772500D01*
G04 #@! TO.C,0-R4*
X53937742Y-13727500D02*
X54412258Y-13727500D01*
X53937742Y-14772500D02*
X54412258Y-14772500D01*
G04 #@! TO.C,0-R1*
X37352500Y-14512258D02*
X37352500Y-14037742D01*
X38397500Y-14512258D02*
X38397500Y-14037742D01*
G04 #@! TO.C,1-U1*
X52815000Y-28750000D02*
X52815000Y-27950000D01*
X52815000Y-28750000D02*
X52815000Y-29550000D01*
X55935000Y-28750000D02*
X55935000Y-27950000D01*
X55935000Y-28750000D02*
X55935000Y-29550000D01*
X56215000Y-27690000D02*
X55885000Y-27450000D01*
X56215000Y-27210000D01*
X56215000Y-27690000D01*
G36*
X56215000Y-27690000D02*
G01*
X55885000Y-27450000D01*
X56215000Y-27210000D01*
X56215000Y-27690000D01*
G37*
G04 #@! TO.C,1-C4*
X48115000Y-37559420D02*
X48115000Y-37840580D01*
X49135000Y-37559420D02*
X49135000Y-37840580D01*
G04 #@! TO.C,1-D5*
X49525000Y-39360000D02*
X49525000Y-36700000D01*
X49525000Y-39360000D02*
X51225000Y-39360000D01*
X51225000Y-39360000D02*
X51225000Y-36700000D01*
G04 #@! TO.C,2-Q1*
X57065000Y-54750000D02*
X57065000Y-53950000D01*
X57065000Y-54750000D02*
X57065000Y-55550000D01*
X60185000Y-54750000D02*
X60185000Y-53950000D01*
X60185000Y-54750000D02*
X60185000Y-55550000D01*
X57115000Y-56050000D02*
X56785000Y-56290000D01*
X56785000Y-55810000D01*
X57115000Y-56050000D01*
G36*
X57115000Y-56050000D02*
G01*
X56785000Y-56290000D01*
X56785000Y-55810000D01*
X57115000Y-56050000D01*
G37*
G04 #@! TO.C,3-U1*
X52815000Y-72750000D02*
X52815000Y-71950000D01*
X52815000Y-72750000D02*
X52815000Y-73550000D01*
X55935000Y-72750000D02*
X55935000Y-71950000D01*
X55935000Y-72750000D02*
X55935000Y-73550000D01*
X56215000Y-71690000D02*
X55885000Y-71450000D01*
X56215000Y-71210000D01*
X56215000Y-71690000D01*
G36*
X56215000Y-71690000D02*
G01*
X55885000Y-71450000D01*
X56215000Y-71210000D01*
X56215000Y-71690000D01*
G37*
G04 #@! TO.C,0-C1*
X57234420Y-13740000D02*
X57515580Y-13740000D01*
X57234420Y-14760000D02*
X57515580Y-14760000D01*
G04 #@! TO.C,2-R5*
X37852500Y-54237258D02*
X37852500Y-53762742D01*
X38897500Y-54237258D02*
X38897500Y-53762742D01*
G04 #@! TO.C,3-D4*
X44765000Y-75400000D02*
X44765000Y-77100000D01*
X44765000Y-75400000D02*
X47425000Y-75400000D01*
X44765000Y-77100000D02*
X47425000Y-77100000D01*
G04 #@! TO.C,3-JP1*
X60875000Y-73900000D02*
X60875000Y-71100000D01*
X61575000Y-70450000D02*
X62175000Y-70450000D01*
X62175000Y-74550000D02*
X61575000Y-74550000D01*
X62875000Y-71100000D02*
X62875000Y-73900000D01*
X63075000Y-73700000D02*
X63375000Y-73400000D01*
X63075000Y-73700000D02*
X63375000Y-74000000D01*
X63375000Y-74000000D02*
X63375000Y-73400000D01*
X60875000Y-71150000D02*
G75*
G02*
X61575000Y-70450000I700000J0D01*
G01*
X61575000Y-74550000D02*
G75*
G02*
X60875000Y-73850000I-1J699999D01*
G01*
X62175000Y-70450000D02*
G75*
G02*
X62875000Y-71150000I0J-700000D01*
G01*
X62875000Y-73850000D02*
G75*
G02*
X62175000Y-74550000I-699999J-1D01*
G01*
G04 #@! TO.C,2-R2*
X42852500Y-63912258D02*
X42852500Y-63437742D01*
X43897500Y-63912258D02*
X43897500Y-63437742D01*
G04 #@! TO.C,0-R7*
X44602500Y-19937258D02*
X44602500Y-19462742D01*
X45647500Y-19937258D02*
X45647500Y-19462742D01*
G04 #@! TO.C,0-C7*
X46515580Y-11990000D02*
X46234420Y-11990000D01*
X46515580Y-13010000D02*
X46234420Y-13010000D01*
G04 #@! TO.C,2-R6*
X57612258Y-59477500D02*
X57137742Y-59477500D01*
X57612258Y-60522500D02*
X57137742Y-60522500D01*
G04 #@! TO.C,3-U3*
X50375000Y-76690000D02*
X49575000Y-76690000D01*
X50375000Y-76690000D02*
X51175000Y-76690000D01*
X50375000Y-79810000D02*
X49575000Y-79810000D01*
X50375000Y-79810000D02*
X51175000Y-79810000D01*
X49075000Y-76740000D02*
X48835000Y-76410000D01*
X49315000Y-76410000D01*
X49075000Y-76740000D01*
G36*
X49075000Y-76740000D02*
G01*
X48835000Y-76410000D01*
X49315000Y-76410000D01*
X49075000Y-76740000D01*
G37*
G04 #@! TO.C,1-U4*
X46125000Y-26440000D02*
X45325000Y-26440000D01*
X46125000Y-26440000D02*
X46925000Y-26440000D01*
X46125000Y-29560000D02*
X45325000Y-29560000D01*
X46125000Y-29560000D02*
X46925000Y-29560000D01*
X47665000Y-29840000D02*
X47185000Y-29840000D01*
X47425000Y-29510000D01*
X47665000Y-29840000D01*
G36*
X47665000Y-29840000D02*
G01*
X47185000Y-29840000D01*
X47425000Y-29510000D01*
X47665000Y-29840000D01*
G37*
G04 #@! TO.C,3-U6*
X53965000Y-81262500D02*
X53965000Y-80462500D01*
X53965000Y-81262500D02*
X53965000Y-82062500D01*
X57085000Y-81262500D02*
X57085000Y-80462500D01*
X57085000Y-81262500D02*
X57085000Y-82062500D01*
X54015000Y-82562500D02*
X53685000Y-82802500D01*
X53685000Y-82322500D01*
X54015000Y-82562500D01*
G36*
X54015000Y-82562500D02*
G01*
X53685000Y-82802500D01*
X53685000Y-82322500D01*
X54015000Y-82562500D01*
G37*
G04 #@! TO.C,0-U4*
X46125000Y-8440000D02*
X45325000Y-8440000D01*
X46125000Y-8440000D02*
X46925000Y-8440000D01*
X46125000Y-11560000D02*
X45325000Y-11560000D01*
X46125000Y-11560000D02*
X46925000Y-11560000D01*
X47665000Y-11840000D02*
X47185000Y-11840000D01*
X47425000Y-11510000D01*
X47665000Y-11840000D01*
G36*
X47665000Y-11840000D02*
G01*
X47185000Y-11840000D01*
X47425000Y-11510000D01*
X47665000Y-11840000D01*
G37*
G04 #@! TO.C,1-R11*
X59352500Y-33487258D02*
X59352500Y-33012742D01*
X60397500Y-33487258D02*
X60397500Y-33012742D01*
G04 #@! TO.C,1-U3*
X50375000Y-32690000D02*
X49575000Y-32690000D01*
X50375000Y-32690000D02*
X51175000Y-32690000D01*
X50375000Y-35810000D02*
X49575000Y-35810000D01*
X50375000Y-35810000D02*
X51175000Y-35810000D01*
X49075000Y-32740000D02*
X48835000Y-32410000D01*
X49315000Y-32410000D01*
X49075000Y-32740000D01*
G36*
X49075000Y-32740000D02*
G01*
X48835000Y-32410000D01*
X49315000Y-32410000D01*
X49075000Y-32740000D01*
G37*
G04 #@! TO.C,1-R9*
X42852500Y-31737258D02*
X42852500Y-31262742D01*
X43897500Y-31737258D02*
X43897500Y-31262742D01*
G04 #@! TO.C,2-D2*
X24575000Y-63735000D02*
X26860000Y-63735000D01*
X26860000Y-62265000D02*
X24575000Y-62265000D01*
X26860000Y-63735000D02*
X26860000Y-62265000D01*
G04 #@! TO.C,3-C3*
X46234420Y-77690000D02*
X46515580Y-77690000D01*
X46234420Y-78710000D02*
X46515580Y-78710000D01*
G04 #@! TO.C,1-R2*
X42852500Y-37912258D02*
X42852500Y-37437742D01*
X43897500Y-37912258D02*
X43897500Y-37437742D01*
G04 #@! TO.C,2-C1*
X57234420Y-57740000D02*
X57515580Y-57740000D01*
X57234420Y-58760000D02*
X57515580Y-58760000D01*
G04 #@! TO.C,2-R11*
X59352500Y-59487258D02*
X59352500Y-59012742D01*
X60397500Y-59487258D02*
X60397500Y-59012742D01*
D13*
G04 #@! TO.C,1-L1*
X60075000Y-36100000D02*
X58675000Y-36100000D01*
X60075000Y-38900000D02*
X58675000Y-38900000D01*
D12*
G04 #@! TO.C,3-R4*
X53937742Y-75727500D02*
X54412258Y-75727500D01*
X53937742Y-76772500D02*
X54412258Y-76772500D01*
G04 #@! TO.C,2-C6*
X42865000Y-60640580D02*
X42865000Y-60359420D01*
X43885000Y-60640580D02*
X43885000Y-60359420D01*
D13*
G04 #@! TO.C,0-L1*
X60075000Y-18100000D02*
X58675000Y-18100000D01*
X60075000Y-20900000D02*
X58675000Y-20900000D01*
D12*
G04 #@! TO.C,2-U1*
X52815000Y-54750000D02*
X52815000Y-53950000D01*
X52815000Y-54750000D02*
X52815000Y-55550000D01*
X55935000Y-54750000D02*
X55935000Y-53950000D01*
X55935000Y-54750000D02*
X55935000Y-55550000D01*
X56215000Y-53690000D02*
X55885000Y-53450000D01*
X56215000Y-53210000D01*
X56215000Y-53690000D01*
G36*
X56215000Y-53690000D02*
G01*
X55885000Y-53450000D01*
X56215000Y-53210000D01*
X56215000Y-53690000D01*
G37*
G04 #@! TO.C,1-U2*
X39065000Y-37000000D02*
X39065000Y-36200000D01*
X39065000Y-37000000D02*
X39065000Y-37800000D01*
X42185000Y-37000000D02*
X42185000Y-36200000D01*
X42185000Y-37000000D02*
X42185000Y-37800000D01*
X42465000Y-35940000D02*
X42135000Y-35700000D01*
X42465000Y-35460000D01*
X42465000Y-35940000D01*
G36*
X42465000Y-35940000D02*
G01*
X42135000Y-35700000D01*
X42465000Y-35460000D01*
X42465000Y-35940000D01*
G37*
G04 #@! TO.C,2-SW1*
X22625000Y-57200000D02*
X22625000Y-59800000D01*
X23075000Y-56750000D02*
X22625000Y-57200000D01*
X23075000Y-60250000D02*
X22625000Y-59800000D01*
X26375000Y-55750000D02*
X24375000Y-55750000D01*
X26375000Y-61250000D02*
X24375000Y-61250000D01*
X27675000Y-56750000D02*
X28125000Y-57200000D01*
X27675000Y-60250000D02*
X28125000Y-59800000D01*
X28125000Y-57200000D02*
X28125000Y-59800000D01*
G04 #@! TO.C,3-R3*
X54412258Y-77477500D02*
X53937742Y-77477500D01*
X54412258Y-78522500D02*
X53937742Y-78522500D01*
G04 #@! TO.C,3-U2*
X39065000Y-81000000D02*
X39065000Y-80200000D01*
X39065000Y-81000000D02*
X39065000Y-81800000D01*
X42185000Y-81000000D02*
X42185000Y-80200000D01*
X42185000Y-81000000D02*
X42185000Y-81800000D01*
X42465000Y-79940000D02*
X42135000Y-79700000D01*
X42465000Y-79460000D01*
X42465000Y-79940000D01*
G36*
X42465000Y-79940000D02*
G01*
X42135000Y-79700000D01*
X42465000Y-79460000D01*
X42465000Y-79940000D01*
G37*
G04 #@! TO.C,1-D2*
X24575000Y-37735000D02*
X26860000Y-37735000D01*
X26860000Y-36265000D02*
X24575000Y-36265000D01*
X26860000Y-37735000D02*
X26860000Y-36265000D01*
G04 #@! TO.C,3-R1*
X37352500Y-76512258D02*
X37352500Y-76037742D01*
X38397500Y-76512258D02*
X38397500Y-76037742D01*
G04 #@! TO.C,0-U5*
X41512500Y-8440000D02*
X40712500Y-8440000D01*
X41512500Y-8440000D02*
X42312500Y-8440000D01*
X41512500Y-11560000D02*
X40712500Y-11560000D01*
X41512500Y-11560000D02*
X42312500Y-11560000D01*
X43052500Y-11840000D02*
X42572500Y-11840000D01*
X42812500Y-11510000D01*
X43052500Y-11840000D01*
G36*
X43052500Y-11840000D02*
G01*
X42572500Y-11840000D01*
X42812500Y-11510000D01*
X43052500Y-11840000D01*
G37*
G04 #@! TO.C,3-R2*
X42852500Y-81912258D02*
X42852500Y-81437742D01*
X43897500Y-81912258D02*
X43897500Y-81437742D01*
G04 #@! TO.C,1-J4*
X66126000Y-34250000D02*
G75*
G02*
X63624000Y-34250000I-1251000J0D01*
G01*
X63624000Y-34250000D02*
G75*
G02*
X66126000Y-34250000I1251000J0D01*
G01*
G04 #@! TO.C,3-JP4*
X60875000Y-78850000D02*
X60875000Y-76050000D01*
X61575000Y-75400000D02*
X62175000Y-75400000D01*
X62175000Y-79500000D02*
X61575000Y-79500000D01*
X62875000Y-76050000D02*
X62875000Y-78850000D01*
X63075000Y-78650000D02*
X63375000Y-78350000D01*
X63075000Y-78650000D02*
X63375000Y-78950000D01*
X63375000Y-78950000D02*
X63375000Y-78350000D01*
X60875000Y-76100000D02*
G75*
G02*
X61575000Y-75400000I700000J0D01*
G01*
X61575000Y-79500000D02*
G75*
G02*
X60875000Y-78800000I-1J699999D01*
G01*
X62175000Y-75400000D02*
G75*
G02*
X62875000Y-76100000I0J-700000D01*
G01*
X62875000Y-78800000D02*
G75*
G02*
X62175000Y-79500000I-699999J-1D01*
G01*
G04 #@! TO.C,0-JP1*
X60875000Y-11900000D02*
X60875000Y-9100000D01*
X61575000Y-8450000D02*
X62175000Y-8450000D01*
X62175000Y-12550000D02*
X61575000Y-12550000D01*
X62875000Y-9100000D02*
X62875000Y-11900000D01*
X63075000Y-11700000D02*
X63375000Y-11400000D01*
X63075000Y-11700000D02*
X63375000Y-12000000D01*
X63375000Y-12000000D02*
X63375000Y-11400000D01*
X60875000Y-9150000D02*
G75*
G02*
X61575000Y-8450000I700000J0D01*
G01*
X61575000Y-12550000D02*
G75*
G02*
X60875000Y-11850000I-1J699999D01*
G01*
X62175000Y-8450000D02*
G75*
G02*
X62875000Y-9150000I0J-700000D01*
G01*
X62875000Y-11850000D02*
G75*
G02*
X62175000Y-12550000I-699999J-1D01*
G01*
G04 #@! TO.C,2-J2*
X66126000Y-53250000D02*
G75*
G02*
X63624000Y-53250000I-1251000J0D01*
G01*
X63624000Y-53250000D02*
G75*
G02*
X66126000Y-53250000I1251000J0D01*
G01*
G04 #@! TO.C,0-J5*
X66126000Y-19750000D02*
G75*
G02*
X63624000Y-19750000I-1251000J0D01*
G01*
X63624000Y-19750000D02*
G75*
G02*
X66126000Y-19750000I1251000J0D01*
G01*
G04 #@! TO.C,3-U4*
X46125000Y-70440000D02*
X45325000Y-70440000D01*
X46125000Y-70440000D02*
X46925000Y-70440000D01*
X46125000Y-73560000D02*
X45325000Y-73560000D01*
X46125000Y-73560000D02*
X46925000Y-73560000D01*
X47665000Y-73840000D02*
X47185000Y-73840000D01*
X47425000Y-73510000D01*
X47665000Y-73840000D01*
G36*
X47665000Y-73840000D02*
G01*
X47185000Y-73840000D01*
X47425000Y-73510000D01*
X47665000Y-73840000D01*
G37*
G04 #@! TO.C,0-U3*
X50375000Y-14690000D02*
X49575000Y-14690000D01*
X50375000Y-14690000D02*
X51175000Y-14690000D01*
X50375000Y-17810000D02*
X49575000Y-17810000D01*
X50375000Y-17810000D02*
X51175000Y-17810000D01*
X49075000Y-14740000D02*
X48835000Y-14410000D01*
X49315000Y-14410000D01*
X49075000Y-14740000D01*
G36*
X49075000Y-14740000D02*
G01*
X48835000Y-14410000D01*
X49315000Y-14410000D01*
X49075000Y-14740000D01*
G37*
G04 #@! TO.C,1-Q1*
X57065000Y-28750000D02*
X57065000Y-27950000D01*
X57065000Y-28750000D02*
X57065000Y-29550000D01*
X60185000Y-28750000D02*
X60185000Y-27950000D01*
X60185000Y-28750000D02*
X60185000Y-29550000D01*
X57115000Y-30050000D02*
X56785000Y-30290000D01*
X56785000Y-29810000D01*
X57115000Y-30050000D01*
G36*
X57115000Y-30050000D02*
G01*
X56785000Y-30290000D01*
X56785000Y-29810000D01*
X57115000Y-30050000D01*
G37*
G04 #@! TO.C,3-C4*
X48115000Y-81559420D02*
X48115000Y-81840580D01*
X49135000Y-81559420D02*
X49135000Y-81840580D01*
G04 #@! TO.C,1-U5*
X41512500Y-26440000D02*
X40712500Y-26440000D01*
X41512500Y-26440000D02*
X42312500Y-26440000D01*
X41512500Y-29560000D02*
X40712500Y-29560000D01*
X41512500Y-29560000D02*
X42312500Y-29560000D01*
X43052500Y-29840000D02*
X42572500Y-29840000D01*
X42812500Y-29510000D01*
X43052500Y-29840000D01*
G36*
X43052500Y-29840000D02*
G01*
X42572500Y-29840000D01*
X42812500Y-29510000D01*
X43052500Y-29840000D01*
G37*
G04 #@! TO.C,0-R5*
X37852500Y-10237258D02*
X37852500Y-9762742D01*
X38897500Y-10237258D02*
X38897500Y-9762742D01*
G04 #@! TO.C,2-U5*
X41512500Y-52440000D02*
X40712500Y-52440000D01*
X41512500Y-52440000D02*
X42312500Y-52440000D01*
X41512500Y-55560000D02*
X40712500Y-55560000D01*
X41512500Y-55560000D02*
X42312500Y-55560000D01*
X43052500Y-55840000D02*
X42572500Y-55840000D01*
X42812500Y-55510000D01*
X43052500Y-55840000D01*
G36*
X43052500Y-55840000D02*
G01*
X42572500Y-55840000D01*
X42812500Y-55510000D01*
X43052500Y-55840000D01*
G37*
G04 #@! TO.C,2-JP4*
X60875000Y-60850000D02*
X60875000Y-58050000D01*
X61575000Y-57400000D02*
X62175000Y-57400000D01*
X62175000Y-61500000D02*
X61575000Y-61500000D01*
X62875000Y-58050000D02*
X62875000Y-60850000D01*
X63075000Y-60650000D02*
X63375000Y-60350000D01*
X63075000Y-60650000D02*
X63375000Y-60950000D01*
X63375000Y-60950000D02*
X63375000Y-60350000D01*
X60875000Y-58100000D02*
G75*
G02*
X61575000Y-57400000I700000J0D01*
G01*
X61575000Y-61500000D02*
G75*
G02*
X60875000Y-60800000I-1J699999D01*
G01*
X62175000Y-57400000D02*
G75*
G02*
X62875000Y-58100000I0J-700000D01*
G01*
X62875000Y-60800000D02*
G75*
G02*
X62175000Y-61500000I-699999J-1D01*
G01*
G04 #@! TO.C,0-C3*
X46234420Y-15690000D02*
X46515580Y-15690000D01*
X46234420Y-16710000D02*
X46515580Y-16710000D01*
G04 #@! TO.C,2-U2*
X39065000Y-63000000D02*
X39065000Y-62200000D01*
X39065000Y-63000000D02*
X39065000Y-63800000D01*
X42185000Y-63000000D02*
X42185000Y-62200000D01*
X42185000Y-63000000D02*
X42185000Y-63800000D01*
X42465000Y-61940000D02*
X42135000Y-61700000D01*
X42465000Y-61460000D01*
X42465000Y-61940000D01*
G36*
X42465000Y-61940000D02*
G01*
X42135000Y-61700000D01*
X42465000Y-61460000D01*
X42465000Y-61940000D01*
G37*
G04 #@! TO.C,0-R6*
X57612258Y-15477500D02*
X57137742Y-15477500D01*
X57612258Y-16522500D02*
X57137742Y-16522500D01*
G04 #@! TO.C,0-D5*
X49525000Y-21360000D02*
X49525000Y-18700000D01*
X49525000Y-21360000D02*
X51225000Y-21360000D01*
X51225000Y-21360000D02*
X51225000Y-18700000D01*
G04 #@! TO.C,3-R9*
X42852500Y-75737258D02*
X42852500Y-75262742D01*
X43897500Y-75737258D02*
X43897500Y-75262742D01*
G04 #@! TO.C,3-C2*
X37365000Y-80859420D02*
X37365000Y-81140580D01*
X38385000Y-80859420D02*
X38385000Y-81140580D01*
G04 #@! TO.C,1-U7*
X39065000Y-32200000D02*
X39065000Y-31400000D01*
X39065000Y-32200000D02*
X39065000Y-33000000D01*
X42185000Y-32200000D02*
X42185000Y-31400000D01*
X42185000Y-32200000D02*
X42185000Y-33000000D01*
X39115000Y-33500000D02*
X38785000Y-33740000D01*
X38785000Y-33260000D01*
X39115000Y-33500000D01*
G36*
X39115000Y-33500000D02*
G01*
X38785000Y-33740000D01*
X38785000Y-33260000D01*
X39115000Y-33500000D01*
G37*
G04 #@! TO.C,0-U6*
X53965000Y-19262500D02*
X53965000Y-18462500D01*
X53965000Y-19262500D02*
X53965000Y-20062500D01*
X57085000Y-19262500D02*
X57085000Y-18462500D01*
X57085000Y-19262500D02*
X57085000Y-20062500D01*
X54015000Y-20562500D02*
X53685000Y-20802500D01*
X53685000Y-20322500D01*
X54015000Y-20562500D01*
G36*
X54015000Y-20562500D02*
G01*
X53685000Y-20802500D01*
X53685000Y-20322500D01*
X54015000Y-20562500D01*
G37*
G04 #@! TO.C,1-U6*
X53965000Y-37262500D02*
X53965000Y-36462500D01*
X53965000Y-37262500D02*
X53965000Y-38062500D01*
X57085000Y-37262500D02*
X57085000Y-36462500D01*
X57085000Y-37262500D02*
X57085000Y-38062500D01*
X54015000Y-38562500D02*
X53685000Y-38802500D01*
X53685000Y-38322500D01*
X54015000Y-38562500D01*
G36*
X54015000Y-38562500D02*
G01*
X53685000Y-38802500D01*
X53685000Y-38322500D01*
X54015000Y-38562500D01*
G37*
G04 #@! TO.C,1-D3*
X51525000Y-36140000D02*
X51525000Y-38800000D01*
X53225000Y-36140000D02*
X51525000Y-36140000D01*
X53225000Y-36140000D02*
X53225000Y-38800000D01*
G04 #@! TO.C,2-R3*
X54412258Y-59477500D02*
X53937742Y-59477500D01*
X54412258Y-60522500D02*
X53937742Y-60522500D01*
D13*
G04 #@! TO.C,2-L2*
X51075000Y-53350000D02*
X49675000Y-53350000D01*
X51075000Y-56150000D02*
X49675000Y-56150000D01*
D12*
G04 #@! TO.C,0-D3*
X51525000Y-18140000D02*
X51525000Y-20800000D01*
X53225000Y-18140000D02*
X51525000Y-18140000D01*
X53225000Y-18140000D02*
X53225000Y-20800000D01*
G04 #@! TO.C,0-R8*
X46352500Y-19937258D02*
X46352500Y-19462742D01*
X47397500Y-19937258D02*
X47397500Y-19462742D01*
G04 #@! TO.C,0-C2*
X37365000Y-18859420D02*
X37365000Y-19140580D01*
X38385000Y-18859420D02*
X38385000Y-19140580D01*
G04 #@! TO.C,3-D5*
X49525000Y-83360000D02*
X49525000Y-80700000D01*
X49525000Y-83360000D02*
X51225000Y-83360000D01*
X51225000Y-83360000D02*
X51225000Y-80700000D01*
G04 #@! TO.C,2-JP1*
X60875000Y-55900000D02*
X60875000Y-53100000D01*
X61575000Y-52450000D02*
X62175000Y-52450000D01*
X62175000Y-56550000D02*
X61575000Y-56550000D01*
X62875000Y-53100000D02*
X62875000Y-55900000D01*
X63075000Y-55700000D02*
X63375000Y-55400000D01*
X63075000Y-55700000D02*
X63375000Y-56000000D01*
X63375000Y-56000000D02*
X63375000Y-55400000D01*
X60875000Y-53150000D02*
G75*
G02*
X61575000Y-52450000I700000J0D01*
G01*
X61575000Y-56550000D02*
G75*
G02*
X60875000Y-55850000I-1J699999D01*
G01*
X62175000Y-52450000D02*
G75*
G02*
X62875000Y-53150000I0J-700000D01*
G01*
X62875000Y-55850000D02*
G75*
G02*
X62175000Y-56550000I-699999J-1D01*
G01*
G04 #@! TO.C,0-R3*
X54412258Y-15477500D02*
X53937742Y-15477500D01*
X54412258Y-16522500D02*
X53937742Y-16522500D01*
D13*
G04 #@! TO.C,1-L2*
X51075000Y-27350000D02*
X49675000Y-27350000D01*
X51075000Y-30150000D02*
X49675000Y-30150000D01*
D12*
G04 #@! TO.C,0-R9*
X42852500Y-13737258D02*
X42852500Y-13262742D01*
X43897500Y-13737258D02*
X43897500Y-13262742D01*
G04 #@! TO.C,1-R6*
X57612258Y-33477500D02*
X57137742Y-33477500D01*
X57612258Y-34522500D02*
X57137742Y-34522500D01*
G04 #@! TO.C,3-R10*
X61852500Y-81262742D02*
X61852500Y-81737258D01*
X62897500Y-81262742D02*
X62897500Y-81737258D01*
G04 #@! TO.C,1-C7*
X46515580Y-29990000D02*
X46234420Y-29990000D01*
X46515580Y-31010000D02*
X46234420Y-31010000D01*
G04 #@! TO.C,0-J3*
X66126000Y-12750000D02*
G75*
G02*
X63624000Y-12750000I-1251000J0D01*
G01*
X63624000Y-12750000D02*
G75*
G02*
X66126000Y-12750000I1251000J0D01*
G01*
G04 #@! TO.C,2-U3*
X50375000Y-58690000D02*
X49575000Y-58690000D01*
X50375000Y-58690000D02*
X51175000Y-58690000D01*
X50375000Y-61810000D02*
X49575000Y-61810000D01*
X50375000Y-61810000D02*
X51175000Y-61810000D01*
X49075000Y-58740000D02*
X48835000Y-58410000D01*
X49315000Y-58410000D01*
X49075000Y-58740000D01*
G36*
X49075000Y-58740000D02*
G01*
X48835000Y-58410000D01*
X49315000Y-58410000D01*
X49075000Y-58740000D01*
G37*
G04 #@! TO.C,1-C3*
X46234420Y-33690000D02*
X46515580Y-33690000D01*
X46234420Y-34710000D02*
X46515580Y-34710000D01*
G04 #@! TO.C,3-U7*
X39065000Y-76200000D02*
X39065000Y-75400000D01*
X39065000Y-76200000D02*
X39065000Y-77000000D01*
X42185000Y-76200000D02*
X42185000Y-75400000D01*
X42185000Y-76200000D02*
X42185000Y-77000000D01*
X39115000Y-77500000D02*
X38785000Y-77740000D01*
X38785000Y-77260000D01*
X39115000Y-77500000D01*
G36*
X39115000Y-77500000D02*
G01*
X38785000Y-77740000D01*
X38785000Y-77260000D01*
X39115000Y-77500000D01*
G37*
D13*
G04 #@! TO.C,2-L1*
X60075000Y-62100000D02*
X58675000Y-62100000D01*
X60075000Y-64900000D02*
X58675000Y-64900000D01*
D12*
G04 #@! TO.C,2-R10*
X61852500Y-63262742D02*
X61852500Y-63737258D01*
X62897500Y-63262742D02*
X62897500Y-63737258D01*
G04 #@! TO.C,1-C6*
X42865000Y-34640580D02*
X42865000Y-34359420D01*
X43885000Y-34640580D02*
X43885000Y-34359420D01*
G04 #@! TO.C,3-C5*
X50515580Y-74990000D02*
X50234420Y-74990000D01*
X50515580Y-76010000D02*
X50234420Y-76010000D01*
G04 #@! TO.C,0-JP4*
X60875000Y-16850000D02*
X60875000Y-14050000D01*
X61575000Y-13400000D02*
X62175000Y-13400000D01*
X62175000Y-17500000D02*
X61575000Y-17500000D01*
X62875000Y-14050000D02*
X62875000Y-16850000D01*
X63075000Y-16650000D02*
X63375000Y-16350000D01*
X63075000Y-16650000D02*
X63375000Y-16950000D01*
X63375000Y-16950000D02*
X63375000Y-16350000D01*
X60875000Y-14100000D02*
G75*
G02*
X61575000Y-13400000I700000J0D01*
G01*
X61575000Y-17500000D02*
G75*
G02*
X60875000Y-16800000I-1J699999D01*
G01*
X62175000Y-13400000D02*
G75*
G02*
X62875000Y-14100000I0J-700000D01*
G01*
X62875000Y-16800000D02*
G75*
G02*
X62175000Y-17500000I-699999J-1D01*
G01*
G04 #@! TO.C,2-C2*
X37365000Y-62859420D02*
X37365000Y-63140580D01*
X38385000Y-62859420D02*
X38385000Y-63140580D01*
G04 #@! TO.C,0-R11*
X59352500Y-15487258D02*
X59352500Y-15012742D01*
X60397500Y-15487258D02*
X60397500Y-15012742D01*
G04 #@! TO.C,3-C7*
X46515580Y-73990000D02*
X46234420Y-73990000D01*
X46515580Y-75010000D02*
X46234420Y-75010000D01*
G04 #@! TO.C,2-D3*
X51525000Y-62140000D02*
X51525000Y-64800000D01*
X53225000Y-62140000D02*
X51525000Y-62140000D01*
X53225000Y-62140000D02*
X53225000Y-64800000D01*
G04 #@! TO.C,2-U4*
X46125000Y-52440000D02*
X45325000Y-52440000D01*
X46125000Y-52440000D02*
X46925000Y-52440000D01*
X46125000Y-55560000D02*
X45325000Y-55560000D01*
X46125000Y-55560000D02*
X46925000Y-55560000D01*
X47665000Y-55840000D02*
X47185000Y-55840000D01*
X47425000Y-55510000D01*
X47665000Y-55840000D01*
G36*
X47665000Y-55840000D02*
G01*
X47185000Y-55840000D01*
X47425000Y-55510000D01*
X47665000Y-55840000D01*
G37*
G04 #@! TO.C,0-C6*
X42865000Y-16640580D02*
X42865000Y-16359420D01*
X43885000Y-16640580D02*
X43885000Y-16359420D01*
G04 #@! TO.C,2-U7*
X39065000Y-58200000D02*
X39065000Y-57400000D01*
X39065000Y-58200000D02*
X39065000Y-59000000D01*
X42185000Y-58200000D02*
X42185000Y-57400000D01*
X42185000Y-58200000D02*
X42185000Y-59000000D01*
X39115000Y-59500000D02*
X38785000Y-59740000D01*
X38785000Y-59260000D01*
X39115000Y-59500000D01*
G36*
X39115000Y-59500000D02*
G01*
X38785000Y-59740000D01*
X38785000Y-59260000D01*
X39115000Y-59500000D01*
G37*
G04 #@! TO.C,1-J2*
X66126000Y-27250000D02*
G75*
G02*
X63624000Y-27250000I-1251000J0D01*
G01*
X63624000Y-27250000D02*
G75*
G02*
X66126000Y-27250000I1251000J0D01*
G01*
G04 #@! TO.C,1-R10*
X61852500Y-37262742D02*
X61852500Y-37737258D01*
X62897500Y-37262742D02*
X62897500Y-37737258D01*
G04 #@! TO.C,1-J3*
X66126000Y-30750000D02*
G75*
G02*
X63624000Y-30750000I-1251000J0D01*
G01*
X63624000Y-30750000D02*
G75*
G02*
X66126000Y-30750000I1251000J0D01*
G01*
G04 #@! TO.C,2-J5*
X66126000Y-63750000D02*
G75*
G02*
X63624000Y-63750000I-1251000J0D01*
G01*
X63624000Y-63750000D02*
G75*
G02*
X66126000Y-63750000I1251000J0D01*
G01*
G04 #@! TO.C,2-J4*
X66126000Y-60250000D02*
G75*
G02*
X63624000Y-60250000I-1251000J0D01*
G01*
X63624000Y-60250000D02*
G75*
G02*
X66126000Y-60250000I1251000J0D01*
G01*
G04 #@! TO.C,3-D3*
X51525000Y-80140000D02*
X51525000Y-82800000D01*
X53225000Y-80140000D02*
X51525000Y-80140000D01*
X53225000Y-80140000D02*
X53225000Y-82800000D01*
G04 #@! TO.C,2-C4*
X48115000Y-63559420D02*
X48115000Y-63840580D01*
X49135000Y-63559420D02*
X49135000Y-63840580D01*
G04 #@! TO.C,0-SW1*
X22625000Y-13200000D02*
X22625000Y-15800000D01*
X23075000Y-12750000D02*
X22625000Y-13200000D01*
X23075000Y-16250000D02*
X22625000Y-15800000D01*
X26375000Y-11750000D02*
X24375000Y-11750000D01*
X26375000Y-17250000D02*
X24375000Y-17250000D01*
X27675000Y-12750000D02*
X28125000Y-13200000D01*
X27675000Y-16250000D02*
X28125000Y-15800000D01*
X28125000Y-13200000D02*
X28125000Y-15800000D01*
G04 #@! TO.C,1-C1*
X57234420Y-31740000D02*
X57515580Y-31740000D01*
X57234420Y-32760000D02*
X57515580Y-32760000D01*
G04 #@! TD*
%LPC*%
D14*
G04 #@! TO.C,1-C5*
X51150000Y-31500000D03*
X49600000Y-31500000D03*
G04 #@! TD*
D15*
G04 #@! TO.C,KiKit_MB_25_2*
X8375000Y-43833333D03*
G04 #@! TD*
D16*
G04 #@! TO.C,3-SW1*
X27250000Y-73500000D03*
X27250000Y-79500000D03*
X23500000Y-73500000D03*
X23500000Y-79500000D03*
G04 #@! TD*
D15*
G04 #@! TO.C,KiKit_MB_32_4*
X2732143Y-84000000D03*
G04 #@! TD*
G04 #@! TO.C,KiKit_MB_10_5*
X62326001Y-25000031D03*
G04 #@! TD*
D17*
G04 #@! TO.C,3-R7*
X45125000Y-82525000D03*
X45125000Y-80875000D03*
G04 #@! TD*
D15*
G04 #@! TO.C,KiKit_MB_30_3*
X66625000Y-87666666D03*
G04 #@! TD*
D18*
G04 #@! TO.C,3-C6*
X43375000Y-79275000D03*
X43375000Y-77725000D03*
G04 #@! TD*
D19*
G04 #@! TO.C,2-R4*
X53350000Y-58250000D03*
X55000000Y-58250000D03*
G04 #@! TD*
D14*
G04 #@! TO.C,2-C7*
X47150000Y-56500000D03*
X45600000Y-56500000D03*
G04 #@! TD*
D15*
G04 #@! TO.C,KiKit_MB_19_3*
X41625000Y-84000000D03*
G04 #@! TD*
D20*
G04 #@! TO.C,1-JP4*
X61875000Y-34750000D03*
D21*
X61875000Y-33450000D03*
D22*
X61875000Y-32150000D03*
G04 #@! TD*
D23*
G04 #@! TO.C,0-C4*
X48625000Y-18925000D03*
X48625000Y-20475000D03*
G04 #@! TD*
D15*
G04 #@! TO.C,KiKit_MB_28_1*
X66625000Y0D03*
G04 #@! TD*
G04 #@! TO.C,KiKit_MB_19_4*
X40774500Y-84000000D03*
G04 #@! TD*
D20*
G04 #@! TO.C,1-JP1*
X61875000Y-29800000D03*
D21*
X61875000Y-28500000D03*
D22*
X61875000Y-27200000D03*
G04 #@! TD*
D15*
G04 #@! TO.C,KiKit_MB_23_4*
X24975498Y-70500195D03*
G04 #@! TD*
G04 #@! TO.C,KiKit_MB_6_5*
X22423998Y-20499837D03*
G04 #@! TD*
G04 #@! TO.C,KiKit_MB_4_4*
X61475502Y-7000042D03*
G04 #@! TD*
G04 #@! TO.C,KiKit_MB_8_4*
X42475502Y-25000254D03*
G04 #@! TD*
D23*
G04 #@! TO.C,1-C2*
X37875000Y-36225000D03*
X37875000Y-37775000D03*
G04 #@! TD*
D17*
G04 #@! TO.C,2-R9*
X43375000Y-58325000D03*
X43375000Y-56675000D03*
G04 #@! TD*
D15*
G04 #@! TO.C,KiKit_MB_17_2*
X23274498Y-52500173D03*
G04 #@! TD*
G04 #@! TO.C,KiKit_MB_13_1*
X43325999Y-66000000D03*
G04 #@! TD*
G04 #@! TO.C,KiKit_MB_14_2*
X40774502Y-51000274D03*
G04 #@! TD*
G04 #@! TO.C,KiKit_MB_18_2*
X24975498Y-64499804D03*
G04 #@! TD*
D24*
G04 #@! TO.C,KiKit_TO_4*
X72500000Y-88500000D03*
G04 #@! TD*
D15*
G04 #@! TO.C,KiKit_MB_29_4*
X8375000Y-88500000D03*
G04 #@! TD*
D25*
G04 #@! TO.C,3-D2*
X26162500Y-81000000D03*
X24587500Y-81000000D03*
G04 #@! TD*
D14*
G04 #@! TO.C,0-C5*
X51150000Y-13500000D03*
X49600000Y-13500000D03*
G04 #@! TD*
D15*
G04 #@! TO.C,KiKit_MB_34_6*
X73178571Y-84000000D03*
G04 #@! TD*
D26*
G04 #@! TO.C,2-C3*
X45600000Y-60200000D03*
X47150000Y-60200000D03*
G04 #@! TD*
D15*
G04 #@! TO.C,KiKit_MB_30_5*
X66625000Y-89333333D03*
G04 #@! TD*
G04 #@! TO.C,KiKit_MB_11_5*
X25825998Y-26500206D03*
G04 #@! TD*
D27*
G04 #@! TO.C,0-J2*
X64875000Y-9250000D03*
G04 #@! TD*
G04 #@! TO.C,2-J3*
X64875000Y-56750000D03*
G04 #@! TD*
D16*
G04 #@! TO.C,1-SW1*
X27250000Y-29500000D03*
X27250000Y-35500000D03*
X23500000Y-29500000D03*
X23500000Y-35500000D03*
G04 #@! TD*
D28*
G04 #@! TO.C,0-D4*
X45325000Y-14250000D03*
X47425000Y-14250000D03*
G04 #@! TD*
D27*
G04 #@! TO.C,3-J4*
X64875000Y-78250000D03*
G04 #@! TD*
D15*
G04 #@! TO.C,KiKit_MB_34_3*
X70446428Y-84000000D03*
G04 #@! TD*
D29*
G04 #@! TO.C,2-D5*
X50375000Y-64800000D03*
X50375000Y-62700000D03*
G04 #@! TD*
D27*
G04 #@! TO.C,3-J5*
X64875000Y-81750000D03*
G04 #@! TD*
D17*
G04 #@! TO.C,3-R8*
X46875000Y-82525000D03*
X46875000Y-80875000D03*
G04 #@! TD*
D15*
G04 #@! TO.C,KiKit_MB_17_5*
X25825998Y-52500206D03*
G04 #@! TD*
G04 #@! TO.C,KiKit_MB_29_2*
X8375000Y-86833333D03*
G04 #@! TD*
D30*
G04 #@! TO.C,3-L2*
X51525000Y-72750000D03*
X49225000Y-72750000D03*
G04 #@! TD*
D25*
G04 #@! TO.C,0-D2*
X26162500Y-19000000D03*
X24587500Y-19000000D03*
G04 #@! TD*
D31*
G04 #@! TO.C,3-J1*
X14875000Y-80310000D03*
D32*
X15125000Y-77580000D03*
X15125000Y-75420000D03*
D31*
X14875000Y-72690000D03*
G04 #@! TD*
D15*
G04 #@! TO.C,KiKit_MB_8_2*
X40774502Y-25000274D03*
G04 #@! TD*
G04 #@! TO.C,KiKit_MB_5_3*
X24124998Y-8500185D03*
G04 #@! TD*
G04 #@! TO.C,KiKit_MB_22_2*
X59774502Y-69000060D03*
G04 #@! TD*
G04 #@! TO.C,KiKit_MB_28_6*
X66625000Y-4166667D03*
G04 #@! TD*
G04 #@! TO.C,KiKit_MB_30_6*
X66625000Y-90166666D03*
G04 #@! TD*
G04 #@! TO.C,KiKit_MB_32_3*
X1821429Y-84000000D03*
G04 #@! TD*
G04 #@! TO.C,KiKit_MB_18_4*
X23274498Y-64499826D03*
G04 #@! TD*
D28*
G04 #@! TO.C,2-D4*
X45325000Y-58250000D03*
X47425000Y-58250000D03*
G04 #@! TD*
D15*
G04 #@! TO.C,KiKit_MB_19_2*
X42475499Y-84000000D03*
G04 #@! TD*
G04 #@! TO.C,KiKit_MB_7_2*
X42475499Y-40000000D03*
G04 #@! TD*
D17*
G04 #@! TO.C,1-R7*
X45125000Y-38525000D03*
X45125000Y-36875000D03*
G04 #@! TD*
D33*
G04 #@! TO.C,3-U5*
X42650000Y-72950000D03*
X42650000Y-72000000D03*
X42650000Y-71050000D03*
X40375000Y-71050000D03*
X40375000Y-72000000D03*
X40375000Y-72950000D03*
G04 #@! TD*
D30*
G04 #@! TO.C,3-L1*
X60525000Y-81500000D03*
X58225000Y-81500000D03*
G04 #@! TD*
D27*
G04 #@! TO.C,3-J2*
X64875000Y-71250000D03*
G04 #@! TD*
D15*
G04 #@! TO.C,KiKit_MB_15_5*
X58924000Y-66000000D03*
G04 #@! TD*
D17*
G04 #@! TO.C,1-R8*
X46875000Y-38525000D03*
X46875000Y-36875000D03*
G04 #@! TD*
D15*
G04 #@! TO.C,KiKit_MB_10_1*
X58924002Y-25000069D03*
G04 #@! TD*
G04 #@! TO.C,KiKit_MB_6_2*
X24975498Y-20499804D03*
G04 #@! TD*
G04 #@! TO.C,KiKit_MB_9_2*
X61475499Y-40000000D03*
G04 #@! TD*
G04 #@! TO.C,KiKit_MB_25_6*
X8375000Y-47166666D03*
G04 #@! TD*
G04 #@! TO.C,KiKit_MB_5_1*
X22423998Y-8500163D03*
G04 #@! TD*
G04 #@! TO.C,KiKit_MB_14_5*
X43326001Y-51000245D03*
G04 #@! TD*
G04 #@! TO.C,KiKit_MB_33_6*
X73178571Y-7000000D03*
G04 #@! TD*
G04 #@! TO.C,KiKit_MB_3_2*
X61475499Y-22000000D03*
G04 #@! TD*
G04 #@! TO.C,KiKit_MB_18_1*
X25825998Y-64499793D03*
G04 #@! TD*
G04 #@! TO.C,KiKit_MB_24_4*
X23274498Y-82499826D03*
G04 #@! TD*
G04 #@! TO.C,KiKit_MB_9_1*
X62325999Y-40000000D03*
G04 #@! TD*
D17*
G04 #@! TO.C,3-R5*
X38375000Y-72825000D03*
X38375000Y-71175000D03*
G04 #@! TD*
D15*
G04 #@! TO.C,KiKit_MB_9_5*
X58924000Y-40000000D03*
G04 #@! TD*
G04 #@! TO.C,KiKit_MB_12_3*
X24124998Y-38499815D03*
G04 #@! TD*
D17*
G04 #@! TO.C,2-R8*
X46875000Y-64525000D03*
X46875000Y-62875000D03*
G04 #@! TD*
G04 #@! TO.C,2-R7*
X45125000Y-64525000D03*
X45125000Y-62875000D03*
G04 #@! TD*
D15*
G04 #@! TO.C,KiKit_MB_3_1*
X62325999Y-22000000D03*
G04 #@! TD*
D34*
G04 #@! TO.C,3-Q1*
X57675000Y-73887500D03*
X58625000Y-73887500D03*
X59575000Y-73887500D03*
X59575000Y-71612500D03*
X58625000Y-71612500D03*
X57675000Y-71612500D03*
G04 #@! TD*
D27*
G04 #@! TO.C,KiKit_FID_T_1*
X4500000Y-4500000D03*
G04 #@! TD*
D17*
G04 #@! TO.C,3-R11*
X59875000Y-78075000D03*
X59875000Y-76425000D03*
G04 #@! TD*
D15*
G04 #@! TO.C,KiKit_MB_30_2*
X66625000Y-86833333D03*
G04 #@! TD*
D35*
G04 #@! TO.C,0-U1*
X55325000Y-9612500D03*
X54375000Y-9612500D03*
X53425000Y-9612500D03*
X53425000Y-11887500D03*
X54375000Y-11887500D03*
X55325000Y-11887500D03*
G04 #@! TD*
D27*
G04 #@! TO.C,1-J5*
X64875000Y-37750000D03*
G04 #@! TD*
D15*
G04 #@! TO.C,KiKit_MB_33_5*
X72267857Y-7000000D03*
G04 #@! TD*
G04 #@! TO.C,KiKit_MB_1_4*
X40774500Y-22000000D03*
G04 #@! TD*
G04 #@! TO.C,KiKit_MB_1_5*
X39924000Y-22000000D03*
G04 #@! TD*
G04 #@! TO.C,KiKit_MB_29_7*
X8375000Y-91000000D03*
G04 #@! TD*
D26*
G04 #@! TO.C,3-C1*
X56600000Y-76250000D03*
X58150000Y-76250000D03*
G04 #@! TD*
D14*
G04 #@! TO.C,2-C5*
X51150000Y-57500000D03*
X49600000Y-57500000D03*
G04 #@! TD*
D15*
G04 #@! TO.C,KiKit_MB_33_4*
X71357142Y-7000000D03*
G04 #@! TD*
G04 #@! TO.C,KiKit_MB_13_4*
X40774500Y-66000000D03*
G04 #@! TD*
D35*
G04 #@! TO.C,0-U2*
X41575000Y-17862500D03*
X40625000Y-17862500D03*
X39675000Y-17862500D03*
X39675000Y-20137500D03*
X41575000Y-20137500D03*
G04 #@! TD*
D15*
G04 #@! TO.C,KiKit_MB_7_1*
X43325999Y-40000000D03*
G04 #@! TD*
G04 #@! TO.C,KiKit_MB_16_2*
X59774502Y-51000060D03*
G04 #@! TD*
G04 #@! TO.C,KiKit_MB_26_2*
X66625000Y-43833333D03*
G04 #@! TD*
D36*
G04 #@! TO.C,0-R10*
X62375000Y-18675000D03*
X62375000Y-20325000D03*
G04 #@! TD*
D27*
G04 #@! TO.C,3-J3*
X64875000Y-74750000D03*
G04 #@! TD*
G04 #@! TO.C,0-J4*
X64875000Y-16250000D03*
G04 #@! TD*
D37*
G04 #@! TO.C,3-R6*
X58200000Y-78000000D03*
X56550000Y-78000000D03*
G04 #@! TD*
D17*
G04 #@! TO.C,2-R1*
X37875000Y-59100000D03*
X37875000Y-57450000D03*
G04 #@! TD*
D15*
G04 #@! TO.C,KiKit_MB_25_1*
X8375000Y-43000000D03*
G04 #@! TD*
D37*
G04 #@! TO.C,1-R3*
X55000000Y-34000000D03*
X53350000Y-34000000D03*
G04 #@! TD*
D15*
G04 #@! TO.C,KiKit_MB_31_4*
X2732143Y-7000000D03*
G04 #@! TD*
G04 #@! TO.C,KiKit_MB_15_3*
X60625000Y-66000000D03*
G04 #@! TD*
G04 #@! TO.C,KiKit_MB_31_8*
X6375000Y-7000000D03*
G04 #@! TD*
G04 #@! TO.C,KiKit_MB_23_3*
X24124998Y-70500184D03*
G04 #@! TD*
D17*
G04 #@! TO.C,1-R5*
X38375000Y-28825000D03*
X38375000Y-27175000D03*
G04 #@! TD*
D15*
G04 #@! TO.C,KiKit_MB_27_4*
X8375000Y-2500000D03*
G04 #@! TD*
D17*
G04 #@! TO.C,1-R1*
X37875000Y-33100000D03*
X37875000Y-31450000D03*
G04 #@! TD*
D15*
G04 #@! TO.C,KiKit_MB_25_7*
X8375000Y-48000000D03*
G04 #@! TD*
G04 #@! TO.C,KiKit_MB_26_7*
X66625000Y-48000000D03*
G04 #@! TD*
D28*
G04 #@! TO.C,1-D4*
X45325000Y-32250000D03*
X47425000Y-32250000D03*
G04 #@! TD*
D34*
G04 #@! TO.C,0-Q1*
X57675000Y-11887500D03*
X58625000Y-11887500D03*
X59575000Y-11887500D03*
X59575000Y-9612500D03*
X58625000Y-9612500D03*
X57675000Y-9612500D03*
G04 #@! TD*
D15*
G04 #@! TO.C,KiKit_MB_34_1*
X68625000Y-84000000D03*
G04 #@! TD*
G04 #@! TO.C,KiKit_MB_31_7*
X5464286Y-7000000D03*
G04 #@! TD*
D34*
G04 #@! TO.C,0-U7*
X39675000Y-15337500D03*
X40625000Y-15337500D03*
X41575000Y-15337500D03*
X41575000Y-13062500D03*
X39675000Y-13062500D03*
G04 #@! TD*
D15*
G04 #@! TO.C,KiKit_MB_11_3*
X24124998Y-26500184D03*
G04 #@! TD*
D30*
G04 #@! TO.C,0-L2*
X51525000Y-10750000D03*
X49225000Y-10750000D03*
G04 #@! TD*
D34*
G04 #@! TO.C,2-U6*
X54575000Y-64400000D03*
X55525000Y-64400000D03*
X56475000Y-64400000D03*
X56475000Y-62125000D03*
X54575000Y-62125000D03*
G04 #@! TD*
D15*
G04 #@! TO.C,KiKit_MB_34_5*
X72267857Y-84000000D03*
G04 #@! TD*
D17*
G04 #@! TO.C,0-R2*
X43375000Y-20500000D03*
X43375000Y-18850000D03*
G04 #@! TD*
D15*
G04 #@! TO.C,KiKit_MB_7_4*
X40774500Y-40000000D03*
G04 #@! TD*
G04 #@! TO.C,KiKit_MB_22_4*
X61475502Y-69000041D03*
G04 #@! TD*
G04 #@! TO.C,KiKit_MB_27_2*
X8375000Y-833334D03*
G04 #@! TD*
G04 #@! TO.C,KiKit_MB_22_3*
X60625002Y-69000050D03*
G04 #@! TD*
D19*
G04 #@! TO.C,1-R4*
X53350000Y-32250000D03*
X55000000Y-32250000D03*
G04 #@! TD*
D15*
G04 #@! TO.C,KiKit_MB_8_1*
X39924002Y-25000283D03*
G04 #@! TD*
G04 #@! TO.C,KiKit_MB_25_5*
X8375000Y-46333333D03*
G04 #@! TD*
D19*
G04 #@! TO.C,0-R4*
X53350000Y-14250000D03*
X55000000Y-14250000D03*
G04 #@! TD*
D15*
G04 #@! TO.C,KiKit_MB_7_3*
X41625000Y-40000000D03*
G04 #@! TD*
G04 #@! TO.C,KiKit_MB_12_5*
X22423998Y-38499837D03*
G04 #@! TD*
D17*
G04 #@! TO.C,0-R1*
X37875000Y-15100000D03*
X37875000Y-13450000D03*
G04 #@! TD*
D35*
G04 #@! TO.C,1-U1*
X55325000Y-27612500D03*
X54375000Y-27612500D03*
X53425000Y-27612500D03*
X53425000Y-29887500D03*
X54375000Y-29887500D03*
X55325000Y-29887500D03*
G04 #@! TD*
D15*
G04 #@! TO.C,KiKit_MB_33_7*
X74089285Y-7000000D03*
G04 #@! TD*
G04 #@! TO.C,KiKit_MB_21_5*
X58924000Y-84000000D03*
G04 #@! TD*
D23*
G04 #@! TO.C,1-C4*
X48625000Y-36925000D03*
X48625000Y-38475000D03*
G04 #@! TD*
D15*
G04 #@! TO.C,KiKit_MB_20_4*
X42475502Y-69000254D03*
G04 #@! TD*
D29*
G04 #@! TO.C,1-D5*
X50375000Y-38800000D03*
X50375000Y-36700000D03*
G04 #@! TD*
D34*
G04 #@! TO.C,2-Q1*
X57675000Y-55887500D03*
X58625000Y-55887500D03*
X59575000Y-55887500D03*
X59575000Y-53612500D03*
X58625000Y-53612500D03*
X57675000Y-53612500D03*
G04 #@! TD*
D15*
G04 #@! TO.C,KiKit_MB_26_1*
X66625000Y-43000000D03*
G04 #@! TD*
D35*
G04 #@! TO.C,3-U1*
X55325000Y-71612500D03*
X54375000Y-71612500D03*
X53425000Y-71612500D03*
X53425000Y-73887500D03*
X54375000Y-73887500D03*
X55325000Y-73887500D03*
G04 #@! TD*
D26*
G04 #@! TO.C,0-C1*
X56600000Y-14250000D03*
X58150000Y-14250000D03*
G04 #@! TD*
D15*
G04 #@! TO.C,KiKit_MB_28_2*
X66625000Y-833334D03*
G04 #@! TD*
D17*
G04 #@! TO.C,2-R5*
X38375000Y-54825000D03*
X38375000Y-53175000D03*
G04 #@! TD*
D15*
G04 #@! TO.C,KiKit_MB_28_5*
X66625000Y-3333334D03*
G04 #@! TD*
G04 #@! TO.C,KiKit_MB_10_2*
X59774502Y-25000060D03*
G04 #@! TD*
G04 #@! TO.C,KiKit_MB_14_4*
X42475502Y-51000254D03*
G04 #@! TD*
G04 #@! TO.C,KiKit_MB_28_4*
X66625000Y-2500000D03*
G04 #@! TD*
D28*
G04 #@! TO.C,3-D4*
X45325000Y-76250000D03*
X47425000Y-76250000D03*
G04 #@! TD*
D20*
G04 #@! TO.C,3-JP1*
X61875000Y-73800000D03*
D21*
X61875000Y-72500000D03*
D22*
X61875000Y-71200000D03*
G04 #@! TD*
D17*
G04 #@! TO.C,2-R2*
X43375000Y-64500000D03*
X43375000Y-62850000D03*
G04 #@! TD*
D15*
G04 #@! TO.C,KiKit_MB_21_3*
X60625000Y-84000000D03*
G04 #@! TD*
G04 #@! TO.C,KiKit_MB_26_3*
X66625000Y-44666666D03*
G04 #@! TD*
G04 #@! TO.C,KiKit_MB_27_1*
X8375000Y0D03*
G04 #@! TD*
G04 #@! TO.C,KiKit_MB_22_1*
X58924002Y-69000069D03*
G04 #@! TD*
D17*
G04 #@! TO.C,0-R7*
X45125000Y-20525000D03*
X45125000Y-18875000D03*
G04 #@! TD*
D15*
G04 #@! TO.C,KiKit_MB_15_2*
X61475499Y-66000000D03*
G04 #@! TD*
G04 #@! TO.C,KiKit_MB_23_2*
X23274498Y-70500173D03*
G04 #@! TD*
G04 #@! TO.C,KiKit_MB_30_1*
X66625000Y-86000000D03*
G04 #@! TD*
D14*
G04 #@! TO.C,0-C7*
X47150000Y-12500000D03*
X45600000Y-12500000D03*
G04 #@! TD*
D37*
G04 #@! TO.C,2-R6*
X58200000Y-60000000D03*
X56550000Y-60000000D03*
G04 #@! TD*
D38*
G04 #@! TO.C,3-U3*
X49237500Y-77300000D03*
X49237500Y-78250000D03*
X49237500Y-79200000D03*
X51512500Y-79200000D03*
X51512500Y-77300000D03*
G04 #@! TD*
D33*
G04 #@! TO.C,1-U4*
X47262500Y-28950000D03*
X47262500Y-28000000D03*
X47262500Y-27050000D03*
X44987500Y-27050000D03*
X44987500Y-28000000D03*
X44987500Y-28950000D03*
G04 #@! TD*
D34*
G04 #@! TO.C,3-U6*
X54575000Y-82400000D03*
X55525000Y-82400000D03*
X56475000Y-82400000D03*
X56475000Y-80125000D03*
X54575000Y-80125000D03*
G04 #@! TD*
D33*
G04 #@! TO.C,0-U4*
X47262500Y-10950000D03*
X47262500Y-10000000D03*
X47262500Y-9050000D03*
X44987500Y-9050000D03*
X44987500Y-10000000D03*
X44987500Y-10950000D03*
G04 #@! TD*
D15*
G04 #@! TO.C,KiKit_MB_22_5*
X62326001Y-69000031D03*
G04 #@! TD*
G04 #@! TO.C,KiKit_MB_4_3*
X60625002Y-7000051D03*
G04 #@! TD*
D24*
G04 #@! TO.C,KiKit_TO_3*
X2500000Y-88500000D03*
G04 #@! TD*
D17*
G04 #@! TO.C,1-R11*
X59875000Y-34075000D03*
X59875000Y-32425000D03*
G04 #@! TD*
D38*
G04 #@! TO.C,1-U3*
X49237500Y-33300000D03*
X49237500Y-34250000D03*
X49237500Y-35200000D03*
X51512500Y-35200000D03*
X51512500Y-33300000D03*
G04 #@! TD*
D15*
G04 #@! TO.C,KiKit_MB_20_2*
X40774502Y-69000274D03*
G04 #@! TD*
D17*
G04 #@! TO.C,1-R9*
X43375000Y-32325000D03*
X43375000Y-30675000D03*
G04 #@! TD*
D15*
G04 #@! TO.C,KiKit_MB_29_3*
X8375000Y-87666666D03*
G04 #@! TD*
G04 #@! TO.C,KiKit_MB_26_4*
X66625000Y-45500000D03*
G04 #@! TD*
G04 #@! TO.C,KiKit_MB_11_1*
X22423998Y-26500162D03*
G04 #@! TD*
G04 #@! TO.C,KiKit_MB_25_4*
X8375000Y-45500000D03*
G04 #@! TD*
D25*
G04 #@! TO.C,2-D2*
X26162500Y-63000000D03*
X24587500Y-63000000D03*
G04 #@! TD*
D26*
G04 #@! TO.C,3-C3*
X45600000Y-78200000D03*
X47150000Y-78200000D03*
G04 #@! TD*
D15*
G04 #@! TO.C,KiKit_MB_18_5*
X22423998Y-64499837D03*
G04 #@! TD*
D17*
G04 #@! TO.C,1-R2*
X43375000Y-38500000D03*
X43375000Y-36850000D03*
G04 #@! TD*
D26*
G04 #@! TO.C,2-C1*
X56600000Y-58250000D03*
X58150000Y-58250000D03*
G04 #@! TD*
D17*
G04 #@! TO.C,2-R11*
X59875000Y-60075000D03*
X59875000Y-58425000D03*
G04 #@! TD*
D30*
G04 #@! TO.C,1-L1*
X60525000Y-37500000D03*
X58225000Y-37500000D03*
G04 #@! TD*
D15*
G04 #@! TO.C,KiKit_MB_29_5*
X8375000Y-89333333D03*
G04 #@! TD*
D19*
G04 #@! TO.C,3-R4*
X53350000Y-76250000D03*
X55000000Y-76250000D03*
G04 #@! TD*
D15*
G04 #@! TO.C,KiKit_MB_31_6*
X4553572Y-7000000D03*
G04 #@! TD*
D18*
G04 #@! TO.C,2-C6*
X43375000Y-61275000D03*
X43375000Y-59725000D03*
G04 #@! TD*
D30*
G04 #@! TO.C,0-L1*
X60525000Y-19500000D03*
X58225000Y-19500000D03*
G04 #@! TD*
D35*
G04 #@! TO.C,2-U1*
X55325000Y-53612500D03*
X54375000Y-53612500D03*
X53425000Y-53612500D03*
X53425000Y-55887500D03*
X54375000Y-55887500D03*
X55325000Y-55887500D03*
G04 #@! TD*
D15*
G04 #@! TO.C,KiKit_MB_2_4*
X42475502Y-7000255D03*
G04 #@! TD*
G04 #@! TO.C,KiKit_MB_13_3*
X41625000Y-66000000D03*
G04 #@! TD*
G04 #@! TO.C,KiKit_MB_1_2*
X42475499Y-22000000D03*
G04 #@! TD*
D35*
G04 #@! TO.C,1-U2*
X41575000Y-35862500D03*
X40625000Y-35862500D03*
X39675000Y-35862500D03*
X39675000Y-38137500D03*
X41575000Y-38137500D03*
G04 #@! TD*
D15*
G04 #@! TO.C,KiKit_MB_34_4*
X71357142Y-84000000D03*
G04 #@! TD*
D16*
G04 #@! TO.C,2-SW1*
X27250000Y-55500000D03*
X27250000Y-61500000D03*
X23500000Y-55500000D03*
X23500000Y-61500000D03*
G04 #@! TD*
D37*
G04 #@! TO.C,3-R3*
X55000000Y-78000000D03*
X53350000Y-78000000D03*
G04 #@! TD*
D35*
G04 #@! TO.C,3-U2*
X41575000Y-79862500D03*
X40625000Y-79862500D03*
X39675000Y-79862500D03*
X39675000Y-82137500D03*
X41575000Y-82137500D03*
G04 #@! TD*
D25*
G04 #@! TO.C,1-D2*
X26162500Y-37000000D03*
X24587500Y-37000000D03*
G04 #@! TD*
D15*
G04 #@! TO.C,KiKit_MB_25_3*
X8375000Y-44666666D03*
G04 #@! TD*
D17*
G04 #@! TO.C,3-R1*
X37875000Y-77100000D03*
X37875000Y-75450000D03*
G04 #@! TD*
D15*
G04 #@! TO.C,KiKit_MB_3_3*
X60625000Y-22000000D03*
G04 #@! TD*
D33*
G04 #@! TO.C,0-U5*
X42650000Y-10950000D03*
X42650000Y-10000000D03*
X42650000Y-9050000D03*
X40375000Y-9050000D03*
X40375000Y-10000000D03*
X40375000Y-10950000D03*
G04 #@! TD*
D15*
G04 #@! TO.C,KiKit_MB_20_3*
X41625002Y-69000264D03*
G04 #@! TD*
G04 #@! TO.C,KiKit_MB_32_8*
X6375000Y-84000000D03*
G04 #@! TD*
G04 #@! TO.C,KiKit_MB_26_6*
X66625000Y-47166666D03*
G04 #@! TD*
G04 #@! TO.C,KiKit_MB_12_4*
X23274498Y-38499826D03*
G04 #@! TD*
D17*
G04 #@! TO.C,3-R2*
X43375000Y-82500000D03*
X43375000Y-80850000D03*
G04 #@! TD*
D27*
G04 #@! TO.C,1-J4*
X64875000Y-34250000D03*
G04 #@! TD*
D20*
G04 #@! TO.C,3-JP4*
X61875000Y-78750000D03*
D21*
X61875000Y-77450000D03*
D22*
X61875000Y-76150000D03*
G04 #@! TD*
D15*
G04 #@! TO.C,KiKit_MB_23_1*
X22423998Y-70500162D03*
G04 #@! TD*
G04 #@! TO.C,KiKit_MB_4_1*
X58924002Y-7000070D03*
G04 #@! TD*
D20*
G04 #@! TO.C,0-JP1*
X61875000Y-11800000D03*
D21*
X61875000Y-10500000D03*
D22*
X61875000Y-9200000D03*
G04 #@! TD*
D27*
G04 #@! TO.C,2-J2*
X64875000Y-53250000D03*
G04 #@! TD*
G04 #@! TO.C,0-J5*
X64875000Y-19750000D03*
G04 #@! TD*
D33*
G04 #@! TO.C,3-U4*
X47262500Y-72950000D03*
X47262500Y-72000000D03*
X47262500Y-71050000D03*
X44987500Y-71050000D03*
X44987500Y-72000000D03*
X44987500Y-72950000D03*
G04 #@! TD*
D38*
G04 #@! TO.C,0-U3*
X49237500Y-15300000D03*
X49237500Y-16250000D03*
X49237500Y-17200000D03*
X51512500Y-17200000D03*
X51512500Y-15300000D03*
G04 #@! TD*
D15*
G04 #@! TO.C,KiKit_MB_7_5*
X39924000Y-40000000D03*
G04 #@! TD*
D34*
G04 #@! TO.C,1-Q1*
X57675000Y-29887500D03*
X58625000Y-29887500D03*
X59575000Y-29887500D03*
X59575000Y-27612500D03*
X58625000Y-27612500D03*
X57675000Y-27612500D03*
G04 #@! TD*
D23*
G04 #@! TO.C,3-C4*
X48625000Y-80925000D03*
X48625000Y-82475000D03*
G04 #@! TD*
D15*
G04 #@! TO.C,KiKit_MB_10_4*
X61475502Y-25000041D03*
G04 #@! TD*
D33*
G04 #@! TO.C,1-U5*
X42650000Y-28950000D03*
X42650000Y-28000000D03*
X42650000Y-27050000D03*
X40375000Y-27050000D03*
X40375000Y-28000000D03*
X40375000Y-28950000D03*
G04 #@! TD*
D27*
G04 #@! TO.C,KiKit_FID_T_4*
X70500000Y-86500000D03*
G04 #@! TD*
D15*
G04 #@! TO.C,KiKit_MB_19_5*
X39924000Y-84000000D03*
G04 #@! TD*
G04 #@! TO.C,KiKit_MB_28_7*
X66625000Y-5000000D03*
G04 #@! TD*
D17*
G04 #@! TO.C,0-R5*
X38375000Y-10825000D03*
X38375000Y-9175000D03*
G04 #@! TD*
D15*
G04 #@! TO.C,KiKit_MB_2_2*
X40774502Y-7000275D03*
G04 #@! TD*
G04 #@! TO.C,KiKit_MB_31_3*
X1821429Y-7000000D03*
G04 #@! TD*
G04 #@! TO.C,KiKit_MB_30_7*
X66625000Y-91000000D03*
G04 #@! TD*
G04 #@! TO.C,KiKit_MB_26_5*
X66625000Y-46333333D03*
G04 #@! TD*
G04 #@! TO.C,KiKit_MB_1_1*
X43325999Y-22000000D03*
G04 #@! TD*
D33*
G04 #@! TO.C,2-U5*
X42650000Y-54950000D03*
X42650000Y-54000000D03*
X42650000Y-53050000D03*
X40375000Y-53050000D03*
X40375000Y-54000000D03*
X40375000Y-54950000D03*
G04 #@! TD*
D20*
G04 #@! TO.C,2-JP4*
X61875000Y-60750000D03*
D21*
X61875000Y-59450000D03*
D22*
X61875000Y-58150000D03*
G04 #@! TD*
D15*
G04 #@! TO.C,KiKit_MB_30_4*
X66625000Y-88500000D03*
G04 #@! TD*
G04 #@! TO.C,KiKit_MB_28_3*
X66625000Y-1666667D03*
G04 #@! TD*
G04 #@! TO.C,KiKit_MB_31_2*
X910715Y-7000000D03*
G04 #@! TD*
D26*
G04 #@! TO.C,0-C3*
X45600000Y-16200000D03*
X47150000Y-16200000D03*
G04 #@! TD*
D15*
G04 #@! TO.C,KiKit_MB_32_5*
X3642858Y-84000000D03*
G04 #@! TD*
D35*
G04 #@! TO.C,2-U2*
X41575000Y-61862500D03*
X40625000Y-61862500D03*
X39675000Y-61862500D03*
X39675000Y-64137500D03*
X41575000Y-64137500D03*
G04 #@! TD*
D37*
G04 #@! TO.C,0-R6*
X58200000Y-16000000D03*
X56550000Y-16000000D03*
G04 #@! TD*
D15*
G04 #@! TO.C,KiKit_MB_27_3*
X8375000Y-1666667D03*
G04 #@! TD*
G04 #@! TO.C,KiKit_MB_12_1*
X25825998Y-38499793D03*
G04 #@! TD*
G04 #@! TO.C,KiKit_MB_5_4*
X24975498Y-8500196D03*
G04 #@! TD*
D29*
G04 #@! TO.C,0-D5*
X50375000Y-20800000D03*
X50375000Y-18700000D03*
G04 #@! TD*
D17*
G04 #@! TO.C,3-R9*
X43375000Y-76325000D03*
X43375000Y-74675000D03*
G04 #@! TD*
D15*
G04 #@! TO.C,KiKit_MB_21_4*
X59774500Y-84000000D03*
G04 #@! TD*
G04 #@! TO.C,KiKit_MB_6_3*
X24124998Y-20499815D03*
G04 #@! TD*
D23*
G04 #@! TO.C,3-C2*
X37875000Y-80225000D03*
X37875000Y-81775000D03*
G04 #@! TD*
D15*
G04 #@! TO.C,KiKit_MB_8_5*
X43326001Y-25000245D03*
G04 #@! TD*
G04 #@! TO.C,KiKit_MB_2_5*
X43326001Y-7000246D03*
G04 #@! TD*
D34*
G04 #@! TO.C,1-U7*
X39675000Y-33337500D03*
X40625000Y-33337500D03*
X41575000Y-33337500D03*
X41575000Y-31062500D03*
X39675000Y-31062500D03*
G04 #@! TD*
D15*
G04 #@! TO.C,KiKit_MB_21_1*
X62325999Y-84000000D03*
G04 #@! TD*
G04 #@! TO.C,KiKit_MB_6_1*
X25825998Y-20499793D03*
G04 #@! TD*
G04 #@! TO.C,KiKit_MB_19_1*
X43325999Y-84000000D03*
G04 #@! TD*
D34*
G04 #@! TO.C,0-U6*
X54575000Y-20400000D03*
X55525000Y-20400000D03*
X56475000Y-20400000D03*
X56475000Y-18125000D03*
X54575000Y-18125000D03*
G04 #@! TD*
D15*
G04 #@! TO.C,KiKit_MB_8_3*
X41625002Y-25000264D03*
G04 #@! TD*
G04 #@! TO.C,KiKit_MB_1_3*
X41625000Y-22000000D03*
G04 #@! TD*
G04 #@! TO.C,KiKit_MB_27_7*
X8375000Y-5000000D03*
G04 #@! TD*
G04 #@! TO.C,KiKit_MB_18_3*
X24124998Y-64499815D03*
G04 #@! TD*
D34*
G04 #@! TO.C,1-U6*
X54575000Y-38400000D03*
X55525000Y-38400000D03*
X56475000Y-38400000D03*
X56475000Y-36125000D03*
X54575000Y-36125000D03*
G04 #@! TD*
D15*
G04 #@! TO.C,KiKit_MB_32_1*
X0Y-84000000D03*
G04 #@! TD*
D39*
G04 #@! TO.C,1-D3*
X52375000Y-36700000D03*
X52375000Y-38800000D03*
G04 #@! TD*
D15*
G04 #@! TO.C,KiKit_MB_13_5*
X39924000Y-66000000D03*
G04 #@! TD*
G04 #@! TO.C,KiKit_MB_32_7*
X5464286Y-84000000D03*
G04 #@! TD*
G04 #@! TO.C,KiKit_MB_16_1*
X58924002Y-51000069D03*
G04 #@! TD*
D37*
G04 #@! TO.C,2-R3*
X55000000Y-60000000D03*
X53350000Y-60000000D03*
G04 #@! TD*
D30*
G04 #@! TO.C,2-L2*
X51525000Y-54750000D03*
X49225000Y-54750000D03*
G04 #@! TD*
D15*
G04 #@! TO.C,KiKit_MB_4_5*
X62326001Y-7000032D03*
G04 #@! TD*
G04 #@! TO.C,KiKit_MB_20_1*
X39924002Y-69000283D03*
G04 #@! TD*
D39*
G04 #@! TO.C,0-D3*
X52375000Y-18700000D03*
X52375000Y-20800000D03*
G04 #@! TD*
D15*
G04 #@! TO.C,KiKit_MB_15_4*
X59774500Y-66000000D03*
G04 #@! TD*
G04 #@! TO.C,KiKit_MB_10_3*
X60625002Y-25000050D03*
G04 #@! TD*
G04 #@! TO.C,KiKit_MB_13_2*
X42475499Y-66000000D03*
G04 #@! TD*
D17*
G04 #@! TO.C,0-R8*
X46875000Y-20525000D03*
X46875000Y-18875000D03*
G04 #@! TD*
D23*
G04 #@! TO.C,0-C2*
X37875000Y-18225000D03*
X37875000Y-19775000D03*
G04 #@! TD*
D29*
G04 #@! TO.C,3-D5*
X50375000Y-82800000D03*
X50375000Y-80700000D03*
G04 #@! TD*
D15*
G04 #@! TO.C,KiKit_MB_27_5*
X8375000Y-3333334D03*
G04 #@! TD*
G04 #@! TO.C,KiKit_MB_2_1*
X39924002Y-7000284D03*
G04 #@! TD*
D20*
G04 #@! TO.C,2-JP1*
X61875000Y-55800000D03*
D21*
X61875000Y-54500000D03*
D22*
X61875000Y-53200000D03*
G04 #@! TD*
D15*
G04 #@! TO.C,KiKit_MB_34_7*
X74089285Y-84000000D03*
G04 #@! TD*
G04 #@! TO.C,KiKit_MB_5_5*
X25825998Y-8500207D03*
G04 #@! TD*
D37*
G04 #@! TO.C,0-R3*
X55000000Y-16000000D03*
X53350000Y-16000000D03*
G04 #@! TD*
D15*
G04 #@! TO.C,KiKit_MB_24_5*
X22423998Y-82499837D03*
G04 #@! TD*
G04 #@! TO.C,KiKit_MB_16_3*
X60625002Y-51000050D03*
G04 #@! TD*
D30*
G04 #@! TO.C,1-L2*
X51525000Y-28750000D03*
X49225000Y-28750000D03*
G04 #@! TD*
D15*
G04 #@! TO.C,KiKit_MB_9_4*
X59774500Y-40000000D03*
G04 #@! TD*
D17*
G04 #@! TO.C,0-R9*
X43375000Y-14325000D03*
X43375000Y-12675000D03*
G04 #@! TD*
D24*
G04 #@! TO.C,KiKit_TO_1*
X2500000Y-2500000D03*
G04 #@! TD*
D37*
G04 #@! TO.C,1-R6*
X58200000Y-34000000D03*
X56550000Y-34000000D03*
G04 #@! TD*
D15*
G04 #@! TO.C,KiKit_MB_3_5*
X58924000Y-22000000D03*
G04 #@! TD*
D36*
G04 #@! TO.C,3-R10*
X62375000Y-80675000D03*
X62375000Y-82325000D03*
G04 #@! TD*
D14*
G04 #@! TO.C,1-C7*
X47150000Y-30500000D03*
X45600000Y-30500000D03*
G04 #@! TD*
D27*
G04 #@! TO.C,0-J3*
X64875000Y-12750000D03*
G04 #@! TD*
D38*
G04 #@! TO.C,2-U3*
X49237500Y-59300000D03*
X49237500Y-60250000D03*
X49237500Y-61200000D03*
X51512500Y-61200000D03*
X51512500Y-59300000D03*
G04 #@! TD*
D26*
G04 #@! TO.C,1-C3*
X45600000Y-34200000D03*
X47150000Y-34200000D03*
G04 #@! TD*
D15*
G04 #@! TO.C,KiKit_MB_15_1*
X62325999Y-66000000D03*
G04 #@! TD*
G04 #@! TO.C,KiKit_MB_23_5*
X25825998Y-70500206D03*
G04 #@! TD*
D34*
G04 #@! TO.C,3-U7*
X39675000Y-77337500D03*
X40625000Y-77337500D03*
X41575000Y-77337500D03*
X41575000Y-75062500D03*
X39675000Y-75062500D03*
G04 #@! TD*
D15*
G04 #@! TO.C,KiKit_MB_32_2*
X910715Y-84000000D03*
G04 #@! TD*
D30*
G04 #@! TO.C,2-L1*
X60525000Y-63500000D03*
X58225000Y-63500000D03*
G04 #@! TD*
D15*
G04 #@! TO.C,KiKit_MB_16_4*
X61475502Y-51000041D03*
G04 #@! TD*
G04 #@! TO.C,KiKit_MB_4_2*
X59774502Y-7000061D03*
G04 #@! TD*
G04 #@! TO.C,KiKit_MB_21_2*
X61475499Y-84000000D03*
G04 #@! TD*
G04 #@! TO.C,KiKit_MB_34_2*
X69535714Y-84000000D03*
G04 #@! TD*
D36*
G04 #@! TO.C,2-R10*
X62375000Y-62675000D03*
X62375000Y-64325000D03*
G04 #@! TD*
D15*
G04 #@! TO.C,KiKit_MB_24_2*
X24975498Y-82499804D03*
G04 #@! TD*
G04 #@! TO.C,KiKit_MB_12_2*
X24975498Y-38499804D03*
G04 #@! TD*
D18*
G04 #@! TO.C,1-C6*
X43375000Y-35275000D03*
X43375000Y-33725000D03*
G04 #@! TD*
D15*
G04 #@! TO.C,KiKit_MB_24_3*
X24124998Y-82499815D03*
G04 #@! TD*
G04 #@! TO.C,KiKit_MB_34_8*
X75000000Y-84000000D03*
G04 #@! TD*
G04 #@! TO.C,KiKit_MB_17_1*
X22423998Y-52500162D03*
G04 #@! TD*
G04 #@! TO.C,KiKit_MB_5_2*
X23274498Y-8500174D03*
G04 #@! TD*
D14*
G04 #@! TO.C,3-C5*
X51150000Y-75500000D03*
X49600000Y-75500000D03*
G04 #@! TD*
D20*
G04 #@! TO.C,0-JP4*
X61875000Y-16750000D03*
D21*
X61875000Y-15450000D03*
D22*
X61875000Y-14150000D03*
G04 #@! TD*
D23*
G04 #@! TO.C,2-C2*
X37875000Y-62225000D03*
X37875000Y-63775000D03*
G04 #@! TD*
D31*
G04 #@! TO.C,0-J1*
X14875000Y-18310000D03*
D32*
X15125000Y-15580000D03*
X15125000Y-13420000D03*
D31*
X14875000Y-10690000D03*
G04 #@! TD*
D17*
G04 #@! TO.C,0-R11*
X59875000Y-16075000D03*
X59875000Y-14425000D03*
G04 #@! TD*
D15*
G04 #@! TO.C,KiKit_MB_27_6*
X8375000Y-4166667D03*
G04 #@! TD*
D31*
G04 #@! TO.C,1-J1*
X14875000Y-36310000D03*
D32*
X15125000Y-33580000D03*
X15125000Y-31420000D03*
D31*
X14875000Y-28690000D03*
G04 #@! TD*
D15*
G04 #@! TO.C,KiKit_MB_17_3*
X24124998Y-52500184D03*
G04 #@! TD*
D14*
G04 #@! TO.C,3-C7*
X47150000Y-74500000D03*
X45600000Y-74500000D03*
G04 #@! TD*
D39*
G04 #@! TO.C,2-D3*
X52375000Y-62700000D03*
X52375000Y-64800000D03*
G04 #@! TD*
D33*
G04 #@! TO.C,2-U4*
X47262500Y-54950000D03*
X47262500Y-54000000D03*
X47262500Y-53050000D03*
X44987500Y-53050000D03*
X44987500Y-54000000D03*
X44987500Y-54950000D03*
G04 #@! TD*
D15*
G04 #@! TO.C,KiKit_MB_9_3*
X60625000Y-40000000D03*
G04 #@! TD*
D18*
G04 #@! TO.C,0-C6*
X43375000Y-17275000D03*
X43375000Y-15725000D03*
G04 #@! TD*
D15*
G04 #@! TO.C,KiKit_MB_31_5*
X3642858Y-7000000D03*
G04 #@! TD*
G04 #@! TO.C,KiKit_MB_16_5*
X62326001Y-51000031D03*
G04 #@! TD*
D34*
G04 #@! TO.C,2-U7*
X39675000Y-59337500D03*
X40625000Y-59337500D03*
X41575000Y-59337500D03*
X41575000Y-57062500D03*
X39675000Y-57062500D03*
G04 #@! TD*
D15*
G04 #@! TO.C,KiKit_MB_33_1*
X68625000Y-7000000D03*
G04 #@! TD*
G04 #@! TO.C,KiKit_MB_6_4*
X23274498Y-20499826D03*
G04 #@! TD*
G04 #@! TO.C,KiKit_MB_31_1*
X0Y-7000000D03*
G04 #@! TD*
D27*
G04 #@! TO.C,1-J2*
X64875000Y-27250000D03*
G04 #@! TD*
D15*
G04 #@! TO.C,KiKit_MB_11_2*
X23274498Y-26500173D03*
G04 #@! TD*
G04 #@! TO.C,KiKit_MB_29_1*
X8375000Y-86000000D03*
G04 #@! TD*
G04 #@! TO.C,KiKit_MB_2_3*
X41625002Y-7000265D03*
G04 #@! TD*
D31*
G04 #@! TO.C,2-J1*
X14875000Y-62310000D03*
D32*
X15125000Y-59580000D03*
X15125000Y-57420000D03*
D31*
X14875000Y-54690000D03*
G04 #@! TD*
D27*
G04 #@! TO.C,KiKit_FID_T_2*
X70500000Y-4500000D03*
G04 #@! TD*
D36*
G04 #@! TO.C,1-R10*
X62375000Y-36675000D03*
X62375000Y-38325000D03*
G04 #@! TD*
D15*
G04 #@! TO.C,KiKit_MB_11_4*
X24975498Y-26500195D03*
G04 #@! TD*
D27*
G04 #@! TO.C,1-J3*
X64875000Y-30750000D03*
G04 #@! TD*
G04 #@! TO.C,2-J5*
X64875000Y-63750000D03*
G04 #@! TD*
D15*
G04 #@! TO.C,KiKit_MB_17_4*
X24975498Y-52500195D03*
G04 #@! TD*
G04 #@! TO.C,KiKit_MB_24_1*
X25825998Y-82499793D03*
G04 #@! TD*
D24*
G04 #@! TO.C,KiKit_TO_2*
X72500000Y-2500000D03*
G04 #@! TD*
D27*
G04 #@! TO.C,KiKit_FID_T_3*
X4500000Y-86500000D03*
G04 #@! TD*
D15*
G04 #@! TO.C,KiKit_MB_20_5*
X43326001Y-69000245D03*
G04 #@! TD*
G04 #@! TO.C,KiKit_MB_14_1*
X39924002Y-51000283D03*
G04 #@! TD*
D27*
G04 #@! TO.C,2-J4*
X64875000Y-60250000D03*
G04 #@! TD*
D39*
G04 #@! TO.C,3-D3*
X52375000Y-80700000D03*
X52375000Y-82800000D03*
G04 #@! TD*
D15*
G04 #@! TO.C,KiKit_MB_33_3*
X70446428Y-7000000D03*
G04 #@! TD*
G04 #@! TO.C,KiKit_MB_32_6*
X4553572Y-84000000D03*
G04 #@! TD*
D23*
G04 #@! TO.C,2-C4*
X48625000Y-62925000D03*
X48625000Y-64475000D03*
G04 #@! TD*
D16*
G04 #@! TO.C,0-SW1*
X27250000Y-11500000D03*
X27250000Y-17500000D03*
X23500000Y-11500000D03*
X23500000Y-17500000D03*
G04 #@! TD*
D15*
G04 #@! TO.C,KiKit_MB_33_8*
X75000000Y-7000000D03*
G04 #@! TD*
G04 #@! TO.C,KiKit_MB_3_4*
X59774500Y-22000000D03*
G04 #@! TD*
G04 #@! TO.C,KiKit_MB_14_3*
X41625002Y-51000264D03*
G04 #@! TD*
G04 #@! TO.C,KiKit_MB_33_2*
X69535714Y-7000000D03*
G04 #@! TD*
G04 #@! TO.C,KiKit_MB_29_6*
X8375000Y-90166666D03*
G04 #@! TD*
D26*
G04 #@! TO.C,1-C1*
X56600000Y-32250000D03*
X58150000Y-32250000D03*
G04 #@! TD*
%LPD*%
M02*
