M48
; DRILL file {KiCad 8.0.1} date 2025-03-12T15:21:45+0100
; FORMAT={-:-/ absolute / metric / decimal}
; #@! TF.CreationDate,2025-03-12T15:21:45+01:00
; #@! TF.GenerationSoftware,Kicad,Pcbnew,8.0.1
; #@! TF.FileFunction,Plated,1,2,PTH
FMAT,2
METRIC
; #@! TA.AperFunction,Plated,PTH,ViaDrill
T1C0.300
; #@! TA.AperFunction,Plated,PTH,ComponentDrill
T2C1.000
%
G90
G05
T1
X23.125Y-9.5
X23.125Y-10.5
X23.125Y-27.5
X23.125Y-28.5
X23.125Y-53.5
X23.125Y-54.5
X23.125Y-71.5
X23.125Y-72.5
X23.475Y-12.7
X23.475Y-30.7
X23.475Y-56.7
X23.475Y-74.7
X23.5Y-17.5
X23.5Y-35.5
X23.5Y-61.5
X23.5Y-79.5
X24.125Y-9.5
X24.125Y-10.5
X24.125Y-27.5
X24.125Y-28.5
X24.125Y-53.5
X24.125Y-54.5
X24.125Y-71.5
X24.125Y-72.5
X24.575Y-19.7
X24.575Y-37.7
X24.575Y-63.7
X24.575Y-81.7
X25.125Y-9.5
X25.125Y-10.5
X25.125Y-27.5
X25.125Y-28.5
X25.125Y-53.5
X25.125Y-54.5
X25.125Y-71.5
X25.125Y-72.5
X26.125Y-17.5
X26.125Y-35.5
X26.125Y-61.5
X26.125Y-79.5
X26.775Y-19.0
X26.775Y-37.0
X26.775Y-63.0
X26.775Y-81.0
X28.375Y-17.5
X28.375Y-35.5
X28.375Y-61.5
X28.375Y-79.5
X30.775Y-18.65
X30.775Y-36.65
X30.775Y-62.65
X30.775Y-80.65
X32.075Y-9.3
X32.075Y-27.3
X32.075Y-53.3
X32.075Y-71.3
X32.775Y-18.65
X32.775Y-36.65
X32.775Y-62.65
X32.775Y-80.65
X34.075Y-9.3
X34.075Y-27.3
X34.075Y-53.3
X34.075Y-71.3
X34.425Y-17.05
X34.425Y-35.05
X34.425Y-61.05
X34.425Y-79.05
X35.375Y-16.1
X35.375Y-34.1
X35.375Y-60.1
X35.375Y-78.1
X36.083Y-17.35
X36.083Y-35.35
X36.083Y-61.35
X36.083Y-79.35
X36.275Y-12.0
X36.275Y-13.4
X36.275Y-30.0
X36.275Y-31.4
X36.275Y-56.0
X36.275Y-57.4
X36.275Y-74.0
X36.275Y-75.4
X36.975Y-16.0
X36.975Y-17.4
X36.975Y-34.0
X36.975Y-35.4
X36.975Y-60.0
X36.975Y-61.4
X36.975Y-78.0
X36.975Y-79.4
X37.325Y-11.3
X37.325Y-29.3
X37.325Y-55.3
X37.325Y-73.3
X38.625Y-16.0
X38.625Y-34.0
X38.625Y-60.0
X38.625Y-78.0
X38.875Y-12.0
X38.875Y-14.2
X38.875Y-18.0
X38.875Y-30.0
X38.875Y-32.2
X38.875Y-36.0
X38.875Y-56.0
X38.875Y-58.2
X38.875Y-62.0
X38.875Y-74.0
X38.875Y-76.2
X38.875Y-80.0
X39.675Y-13.4
X39.675Y-16.55
X39.675Y-31.4
X39.675Y-34.55
X39.675Y-57.4
X39.675Y-60.55
X39.675Y-75.4
X39.675Y-78.55
X40.575Y-16.6
X40.575Y-34.6
X40.575Y-60.6
X40.575Y-78.6
X41.575Y-14.75
X41.575Y-15.8
X41.575Y-32.75
X41.575Y-33.8
X41.575Y-58.75
X41.575Y-59.8
X41.575Y-76.75
X41.575Y-77.8
X42.125Y-10.0
X42.125Y-12.0
X42.125Y-28.0
X42.125Y-30.0
X42.125Y-54.0
X42.125Y-56.0
X42.125Y-72.0
X42.125Y-74.0
X42.475Y-17.3
X42.475Y-35.3
X42.475Y-61.3
X42.475Y-79.3
X43.375Y-20.0
X43.375Y-38.0
X43.375Y-64.0
X43.375Y-82.0
X43.875Y-7.8
X43.875Y-10.0
X43.875Y-25.8
X43.875Y-28.0
X43.875Y-51.8
X43.875Y-54.0
X43.875Y-69.8
X43.875Y-72.0
X44.375Y-17.25
X44.375Y-35.25
X44.375Y-61.25
X44.375Y-79.25
X45.125Y-18.0
X45.125Y-36.0
X45.125Y-62.0
X45.125Y-80.0
X46.575Y-14.4
X46.575Y-32.4
X46.575Y-58.4
X46.575Y-76.4
X46.625Y-10.0
X46.625Y-28.0
X46.625Y-54.0
X46.625Y-72.0
X47.125Y-12.5
X47.125Y-30.5
X47.125Y-56.5
X47.125Y-74.5
X47.175Y-16.2
X47.175Y-34.2
X47.175Y-60.2
X47.175Y-78.2
X47.965Y-17.278
X47.965Y-35.278
X47.965Y-61.278
X47.965Y-79.278
X48.377Y-17.975
X48.377Y-35.975
X48.377Y-61.975
X48.377Y-79.975
X48.603Y-19.875
X48.603Y-37.875
X48.603Y-63.875
X48.603Y-81.875
X48.875Y-16.25
X48.875Y-34.25
X48.875Y-60.25
X48.875Y-78.25
X49.625Y-13.5
X49.625Y-16.25
X49.625Y-19.75
X49.625Y-31.5
X49.625Y-34.25
X49.625Y-37.75
X49.625Y-57.5
X49.625Y-60.25
X49.625Y-63.75
X49.625Y-75.5
X49.625Y-78.25
X49.625Y-81.75
X50.375Y-8.75
X50.375Y-14.45
X50.375Y-26.75
X50.375Y-32.45
X50.375Y-52.75
X50.375Y-58.45
X50.375Y-70.75
X50.375Y-76.45
X50.625Y-16.25
X50.625Y-34.25
X50.625Y-60.25
X50.625Y-78.25
X51.375Y-21.0
X51.375Y-39.0
X51.375Y-65.0
X51.375Y-83.0
X51.512Y-17.2
X51.512Y-35.2
X51.512Y-61.2
X51.512Y-79.2
X53.375Y-16.0
X53.375Y-17.0
X53.375Y-34.0
X53.375Y-35.0
X53.375Y-60.0
X53.375Y-61.0
X53.375Y-78.0
X53.375Y-79.0
X55.375Y-20.0
X55.375Y-20.75
X55.375Y-38.0
X55.375Y-38.75
X55.375Y-64.0
X55.375Y-64.75
X55.375Y-82.0
X55.375Y-82.75
X56.125Y-11.887
X56.125Y-29.887
X56.125Y-55.887
X56.125Y-73.888
X56.625Y-13.15
X56.625Y-17.0
X56.625Y-31.15
X56.625Y-35.0
X56.625Y-57.15
X56.625Y-61.0
X56.625Y-75.15
X56.625Y-79.0
X59.375Y-18.25
X59.375Y-20.75
X59.375Y-36.25
X59.375Y-38.75
X59.375Y-62.25
X59.375Y-64.75
X59.375Y-80.25
X59.375Y-82.75
X59.625Y-11.5
X59.625Y-12.25
X59.625Y-29.5
X59.625Y-30.25
X59.625Y-55.5
X59.625Y-56.25
X59.625Y-73.5
X59.625Y-74.25
X61.875Y-9.25
X61.875Y-10.5
X61.875Y-27.25
X61.875Y-28.5
X61.875Y-53.25
X61.875Y-54.5
X61.875Y-71.25
X61.875Y-72.5
T2
X64.875Y-9.25
X64.875Y-12.75
X64.875Y-16.25
X64.875Y-19.75
X64.875Y-27.25
X64.875Y-30.75
X64.875Y-34.25
X64.875Y-37.75
X64.875Y-53.25
X64.875Y-56.75
X64.875Y-60.25
X64.875Y-63.75
X64.875Y-71.25
X64.875Y-74.75
X64.875Y-78.25
X64.875Y-81.75
M30
