G04 #@! TF.GenerationSoftware,KiCad,Pcbnew,8.0.1*
G04 #@! TF.CreationDate,2025-03-12T15:21:45+01:00*
G04 #@! TF.ProjectId,panel_E,70616e65-6c5f-4452-9e6b-696361645f70,E*
G04 #@! TF.SameCoordinates,Original*
G04 #@! TF.FileFunction,Legend,Bot*
G04 #@! TF.FilePolarity,Positive*
%FSLAX46Y46*%
G04 Gerber Fmt 4.6, Leading zero omitted, Abs format (unit mm)*
G04 Created by KiCad (PCBNEW 8.0.1) date 2025-03-12 15:21:45*
%MOMM*%
%LPD*%
G01*
G04 APERTURE LIST*
%ADD10C,0.250000*%
%ADD11C,0.200000*%
%ADD12C,0.500000*%
%ADD13C,1.152000*%
%ADD14C,2.000000*%
G04 APERTURE END LIST*
D10*
X49781383Y-15569071D02*
X49067097Y-15569071D01*
X49067097Y-15569071D02*
X49067097Y-17069071D01*
X50281383Y-16354785D02*
X50781383Y-16354785D01*
X50995669Y-15569071D02*
X50281383Y-15569071D01*
X50281383Y-15569071D02*
X50281383Y-17069071D01*
X50281383Y-17069071D02*
X50995669Y-17069071D01*
X51638526Y-15569071D02*
X51638526Y-17069071D01*
X51638526Y-17069071D02*
X51995669Y-17069071D01*
X51995669Y-17069071D02*
X52209955Y-16997642D01*
X52209955Y-16997642D02*
X52352812Y-16854785D01*
X52352812Y-16854785D02*
X52424241Y-16711928D01*
X52424241Y-16711928D02*
X52495669Y-16426214D01*
X52495669Y-16426214D02*
X52495669Y-16211928D01*
X52495669Y-16211928D02*
X52424241Y-15926214D01*
X52424241Y-15926214D02*
X52352812Y-15783357D01*
X52352812Y-15783357D02*
X52209955Y-15640500D01*
X52209955Y-15640500D02*
X51995669Y-15569071D01*
X51995669Y-15569071D02*
X51638526Y-15569071D01*
X55138526Y-15569071D02*
X54638526Y-16283357D01*
X54281383Y-15569071D02*
X54281383Y-17069071D01*
X54281383Y-17069071D02*
X54852812Y-17069071D01*
X54852812Y-17069071D02*
X54995669Y-16997642D01*
X54995669Y-16997642D02*
X55067098Y-16926214D01*
X55067098Y-16926214D02*
X55138526Y-16783357D01*
X55138526Y-16783357D02*
X55138526Y-16569071D01*
X55138526Y-16569071D02*
X55067098Y-16426214D01*
X55067098Y-16426214D02*
X54995669Y-16354785D01*
X54995669Y-16354785D02*
X54852812Y-16283357D01*
X54852812Y-16283357D02*
X54281383Y-16283357D01*
X56067098Y-17069071D02*
X56352812Y-17069071D01*
X56352812Y-17069071D02*
X56495669Y-16997642D01*
X56495669Y-16997642D02*
X56638526Y-16854785D01*
X56638526Y-16854785D02*
X56709955Y-16569071D01*
X56709955Y-16569071D02*
X56709955Y-16069071D01*
X56709955Y-16069071D02*
X56638526Y-15783357D01*
X56638526Y-15783357D02*
X56495669Y-15640500D01*
X56495669Y-15640500D02*
X56352812Y-15569071D01*
X56352812Y-15569071D02*
X56067098Y-15569071D01*
X56067098Y-15569071D02*
X55924241Y-15640500D01*
X55924241Y-15640500D02*
X55781383Y-15783357D01*
X55781383Y-15783357D02*
X55709955Y-16069071D01*
X55709955Y-16069071D02*
X55709955Y-16569071D01*
X55709955Y-16569071D02*
X55781383Y-16854785D01*
X55781383Y-16854785D02*
X55924241Y-16997642D01*
X55924241Y-16997642D02*
X56067098Y-17069071D01*
X57138527Y-17069071D02*
X57995670Y-17069071D01*
X57567098Y-15569071D02*
X57567098Y-17069071D01*
X59638526Y-16140500D02*
X60781384Y-16140500D01*
X60209955Y-15569071D02*
X60209955Y-16711928D01*
X47209955Y-70997642D02*
X47924241Y-70997642D01*
X47067098Y-70569071D02*
X47567098Y-72069071D01*
X47567098Y-72069071D02*
X48067098Y-70569071D01*
X48567097Y-70569071D02*
X48567097Y-72069071D01*
X49424240Y-70569071D02*
X48781383Y-71426214D01*
X49424240Y-72069071D02*
X48567097Y-71211928D01*
X50067097Y-70569071D02*
X50067097Y-72069071D01*
X50924240Y-70569071D02*
X50281383Y-71426214D01*
X50924240Y-72069071D02*
X50067097Y-71211928D01*
X51567097Y-72069071D02*
X51567097Y-70854785D01*
X51567097Y-70854785D02*
X51638526Y-70711928D01*
X51638526Y-70711928D02*
X51709955Y-70640500D01*
X51709955Y-70640500D02*
X51852812Y-70569071D01*
X51852812Y-70569071D02*
X52138526Y-70569071D01*
X52138526Y-70569071D02*
X52281383Y-70640500D01*
X52281383Y-70640500D02*
X52352812Y-70711928D01*
X52352812Y-70711928D02*
X52424240Y-70854785D01*
X52424240Y-70854785D02*
X52424240Y-72069071D01*
X55138526Y-70569071D02*
X54638526Y-71283357D01*
X54281383Y-70569071D02*
X54281383Y-72069071D01*
X54281383Y-72069071D02*
X54852812Y-72069071D01*
X54852812Y-72069071D02*
X54995669Y-71997642D01*
X54995669Y-71997642D02*
X55067098Y-71926214D01*
X55067098Y-71926214D02*
X55138526Y-71783357D01*
X55138526Y-71783357D02*
X55138526Y-71569071D01*
X55138526Y-71569071D02*
X55067098Y-71426214D01*
X55067098Y-71426214D02*
X54995669Y-71354785D01*
X54995669Y-71354785D02*
X54852812Y-71283357D01*
X54852812Y-71283357D02*
X54281383Y-71283357D01*
X56067098Y-72069071D02*
X56352812Y-72069071D01*
X56352812Y-72069071D02*
X56495669Y-71997642D01*
X56495669Y-71997642D02*
X56638526Y-71854785D01*
X56638526Y-71854785D02*
X56709955Y-71569071D01*
X56709955Y-71569071D02*
X56709955Y-71069071D01*
X56709955Y-71069071D02*
X56638526Y-70783357D01*
X56638526Y-70783357D02*
X56495669Y-70640500D01*
X56495669Y-70640500D02*
X56352812Y-70569071D01*
X56352812Y-70569071D02*
X56067098Y-70569071D01*
X56067098Y-70569071D02*
X55924241Y-70640500D01*
X55924241Y-70640500D02*
X55781383Y-70783357D01*
X55781383Y-70783357D02*
X55709955Y-71069071D01*
X55709955Y-71069071D02*
X55709955Y-71569071D01*
X55709955Y-71569071D02*
X55781383Y-71854785D01*
X55781383Y-71854785D02*
X55924241Y-71997642D01*
X55924241Y-71997642D02*
X56067098Y-72069071D01*
X57138527Y-72069071D02*
X57995670Y-72069071D01*
X57567098Y-70569071D02*
X57567098Y-72069071D01*
X59638526Y-71140500D02*
X60781384Y-71140500D01*
X60209955Y-70569071D02*
X60209955Y-71711928D01*
X49781383Y-59569071D02*
X49067097Y-59569071D01*
X49067097Y-59569071D02*
X49067097Y-61069071D01*
X50281383Y-60354785D02*
X50781383Y-60354785D01*
X50995669Y-59569071D02*
X50281383Y-59569071D01*
X50281383Y-59569071D02*
X50281383Y-61069071D01*
X50281383Y-61069071D02*
X50995669Y-61069071D01*
X51638526Y-59569071D02*
X51638526Y-61069071D01*
X51638526Y-61069071D02*
X51995669Y-61069071D01*
X51995669Y-61069071D02*
X52209955Y-60997642D01*
X52209955Y-60997642D02*
X52352812Y-60854785D01*
X52352812Y-60854785D02*
X52424241Y-60711928D01*
X52424241Y-60711928D02*
X52495669Y-60426214D01*
X52495669Y-60426214D02*
X52495669Y-60211928D01*
X52495669Y-60211928D02*
X52424241Y-59926214D01*
X52424241Y-59926214D02*
X52352812Y-59783357D01*
X52352812Y-59783357D02*
X52209955Y-59640500D01*
X52209955Y-59640500D02*
X51995669Y-59569071D01*
X51995669Y-59569071D02*
X51638526Y-59569071D01*
X55138526Y-59569071D02*
X54638526Y-60283357D01*
X54281383Y-59569071D02*
X54281383Y-61069071D01*
X54281383Y-61069071D02*
X54852812Y-61069071D01*
X54852812Y-61069071D02*
X54995669Y-60997642D01*
X54995669Y-60997642D02*
X55067098Y-60926214D01*
X55067098Y-60926214D02*
X55138526Y-60783357D01*
X55138526Y-60783357D02*
X55138526Y-60569071D01*
X55138526Y-60569071D02*
X55067098Y-60426214D01*
X55067098Y-60426214D02*
X54995669Y-60354785D01*
X54995669Y-60354785D02*
X54852812Y-60283357D01*
X54852812Y-60283357D02*
X54281383Y-60283357D01*
X56067098Y-61069071D02*
X56352812Y-61069071D01*
X56352812Y-61069071D02*
X56495669Y-60997642D01*
X56495669Y-60997642D02*
X56638526Y-60854785D01*
X56638526Y-60854785D02*
X56709955Y-60569071D01*
X56709955Y-60569071D02*
X56709955Y-60069071D01*
X56709955Y-60069071D02*
X56638526Y-59783357D01*
X56638526Y-59783357D02*
X56495669Y-59640500D01*
X56495669Y-59640500D02*
X56352812Y-59569071D01*
X56352812Y-59569071D02*
X56067098Y-59569071D01*
X56067098Y-59569071D02*
X55924241Y-59640500D01*
X55924241Y-59640500D02*
X55781383Y-59783357D01*
X55781383Y-59783357D02*
X55709955Y-60069071D01*
X55709955Y-60069071D02*
X55709955Y-60569071D01*
X55709955Y-60569071D02*
X55781383Y-60854785D01*
X55781383Y-60854785D02*
X55924241Y-60997642D01*
X55924241Y-60997642D02*
X56067098Y-61069071D01*
X57138527Y-61069071D02*
X57995670Y-61069071D01*
X57567098Y-59569071D02*
X57567098Y-61069071D01*
X59638526Y-60140500D02*
X60781384Y-60140500D01*
X60209955Y-59569071D02*
X60209955Y-60711928D01*
X40995670Y-30497642D02*
X41709956Y-30497642D01*
X40852813Y-30069071D02*
X41352813Y-31569071D01*
X41352813Y-31569071D02*
X41852813Y-30069071D01*
X42352812Y-30069071D02*
X42352812Y-31569071D01*
X43209955Y-30069071D02*
X42567098Y-30926214D01*
X43209955Y-31569071D02*
X42352812Y-30711928D01*
X43852812Y-30069071D02*
X43852812Y-31569071D01*
X44709955Y-30069071D02*
X44067098Y-30926214D01*
X44709955Y-31569071D02*
X43852812Y-30711928D01*
X45352812Y-31569071D02*
X45352812Y-30354785D01*
X45352812Y-30354785D02*
X45424241Y-30211928D01*
X45424241Y-30211928D02*
X45495670Y-30140500D01*
X45495670Y-30140500D02*
X45638527Y-30069071D01*
X45638527Y-30069071D02*
X45924241Y-30069071D01*
X45924241Y-30069071D02*
X46067098Y-30140500D01*
X46067098Y-30140500D02*
X46138527Y-30211928D01*
X46138527Y-30211928D02*
X46209955Y-30354785D01*
X46209955Y-30354785D02*
X46209955Y-31569071D01*
X47995670Y-30140500D02*
X48209956Y-30069071D01*
X48209956Y-30069071D02*
X48567098Y-30069071D01*
X48567098Y-30069071D02*
X48709956Y-30140500D01*
X48709956Y-30140500D02*
X48781384Y-30211928D01*
X48781384Y-30211928D02*
X48852813Y-30354785D01*
X48852813Y-30354785D02*
X48852813Y-30497642D01*
X48852813Y-30497642D02*
X48781384Y-30640500D01*
X48781384Y-30640500D02*
X48709956Y-30711928D01*
X48709956Y-30711928D02*
X48567098Y-30783357D01*
X48567098Y-30783357D02*
X48281384Y-30854785D01*
X48281384Y-30854785D02*
X48138527Y-30926214D01*
X48138527Y-30926214D02*
X48067098Y-30997642D01*
X48067098Y-30997642D02*
X47995670Y-31140500D01*
X47995670Y-31140500D02*
X47995670Y-31283357D01*
X47995670Y-31283357D02*
X48067098Y-31426214D01*
X48067098Y-31426214D02*
X48138527Y-31497642D01*
X48138527Y-31497642D02*
X48281384Y-31569071D01*
X48281384Y-31569071D02*
X48638527Y-31569071D01*
X48638527Y-31569071D02*
X48852813Y-31497642D01*
X50352812Y-30211928D02*
X50281384Y-30140500D01*
X50281384Y-30140500D02*
X50067098Y-30069071D01*
X50067098Y-30069071D02*
X49924241Y-30069071D01*
X49924241Y-30069071D02*
X49709955Y-30140500D01*
X49709955Y-30140500D02*
X49567098Y-30283357D01*
X49567098Y-30283357D02*
X49495669Y-30426214D01*
X49495669Y-30426214D02*
X49424241Y-30711928D01*
X49424241Y-30711928D02*
X49424241Y-30926214D01*
X49424241Y-30926214D02*
X49495669Y-31211928D01*
X49495669Y-31211928D02*
X49567098Y-31354785D01*
X49567098Y-31354785D02*
X49709955Y-31497642D01*
X49709955Y-31497642D02*
X49924241Y-31569071D01*
X49924241Y-31569071D02*
X50067098Y-31569071D01*
X50067098Y-31569071D02*
X50281384Y-31497642D01*
X50281384Y-31497642D02*
X50352812Y-31426214D01*
X50995669Y-30069071D02*
X50995669Y-31569071D01*
X50995669Y-30854785D02*
X51852812Y-30854785D01*
X51852812Y-30069071D02*
X51852812Y-31569071D01*
X52424241Y-31569071D02*
X52781384Y-30069071D01*
X52781384Y-30069071D02*
X53067098Y-31140500D01*
X53067098Y-31140500D02*
X53352813Y-30069071D01*
X53352813Y-30069071D02*
X53709956Y-31569071D01*
X54209956Y-30497642D02*
X54924242Y-30497642D01*
X54067099Y-30069071D02*
X54567099Y-31569071D01*
X54567099Y-31569071D02*
X55067099Y-30069071D01*
X56424241Y-30069071D02*
X55924241Y-30783357D01*
X55567098Y-30069071D02*
X55567098Y-31569071D01*
X55567098Y-31569071D02*
X56138527Y-31569071D01*
X56138527Y-31569071D02*
X56281384Y-31497642D01*
X56281384Y-31497642D02*
X56352813Y-31426214D01*
X56352813Y-31426214D02*
X56424241Y-31283357D01*
X56424241Y-31283357D02*
X56424241Y-31069071D01*
X56424241Y-31069071D02*
X56352813Y-30926214D01*
X56352813Y-30926214D02*
X56281384Y-30854785D01*
X56281384Y-30854785D02*
X56138527Y-30783357D01*
X56138527Y-30783357D02*
X55567098Y-30783357D01*
X56924241Y-31569071D02*
X57924241Y-31569071D01*
X57924241Y-31569071D02*
X56924241Y-30069071D01*
X56924241Y-30069071D02*
X57924241Y-30069071D01*
X59638526Y-30640500D02*
X60781384Y-30640500D01*
X43567098Y-81069071D02*
X42852812Y-81069071D01*
X42852812Y-81069071D02*
X42852812Y-82569071D01*
X44067098Y-81854785D02*
X44567098Y-81854785D01*
X44781384Y-81069071D02*
X44067098Y-81069071D01*
X44067098Y-81069071D02*
X44067098Y-82569071D01*
X44067098Y-82569071D02*
X44781384Y-82569071D01*
X45424241Y-81069071D02*
X45424241Y-82569071D01*
X45424241Y-82569071D02*
X45781384Y-82569071D01*
X45781384Y-82569071D02*
X45995670Y-82497642D01*
X45995670Y-82497642D02*
X46138527Y-82354785D01*
X46138527Y-82354785D02*
X46209956Y-82211928D01*
X46209956Y-82211928D02*
X46281384Y-81926214D01*
X46281384Y-81926214D02*
X46281384Y-81711928D01*
X46281384Y-81711928D02*
X46209956Y-81426214D01*
X46209956Y-81426214D02*
X46138527Y-81283357D01*
X46138527Y-81283357D02*
X45995670Y-81140500D01*
X45995670Y-81140500D02*
X45781384Y-81069071D01*
X45781384Y-81069071D02*
X45424241Y-81069071D01*
X47995670Y-81140500D02*
X48209956Y-81069071D01*
X48209956Y-81069071D02*
X48567098Y-81069071D01*
X48567098Y-81069071D02*
X48709956Y-81140500D01*
X48709956Y-81140500D02*
X48781384Y-81211928D01*
X48781384Y-81211928D02*
X48852813Y-81354785D01*
X48852813Y-81354785D02*
X48852813Y-81497642D01*
X48852813Y-81497642D02*
X48781384Y-81640500D01*
X48781384Y-81640500D02*
X48709956Y-81711928D01*
X48709956Y-81711928D02*
X48567098Y-81783357D01*
X48567098Y-81783357D02*
X48281384Y-81854785D01*
X48281384Y-81854785D02*
X48138527Y-81926214D01*
X48138527Y-81926214D02*
X48067098Y-81997642D01*
X48067098Y-81997642D02*
X47995670Y-82140500D01*
X47995670Y-82140500D02*
X47995670Y-82283357D01*
X47995670Y-82283357D02*
X48067098Y-82426214D01*
X48067098Y-82426214D02*
X48138527Y-82497642D01*
X48138527Y-82497642D02*
X48281384Y-82569071D01*
X48281384Y-82569071D02*
X48638527Y-82569071D01*
X48638527Y-82569071D02*
X48852813Y-82497642D01*
X50352812Y-81211928D02*
X50281384Y-81140500D01*
X50281384Y-81140500D02*
X50067098Y-81069071D01*
X50067098Y-81069071D02*
X49924241Y-81069071D01*
X49924241Y-81069071D02*
X49709955Y-81140500D01*
X49709955Y-81140500D02*
X49567098Y-81283357D01*
X49567098Y-81283357D02*
X49495669Y-81426214D01*
X49495669Y-81426214D02*
X49424241Y-81711928D01*
X49424241Y-81711928D02*
X49424241Y-81926214D01*
X49424241Y-81926214D02*
X49495669Y-82211928D01*
X49495669Y-82211928D02*
X49567098Y-82354785D01*
X49567098Y-82354785D02*
X49709955Y-82497642D01*
X49709955Y-82497642D02*
X49924241Y-82569071D01*
X49924241Y-82569071D02*
X50067098Y-82569071D01*
X50067098Y-82569071D02*
X50281384Y-82497642D01*
X50281384Y-82497642D02*
X50352812Y-82426214D01*
X50995669Y-81069071D02*
X50995669Y-82569071D01*
X50995669Y-81854785D02*
X51852812Y-81854785D01*
X51852812Y-81069071D02*
X51852812Y-82569071D01*
X52424241Y-82569071D02*
X52781384Y-81069071D01*
X52781384Y-81069071D02*
X53067098Y-82140500D01*
X53067098Y-82140500D02*
X53352813Y-81069071D01*
X53352813Y-81069071D02*
X53709956Y-82569071D01*
X54209956Y-81497642D02*
X54924242Y-81497642D01*
X54067099Y-81069071D02*
X54567099Y-82569071D01*
X54567099Y-82569071D02*
X55067099Y-81069071D01*
X56424241Y-81069071D02*
X55924241Y-81783357D01*
X55567098Y-81069071D02*
X55567098Y-82569071D01*
X55567098Y-82569071D02*
X56138527Y-82569071D01*
X56138527Y-82569071D02*
X56281384Y-82497642D01*
X56281384Y-82497642D02*
X56352813Y-82426214D01*
X56352813Y-82426214D02*
X56424241Y-82283357D01*
X56424241Y-82283357D02*
X56424241Y-82069071D01*
X56424241Y-82069071D02*
X56352813Y-81926214D01*
X56352813Y-81926214D02*
X56281384Y-81854785D01*
X56281384Y-81854785D02*
X56138527Y-81783357D01*
X56138527Y-81783357D02*
X55567098Y-81783357D01*
X56924241Y-82569071D02*
X57924241Y-82569071D01*
X57924241Y-82569071D02*
X56924241Y-81069071D01*
X56924241Y-81069071D02*
X57924241Y-81069071D01*
X59638526Y-81640500D02*
X60781384Y-81640500D01*
X47209955Y-52997642D02*
X47924241Y-52997642D01*
X47067098Y-52569071D02*
X47567098Y-54069071D01*
X47567098Y-54069071D02*
X48067098Y-52569071D01*
X48567097Y-52569071D02*
X48567097Y-54069071D01*
X49424240Y-52569071D02*
X48781383Y-53426214D01*
X49424240Y-54069071D02*
X48567097Y-53211928D01*
X50067097Y-52569071D02*
X50067097Y-54069071D01*
X50924240Y-52569071D02*
X50281383Y-53426214D01*
X50924240Y-54069071D02*
X50067097Y-53211928D01*
X51567097Y-54069071D02*
X51567097Y-52854785D01*
X51567097Y-52854785D02*
X51638526Y-52711928D01*
X51638526Y-52711928D02*
X51709955Y-52640500D01*
X51709955Y-52640500D02*
X51852812Y-52569071D01*
X51852812Y-52569071D02*
X52138526Y-52569071D01*
X52138526Y-52569071D02*
X52281383Y-52640500D01*
X52281383Y-52640500D02*
X52352812Y-52711928D01*
X52352812Y-52711928D02*
X52424240Y-52854785D01*
X52424240Y-52854785D02*
X52424240Y-54069071D01*
X55138526Y-52569071D02*
X54638526Y-53283357D01*
X54281383Y-52569071D02*
X54281383Y-54069071D01*
X54281383Y-54069071D02*
X54852812Y-54069071D01*
X54852812Y-54069071D02*
X54995669Y-53997642D01*
X54995669Y-53997642D02*
X55067098Y-53926214D01*
X55067098Y-53926214D02*
X55138526Y-53783357D01*
X55138526Y-53783357D02*
X55138526Y-53569071D01*
X55138526Y-53569071D02*
X55067098Y-53426214D01*
X55067098Y-53426214D02*
X54995669Y-53354785D01*
X54995669Y-53354785D02*
X54852812Y-53283357D01*
X54852812Y-53283357D02*
X54281383Y-53283357D01*
X56067098Y-54069071D02*
X56352812Y-54069071D01*
X56352812Y-54069071D02*
X56495669Y-53997642D01*
X56495669Y-53997642D02*
X56638526Y-53854785D01*
X56638526Y-53854785D02*
X56709955Y-53569071D01*
X56709955Y-53569071D02*
X56709955Y-53069071D01*
X56709955Y-53069071D02*
X56638526Y-52783357D01*
X56638526Y-52783357D02*
X56495669Y-52640500D01*
X56495669Y-52640500D02*
X56352812Y-52569071D01*
X56352812Y-52569071D02*
X56067098Y-52569071D01*
X56067098Y-52569071D02*
X55924241Y-52640500D01*
X55924241Y-52640500D02*
X55781383Y-52783357D01*
X55781383Y-52783357D02*
X55709955Y-53069071D01*
X55709955Y-53069071D02*
X55709955Y-53569071D01*
X55709955Y-53569071D02*
X55781383Y-53854785D01*
X55781383Y-53854785D02*
X55924241Y-53997642D01*
X55924241Y-53997642D02*
X56067098Y-54069071D01*
X57138527Y-54069071D02*
X57995670Y-54069071D01*
X57567098Y-52569071D02*
X57567098Y-54069071D01*
X59638526Y-53140500D02*
X60781384Y-53140500D01*
X60209955Y-52569071D02*
X60209955Y-53711928D01*
X43567098Y-37069071D02*
X42852812Y-37069071D01*
X42852812Y-37069071D02*
X42852812Y-38569071D01*
X44067098Y-37854785D02*
X44567098Y-37854785D01*
X44781384Y-37069071D02*
X44067098Y-37069071D01*
X44067098Y-37069071D02*
X44067098Y-38569071D01*
X44067098Y-38569071D02*
X44781384Y-38569071D01*
X45424241Y-37069071D02*
X45424241Y-38569071D01*
X45424241Y-38569071D02*
X45781384Y-38569071D01*
X45781384Y-38569071D02*
X45995670Y-38497642D01*
X45995670Y-38497642D02*
X46138527Y-38354785D01*
X46138527Y-38354785D02*
X46209956Y-38211928D01*
X46209956Y-38211928D02*
X46281384Y-37926214D01*
X46281384Y-37926214D02*
X46281384Y-37711928D01*
X46281384Y-37711928D02*
X46209956Y-37426214D01*
X46209956Y-37426214D02*
X46138527Y-37283357D01*
X46138527Y-37283357D02*
X45995670Y-37140500D01*
X45995670Y-37140500D02*
X45781384Y-37069071D01*
X45781384Y-37069071D02*
X45424241Y-37069071D01*
X47995670Y-37140500D02*
X48209956Y-37069071D01*
X48209956Y-37069071D02*
X48567098Y-37069071D01*
X48567098Y-37069071D02*
X48709956Y-37140500D01*
X48709956Y-37140500D02*
X48781384Y-37211928D01*
X48781384Y-37211928D02*
X48852813Y-37354785D01*
X48852813Y-37354785D02*
X48852813Y-37497642D01*
X48852813Y-37497642D02*
X48781384Y-37640500D01*
X48781384Y-37640500D02*
X48709956Y-37711928D01*
X48709956Y-37711928D02*
X48567098Y-37783357D01*
X48567098Y-37783357D02*
X48281384Y-37854785D01*
X48281384Y-37854785D02*
X48138527Y-37926214D01*
X48138527Y-37926214D02*
X48067098Y-37997642D01*
X48067098Y-37997642D02*
X47995670Y-38140500D01*
X47995670Y-38140500D02*
X47995670Y-38283357D01*
X47995670Y-38283357D02*
X48067098Y-38426214D01*
X48067098Y-38426214D02*
X48138527Y-38497642D01*
X48138527Y-38497642D02*
X48281384Y-38569071D01*
X48281384Y-38569071D02*
X48638527Y-38569071D01*
X48638527Y-38569071D02*
X48852813Y-38497642D01*
X50352812Y-37211928D02*
X50281384Y-37140500D01*
X50281384Y-37140500D02*
X50067098Y-37069071D01*
X50067098Y-37069071D02*
X49924241Y-37069071D01*
X49924241Y-37069071D02*
X49709955Y-37140500D01*
X49709955Y-37140500D02*
X49567098Y-37283357D01*
X49567098Y-37283357D02*
X49495669Y-37426214D01*
X49495669Y-37426214D02*
X49424241Y-37711928D01*
X49424241Y-37711928D02*
X49424241Y-37926214D01*
X49424241Y-37926214D02*
X49495669Y-38211928D01*
X49495669Y-38211928D02*
X49567098Y-38354785D01*
X49567098Y-38354785D02*
X49709955Y-38497642D01*
X49709955Y-38497642D02*
X49924241Y-38569071D01*
X49924241Y-38569071D02*
X50067098Y-38569071D01*
X50067098Y-38569071D02*
X50281384Y-38497642D01*
X50281384Y-38497642D02*
X50352812Y-38426214D01*
X50995669Y-37069071D02*
X50995669Y-38569071D01*
X50995669Y-37854785D02*
X51852812Y-37854785D01*
X51852812Y-37069071D02*
X51852812Y-38569071D01*
X52424241Y-38569071D02*
X52781384Y-37069071D01*
X52781384Y-37069071D02*
X53067098Y-38140500D01*
X53067098Y-38140500D02*
X53352813Y-37069071D01*
X53352813Y-37069071D02*
X53709956Y-38569071D01*
X54209956Y-37497642D02*
X54924242Y-37497642D01*
X54067099Y-37069071D02*
X54567099Y-38569071D01*
X54567099Y-38569071D02*
X55067099Y-37069071D01*
X56424241Y-37069071D02*
X55924241Y-37783357D01*
X55567098Y-37069071D02*
X55567098Y-38569071D01*
X55567098Y-38569071D02*
X56138527Y-38569071D01*
X56138527Y-38569071D02*
X56281384Y-38497642D01*
X56281384Y-38497642D02*
X56352813Y-38426214D01*
X56352813Y-38426214D02*
X56424241Y-38283357D01*
X56424241Y-38283357D02*
X56424241Y-38069071D01*
X56424241Y-38069071D02*
X56352813Y-37926214D01*
X56352813Y-37926214D02*
X56281384Y-37854785D01*
X56281384Y-37854785D02*
X56138527Y-37783357D01*
X56138527Y-37783357D02*
X55567098Y-37783357D01*
X56924241Y-38569071D02*
X57924241Y-38569071D01*
X57924241Y-38569071D02*
X56924241Y-37069071D01*
X56924241Y-37069071D02*
X57924241Y-37069071D01*
X59638526Y-37640500D02*
X60781384Y-37640500D01*
X49781383Y-33569071D02*
X49067097Y-33569071D01*
X49067097Y-33569071D02*
X49067097Y-35069071D01*
X50281383Y-34354785D02*
X50781383Y-34354785D01*
X50995669Y-33569071D02*
X50281383Y-33569071D01*
X50281383Y-33569071D02*
X50281383Y-35069071D01*
X50281383Y-35069071D02*
X50995669Y-35069071D01*
X51638526Y-33569071D02*
X51638526Y-35069071D01*
X51638526Y-35069071D02*
X51995669Y-35069071D01*
X51995669Y-35069071D02*
X52209955Y-34997642D01*
X52209955Y-34997642D02*
X52352812Y-34854785D01*
X52352812Y-34854785D02*
X52424241Y-34711928D01*
X52424241Y-34711928D02*
X52495669Y-34426214D01*
X52495669Y-34426214D02*
X52495669Y-34211928D01*
X52495669Y-34211928D02*
X52424241Y-33926214D01*
X52424241Y-33926214D02*
X52352812Y-33783357D01*
X52352812Y-33783357D02*
X52209955Y-33640500D01*
X52209955Y-33640500D02*
X51995669Y-33569071D01*
X51995669Y-33569071D02*
X51638526Y-33569071D01*
X55138526Y-33569071D02*
X54638526Y-34283357D01*
X54281383Y-33569071D02*
X54281383Y-35069071D01*
X54281383Y-35069071D02*
X54852812Y-35069071D01*
X54852812Y-35069071D02*
X54995669Y-34997642D01*
X54995669Y-34997642D02*
X55067098Y-34926214D01*
X55067098Y-34926214D02*
X55138526Y-34783357D01*
X55138526Y-34783357D02*
X55138526Y-34569071D01*
X55138526Y-34569071D02*
X55067098Y-34426214D01*
X55067098Y-34426214D02*
X54995669Y-34354785D01*
X54995669Y-34354785D02*
X54852812Y-34283357D01*
X54852812Y-34283357D02*
X54281383Y-34283357D01*
X56067098Y-35069071D02*
X56352812Y-35069071D01*
X56352812Y-35069071D02*
X56495669Y-34997642D01*
X56495669Y-34997642D02*
X56638526Y-34854785D01*
X56638526Y-34854785D02*
X56709955Y-34569071D01*
X56709955Y-34569071D02*
X56709955Y-34069071D01*
X56709955Y-34069071D02*
X56638526Y-33783357D01*
X56638526Y-33783357D02*
X56495669Y-33640500D01*
X56495669Y-33640500D02*
X56352812Y-33569071D01*
X56352812Y-33569071D02*
X56067098Y-33569071D01*
X56067098Y-33569071D02*
X55924241Y-33640500D01*
X55924241Y-33640500D02*
X55781383Y-33783357D01*
X55781383Y-33783357D02*
X55709955Y-34069071D01*
X55709955Y-34069071D02*
X55709955Y-34569071D01*
X55709955Y-34569071D02*
X55781383Y-34854785D01*
X55781383Y-34854785D02*
X55924241Y-34997642D01*
X55924241Y-34997642D02*
X56067098Y-35069071D01*
X57138527Y-35069071D02*
X57995670Y-35069071D01*
X57567098Y-33569071D02*
X57567098Y-35069071D01*
X59638526Y-34140500D02*
X60781384Y-34140500D01*
X60209955Y-33569071D02*
X60209955Y-34711928D01*
D11*
X10316101Y-36182500D02*
X9982768Y-36658691D01*
X9744673Y-36182500D02*
X9744673Y-37182500D01*
X9744673Y-37182500D02*
X10125625Y-37182500D01*
X10125625Y-37182500D02*
X10220863Y-37134881D01*
X10220863Y-37134881D02*
X10268482Y-37087262D01*
X10268482Y-37087262D02*
X10316101Y-36992024D01*
X10316101Y-36992024D02*
X10316101Y-36849167D01*
X10316101Y-36849167D02*
X10268482Y-36753929D01*
X10268482Y-36753929D02*
X10220863Y-36706310D01*
X10220863Y-36706310D02*
X10125625Y-36658691D01*
X10125625Y-36658691D02*
X9744673Y-36658691D01*
X11125625Y-36230120D02*
X11030387Y-36182500D01*
X11030387Y-36182500D02*
X10839911Y-36182500D01*
X10839911Y-36182500D02*
X10744673Y-36230120D01*
X10744673Y-36230120D02*
X10697054Y-36325358D01*
X10697054Y-36325358D02*
X10697054Y-36706310D01*
X10697054Y-36706310D02*
X10744673Y-36801548D01*
X10744673Y-36801548D02*
X10839911Y-36849167D01*
X10839911Y-36849167D02*
X11030387Y-36849167D01*
X11030387Y-36849167D02*
X11125625Y-36801548D01*
X11125625Y-36801548D02*
X11173244Y-36706310D01*
X11173244Y-36706310D02*
X11173244Y-36611072D01*
X11173244Y-36611072D02*
X10697054Y-36515834D01*
X11506578Y-36849167D02*
X11744673Y-36182500D01*
X11744673Y-36182500D02*
X11982768Y-36849167D01*
X12363721Y-36277739D02*
X12411340Y-36230120D01*
X12411340Y-36230120D02*
X12363721Y-36182500D01*
X12363721Y-36182500D02*
X12316102Y-36230120D01*
X12316102Y-36230120D02*
X12363721Y-36277739D01*
X12363721Y-36277739D02*
X12363721Y-36182500D01*
X12839911Y-36706310D02*
X13173244Y-36706310D01*
X13316101Y-36182500D02*
X12839911Y-36182500D01*
X12839911Y-36182500D02*
X12839911Y-37182500D01*
X12839911Y-37182500D02*
X13316101Y-37182500D01*
X15458959Y-37182500D02*
X15554197Y-37182500D01*
X15554197Y-37182500D02*
X15649435Y-37134881D01*
X15649435Y-37134881D02*
X15697054Y-37087262D01*
X15697054Y-37087262D02*
X15744673Y-36992024D01*
X15744673Y-36992024D02*
X15792292Y-36801548D01*
X15792292Y-36801548D02*
X15792292Y-36563453D01*
X15792292Y-36563453D02*
X15744673Y-36372977D01*
X15744673Y-36372977D02*
X15697054Y-36277739D01*
X15697054Y-36277739D02*
X15649435Y-36230120D01*
X15649435Y-36230120D02*
X15554197Y-36182500D01*
X15554197Y-36182500D02*
X15458959Y-36182500D01*
X15458959Y-36182500D02*
X15363721Y-36230120D01*
X15363721Y-36230120D02*
X15316102Y-36277739D01*
X15316102Y-36277739D02*
X15268483Y-36372977D01*
X15268483Y-36372977D02*
X15220864Y-36563453D01*
X15220864Y-36563453D02*
X15220864Y-36801548D01*
X15220864Y-36801548D02*
X15268483Y-36992024D01*
X15268483Y-36992024D02*
X15316102Y-37087262D01*
X15316102Y-37087262D02*
X15363721Y-37134881D01*
X15363721Y-37134881D02*
X15458959Y-37182500D01*
X16125626Y-37182500D02*
X16744673Y-37182500D01*
X16744673Y-37182500D02*
X16411340Y-36801548D01*
X16411340Y-36801548D02*
X16554197Y-36801548D01*
X16554197Y-36801548D02*
X16649435Y-36753929D01*
X16649435Y-36753929D02*
X16697054Y-36706310D01*
X16697054Y-36706310D02*
X16744673Y-36611072D01*
X16744673Y-36611072D02*
X16744673Y-36372977D01*
X16744673Y-36372977D02*
X16697054Y-36277739D01*
X16697054Y-36277739D02*
X16649435Y-36230120D01*
X16649435Y-36230120D02*
X16554197Y-36182500D01*
X16554197Y-36182500D02*
X16268483Y-36182500D01*
X16268483Y-36182500D02*
X16173245Y-36230120D01*
X16173245Y-36230120D02*
X16125626Y-36277739D01*
X17887530Y-37230120D02*
X17030388Y-35944405D01*
X18173245Y-37087262D02*
X18220864Y-37134881D01*
X18220864Y-37134881D02*
X18316102Y-37182500D01*
X18316102Y-37182500D02*
X18554197Y-37182500D01*
X18554197Y-37182500D02*
X18649435Y-37134881D01*
X18649435Y-37134881D02*
X18697054Y-37087262D01*
X18697054Y-37087262D02*
X18744673Y-36992024D01*
X18744673Y-36992024D02*
X18744673Y-36896786D01*
X18744673Y-36896786D02*
X18697054Y-36753929D01*
X18697054Y-36753929D02*
X18125626Y-36182500D01*
X18125626Y-36182500D02*
X18744673Y-36182500D01*
X19363721Y-37182500D02*
X19458959Y-37182500D01*
X19458959Y-37182500D02*
X19554197Y-37134881D01*
X19554197Y-37134881D02*
X19601816Y-37087262D01*
X19601816Y-37087262D02*
X19649435Y-36992024D01*
X19649435Y-36992024D02*
X19697054Y-36801548D01*
X19697054Y-36801548D02*
X19697054Y-36563453D01*
X19697054Y-36563453D02*
X19649435Y-36372977D01*
X19649435Y-36372977D02*
X19601816Y-36277739D01*
X19601816Y-36277739D02*
X19554197Y-36230120D01*
X19554197Y-36230120D02*
X19458959Y-36182500D01*
X19458959Y-36182500D02*
X19363721Y-36182500D01*
X19363721Y-36182500D02*
X19268483Y-36230120D01*
X19268483Y-36230120D02*
X19220864Y-36277739D01*
X19220864Y-36277739D02*
X19173245Y-36372977D01*
X19173245Y-36372977D02*
X19125626Y-36563453D01*
X19125626Y-36563453D02*
X19125626Y-36801548D01*
X19125626Y-36801548D02*
X19173245Y-36992024D01*
X19173245Y-36992024D02*
X19220864Y-37087262D01*
X19220864Y-37087262D02*
X19268483Y-37134881D01*
X19268483Y-37134881D02*
X19363721Y-37182500D01*
X20078007Y-37087262D02*
X20125626Y-37134881D01*
X20125626Y-37134881D02*
X20220864Y-37182500D01*
X20220864Y-37182500D02*
X20458959Y-37182500D01*
X20458959Y-37182500D02*
X20554197Y-37134881D01*
X20554197Y-37134881D02*
X20601816Y-37087262D01*
X20601816Y-37087262D02*
X20649435Y-36992024D01*
X20649435Y-36992024D02*
X20649435Y-36896786D01*
X20649435Y-36896786D02*
X20601816Y-36753929D01*
X20601816Y-36753929D02*
X20030388Y-36182500D01*
X20030388Y-36182500D02*
X20649435Y-36182500D01*
X21554197Y-37182500D02*
X21078007Y-37182500D01*
X21078007Y-37182500D02*
X21030388Y-36706310D01*
X21030388Y-36706310D02*
X21078007Y-36753929D01*
X21078007Y-36753929D02*
X21173245Y-36801548D01*
X21173245Y-36801548D02*
X21411340Y-36801548D01*
X21411340Y-36801548D02*
X21506578Y-36753929D01*
X21506578Y-36753929D02*
X21554197Y-36706310D01*
X21554197Y-36706310D02*
X21601816Y-36611072D01*
X21601816Y-36611072D02*
X21601816Y-36372977D01*
X21601816Y-36372977D02*
X21554197Y-36277739D01*
X21554197Y-36277739D02*
X21506578Y-36230120D01*
X21506578Y-36230120D02*
X21411340Y-36182500D01*
X21411340Y-36182500D02*
X21173245Y-36182500D01*
X21173245Y-36182500D02*
X21078007Y-36230120D01*
X21078007Y-36230120D02*
X21030388Y-36277739D01*
X10316101Y-34667795D02*
X10268482Y-34620176D01*
X10268482Y-34620176D02*
X10125625Y-34572556D01*
X10125625Y-34572556D02*
X10030387Y-34572556D01*
X10030387Y-34572556D02*
X9887530Y-34620176D01*
X9887530Y-34620176D02*
X9792292Y-34715414D01*
X9792292Y-34715414D02*
X9744673Y-34810652D01*
X9744673Y-34810652D02*
X9697054Y-35001128D01*
X9697054Y-35001128D02*
X9697054Y-35143985D01*
X9697054Y-35143985D02*
X9744673Y-35334461D01*
X9744673Y-35334461D02*
X9792292Y-35429699D01*
X9792292Y-35429699D02*
X9887530Y-35524937D01*
X9887530Y-35524937D02*
X10030387Y-35572556D01*
X10030387Y-35572556D02*
X10125625Y-35572556D01*
X10125625Y-35572556D02*
X10268482Y-35524937D01*
X10268482Y-35524937D02*
X10316101Y-35477318D01*
X10744673Y-35096366D02*
X11078006Y-35096366D01*
X11220863Y-34572556D02*
X10744673Y-34572556D01*
X10744673Y-34572556D02*
X10744673Y-35572556D01*
X10744673Y-35572556D02*
X11220863Y-35572556D01*
X12220863Y-34572556D02*
X11887530Y-35048747D01*
X11649435Y-34572556D02*
X11649435Y-35572556D01*
X11649435Y-35572556D02*
X12030387Y-35572556D01*
X12030387Y-35572556D02*
X12125625Y-35524937D01*
X12125625Y-35524937D02*
X12173244Y-35477318D01*
X12173244Y-35477318D02*
X12220863Y-35382080D01*
X12220863Y-35382080D02*
X12220863Y-35239223D01*
X12220863Y-35239223D02*
X12173244Y-35143985D01*
X12173244Y-35143985D02*
X12125625Y-35096366D01*
X12125625Y-35096366D02*
X12030387Y-35048747D01*
X12030387Y-35048747D02*
X11649435Y-35048747D01*
X12649435Y-34572556D02*
X12649435Y-35572556D01*
X12649435Y-35572556D02*
X13220863Y-34572556D01*
X13220863Y-34572556D02*
X13220863Y-35572556D01*
X14649435Y-35572556D02*
X14839911Y-35572556D01*
X14839911Y-35572556D02*
X14935149Y-35524937D01*
X14935149Y-35524937D02*
X15030387Y-35429699D01*
X15030387Y-35429699D02*
X15078006Y-35239223D01*
X15078006Y-35239223D02*
X15078006Y-34905890D01*
X15078006Y-34905890D02*
X15030387Y-34715414D01*
X15030387Y-34715414D02*
X14935149Y-34620176D01*
X14935149Y-34620176D02*
X14839911Y-34572556D01*
X14839911Y-34572556D02*
X14649435Y-34572556D01*
X14649435Y-34572556D02*
X14554197Y-34620176D01*
X14554197Y-34620176D02*
X14458959Y-34715414D01*
X14458959Y-34715414D02*
X14411340Y-34905890D01*
X14411340Y-34905890D02*
X14411340Y-35239223D01*
X14411340Y-35239223D02*
X14458959Y-35429699D01*
X14458959Y-35429699D02*
X14554197Y-35524937D01*
X14554197Y-35524937D02*
X14649435Y-35572556D01*
X15506578Y-34572556D02*
X15506578Y-35572556D01*
X15506578Y-35096366D02*
X16078006Y-35096366D01*
X16078006Y-34572556D02*
X16078006Y-35572556D01*
X17030387Y-34572556D02*
X16554197Y-34572556D01*
X16554197Y-34572556D02*
X16554197Y-35572556D01*
X18125626Y-34572556D02*
X18125626Y-35572556D01*
X18125626Y-35572556D02*
X18506578Y-35572556D01*
X18506578Y-35572556D02*
X18601816Y-35524937D01*
X18601816Y-35524937D02*
X18649435Y-35477318D01*
X18649435Y-35477318D02*
X18697054Y-35382080D01*
X18697054Y-35382080D02*
X18697054Y-35239223D01*
X18697054Y-35239223D02*
X18649435Y-35143985D01*
X18649435Y-35143985D02*
X18601816Y-35096366D01*
X18601816Y-35096366D02*
X18506578Y-35048747D01*
X18506578Y-35048747D02*
X18125626Y-35048747D01*
X19839912Y-35477318D02*
X19887531Y-35524937D01*
X19887531Y-35524937D02*
X19982769Y-35572556D01*
X19982769Y-35572556D02*
X20220864Y-35572556D01*
X20220864Y-35572556D02*
X20316102Y-35524937D01*
X20316102Y-35524937D02*
X20363721Y-35477318D01*
X20363721Y-35477318D02*
X20411340Y-35382080D01*
X20411340Y-35382080D02*
X20411340Y-35286842D01*
X20411340Y-35286842D02*
X20363721Y-35143985D01*
X20363721Y-35143985D02*
X19792293Y-34572556D01*
X19792293Y-34572556D02*
X20411340Y-34572556D01*
X20839912Y-34667795D02*
X20887531Y-34620176D01*
X20887531Y-34620176D02*
X20839912Y-34572556D01*
X20839912Y-34572556D02*
X20792293Y-34620176D01*
X20792293Y-34620176D02*
X20839912Y-34667795D01*
X20839912Y-34667795D02*
X20839912Y-34572556D01*
X21506578Y-35572556D02*
X21601816Y-35572556D01*
X21601816Y-35572556D02*
X21697054Y-35524937D01*
X21697054Y-35524937D02*
X21744673Y-35477318D01*
X21744673Y-35477318D02*
X21792292Y-35382080D01*
X21792292Y-35382080D02*
X21839911Y-35191604D01*
X21839911Y-35191604D02*
X21839911Y-34953509D01*
X21839911Y-34953509D02*
X21792292Y-34763033D01*
X21792292Y-34763033D02*
X21744673Y-34667795D01*
X21744673Y-34667795D02*
X21697054Y-34620176D01*
X21697054Y-34620176D02*
X21601816Y-34572556D01*
X21601816Y-34572556D02*
X21506578Y-34572556D01*
X21506578Y-34572556D02*
X21411340Y-34620176D01*
X21411340Y-34620176D02*
X21363721Y-34667795D01*
X21363721Y-34667795D02*
X21316102Y-34763033D01*
X21316102Y-34763033D02*
X21268483Y-34953509D01*
X21268483Y-34953509D02*
X21268483Y-35191604D01*
X21268483Y-35191604D02*
X21316102Y-35382080D01*
X21316102Y-35382080D02*
X21363721Y-35477318D01*
X21363721Y-35477318D02*
X21411340Y-35524937D01*
X21411340Y-35524937D02*
X21506578Y-35572556D01*
X9744673Y-32962612D02*
X9744673Y-33962612D01*
X10173244Y-32962612D02*
X10173244Y-33486422D01*
X10173244Y-33486422D02*
X10125625Y-33581660D01*
X10125625Y-33581660D02*
X10030387Y-33629279D01*
X10030387Y-33629279D02*
X9887530Y-33629279D01*
X9887530Y-33629279D02*
X9792292Y-33581660D01*
X9792292Y-33581660D02*
X9744673Y-33534041D01*
X10506578Y-33629279D02*
X10887530Y-33629279D01*
X10649435Y-33962612D02*
X10649435Y-33105470D01*
X10649435Y-33105470D02*
X10697054Y-33010232D01*
X10697054Y-33010232D02*
X10792292Y-32962612D01*
X10792292Y-32962612D02*
X10887530Y-32962612D01*
X11078007Y-33629279D02*
X11458959Y-33629279D01*
X11220864Y-33962612D02*
X11220864Y-33105470D01*
X11220864Y-33105470D02*
X11268483Y-33010232D01*
X11268483Y-33010232D02*
X11363721Y-32962612D01*
X11363721Y-32962612D02*
X11458959Y-32962612D01*
X11792293Y-33629279D02*
X11792293Y-32629279D01*
X11792293Y-33581660D02*
X11887531Y-33629279D01*
X11887531Y-33629279D02*
X12078007Y-33629279D01*
X12078007Y-33629279D02*
X12173245Y-33581660D01*
X12173245Y-33581660D02*
X12220864Y-33534041D01*
X12220864Y-33534041D02*
X12268483Y-33438803D01*
X12268483Y-33438803D02*
X12268483Y-33153089D01*
X12268483Y-33153089D02*
X12220864Y-33057851D01*
X12220864Y-33057851D02*
X12173245Y-33010232D01*
X12173245Y-33010232D02*
X12078007Y-32962612D01*
X12078007Y-32962612D02*
X11887531Y-32962612D01*
X11887531Y-32962612D02*
X11792293Y-33010232D01*
X12649436Y-33010232D02*
X12744674Y-32962612D01*
X12744674Y-32962612D02*
X12935150Y-32962612D01*
X12935150Y-32962612D02*
X13030388Y-33010232D01*
X13030388Y-33010232D02*
X13078007Y-33105470D01*
X13078007Y-33105470D02*
X13078007Y-33153089D01*
X13078007Y-33153089D02*
X13030388Y-33248327D01*
X13030388Y-33248327D02*
X12935150Y-33295946D01*
X12935150Y-33295946D02*
X12792293Y-33295946D01*
X12792293Y-33295946D02*
X12697055Y-33343565D01*
X12697055Y-33343565D02*
X12649436Y-33438803D01*
X12649436Y-33438803D02*
X12649436Y-33486422D01*
X12649436Y-33486422D02*
X12697055Y-33581660D01*
X12697055Y-33581660D02*
X12792293Y-33629279D01*
X12792293Y-33629279D02*
X12935150Y-33629279D01*
X12935150Y-33629279D02*
X13030388Y-33581660D01*
X13506579Y-33057851D02*
X13554198Y-33010232D01*
X13554198Y-33010232D02*
X13506579Y-32962612D01*
X13506579Y-32962612D02*
X13458960Y-33010232D01*
X13458960Y-33010232D02*
X13506579Y-33057851D01*
X13506579Y-33057851D02*
X13506579Y-32962612D01*
X13506579Y-33581660D02*
X13554198Y-33534041D01*
X13554198Y-33534041D02*
X13506579Y-33486422D01*
X13506579Y-33486422D02*
X13458960Y-33534041D01*
X13458960Y-33534041D02*
X13506579Y-33581660D01*
X13506579Y-33581660D02*
X13506579Y-33486422D01*
X14697054Y-34010232D02*
X13839912Y-32724517D01*
X15744673Y-34010232D02*
X14887531Y-32724517D01*
X11697054Y-32019335D02*
X11697054Y-31209811D01*
X11697054Y-31209811D02*
X11649435Y-31114573D01*
X11649435Y-31114573D02*
X11601816Y-31066954D01*
X11601816Y-31066954D02*
X11506578Y-31019335D01*
X11506578Y-31019335D02*
X11363721Y-31019335D01*
X11363721Y-31019335D02*
X11268483Y-31066954D01*
X11697054Y-31400288D02*
X11601816Y-31352668D01*
X11601816Y-31352668D02*
X11411340Y-31352668D01*
X11411340Y-31352668D02*
X11316102Y-31400288D01*
X11316102Y-31400288D02*
X11268483Y-31447907D01*
X11268483Y-31447907D02*
X11220864Y-31543145D01*
X11220864Y-31543145D02*
X11220864Y-31828859D01*
X11220864Y-31828859D02*
X11268483Y-31924097D01*
X11268483Y-31924097D02*
X11316102Y-31971716D01*
X11316102Y-31971716D02*
X11411340Y-32019335D01*
X11411340Y-32019335D02*
X11601816Y-32019335D01*
X11601816Y-32019335D02*
X11697054Y-31971716D01*
X12173245Y-31352668D02*
X12173245Y-32019335D01*
X12173245Y-32352668D02*
X12125626Y-32305049D01*
X12125626Y-32305049D02*
X12173245Y-32257430D01*
X12173245Y-32257430D02*
X12220864Y-32305049D01*
X12220864Y-32305049D02*
X12173245Y-32352668D01*
X12173245Y-32352668D02*
X12173245Y-32257430D01*
X12506578Y-32019335D02*
X12887530Y-32019335D01*
X12649435Y-32352668D02*
X12649435Y-31495526D01*
X12649435Y-31495526D02*
X12697054Y-31400288D01*
X12697054Y-31400288D02*
X12792292Y-31352668D01*
X12792292Y-31352668D02*
X12887530Y-31352668D01*
X13220864Y-31352668D02*
X13220864Y-32352668D01*
X13649435Y-31352668D02*
X13649435Y-31876478D01*
X13649435Y-31876478D02*
X13601816Y-31971716D01*
X13601816Y-31971716D02*
X13506578Y-32019335D01*
X13506578Y-32019335D02*
X13363721Y-32019335D01*
X13363721Y-32019335D02*
X13268483Y-31971716D01*
X13268483Y-31971716D02*
X13220864Y-31924097D01*
X14554197Y-32019335D02*
X14554197Y-31352668D01*
X14125626Y-32019335D02*
X14125626Y-31495526D01*
X14125626Y-31495526D02*
X14173245Y-31400288D01*
X14173245Y-31400288D02*
X14268483Y-31352668D01*
X14268483Y-31352668D02*
X14411340Y-31352668D01*
X14411340Y-31352668D02*
X14506578Y-31400288D01*
X14506578Y-31400288D02*
X14554197Y-31447907D01*
X15030388Y-31352668D02*
X15030388Y-32352668D01*
X15030388Y-31971716D02*
X15125626Y-32019335D01*
X15125626Y-32019335D02*
X15316102Y-32019335D01*
X15316102Y-32019335D02*
X15411340Y-31971716D01*
X15411340Y-31971716D02*
X15458959Y-31924097D01*
X15458959Y-31924097D02*
X15506578Y-31828859D01*
X15506578Y-31828859D02*
X15506578Y-31543145D01*
X15506578Y-31543145D02*
X15458959Y-31447907D01*
X15458959Y-31447907D02*
X15411340Y-31400288D01*
X15411340Y-31400288D02*
X15316102Y-31352668D01*
X15316102Y-31352668D02*
X15125626Y-31352668D01*
X15125626Y-31352668D02*
X15030388Y-31400288D01*
X15935150Y-31447907D02*
X15982769Y-31400288D01*
X15982769Y-31400288D02*
X15935150Y-31352668D01*
X15935150Y-31352668D02*
X15887531Y-31400288D01*
X15887531Y-31400288D02*
X15935150Y-31447907D01*
X15935150Y-31447907D02*
X15935150Y-31352668D01*
X16839911Y-31400288D02*
X16744673Y-31352668D01*
X16744673Y-31352668D02*
X16554197Y-31352668D01*
X16554197Y-31352668D02*
X16458959Y-31400288D01*
X16458959Y-31400288D02*
X16411340Y-31447907D01*
X16411340Y-31447907D02*
X16363721Y-31543145D01*
X16363721Y-31543145D02*
X16363721Y-31828859D01*
X16363721Y-31828859D02*
X16411340Y-31924097D01*
X16411340Y-31924097D02*
X16458959Y-31971716D01*
X16458959Y-31971716D02*
X16554197Y-32019335D01*
X16554197Y-32019335D02*
X16744673Y-32019335D01*
X16744673Y-32019335D02*
X16839911Y-31971716D01*
X17411340Y-31352668D02*
X17316102Y-31400288D01*
X17316102Y-31400288D02*
X17268483Y-31447907D01*
X17268483Y-31447907D02*
X17220864Y-31543145D01*
X17220864Y-31543145D02*
X17220864Y-31828859D01*
X17220864Y-31828859D02*
X17268483Y-31924097D01*
X17268483Y-31924097D02*
X17316102Y-31971716D01*
X17316102Y-31971716D02*
X17411340Y-32019335D01*
X17411340Y-32019335D02*
X17554197Y-32019335D01*
X17554197Y-32019335D02*
X17649435Y-31971716D01*
X17649435Y-31971716D02*
X17697054Y-31924097D01*
X17697054Y-31924097D02*
X17744673Y-31828859D01*
X17744673Y-31828859D02*
X17744673Y-31543145D01*
X17744673Y-31543145D02*
X17697054Y-31447907D01*
X17697054Y-31447907D02*
X17649435Y-31400288D01*
X17649435Y-31400288D02*
X17554197Y-31352668D01*
X17554197Y-31352668D02*
X17411340Y-31352668D01*
X18173245Y-31352668D02*
X18173245Y-32019335D01*
X18173245Y-31924097D02*
X18220864Y-31971716D01*
X18220864Y-31971716D02*
X18316102Y-32019335D01*
X18316102Y-32019335D02*
X18458959Y-32019335D01*
X18458959Y-32019335D02*
X18554197Y-31971716D01*
X18554197Y-31971716D02*
X18601816Y-31876478D01*
X18601816Y-31876478D02*
X18601816Y-31352668D01*
X18601816Y-31876478D02*
X18649435Y-31971716D01*
X18649435Y-31971716D02*
X18744673Y-32019335D01*
X18744673Y-32019335D02*
X18887530Y-32019335D01*
X18887530Y-32019335D02*
X18982769Y-31971716D01*
X18982769Y-31971716D02*
X19030388Y-31876478D01*
X19030388Y-31876478D02*
X19030388Y-31352668D01*
X20220863Y-32400288D02*
X19363721Y-31114573D01*
X12744674Y-29790344D02*
X12839912Y-29742724D01*
X12839912Y-29742724D02*
X13030388Y-29742724D01*
X13030388Y-29742724D02*
X13125626Y-29790344D01*
X13125626Y-29790344D02*
X13173245Y-29885582D01*
X13173245Y-29885582D02*
X13173245Y-29933201D01*
X13173245Y-29933201D02*
X13125626Y-30028439D01*
X13125626Y-30028439D02*
X13030388Y-30076058D01*
X13030388Y-30076058D02*
X12887531Y-30076058D01*
X12887531Y-30076058D02*
X12792293Y-30123677D01*
X12792293Y-30123677D02*
X12744674Y-30218915D01*
X12744674Y-30218915D02*
X12744674Y-30266534D01*
X12744674Y-30266534D02*
X12792293Y-30361772D01*
X12792293Y-30361772D02*
X12887531Y-30409391D01*
X12887531Y-30409391D02*
X13030388Y-30409391D01*
X13030388Y-30409391D02*
X13125626Y-30361772D01*
X13601817Y-29742724D02*
X13601817Y-30742724D01*
X13601817Y-30361772D02*
X13697055Y-30409391D01*
X13697055Y-30409391D02*
X13887531Y-30409391D01*
X13887531Y-30409391D02*
X13982769Y-30361772D01*
X13982769Y-30361772D02*
X14030388Y-30314153D01*
X14030388Y-30314153D02*
X14078007Y-30218915D01*
X14078007Y-30218915D02*
X14078007Y-29933201D01*
X14078007Y-29933201D02*
X14030388Y-29837963D01*
X14030388Y-29837963D02*
X13982769Y-29790344D01*
X13982769Y-29790344D02*
X13887531Y-29742724D01*
X13887531Y-29742724D02*
X13697055Y-29742724D01*
X13697055Y-29742724D02*
X13601817Y-29790344D01*
X14411341Y-30409391D02*
X14649436Y-29742724D01*
X14887531Y-30409391D02*
X14649436Y-29742724D01*
X14649436Y-29742724D02*
X14554198Y-29504629D01*
X14554198Y-29504629D02*
X14506579Y-29457010D01*
X14506579Y-29457010D02*
X14411341Y-29409391D01*
X15697055Y-29742724D02*
X15697055Y-30742724D01*
X15697055Y-29790344D02*
X15601817Y-29742724D01*
X15601817Y-29742724D02*
X15411341Y-29742724D01*
X15411341Y-29742724D02*
X15316103Y-29790344D01*
X15316103Y-29790344D02*
X15268484Y-29837963D01*
X15268484Y-29837963D02*
X15220865Y-29933201D01*
X15220865Y-29933201D02*
X15220865Y-30218915D01*
X15220865Y-30218915D02*
X15268484Y-30314153D01*
X15268484Y-30314153D02*
X15316103Y-30361772D01*
X15316103Y-30361772D02*
X15411341Y-30409391D01*
X15411341Y-30409391D02*
X15601817Y-30409391D01*
X15601817Y-30409391D02*
X15697055Y-30361772D01*
X16173246Y-30123677D02*
X16935151Y-30123677D01*
X17363722Y-29790344D02*
X17458960Y-29742724D01*
X17458960Y-29742724D02*
X17649436Y-29742724D01*
X17649436Y-29742724D02*
X17744674Y-29790344D01*
X17744674Y-29790344D02*
X17792293Y-29885582D01*
X17792293Y-29885582D02*
X17792293Y-29933201D01*
X17792293Y-29933201D02*
X17744674Y-30028439D01*
X17744674Y-30028439D02*
X17649436Y-30076058D01*
X17649436Y-30076058D02*
X17506579Y-30076058D01*
X17506579Y-30076058D02*
X17411341Y-30123677D01*
X17411341Y-30123677D02*
X17363722Y-30218915D01*
X17363722Y-30218915D02*
X17363722Y-30266534D01*
X17363722Y-30266534D02*
X17411341Y-30361772D01*
X17411341Y-30361772D02*
X17506579Y-30409391D01*
X17506579Y-30409391D02*
X17649436Y-30409391D01*
X17649436Y-30409391D02*
X17744674Y-30361772D01*
X18220865Y-30409391D02*
X18220865Y-29409391D01*
X18220865Y-30361772D02*
X18316103Y-30409391D01*
X18316103Y-30409391D02*
X18506579Y-30409391D01*
X18506579Y-30409391D02*
X18601817Y-30361772D01*
X18601817Y-30361772D02*
X18649436Y-30314153D01*
X18649436Y-30314153D02*
X18697055Y-30218915D01*
X18697055Y-30218915D02*
X18697055Y-29933201D01*
X18697055Y-29933201D02*
X18649436Y-29837963D01*
X18649436Y-29837963D02*
X18601817Y-29790344D01*
X18601817Y-29790344D02*
X18506579Y-29742724D01*
X18506579Y-29742724D02*
X18316103Y-29742724D01*
X18316103Y-29742724D02*
X18220865Y-29790344D01*
X19554198Y-29742724D02*
X19554198Y-30266534D01*
X19554198Y-30266534D02*
X19506579Y-30361772D01*
X19506579Y-30361772D02*
X19411341Y-30409391D01*
X19411341Y-30409391D02*
X19220865Y-30409391D01*
X19220865Y-30409391D02*
X19125627Y-30361772D01*
X19554198Y-29790344D02*
X19458960Y-29742724D01*
X19458960Y-29742724D02*
X19220865Y-29742724D01*
X19220865Y-29742724D02*
X19125627Y-29790344D01*
X19125627Y-29790344D02*
X19078008Y-29885582D01*
X19078008Y-29885582D02*
X19078008Y-29980820D01*
X19078008Y-29980820D02*
X19125627Y-30076058D01*
X19125627Y-30076058D02*
X19220865Y-30123677D01*
X19220865Y-30123677D02*
X19458960Y-30123677D01*
X19458960Y-30123677D02*
X19554198Y-30171296D01*
X20458960Y-29790344D02*
X20363722Y-29742724D01*
X20363722Y-29742724D02*
X20173246Y-29742724D01*
X20173246Y-29742724D02*
X20078008Y-29790344D01*
X20078008Y-29790344D02*
X20030389Y-29837963D01*
X20030389Y-29837963D02*
X19982770Y-29933201D01*
X19982770Y-29933201D02*
X19982770Y-30218915D01*
X19982770Y-30218915D02*
X20030389Y-30314153D01*
X20030389Y-30314153D02*
X20078008Y-30361772D01*
X20078008Y-30361772D02*
X20173246Y-30409391D01*
X20173246Y-30409391D02*
X20363722Y-30409391D01*
X20363722Y-30409391D02*
X20458960Y-30361772D01*
X21268484Y-29790344D02*
X21173246Y-29742724D01*
X21173246Y-29742724D02*
X20982770Y-29742724D01*
X20982770Y-29742724D02*
X20887532Y-29790344D01*
X20887532Y-29790344D02*
X20839913Y-29885582D01*
X20839913Y-29885582D02*
X20839913Y-30266534D01*
X20839913Y-30266534D02*
X20887532Y-30361772D01*
X20887532Y-30361772D02*
X20982770Y-30409391D01*
X20982770Y-30409391D02*
X21173246Y-30409391D01*
X21173246Y-30409391D02*
X21268484Y-30361772D01*
X21268484Y-30361772D02*
X21316103Y-30266534D01*
X21316103Y-30266534D02*
X21316103Y-30171296D01*
X21316103Y-30171296D02*
X20839913Y-30076058D01*
X22458960Y-30790344D02*
X21601818Y-29504629D01*
X14220865Y-28799447D02*
X14458960Y-28132780D01*
X14458960Y-28132780D02*
X14697055Y-28799447D01*
X15506579Y-28132780D02*
X15506579Y-28656590D01*
X15506579Y-28656590D02*
X15458960Y-28751828D01*
X15458960Y-28751828D02*
X15363722Y-28799447D01*
X15363722Y-28799447D02*
X15173246Y-28799447D01*
X15173246Y-28799447D02*
X15078008Y-28751828D01*
X15506579Y-28180400D02*
X15411341Y-28132780D01*
X15411341Y-28132780D02*
X15173246Y-28132780D01*
X15173246Y-28132780D02*
X15078008Y-28180400D01*
X15078008Y-28180400D02*
X15030389Y-28275638D01*
X15030389Y-28275638D02*
X15030389Y-28370876D01*
X15030389Y-28370876D02*
X15078008Y-28466114D01*
X15078008Y-28466114D02*
X15173246Y-28513733D01*
X15173246Y-28513733D02*
X15411341Y-28513733D01*
X15411341Y-28513733D02*
X15506579Y-28561352D01*
X15982770Y-28799447D02*
X15982770Y-27799447D01*
X15982770Y-28751828D02*
X16078008Y-28799447D01*
X16078008Y-28799447D02*
X16268484Y-28799447D01*
X16268484Y-28799447D02*
X16363722Y-28751828D01*
X16363722Y-28751828D02*
X16411341Y-28704209D01*
X16411341Y-28704209D02*
X16458960Y-28608971D01*
X16458960Y-28608971D02*
X16458960Y-28323257D01*
X16458960Y-28323257D02*
X16411341Y-28228019D01*
X16411341Y-28228019D02*
X16363722Y-28180400D01*
X16363722Y-28180400D02*
X16268484Y-28132780D01*
X16268484Y-28132780D02*
X16078008Y-28132780D01*
X16078008Y-28132780D02*
X15982770Y-28180400D01*
X17268484Y-28180400D02*
X17173246Y-28132780D01*
X17173246Y-28132780D02*
X16982770Y-28132780D01*
X16982770Y-28132780D02*
X16887532Y-28180400D01*
X16887532Y-28180400D02*
X16839913Y-28275638D01*
X16839913Y-28275638D02*
X16839913Y-28656590D01*
X16839913Y-28656590D02*
X16887532Y-28751828D01*
X16887532Y-28751828D02*
X16982770Y-28799447D01*
X16982770Y-28799447D02*
X17173246Y-28799447D01*
X17173246Y-28799447D02*
X17268484Y-28751828D01*
X17268484Y-28751828D02*
X17316103Y-28656590D01*
X17316103Y-28656590D02*
X17316103Y-28561352D01*
X17316103Y-28561352D02*
X16839913Y-28466114D01*
X17744675Y-28513733D02*
X18506580Y-28513733D01*
X19125627Y-28132780D02*
X19030389Y-28180400D01*
X19030389Y-28180400D02*
X18982770Y-28275638D01*
X18982770Y-28275638D02*
X18982770Y-29132780D01*
X19506580Y-28132780D02*
X19506580Y-28799447D01*
X19506580Y-29132780D02*
X19458961Y-29085161D01*
X19458961Y-29085161D02*
X19506580Y-29037542D01*
X19506580Y-29037542D02*
X19554199Y-29085161D01*
X19554199Y-29085161D02*
X19506580Y-29132780D01*
X19506580Y-29132780D02*
X19506580Y-29037542D01*
X20411341Y-28799447D02*
X20411341Y-27989923D01*
X20411341Y-27989923D02*
X20363722Y-27894685D01*
X20363722Y-27894685D02*
X20316103Y-27847066D01*
X20316103Y-27847066D02*
X20220865Y-27799447D01*
X20220865Y-27799447D02*
X20078008Y-27799447D01*
X20078008Y-27799447D02*
X19982770Y-27847066D01*
X20411341Y-28180400D02*
X20316103Y-28132780D01*
X20316103Y-28132780D02*
X20125627Y-28132780D01*
X20125627Y-28132780D02*
X20030389Y-28180400D01*
X20030389Y-28180400D02*
X19982770Y-28228019D01*
X19982770Y-28228019D02*
X19935151Y-28323257D01*
X19935151Y-28323257D02*
X19935151Y-28608971D01*
X19935151Y-28608971D02*
X19982770Y-28704209D01*
X19982770Y-28704209D02*
X20030389Y-28751828D01*
X20030389Y-28751828D02*
X20125627Y-28799447D01*
X20125627Y-28799447D02*
X20316103Y-28799447D01*
X20316103Y-28799447D02*
X20411341Y-28751828D01*
X20887532Y-28132780D02*
X20887532Y-29132780D01*
X21316103Y-28132780D02*
X21316103Y-28656590D01*
X21316103Y-28656590D02*
X21268484Y-28751828D01*
X21268484Y-28751828D02*
X21173246Y-28799447D01*
X21173246Y-28799447D02*
X21030389Y-28799447D01*
X21030389Y-28799447D02*
X20935151Y-28751828D01*
X20935151Y-28751828D02*
X20887532Y-28704209D01*
X21649437Y-28799447D02*
X22030389Y-28799447D01*
X21792294Y-29132780D02*
X21792294Y-28275638D01*
X21792294Y-28275638D02*
X21839913Y-28180400D01*
X21839913Y-28180400D02*
X21935151Y-28132780D01*
X21935151Y-28132780D02*
X22030389Y-28132780D01*
D10*
X47209955Y-26997642D02*
X47924241Y-26997642D01*
X47067098Y-26569071D02*
X47567098Y-28069071D01*
X47567098Y-28069071D02*
X48067098Y-26569071D01*
X48567097Y-26569071D02*
X48567097Y-28069071D01*
X49424240Y-26569071D02*
X48781383Y-27426214D01*
X49424240Y-28069071D02*
X48567097Y-27211928D01*
X50067097Y-26569071D02*
X50067097Y-28069071D01*
X50924240Y-26569071D02*
X50281383Y-27426214D01*
X50924240Y-28069071D02*
X50067097Y-27211928D01*
X51567097Y-28069071D02*
X51567097Y-26854785D01*
X51567097Y-26854785D02*
X51638526Y-26711928D01*
X51638526Y-26711928D02*
X51709955Y-26640500D01*
X51709955Y-26640500D02*
X51852812Y-26569071D01*
X51852812Y-26569071D02*
X52138526Y-26569071D01*
X52138526Y-26569071D02*
X52281383Y-26640500D01*
X52281383Y-26640500D02*
X52352812Y-26711928D01*
X52352812Y-26711928D02*
X52424240Y-26854785D01*
X52424240Y-26854785D02*
X52424240Y-28069071D01*
X55138526Y-26569071D02*
X54638526Y-27283357D01*
X54281383Y-26569071D02*
X54281383Y-28069071D01*
X54281383Y-28069071D02*
X54852812Y-28069071D01*
X54852812Y-28069071D02*
X54995669Y-27997642D01*
X54995669Y-27997642D02*
X55067098Y-27926214D01*
X55067098Y-27926214D02*
X55138526Y-27783357D01*
X55138526Y-27783357D02*
X55138526Y-27569071D01*
X55138526Y-27569071D02*
X55067098Y-27426214D01*
X55067098Y-27426214D02*
X54995669Y-27354785D01*
X54995669Y-27354785D02*
X54852812Y-27283357D01*
X54852812Y-27283357D02*
X54281383Y-27283357D01*
X56067098Y-28069071D02*
X56352812Y-28069071D01*
X56352812Y-28069071D02*
X56495669Y-27997642D01*
X56495669Y-27997642D02*
X56638526Y-27854785D01*
X56638526Y-27854785D02*
X56709955Y-27569071D01*
X56709955Y-27569071D02*
X56709955Y-27069071D01*
X56709955Y-27069071D02*
X56638526Y-26783357D01*
X56638526Y-26783357D02*
X56495669Y-26640500D01*
X56495669Y-26640500D02*
X56352812Y-26569071D01*
X56352812Y-26569071D02*
X56067098Y-26569071D01*
X56067098Y-26569071D02*
X55924241Y-26640500D01*
X55924241Y-26640500D02*
X55781383Y-26783357D01*
X55781383Y-26783357D02*
X55709955Y-27069071D01*
X55709955Y-27069071D02*
X55709955Y-27569071D01*
X55709955Y-27569071D02*
X55781383Y-27854785D01*
X55781383Y-27854785D02*
X55924241Y-27997642D01*
X55924241Y-27997642D02*
X56067098Y-28069071D01*
X57138527Y-28069071D02*
X57995670Y-28069071D01*
X57567098Y-26569071D02*
X57567098Y-28069071D01*
X59638526Y-27140500D02*
X60781384Y-27140500D01*
X60209955Y-26569071D02*
X60209955Y-27711928D01*
D11*
X10316101Y-62182500D02*
X9982768Y-62658691D01*
X9744673Y-62182500D02*
X9744673Y-63182500D01*
X9744673Y-63182500D02*
X10125625Y-63182500D01*
X10125625Y-63182500D02*
X10220863Y-63134881D01*
X10220863Y-63134881D02*
X10268482Y-63087262D01*
X10268482Y-63087262D02*
X10316101Y-62992024D01*
X10316101Y-62992024D02*
X10316101Y-62849167D01*
X10316101Y-62849167D02*
X10268482Y-62753929D01*
X10268482Y-62753929D02*
X10220863Y-62706310D01*
X10220863Y-62706310D02*
X10125625Y-62658691D01*
X10125625Y-62658691D02*
X9744673Y-62658691D01*
X11125625Y-62230120D02*
X11030387Y-62182500D01*
X11030387Y-62182500D02*
X10839911Y-62182500D01*
X10839911Y-62182500D02*
X10744673Y-62230120D01*
X10744673Y-62230120D02*
X10697054Y-62325358D01*
X10697054Y-62325358D02*
X10697054Y-62706310D01*
X10697054Y-62706310D02*
X10744673Y-62801548D01*
X10744673Y-62801548D02*
X10839911Y-62849167D01*
X10839911Y-62849167D02*
X11030387Y-62849167D01*
X11030387Y-62849167D02*
X11125625Y-62801548D01*
X11125625Y-62801548D02*
X11173244Y-62706310D01*
X11173244Y-62706310D02*
X11173244Y-62611072D01*
X11173244Y-62611072D02*
X10697054Y-62515834D01*
X11506578Y-62849167D02*
X11744673Y-62182500D01*
X11744673Y-62182500D02*
X11982768Y-62849167D01*
X12363721Y-62277739D02*
X12411340Y-62230120D01*
X12411340Y-62230120D02*
X12363721Y-62182500D01*
X12363721Y-62182500D02*
X12316102Y-62230120D01*
X12316102Y-62230120D02*
X12363721Y-62277739D01*
X12363721Y-62277739D02*
X12363721Y-62182500D01*
X12839911Y-62706310D02*
X13173244Y-62706310D01*
X13316101Y-62182500D02*
X12839911Y-62182500D01*
X12839911Y-62182500D02*
X12839911Y-63182500D01*
X12839911Y-63182500D02*
X13316101Y-63182500D01*
X15458959Y-63182500D02*
X15554197Y-63182500D01*
X15554197Y-63182500D02*
X15649435Y-63134881D01*
X15649435Y-63134881D02*
X15697054Y-63087262D01*
X15697054Y-63087262D02*
X15744673Y-62992024D01*
X15744673Y-62992024D02*
X15792292Y-62801548D01*
X15792292Y-62801548D02*
X15792292Y-62563453D01*
X15792292Y-62563453D02*
X15744673Y-62372977D01*
X15744673Y-62372977D02*
X15697054Y-62277739D01*
X15697054Y-62277739D02*
X15649435Y-62230120D01*
X15649435Y-62230120D02*
X15554197Y-62182500D01*
X15554197Y-62182500D02*
X15458959Y-62182500D01*
X15458959Y-62182500D02*
X15363721Y-62230120D01*
X15363721Y-62230120D02*
X15316102Y-62277739D01*
X15316102Y-62277739D02*
X15268483Y-62372977D01*
X15268483Y-62372977D02*
X15220864Y-62563453D01*
X15220864Y-62563453D02*
X15220864Y-62801548D01*
X15220864Y-62801548D02*
X15268483Y-62992024D01*
X15268483Y-62992024D02*
X15316102Y-63087262D01*
X15316102Y-63087262D02*
X15363721Y-63134881D01*
X15363721Y-63134881D02*
X15458959Y-63182500D01*
X16125626Y-63182500D02*
X16744673Y-63182500D01*
X16744673Y-63182500D02*
X16411340Y-62801548D01*
X16411340Y-62801548D02*
X16554197Y-62801548D01*
X16554197Y-62801548D02*
X16649435Y-62753929D01*
X16649435Y-62753929D02*
X16697054Y-62706310D01*
X16697054Y-62706310D02*
X16744673Y-62611072D01*
X16744673Y-62611072D02*
X16744673Y-62372977D01*
X16744673Y-62372977D02*
X16697054Y-62277739D01*
X16697054Y-62277739D02*
X16649435Y-62230120D01*
X16649435Y-62230120D02*
X16554197Y-62182500D01*
X16554197Y-62182500D02*
X16268483Y-62182500D01*
X16268483Y-62182500D02*
X16173245Y-62230120D01*
X16173245Y-62230120D02*
X16125626Y-62277739D01*
X17887530Y-63230120D02*
X17030388Y-61944405D01*
X18173245Y-63087262D02*
X18220864Y-63134881D01*
X18220864Y-63134881D02*
X18316102Y-63182500D01*
X18316102Y-63182500D02*
X18554197Y-63182500D01*
X18554197Y-63182500D02*
X18649435Y-63134881D01*
X18649435Y-63134881D02*
X18697054Y-63087262D01*
X18697054Y-63087262D02*
X18744673Y-62992024D01*
X18744673Y-62992024D02*
X18744673Y-62896786D01*
X18744673Y-62896786D02*
X18697054Y-62753929D01*
X18697054Y-62753929D02*
X18125626Y-62182500D01*
X18125626Y-62182500D02*
X18744673Y-62182500D01*
X19363721Y-63182500D02*
X19458959Y-63182500D01*
X19458959Y-63182500D02*
X19554197Y-63134881D01*
X19554197Y-63134881D02*
X19601816Y-63087262D01*
X19601816Y-63087262D02*
X19649435Y-62992024D01*
X19649435Y-62992024D02*
X19697054Y-62801548D01*
X19697054Y-62801548D02*
X19697054Y-62563453D01*
X19697054Y-62563453D02*
X19649435Y-62372977D01*
X19649435Y-62372977D02*
X19601816Y-62277739D01*
X19601816Y-62277739D02*
X19554197Y-62230120D01*
X19554197Y-62230120D02*
X19458959Y-62182500D01*
X19458959Y-62182500D02*
X19363721Y-62182500D01*
X19363721Y-62182500D02*
X19268483Y-62230120D01*
X19268483Y-62230120D02*
X19220864Y-62277739D01*
X19220864Y-62277739D02*
X19173245Y-62372977D01*
X19173245Y-62372977D02*
X19125626Y-62563453D01*
X19125626Y-62563453D02*
X19125626Y-62801548D01*
X19125626Y-62801548D02*
X19173245Y-62992024D01*
X19173245Y-62992024D02*
X19220864Y-63087262D01*
X19220864Y-63087262D02*
X19268483Y-63134881D01*
X19268483Y-63134881D02*
X19363721Y-63182500D01*
X20078007Y-63087262D02*
X20125626Y-63134881D01*
X20125626Y-63134881D02*
X20220864Y-63182500D01*
X20220864Y-63182500D02*
X20458959Y-63182500D01*
X20458959Y-63182500D02*
X20554197Y-63134881D01*
X20554197Y-63134881D02*
X20601816Y-63087262D01*
X20601816Y-63087262D02*
X20649435Y-62992024D01*
X20649435Y-62992024D02*
X20649435Y-62896786D01*
X20649435Y-62896786D02*
X20601816Y-62753929D01*
X20601816Y-62753929D02*
X20030388Y-62182500D01*
X20030388Y-62182500D02*
X20649435Y-62182500D01*
X21554197Y-63182500D02*
X21078007Y-63182500D01*
X21078007Y-63182500D02*
X21030388Y-62706310D01*
X21030388Y-62706310D02*
X21078007Y-62753929D01*
X21078007Y-62753929D02*
X21173245Y-62801548D01*
X21173245Y-62801548D02*
X21411340Y-62801548D01*
X21411340Y-62801548D02*
X21506578Y-62753929D01*
X21506578Y-62753929D02*
X21554197Y-62706310D01*
X21554197Y-62706310D02*
X21601816Y-62611072D01*
X21601816Y-62611072D02*
X21601816Y-62372977D01*
X21601816Y-62372977D02*
X21554197Y-62277739D01*
X21554197Y-62277739D02*
X21506578Y-62230120D01*
X21506578Y-62230120D02*
X21411340Y-62182500D01*
X21411340Y-62182500D02*
X21173245Y-62182500D01*
X21173245Y-62182500D02*
X21078007Y-62230120D01*
X21078007Y-62230120D02*
X21030388Y-62277739D01*
X10316101Y-60667795D02*
X10268482Y-60620176D01*
X10268482Y-60620176D02*
X10125625Y-60572556D01*
X10125625Y-60572556D02*
X10030387Y-60572556D01*
X10030387Y-60572556D02*
X9887530Y-60620176D01*
X9887530Y-60620176D02*
X9792292Y-60715414D01*
X9792292Y-60715414D02*
X9744673Y-60810652D01*
X9744673Y-60810652D02*
X9697054Y-61001128D01*
X9697054Y-61001128D02*
X9697054Y-61143985D01*
X9697054Y-61143985D02*
X9744673Y-61334461D01*
X9744673Y-61334461D02*
X9792292Y-61429699D01*
X9792292Y-61429699D02*
X9887530Y-61524937D01*
X9887530Y-61524937D02*
X10030387Y-61572556D01*
X10030387Y-61572556D02*
X10125625Y-61572556D01*
X10125625Y-61572556D02*
X10268482Y-61524937D01*
X10268482Y-61524937D02*
X10316101Y-61477318D01*
X10744673Y-61096366D02*
X11078006Y-61096366D01*
X11220863Y-60572556D02*
X10744673Y-60572556D01*
X10744673Y-60572556D02*
X10744673Y-61572556D01*
X10744673Y-61572556D02*
X11220863Y-61572556D01*
X12220863Y-60572556D02*
X11887530Y-61048747D01*
X11649435Y-60572556D02*
X11649435Y-61572556D01*
X11649435Y-61572556D02*
X12030387Y-61572556D01*
X12030387Y-61572556D02*
X12125625Y-61524937D01*
X12125625Y-61524937D02*
X12173244Y-61477318D01*
X12173244Y-61477318D02*
X12220863Y-61382080D01*
X12220863Y-61382080D02*
X12220863Y-61239223D01*
X12220863Y-61239223D02*
X12173244Y-61143985D01*
X12173244Y-61143985D02*
X12125625Y-61096366D01*
X12125625Y-61096366D02*
X12030387Y-61048747D01*
X12030387Y-61048747D02*
X11649435Y-61048747D01*
X12649435Y-60572556D02*
X12649435Y-61572556D01*
X12649435Y-61572556D02*
X13220863Y-60572556D01*
X13220863Y-60572556D02*
X13220863Y-61572556D01*
X14649435Y-61572556D02*
X14839911Y-61572556D01*
X14839911Y-61572556D02*
X14935149Y-61524937D01*
X14935149Y-61524937D02*
X15030387Y-61429699D01*
X15030387Y-61429699D02*
X15078006Y-61239223D01*
X15078006Y-61239223D02*
X15078006Y-60905890D01*
X15078006Y-60905890D02*
X15030387Y-60715414D01*
X15030387Y-60715414D02*
X14935149Y-60620176D01*
X14935149Y-60620176D02*
X14839911Y-60572556D01*
X14839911Y-60572556D02*
X14649435Y-60572556D01*
X14649435Y-60572556D02*
X14554197Y-60620176D01*
X14554197Y-60620176D02*
X14458959Y-60715414D01*
X14458959Y-60715414D02*
X14411340Y-60905890D01*
X14411340Y-60905890D02*
X14411340Y-61239223D01*
X14411340Y-61239223D02*
X14458959Y-61429699D01*
X14458959Y-61429699D02*
X14554197Y-61524937D01*
X14554197Y-61524937D02*
X14649435Y-61572556D01*
X15506578Y-60572556D02*
X15506578Y-61572556D01*
X15506578Y-61096366D02*
X16078006Y-61096366D01*
X16078006Y-60572556D02*
X16078006Y-61572556D01*
X17030387Y-60572556D02*
X16554197Y-60572556D01*
X16554197Y-60572556D02*
X16554197Y-61572556D01*
X18125626Y-60572556D02*
X18125626Y-61572556D01*
X18125626Y-61572556D02*
X18506578Y-61572556D01*
X18506578Y-61572556D02*
X18601816Y-61524937D01*
X18601816Y-61524937D02*
X18649435Y-61477318D01*
X18649435Y-61477318D02*
X18697054Y-61382080D01*
X18697054Y-61382080D02*
X18697054Y-61239223D01*
X18697054Y-61239223D02*
X18649435Y-61143985D01*
X18649435Y-61143985D02*
X18601816Y-61096366D01*
X18601816Y-61096366D02*
X18506578Y-61048747D01*
X18506578Y-61048747D02*
X18125626Y-61048747D01*
X19839912Y-61477318D02*
X19887531Y-61524937D01*
X19887531Y-61524937D02*
X19982769Y-61572556D01*
X19982769Y-61572556D02*
X20220864Y-61572556D01*
X20220864Y-61572556D02*
X20316102Y-61524937D01*
X20316102Y-61524937D02*
X20363721Y-61477318D01*
X20363721Y-61477318D02*
X20411340Y-61382080D01*
X20411340Y-61382080D02*
X20411340Y-61286842D01*
X20411340Y-61286842D02*
X20363721Y-61143985D01*
X20363721Y-61143985D02*
X19792293Y-60572556D01*
X19792293Y-60572556D02*
X20411340Y-60572556D01*
X20839912Y-60667795D02*
X20887531Y-60620176D01*
X20887531Y-60620176D02*
X20839912Y-60572556D01*
X20839912Y-60572556D02*
X20792293Y-60620176D01*
X20792293Y-60620176D02*
X20839912Y-60667795D01*
X20839912Y-60667795D02*
X20839912Y-60572556D01*
X21506578Y-61572556D02*
X21601816Y-61572556D01*
X21601816Y-61572556D02*
X21697054Y-61524937D01*
X21697054Y-61524937D02*
X21744673Y-61477318D01*
X21744673Y-61477318D02*
X21792292Y-61382080D01*
X21792292Y-61382080D02*
X21839911Y-61191604D01*
X21839911Y-61191604D02*
X21839911Y-60953509D01*
X21839911Y-60953509D02*
X21792292Y-60763033D01*
X21792292Y-60763033D02*
X21744673Y-60667795D01*
X21744673Y-60667795D02*
X21697054Y-60620176D01*
X21697054Y-60620176D02*
X21601816Y-60572556D01*
X21601816Y-60572556D02*
X21506578Y-60572556D01*
X21506578Y-60572556D02*
X21411340Y-60620176D01*
X21411340Y-60620176D02*
X21363721Y-60667795D01*
X21363721Y-60667795D02*
X21316102Y-60763033D01*
X21316102Y-60763033D02*
X21268483Y-60953509D01*
X21268483Y-60953509D02*
X21268483Y-61191604D01*
X21268483Y-61191604D02*
X21316102Y-61382080D01*
X21316102Y-61382080D02*
X21363721Y-61477318D01*
X21363721Y-61477318D02*
X21411340Y-61524937D01*
X21411340Y-61524937D02*
X21506578Y-61572556D01*
X9744673Y-58962612D02*
X9744673Y-59962612D01*
X10173244Y-58962612D02*
X10173244Y-59486422D01*
X10173244Y-59486422D02*
X10125625Y-59581660D01*
X10125625Y-59581660D02*
X10030387Y-59629279D01*
X10030387Y-59629279D02*
X9887530Y-59629279D01*
X9887530Y-59629279D02*
X9792292Y-59581660D01*
X9792292Y-59581660D02*
X9744673Y-59534041D01*
X10506578Y-59629279D02*
X10887530Y-59629279D01*
X10649435Y-59962612D02*
X10649435Y-59105470D01*
X10649435Y-59105470D02*
X10697054Y-59010232D01*
X10697054Y-59010232D02*
X10792292Y-58962612D01*
X10792292Y-58962612D02*
X10887530Y-58962612D01*
X11078007Y-59629279D02*
X11458959Y-59629279D01*
X11220864Y-59962612D02*
X11220864Y-59105470D01*
X11220864Y-59105470D02*
X11268483Y-59010232D01*
X11268483Y-59010232D02*
X11363721Y-58962612D01*
X11363721Y-58962612D02*
X11458959Y-58962612D01*
X11792293Y-59629279D02*
X11792293Y-58629279D01*
X11792293Y-59581660D02*
X11887531Y-59629279D01*
X11887531Y-59629279D02*
X12078007Y-59629279D01*
X12078007Y-59629279D02*
X12173245Y-59581660D01*
X12173245Y-59581660D02*
X12220864Y-59534041D01*
X12220864Y-59534041D02*
X12268483Y-59438803D01*
X12268483Y-59438803D02*
X12268483Y-59153089D01*
X12268483Y-59153089D02*
X12220864Y-59057851D01*
X12220864Y-59057851D02*
X12173245Y-59010232D01*
X12173245Y-59010232D02*
X12078007Y-58962612D01*
X12078007Y-58962612D02*
X11887531Y-58962612D01*
X11887531Y-58962612D02*
X11792293Y-59010232D01*
X12649436Y-59010232D02*
X12744674Y-58962612D01*
X12744674Y-58962612D02*
X12935150Y-58962612D01*
X12935150Y-58962612D02*
X13030388Y-59010232D01*
X13030388Y-59010232D02*
X13078007Y-59105470D01*
X13078007Y-59105470D02*
X13078007Y-59153089D01*
X13078007Y-59153089D02*
X13030388Y-59248327D01*
X13030388Y-59248327D02*
X12935150Y-59295946D01*
X12935150Y-59295946D02*
X12792293Y-59295946D01*
X12792293Y-59295946D02*
X12697055Y-59343565D01*
X12697055Y-59343565D02*
X12649436Y-59438803D01*
X12649436Y-59438803D02*
X12649436Y-59486422D01*
X12649436Y-59486422D02*
X12697055Y-59581660D01*
X12697055Y-59581660D02*
X12792293Y-59629279D01*
X12792293Y-59629279D02*
X12935150Y-59629279D01*
X12935150Y-59629279D02*
X13030388Y-59581660D01*
X13506579Y-59057851D02*
X13554198Y-59010232D01*
X13554198Y-59010232D02*
X13506579Y-58962612D01*
X13506579Y-58962612D02*
X13458960Y-59010232D01*
X13458960Y-59010232D02*
X13506579Y-59057851D01*
X13506579Y-59057851D02*
X13506579Y-58962612D01*
X13506579Y-59581660D02*
X13554198Y-59534041D01*
X13554198Y-59534041D02*
X13506579Y-59486422D01*
X13506579Y-59486422D02*
X13458960Y-59534041D01*
X13458960Y-59534041D02*
X13506579Y-59581660D01*
X13506579Y-59581660D02*
X13506579Y-59486422D01*
X14697054Y-60010232D02*
X13839912Y-58724517D01*
X15744673Y-60010232D02*
X14887531Y-58724517D01*
X11697054Y-58019335D02*
X11697054Y-57209811D01*
X11697054Y-57209811D02*
X11649435Y-57114573D01*
X11649435Y-57114573D02*
X11601816Y-57066954D01*
X11601816Y-57066954D02*
X11506578Y-57019335D01*
X11506578Y-57019335D02*
X11363721Y-57019335D01*
X11363721Y-57019335D02*
X11268483Y-57066954D01*
X11697054Y-57400288D02*
X11601816Y-57352668D01*
X11601816Y-57352668D02*
X11411340Y-57352668D01*
X11411340Y-57352668D02*
X11316102Y-57400288D01*
X11316102Y-57400288D02*
X11268483Y-57447907D01*
X11268483Y-57447907D02*
X11220864Y-57543145D01*
X11220864Y-57543145D02*
X11220864Y-57828859D01*
X11220864Y-57828859D02*
X11268483Y-57924097D01*
X11268483Y-57924097D02*
X11316102Y-57971716D01*
X11316102Y-57971716D02*
X11411340Y-58019335D01*
X11411340Y-58019335D02*
X11601816Y-58019335D01*
X11601816Y-58019335D02*
X11697054Y-57971716D01*
X12173245Y-57352668D02*
X12173245Y-58019335D01*
X12173245Y-58352668D02*
X12125626Y-58305049D01*
X12125626Y-58305049D02*
X12173245Y-58257430D01*
X12173245Y-58257430D02*
X12220864Y-58305049D01*
X12220864Y-58305049D02*
X12173245Y-58352668D01*
X12173245Y-58352668D02*
X12173245Y-58257430D01*
X12506578Y-58019335D02*
X12887530Y-58019335D01*
X12649435Y-58352668D02*
X12649435Y-57495526D01*
X12649435Y-57495526D02*
X12697054Y-57400288D01*
X12697054Y-57400288D02*
X12792292Y-57352668D01*
X12792292Y-57352668D02*
X12887530Y-57352668D01*
X13220864Y-57352668D02*
X13220864Y-58352668D01*
X13649435Y-57352668D02*
X13649435Y-57876478D01*
X13649435Y-57876478D02*
X13601816Y-57971716D01*
X13601816Y-57971716D02*
X13506578Y-58019335D01*
X13506578Y-58019335D02*
X13363721Y-58019335D01*
X13363721Y-58019335D02*
X13268483Y-57971716D01*
X13268483Y-57971716D02*
X13220864Y-57924097D01*
X14554197Y-58019335D02*
X14554197Y-57352668D01*
X14125626Y-58019335D02*
X14125626Y-57495526D01*
X14125626Y-57495526D02*
X14173245Y-57400288D01*
X14173245Y-57400288D02*
X14268483Y-57352668D01*
X14268483Y-57352668D02*
X14411340Y-57352668D01*
X14411340Y-57352668D02*
X14506578Y-57400288D01*
X14506578Y-57400288D02*
X14554197Y-57447907D01*
X15030388Y-57352668D02*
X15030388Y-58352668D01*
X15030388Y-57971716D02*
X15125626Y-58019335D01*
X15125626Y-58019335D02*
X15316102Y-58019335D01*
X15316102Y-58019335D02*
X15411340Y-57971716D01*
X15411340Y-57971716D02*
X15458959Y-57924097D01*
X15458959Y-57924097D02*
X15506578Y-57828859D01*
X15506578Y-57828859D02*
X15506578Y-57543145D01*
X15506578Y-57543145D02*
X15458959Y-57447907D01*
X15458959Y-57447907D02*
X15411340Y-57400288D01*
X15411340Y-57400288D02*
X15316102Y-57352668D01*
X15316102Y-57352668D02*
X15125626Y-57352668D01*
X15125626Y-57352668D02*
X15030388Y-57400288D01*
X15935150Y-57447907D02*
X15982769Y-57400288D01*
X15982769Y-57400288D02*
X15935150Y-57352668D01*
X15935150Y-57352668D02*
X15887531Y-57400288D01*
X15887531Y-57400288D02*
X15935150Y-57447907D01*
X15935150Y-57447907D02*
X15935150Y-57352668D01*
X16839911Y-57400288D02*
X16744673Y-57352668D01*
X16744673Y-57352668D02*
X16554197Y-57352668D01*
X16554197Y-57352668D02*
X16458959Y-57400288D01*
X16458959Y-57400288D02*
X16411340Y-57447907D01*
X16411340Y-57447907D02*
X16363721Y-57543145D01*
X16363721Y-57543145D02*
X16363721Y-57828859D01*
X16363721Y-57828859D02*
X16411340Y-57924097D01*
X16411340Y-57924097D02*
X16458959Y-57971716D01*
X16458959Y-57971716D02*
X16554197Y-58019335D01*
X16554197Y-58019335D02*
X16744673Y-58019335D01*
X16744673Y-58019335D02*
X16839911Y-57971716D01*
X17411340Y-57352668D02*
X17316102Y-57400288D01*
X17316102Y-57400288D02*
X17268483Y-57447907D01*
X17268483Y-57447907D02*
X17220864Y-57543145D01*
X17220864Y-57543145D02*
X17220864Y-57828859D01*
X17220864Y-57828859D02*
X17268483Y-57924097D01*
X17268483Y-57924097D02*
X17316102Y-57971716D01*
X17316102Y-57971716D02*
X17411340Y-58019335D01*
X17411340Y-58019335D02*
X17554197Y-58019335D01*
X17554197Y-58019335D02*
X17649435Y-57971716D01*
X17649435Y-57971716D02*
X17697054Y-57924097D01*
X17697054Y-57924097D02*
X17744673Y-57828859D01*
X17744673Y-57828859D02*
X17744673Y-57543145D01*
X17744673Y-57543145D02*
X17697054Y-57447907D01*
X17697054Y-57447907D02*
X17649435Y-57400288D01*
X17649435Y-57400288D02*
X17554197Y-57352668D01*
X17554197Y-57352668D02*
X17411340Y-57352668D01*
X18173245Y-57352668D02*
X18173245Y-58019335D01*
X18173245Y-57924097D02*
X18220864Y-57971716D01*
X18220864Y-57971716D02*
X18316102Y-58019335D01*
X18316102Y-58019335D02*
X18458959Y-58019335D01*
X18458959Y-58019335D02*
X18554197Y-57971716D01*
X18554197Y-57971716D02*
X18601816Y-57876478D01*
X18601816Y-57876478D02*
X18601816Y-57352668D01*
X18601816Y-57876478D02*
X18649435Y-57971716D01*
X18649435Y-57971716D02*
X18744673Y-58019335D01*
X18744673Y-58019335D02*
X18887530Y-58019335D01*
X18887530Y-58019335D02*
X18982769Y-57971716D01*
X18982769Y-57971716D02*
X19030388Y-57876478D01*
X19030388Y-57876478D02*
X19030388Y-57352668D01*
X20220863Y-58400288D02*
X19363721Y-57114573D01*
X12744674Y-55790344D02*
X12839912Y-55742724D01*
X12839912Y-55742724D02*
X13030388Y-55742724D01*
X13030388Y-55742724D02*
X13125626Y-55790344D01*
X13125626Y-55790344D02*
X13173245Y-55885582D01*
X13173245Y-55885582D02*
X13173245Y-55933201D01*
X13173245Y-55933201D02*
X13125626Y-56028439D01*
X13125626Y-56028439D02*
X13030388Y-56076058D01*
X13030388Y-56076058D02*
X12887531Y-56076058D01*
X12887531Y-56076058D02*
X12792293Y-56123677D01*
X12792293Y-56123677D02*
X12744674Y-56218915D01*
X12744674Y-56218915D02*
X12744674Y-56266534D01*
X12744674Y-56266534D02*
X12792293Y-56361772D01*
X12792293Y-56361772D02*
X12887531Y-56409391D01*
X12887531Y-56409391D02*
X13030388Y-56409391D01*
X13030388Y-56409391D02*
X13125626Y-56361772D01*
X13601817Y-55742724D02*
X13601817Y-56742724D01*
X13601817Y-56361772D02*
X13697055Y-56409391D01*
X13697055Y-56409391D02*
X13887531Y-56409391D01*
X13887531Y-56409391D02*
X13982769Y-56361772D01*
X13982769Y-56361772D02*
X14030388Y-56314153D01*
X14030388Y-56314153D02*
X14078007Y-56218915D01*
X14078007Y-56218915D02*
X14078007Y-55933201D01*
X14078007Y-55933201D02*
X14030388Y-55837963D01*
X14030388Y-55837963D02*
X13982769Y-55790344D01*
X13982769Y-55790344D02*
X13887531Y-55742724D01*
X13887531Y-55742724D02*
X13697055Y-55742724D01*
X13697055Y-55742724D02*
X13601817Y-55790344D01*
X14411341Y-56409391D02*
X14649436Y-55742724D01*
X14887531Y-56409391D02*
X14649436Y-55742724D01*
X14649436Y-55742724D02*
X14554198Y-55504629D01*
X14554198Y-55504629D02*
X14506579Y-55457010D01*
X14506579Y-55457010D02*
X14411341Y-55409391D01*
X15697055Y-55742724D02*
X15697055Y-56742724D01*
X15697055Y-55790344D02*
X15601817Y-55742724D01*
X15601817Y-55742724D02*
X15411341Y-55742724D01*
X15411341Y-55742724D02*
X15316103Y-55790344D01*
X15316103Y-55790344D02*
X15268484Y-55837963D01*
X15268484Y-55837963D02*
X15220865Y-55933201D01*
X15220865Y-55933201D02*
X15220865Y-56218915D01*
X15220865Y-56218915D02*
X15268484Y-56314153D01*
X15268484Y-56314153D02*
X15316103Y-56361772D01*
X15316103Y-56361772D02*
X15411341Y-56409391D01*
X15411341Y-56409391D02*
X15601817Y-56409391D01*
X15601817Y-56409391D02*
X15697055Y-56361772D01*
X16173246Y-56123677D02*
X16935151Y-56123677D01*
X17363722Y-55790344D02*
X17458960Y-55742724D01*
X17458960Y-55742724D02*
X17649436Y-55742724D01*
X17649436Y-55742724D02*
X17744674Y-55790344D01*
X17744674Y-55790344D02*
X17792293Y-55885582D01*
X17792293Y-55885582D02*
X17792293Y-55933201D01*
X17792293Y-55933201D02*
X17744674Y-56028439D01*
X17744674Y-56028439D02*
X17649436Y-56076058D01*
X17649436Y-56076058D02*
X17506579Y-56076058D01*
X17506579Y-56076058D02*
X17411341Y-56123677D01*
X17411341Y-56123677D02*
X17363722Y-56218915D01*
X17363722Y-56218915D02*
X17363722Y-56266534D01*
X17363722Y-56266534D02*
X17411341Y-56361772D01*
X17411341Y-56361772D02*
X17506579Y-56409391D01*
X17506579Y-56409391D02*
X17649436Y-56409391D01*
X17649436Y-56409391D02*
X17744674Y-56361772D01*
X18220865Y-56409391D02*
X18220865Y-55409391D01*
X18220865Y-56361772D02*
X18316103Y-56409391D01*
X18316103Y-56409391D02*
X18506579Y-56409391D01*
X18506579Y-56409391D02*
X18601817Y-56361772D01*
X18601817Y-56361772D02*
X18649436Y-56314153D01*
X18649436Y-56314153D02*
X18697055Y-56218915D01*
X18697055Y-56218915D02*
X18697055Y-55933201D01*
X18697055Y-55933201D02*
X18649436Y-55837963D01*
X18649436Y-55837963D02*
X18601817Y-55790344D01*
X18601817Y-55790344D02*
X18506579Y-55742724D01*
X18506579Y-55742724D02*
X18316103Y-55742724D01*
X18316103Y-55742724D02*
X18220865Y-55790344D01*
X19554198Y-55742724D02*
X19554198Y-56266534D01*
X19554198Y-56266534D02*
X19506579Y-56361772D01*
X19506579Y-56361772D02*
X19411341Y-56409391D01*
X19411341Y-56409391D02*
X19220865Y-56409391D01*
X19220865Y-56409391D02*
X19125627Y-56361772D01*
X19554198Y-55790344D02*
X19458960Y-55742724D01*
X19458960Y-55742724D02*
X19220865Y-55742724D01*
X19220865Y-55742724D02*
X19125627Y-55790344D01*
X19125627Y-55790344D02*
X19078008Y-55885582D01*
X19078008Y-55885582D02*
X19078008Y-55980820D01*
X19078008Y-55980820D02*
X19125627Y-56076058D01*
X19125627Y-56076058D02*
X19220865Y-56123677D01*
X19220865Y-56123677D02*
X19458960Y-56123677D01*
X19458960Y-56123677D02*
X19554198Y-56171296D01*
X20458960Y-55790344D02*
X20363722Y-55742724D01*
X20363722Y-55742724D02*
X20173246Y-55742724D01*
X20173246Y-55742724D02*
X20078008Y-55790344D01*
X20078008Y-55790344D02*
X20030389Y-55837963D01*
X20030389Y-55837963D02*
X19982770Y-55933201D01*
X19982770Y-55933201D02*
X19982770Y-56218915D01*
X19982770Y-56218915D02*
X20030389Y-56314153D01*
X20030389Y-56314153D02*
X20078008Y-56361772D01*
X20078008Y-56361772D02*
X20173246Y-56409391D01*
X20173246Y-56409391D02*
X20363722Y-56409391D01*
X20363722Y-56409391D02*
X20458960Y-56361772D01*
X21268484Y-55790344D02*
X21173246Y-55742724D01*
X21173246Y-55742724D02*
X20982770Y-55742724D01*
X20982770Y-55742724D02*
X20887532Y-55790344D01*
X20887532Y-55790344D02*
X20839913Y-55885582D01*
X20839913Y-55885582D02*
X20839913Y-56266534D01*
X20839913Y-56266534D02*
X20887532Y-56361772D01*
X20887532Y-56361772D02*
X20982770Y-56409391D01*
X20982770Y-56409391D02*
X21173246Y-56409391D01*
X21173246Y-56409391D02*
X21268484Y-56361772D01*
X21268484Y-56361772D02*
X21316103Y-56266534D01*
X21316103Y-56266534D02*
X21316103Y-56171296D01*
X21316103Y-56171296D02*
X20839913Y-56076058D01*
X22458960Y-56790344D02*
X21601818Y-55504629D01*
X14220865Y-54799447D02*
X14458960Y-54132780D01*
X14458960Y-54132780D02*
X14697055Y-54799447D01*
X15506579Y-54132780D02*
X15506579Y-54656590D01*
X15506579Y-54656590D02*
X15458960Y-54751828D01*
X15458960Y-54751828D02*
X15363722Y-54799447D01*
X15363722Y-54799447D02*
X15173246Y-54799447D01*
X15173246Y-54799447D02*
X15078008Y-54751828D01*
X15506579Y-54180400D02*
X15411341Y-54132780D01*
X15411341Y-54132780D02*
X15173246Y-54132780D01*
X15173246Y-54132780D02*
X15078008Y-54180400D01*
X15078008Y-54180400D02*
X15030389Y-54275638D01*
X15030389Y-54275638D02*
X15030389Y-54370876D01*
X15030389Y-54370876D02*
X15078008Y-54466114D01*
X15078008Y-54466114D02*
X15173246Y-54513733D01*
X15173246Y-54513733D02*
X15411341Y-54513733D01*
X15411341Y-54513733D02*
X15506579Y-54561352D01*
X15982770Y-54799447D02*
X15982770Y-53799447D01*
X15982770Y-54751828D02*
X16078008Y-54799447D01*
X16078008Y-54799447D02*
X16268484Y-54799447D01*
X16268484Y-54799447D02*
X16363722Y-54751828D01*
X16363722Y-54751828D02*
X16411341Y-54704209D01*
X16411341Y-54704209D02*
X16458960Y-54608971D01*
X16458960Y-54608971D02*
X16458960Y-54323257D01*
X16458960Y-54323257D02*
X16411341Y-54228019D01*
X16411341Y-54228019D02*
X16363722Y-54180400D01*
X16363722Y-54180400D02*
X16268484Y-54132780D01*
X16268484Y-54132780D02*
X16078008Y-54132780D01*
X16078008Y-54132780D02*
X15982770Y-54180400D01*
X17268484Y-54180400D02*
X17173246Y-54132780D01*
X17173246Y-54132780D02*
X16982770Y-54132780D01*
X16982770Y-54132780D02*
X16887532Y-54180400D01*
X16887532Y-54180400D02*
X16839913Y-54275638D01*
X16839913Y-54275638D02*
X16839913Y-54656590D01*
X16839913Y-54656590D02*
X16887532Y-54751828D01*
X16887532Y-54751828D02*
X16982770Y-54799447D01*
X16982770Y-54799447D02*
X17173246Y-54799447D01*
X17173246Y-54799447D02*
X17268484Y-54751828D01*
X17268484Y-54751828D02*
X17316103Y-54656590D01*
X17316103Y-54656590D02*
X17316103Y-54561352D01*
X17316103Y-54561352D02*
X16839913Y-54466114D01*
X17744675Y-54513733D02*
X18506580Y-54513733D01*
X19125627Y-54132780D02*
X19030389Y-54180400D01*
X19030389Y-54180400D02*
X18982770Y-54275638D01*
X18982770Y-54275638D02*
X18982770Y-55132780D01*
X19506580Y-54132780D02*
X19506580Y-54799447D01*
X19506580Y-55132780D02*
X19458961Y-55085161D01*
X19458961Y-55085161D02*
X19506580Y-55037542D01*
X19506580Y-55037542D02*
X19554199Y-55085161D01*
X19554199Y-55085161D02*
X19506580Y-55132780D01*
X19506580Y-55132780D02*
X19506580Y-55037542D01*
X20411341Y-54799447D02*
X20411341Y-53989923D01*
X20411341Y-53989923D02*
X20363722Y-53894685D01*
X20363722Y-53894685D02*
X20316103Y-53847066D01*
X20316103Y-53847066D02*
X20220865Y-53799447D01*
X20220865Y-53799447D02*
X20078008Y-53799447D01*
X20078008Y-53799447D02*
X19982770Y-53847066D01*
X20411341Y-54180400D02*
X20316103Y-54132780D01*
X20316103Y-54132780D02*
X20125627Y-54132780D01*
X20125627Y-54132780D02*
X20030389Y-54180400D01*
X20030389Y-54180400D02*
X19982770Y-54228019D01*
X19982770Y-54228019D02*
X19935151Y-54323257D01*
X19935151Y-54323257D02*
X19935151Y-54608971D01*
X19935151Y-54608971D02*
X19982770Y-54704209D01*
X19982770Y-54704209D02*
X20030389Y-54751828D01*
X20030389Y-54751828D02*
X20125627Y-54799447D01*
X20125627Y-54799447D02*
X20316103Y-54799447D01*
X20316103Y-54799447D02*
X20411341Y-54751828D01*
X20887532Y-54132780D02*
X20887532Y-55132780D01*
X21316103Y-54132780D02*
X21316103Y-54656590D01*
X21316103Y-54656590D02*
X21268484Y-54751828D01*
X21268484Y-54751828D02*
X21173246Y-54799447D01*
X21173246Y-54799447D02*
X21030389Y-54799447D01*
X21030389Y-54799447D02*
X20935151Y-54751828D01*
X20935151Y-54751828D02*
X20887532Y-54704209D01*
X21649437Y-54799447D02*
X22030389Y-54799447D01*
X21792294Y-55132780D02*
X21792294Y-54275638D01*
X21792294Y-54275638D02*
X21839913Y-54180400D01*
X21839913Y-54180400D02*
X21935151Y-54132780D01*
X21935151Y-54132780D02*
X22030389Y-54132780D01*
D10*
X47209955Y-8997642D02*
X47924241Y-8997642D01*
X47067098Y-8569071D02*
X47567098Y-10069071D01*
X47567098Y-10069071D02*
X48067098Y-8569071D01*
X48567097Y-8569071D02*
X48567097Y-10069071D01*
X49424240Y-8569071D02*
X48781383Y-9426214D01*
X49424240Y-10069071D02*
X48567097Y-9211928D01*
X50067097Y-8569071D02*
X50067097Y-10069071D01*
X50924240Y-8569071D02*
X50281383Y-9426214D01*
X50924240Y-10069071D02*
X50067097Y-9211928D01*
X51567097Y-10069071D02*
X51567097Y-8854785D01*
X51567097Y-8854785D02*
X51638526Y-8711928D01*
X51638526Y-8711928D02*
X51709955Y-8640500D01*
X51709955Y-8640500D02*
X51852812Y-8569071D01*
X51852812Y-8569071D02*
X52138526Y-8569071D01*
X52138526Y-8569071D02*
X52281383Y-8640500D01*
X52281383Y-8640500D02*
X52352812Y-8711928D01*
X52352812Y-8711928D02*
X52424240Y-8854785D01*
X52424240Y-8854785D02*
X52424240Y-10069071D01*
X55138526Y-8569071D02*
X54638526Y-9283357D01*
X54281383Y-8569071D02*
X54281383Y-10069071D01*
X54281383Y-10069071D02*
X54852812Y-10069071D01*
X54852812Y-10069071D02*
X54995669Y-9997642D01*
X54995669Y-9997642D02*
X55067098Y-9926214D01*
X55067098Y-9926214D02*
X55138526Y-9783357D01*
X55138526Y-9783357D02*
X55138526Y-9569071D01*
X55138526Y-9569071D02*
X55067098Y-9426214D01*
X55067098Y-9426214D02*
X54995669Y-9354785D01*
X54995669Y-9354785D02*
X54852812Y-9283357D01*
X54852812Y-9283357D02*
X54281383Y-9283357D01*
X56067098Y-10069071D02*
X56352812Y-10069071D01*
X56352812Y-10069071D02*
X56495669Y-9997642D01*
X56495669Y-9997642D02*
X56638526Y-9854785D01*
X56638526Y-9854785D02*
X56709955Y-9569071D01*
X56709955Y-9569071D02*
X56709955Y-9069071D01*
X56709955Y-9069071D02*
X56638526Y-8783357D01*
X56638526Y-8783357D02*
X56495669Y-8640500D01*
X56495669Y-8640500D02*
X56352812Y-8569071D01*
X56352812Y-8569071D02*
X56067098Y-8569071D01*
X56067098Y-8569071D02*
X55924241Y-8640500D01*
X55924241Y-8640500D02*
X55781383Y-8783357D01*
X55781383Y-8783357D02*
X55709955Y-9069071D01*
X55709955Y-9069071D02*
X55709955Y-9569071D01*
X55709955Y-9569071D02*
X55781383Y-9854785D01*
X55781383Y-9854785D02*
X55924241Y-9997642D01*
X55924241Y-9997642D02*
X56067098Y-10069071D01*
X57138527Y-10069071D02*
X57995670Y-10069071D01*
X57567098Y-8569071D02*
X57567098Y-10069071D01*
X59638526Y-9140500D02*
X60781384Y-9140500D01*
X60209955Y-8569071D02*
X60209955Y-9711928D01*
X40995670Y-12497642D02*
X41709956Y-12497642D01*
X40852813Y-12069071D02*
X41352813Y-13569071D01*
X41352813Y-13569071D02*
X41852813Y-12069071D01*
X42352812Y-12069071D02*
X42352812Y-13569071D01*
X43209955Y-12069071D02*
X42567098Y-12926214D01*
X43209955Y-13569071D02*
X42352812Y-12711928D01*
X43852812Y-12069071D02*
X43852812Y-13569071D01*
X44709955Y-12069071D02*
X44067098Y-12926214D01*
X44709955Y-13569071D02*
X43852812Y-12711928D01*
X45352812Y-13569071D02*
X45352812Y-12354785D01*
X45352812Y-12354785D02*
X45424241Y-12211928D01*
X45424241Y-12211928D02*
X45495670Y-12140500D01*
X45495670Y-12140500D02*
X45638527Y-12069071D01*
X45638527Y-12069071D02*
X45924241Y-12069071D01*
X45924241Y-12069071D02*
X46067098Y-12140500D01*
X46067098Y-12140500D02*
X46138527Y-12211928D01*
X46138527Y-12211928D02*
X46209955Y-12354785D01*
X46209955Y-12354785D02*
X46209955Y-13569071D01*
X47995670Y-12140500D02*
X48209956Y-12069071D01*
X48209956Y-12069071D02*
X48567098Y-12069071D01*
X48567098Y-12069071D02*
X48709956Y-12140500D01*
X48709956Y-12140500D02*
X48781384Y-12211928D01*
X48781384Y-12211928D02*
X48852813Y-12354785D01*
X48852813Y-12354785D02*
X48852813Y-12497642D01*
X48852813Y-12497642D02*
X48781384Y-12640500D01*
X48781384Y-12640500D02*
X48709956Y-12711928D01*
X48709956Y-12711928D02*
X48567098Y-12783357D01*
X48567098Y-12783357D02*
X48281384Y-12854785D01*
X48281384Y-12854785D02*
X48138527Y-12926214D01*
X48138527Y-12926214D02*
X48067098Y-12997642D01*
X48067098Y-12997642D02*
X47995670Y-13140500D01*
X47995670Y-13140500D02*
X47995670Y-13283357D01*
X47995670Y-13283357D02*
X48067098Y-13426214D01*
X48067098Y-13426214D02*
X48138527Y-13497642D01*
X48138527Y-13497642D02*
X48281384Y-13569071D01*
X48281384Y-13569071D02*
X48638527Y-13569071D01*
X48638527Y-13569071D02*
X48852813Y-13497642D01*
X50352812Y-12211928D02*
X50281384Y-12140500D01*
X50281384Y-12140500D02*
X50067098Y-12069071D01*
X50067098Y-12069071D02*
X49924241Y-12069071D01*
X49924241Y-12069071D02*
X49709955Y-12140500D01*
X49709955Y-12140500D02*
X49567098Y-12283357D01*
X49567098Y-12283357D02*
X49495669Y-12426214D01*
X49495669Y-12426214D02*
X49424241Y-12711928D01*
X49424241Y-12711928D02*
X49424241Y-12926214D01*
X49424241Y-12926214D02*
X49495669Y-13211928D01*
X49495669Y-13211928D02*
X49567098Y-13354785D01*
X49567098Y-13354785D02*
X49709955Y-13497642D01*
X49709955Y-13497642D02*
X49924241Y-13569071D01*
X49924241Y-13569071D02*
X50067098Y-13569071D01*
X50067098Y-13569071D02*
X50281384Y-13497642D01*
X50281384Y-13497642D02*
X50352812Y-13426214D01*
X50995669Y-12069071D02*
X50995669Y-13569071D01*
X50995669Y-12854785D02*
X51852812Y-12854785D01*
X51852812Y-12069071D02*
X51852812Y-13569071D01*
X52424241Y-13569071D02*
X52781384Y-12069071D01*
X52781384Y-12069071D02*
X53067098Y-13140500D01*
X53067098Y-13140500D02*
X53352813Y-12069071D01*
X53352813Y-12069071D02*
X53709956Y-13569071D01*
X54209956Y-12497642D02*
X54924242Y-12497642D01*
X54067099Y-12069071D02*
X54567099Y-13569071D01*
X54567099Y-13569071D02*
X55067099Y-12069071D01*
X56424241Y-12069071D02*
X55924241Y-12783357D01*
X55567098Y-12069071D02*
X55567098Y-13569071D01*
X55567098Y-13569071D02*
X56138527Y-13569071D01*
X56138527Y-13569071D02*
X56281384Y-13497642D01*
X56281384Y-13497642D02*
X56352813Y-13426214D01*
X56352813Y-13426214D02*
X56424241Y-13283357D01*
X56424241Y-13283357D02*
X56424241Y-13069071D01*
X56424241Y-13069071D02*
X56352813Y-12926214D01*
X56352813Y-12926214D02*
X56281384Y-12854785D01*
X56281384Y-12854785D02*
X56138527Y-12783357D01*
X56138527Y-12783357D02*
X55567098Y-12783357D01*
X56924241Y-13569071D02*
X57924241Y-13569071D01*
X57924241Y-13569071D02*
X56924241Y-12069071D01*
X56924241Y-12069071D02*
X57924241Y-12069071D01*
X59638526Y-12640500D02*
X60781384Y-12640500D01*
D11*
X10316101Y-80182500D02*
X9982768Y-80658691D01*
X9744673Y-80182500D02*
X9744673Y-81182500D01*
X9744673Y-81182500D02*
X10125625Y-81182500D01*
X10125625Y-81182500D02*
X10220863Y-81134881D01*
X10220863Y-81134881D02*
X10268482Y-81087262D01*
X10268482Y-81087262D02*
X10316101Y-80992024D01*
X10316101Y-80992024D02*
X10316101Y-80849167D01*
X10316101Y-80849167D02*
X10268482Y-80753929D01*
X10268482Y-80753929D02*
X10220863Y-80706310D01*
X10220863Y-80706310D02*
X10125625Y-80658691D01*
X10125625Y-80658691D02*
X9744673Y-80658691D01*
X11125625Y-80230120D02*
X11030387Y-80182500D01*
X11030387Y-80182500D02*
X10839911Y-80182500D01*
X10839911Y-80182500D02*
X10744673Y-80230120D01*
X10744673Y-80230120D02*
X10697054Y-80325358D01*
X10697054Y-80325358D02*
X10697054Y-80706310D01*
X10697054Y-80706310D02*
X10744673Y-80801548D01*
X10744673Y-80801548D02*
X10839911Y-80849167D01*
X10839911Y-80849167D02*
X11030387Y-80849167D01*
X11030387Y-80849167D02*
X11125625Y-80801548D01*
X11125625Y-80801548D02*
X11173244Y-80706310D01*
X11173244Y-80706310D02*
X11173244Y-80611072D01*
X11173244Y-80611072D02*
X10697054Y-80515834D01*
X11506578Y-80849167D02*
X11744673Y-80182500D01*
X11744673Y-80182500D02*
X11982768Y-80849167D01*
X12363721Y-80277739D02*
X12411340Y-80230120D01*
X12411340Y-80230120D02*
X12363721Y-80182500D01*
X12363721Y-80182500D02*
X12316102Y-80230120D01*
X12316102Y-80230120D02*
X12363721Y-80277739D01*
X12363721Y-80277739D02*
X12363721Y-80182500D01*
X12839911Y-80706310D02*
X13173244Y-80706310D01*
X13316101Y-80182500D02*
X12839911Y-80182500D01*
X12839911Y-80182500D02*
X12839911Y-81182500D01*
X12839911Y-81182500D02*
X13316101Y-81182500D01*
X15458959Y-81182500D02*
X15554197Y-81182500D01*
X15554197Y-81182500D02*
X15649435Y-81134881D01*
X15649435Y-81134881D02*
X15697054Y-81087262D01*
X15697054Y-81087262D02*
X15744673Y-80992024D01*
X15744673Y-80992024D02*
X15792292Y-80801548D01*
X15792292Y-80801548D02*
X15792292Y-80563453D01*
X15792292Y-80563453D02*
X15744673Y-80372977D01*
X15744673Y-80372977D02*
X15697054Y-80277739D01*
X15697054Y-80277739D02*
X15649435Y-80230120D01*
X15649435Y-80230120D02*
X15554197Y-80182500D01*
X15554197Y-80182500D02*
X15458959Y-80182500D01*
X15458959Y-80182500D02*
X15363721Y-80230120D01*
X15363721Y-80230120D02*
X15316102Y-80277739D01*
X15316102Y-80277739D02*
X15268483Y-80372977D01*
X15268483Y-80372977D02*
X15220864Y-80563453D01*
X15220864Y-80563453D02*
X15220864Y-80801548D01*
X15220864Y-80801548D02*
X15268483Y-80992024D01*
X15268483Y-80992024D02*
X15316102Y-81087262D01*
X15316102Y-81087262D02*
X15363721Y-81134881D01*
X15363721Y-81134881D02*
X15458959Y-81182500D01*
X16125626Y-81182500D02*
X16744673Y-81182500D01*
X16744673Y-81182500D02*
X16411340Y-80801548D01*
X16411340Y-80801548D02*
X16554197Y-80801548D01*
X16554197Y-80801548D02*
X16649435Y-80753929D01*
X16649435Y-80753929D02*
X16697054Y-80706310D01*
X16697054Y-80706310D02*
X16744673Y-80611072D01*
X16744673Y-80611072D02*
X16744673Y-80372977D01*
X16744673Y-80372977D02*
X16697054Y-80277739D01*
X16697054Y-80277739D02*
X16649435Y-80230120D01*
X16649435Y-80230120D02*
X16554197Y-80182500D01*
X16554197Y-80182500D02*
X16268483Y-80182500D01*
X16268483Y-80182500D02*
X16173245Y-80230120D01*
X16173245Y-80230120D02*
X16125626Y-80277739D01*
X17887530Y-81230120D02*
X17030388Y-79944405D01*
X18173245Y-81087262D02*
X18220864Y-81134881D01*
X18220864Y-81134881D02*
X18316102Y-81182500D01*
X18316102Y-81182500D02*
X18554197Y-81182500D01*
X18554197Y-81182500D02*
X18649435Y-81134881D01*
X18649435Y-81134881D02*
X18697054Y-81087262D01*
X18697054Y-81087262D02*
X18744673Y-80992024D01*
X18744673Y-80992024D02*
X18744673Y-80896786D01*
X18744673Y-80896786D02*
X18697054Y-80753929D01*
X18697054Y-80753929D02*
X18125626Y-80182500D01*
X18125626Y-80182500D02*
X18744673Y-80182500D01*
X19363721Y-81182500D02*
X19458959Y-81182500D01*
X19458959Y-81182500D02*
X19554197Y-81134881D01*
X19554197Y-81134881D02*
X19601816Y-81087262D01*
X19601816Y-81087262D02*
X19649435Y-80992024D01*
X19649435Y-80992024D02*
X19697054Y-80801548D01*
X19697054Y-80801548D02*
X19697054Y-80563453D01*
X19697054Y-80563453D02*
X19649435Y-80372977D01*
X19649435Y-80372977D02*
X19601816Y-80277739D01*
X19601816Y-80277739D02*
X19554197Y-80230120D01*
X19554197Y-80230120D02*
X19458959Y-80182500D01*
X19458959Y-80182500D02*
X19363721Y-80182500D01*
X19363721Y-80182500D02*
X19268483Y-80230120D01*
X19268483Y-80230120D02*
X19220864Y-80277739D01*
X19220864Y-80277739D02*
X19173245Y-80372977D01*
X19173245Y-80372977D02*
X19125626Y-80563453D01*
X19125626Y-80563453D02*
X19125626Y-80801548D01*
X19125626Y-80801548D02*
X19173245Y-80992024D01*
X19173245Y-80992024D02*
X19220864Y-81087262D01*
X19220864Y-81087262D02*
X19268483Y-81134881D01*
X19268483Y-81134881D02*
X19363721Y-81182500D01*
X20078007Y-81087262D02*
X20125626Y-81134881D01*
X20125626Y-81134881D02*
X20220864Y-81182500D01*
X20220864Y-81182500D02*
X20458959Y-81182500D01*
X20458959Y-81182500D02*
X20554197Y-81134881D01*
X20554197Y-81134881D02*
X20601816Y-81087262D01*
X20601816Y-81087262D02*
X20649435Y-80992024D01*
X20649435Y-80992024D02*
X20649435Y-80896786D01*
X20649435Y-80896786D02*
X20601816Y-80753929D01*
X20601816Y-80753929D02*
X20030388Y-80182500D01*
X20030388Y-80182500D02*
X20649435Y-80182500D01*
X21554197Y-81182500D02*
X21078007Y-81182500D01*
X21078007Y-81182500D02*
X21030388Y-80706310D01*
X21030388Y-80706310D02*
X21078007Y-80753929D01*
X21078007Y-80753929D02*
X21173245Y-80801548D01*
X21173245Y-80801548D02*
X21411340Y-80801548D01*
X21411340Y-80801548D02*
X21506578Y-80753929D01*
X21506578Y-80753929D02*
X21554197Y-80706310D01*
X21554197Y-80706310D02*
X21601816Y-80611072D01*
X21601816Y-80611072D02*
X21601816Y-80372977D01*
X21601816Y-80372977D02*
X21554197Y-80277739D01*
X21554197Y-80277739D02*
X21506578Y-80230120D01*
X21506578Y-80230120D02*
X21411340Y-80182500D01*
X21411340Y-80182500D02*
X21173245Y-80182500D01*
X21173245Y-80182500D02*
X21078007Y-80230120D01*
X21078007Y-80230120D02*
X21030388Y-80277739D01*
X10316101Y-78667795D02*
X10268482Y-78620176D01*
X10268482Y-78620176D02*
X10125625Y-78572556D01*
X10125625Y-78572556D02*
X10030387Y-78572556D01*
X10030387Y-78572556D02*
X9887530Y-78620176D01*
X9887530Y-78620176D02*
X9792292Y-78715414D01*
X9792292Y-78715414D02*
X9744673Y-78810652D01*
X9744673Y-78810652D02*
X9697054Y-79001128D01*
X9697054Y-79001128D02*
X9697054Y-79143985D01*
X9697054Y-79143985D02*
X9744673Y-79334461D01*
X9744673Y-79334461D02*
X9792292Y-79429699D01*
X9792292Y-79429699D02*
X9887530Y-79524937D01*
X9887530Y-79524937D02*
X10030387Y-79572556D01*
X10030387Y-79572556D02*
X10125625Y-79572556D01*
X10125625Y-79572556D02*
X10268482Y-79524937D01*
X10268482Y-79524937D02*
X10316101Y-79477318D01*
X10744673Y-79096366D02*
X11078006Y-79096366D01*
X11220863Y-78572556D02*
X10744673Y-78572556D01*
X10744673Y-78572556D02*
X10744673Y-79572556D01*
X10744673Y-79572556D02*
X11220863Y-79572556D01*
X12220863Y-78572556D02*
X11887530Y-79048747D01*
X11649435Y-78572556D02*
X11649435Y-79572556D01*
X11649435Y-79572556D02*
X12030387Y-79572556D01*
X12030387Y-79572556D02*
X12125625Y-79524937D01*
X12125625Y-79524937D02*
X12173244Y-79477318D01*
X12173244Y-79477318D02*
X12220863Y-79382080D01*
X12220863Y-79382080D02*
X12220863Y-79239223D01*
X12220863Y-79239223D02*
X12173244Y-79143985D01*
X12173244Y-79143985D02*
X12125625Y-79096366D01*
X12125625Y-79096366D02*
X12030387Y-79048747D01*
X12030387Y-79048747D02*
X11649435Y-79048747D01*
X12649435Y-78572556D02*
X12649435Y-79572556D01*
X12649435Y-79572556D02*
X13220863Y-78572556D01*
X13220863Y-78572556D02*
X13220863Y-79572556D01*
X14649435Y-79572556D02*
X14839911Y-79572556D01*
X14839911Y-79572556D02*
X14935149Y-79524937D01*
X14935149Y-79524937D02*
X15030387Y-79429699D01*
X15030387Y-79429699D02*
X15078006Y-79239223D01*
X15078006Y-79239223D02*
X15078006Y-78905890D01*
X15078006Y-78905890D02*
X15030387Y-78715414D01*
X15030387Y-78715414D02*
X14935149Y-78620176D01*
X14935149Y-78620176D02*
X14839911Y-78572556D01*
X14839911Y-78572556D02*
X14649435Y-78572556D01*
X14649435Y-78572556D02*
X14554197Y-78620176D01*
X14554197Y-78620176D02*
X14458959Y-78715414D01*
X14458959Y-78715414D02*
X14411340Y-78905890D01*
X14411340Y-78905890D02*
X14411340Y-79239223D01*
X14411340Y-79239223D02*
X14458959Y-79429699D01*
X14458959Y-79429699D02*
X14554197Y-79524937D01*
X14554197Y-79524937D02*
X14649435Y-79572556D01*
X15506578Y-78572556D02*
X15506578Y-79572556D01*
X15506578Y-79096366D02*
X16078006Y-79096366D01*
X16078006Y-78572556D02*
X16078006Y-79572556D01*
X17030387Y-78572556D02*
X16554197Y-78572556D01*
X16554197Y-78572556D02*
X16554197Y-79572556D01*
X18125626Y-78572556D02*
X18125626Y-79572556D01*
X18125626Y-79572556D02*
X18506578Y-79572556D01*
X18506578Y-79572556D02*
X18601816Y-79524937D01*
X18601816Y-79524937D02*
X18649435Y-79477318D01*
X18649435Y-79477318D02*
X18697054Y-79382080D01*
X18697054Y-79382080D02*
X18697054Y-79239223D01*
X18697054Y-79239223D02*
X18649435Y-79143985D01*
X18649435Y-79143985D02*
X18601816Y-79096366D01*
X18601816Y-79096366D02*
X18506578Y-79048747D01*
X18506578Y-79048747D02*
X18125626Y-79048747D01*
X19839912Y-79477318D02*
X19887531Y-79524937D01*
X19887531Y-79524937D02*
X19982769Y-79572556D01*
X19982769Y-79572556D02*
X20220864Y-79572556D01*
X20220864Y-79572556D02*
X20316102Y-79524937D01*
X20316102Y-79524937D02*
X20363721Y-79477318D01*
X20363721Y-79477318D02*
X20411340Y-79382080D01*
X20411340Y-79382080D02*
X20411340Y-79286842D01*
X20411340Y-79286842D02*
X20363721Y-79143985D01*
X20363721Y-79143985D02*
X19792293Y-78572556D01*
X19792293Y-78572556D02*
X20411340Y-78572556D01*
X20839912Y-78667795D02*
X20887531Y-78620176D01*
X20887531Y-78620176D02*
X20839912Y-78572556D01*
X20839912Y-78572556D02*
X20792293Y-78620176D01*
X20792293Y-78620176D02*
X20839912Y-78667795D01*
X20839912Y-78667795D02*
X20839912Y-78572556D01*
X21506578Y-79572556D02*
X21601816Y-79572556D01*
X21601816Y-79572556D02*
X21697054Y-79524937D01*
X21697054Y-79524937D02*
X21744673Y-79477318D01*
X21744673Y-79477318D02*
X21792292Y-79382080D01*
X21792292Y-79382080D02*
X21839911Y-79191604D01*
X21839911Y-79191604D02*
X21839911Y-78953509D01*
X21839911Y-78953509D02*
X21792292Y-78763033D01*
X21792292Y-78763033D02*
X21744673Y-78667795D01*
X21744673Y-78667795D02*
X21697054Y-78620176D01*
X21697054Y-78620176D02*
X21601816Y-78572556D01*
X21601816Y-78572556D02*
X21506578Y-78572556D01*
X21506578Y-78572556D02*
X21411340Y-78620176D01*
X21411340Y-78620176D02*
X21363721Y-78667795D01*
X21363721Y-78667795D02*
X21316102Y-78763033D01*
X21316102Y-78763033D02*
X21268483Y-78953509D01*
X21268483Y-78953509D02*
X21268483Y-79191604D01*
X21268483Y-79191604D02*
X21316102Y-79382080D01*
X21316102Y-79382080D02*
X21363721Y-79477318D01*
X21363721Y-79477318D02*
X21411340Y-79524937D01*
X21411340Y-79524937D02*
X21506578Y-79572556D01*
X9744673Y-76962612D02*
X9744673Y-77962612D01*
X10173244Y-76962612D02*
X10173244Y-77486422D01*
X10173244Y-77486422D02*
X10125625Y-77581660D01*
X10125625Y-77581660D02*
X10030387Y-77629279D01*
X10030387Y-77629279D02*
X9887530Y-77629279D01*
X9887530Y-77629279D02*
X9792292Y-77581660D01*
X9792292Y-77581660D02*
X9744673Y-77534041D01*
X10506578Y-77629279D02*
X10887530Y-77629279D01*
X10649435Y-77962612D02*
X10649435Y-77105470D01*
X10649435Y-77105470D02*
X10697054Y-77010232D01*
X10697054Y-77010232D02*
X10792292Y-76962612D01*
X10792292Y-76962612D02*
X10887530Y-76962612D01*
X11078007Y-77629279D02*
X11458959Y-77629279D01*
X11220864Y-77962612D02*
X11220864Y-77105470D01*
X11220864Y-77105470D02*
X11268483Y-77010232D01*
X11268483Y-77010232D02*
X11363721Y-76962612D01*
X11363721Y-76962612D02*
X11458959Y-76962612D01*
X11792293Y-77629279D02*
X11792293Y-76629279D01*
X11792293Y-77581660D02*
X11887531Y-77629279D01*
X11887531Y-77629279D02*
X12078007Y-77629279D01*
X12078007Y-77629279D02*
X12173245Y-77581660D01*
X12173245Y-77581660D02*
X12220864Y-77534041D01*
X12220864Y-77534041D02*
X12268483Y-77438803D01*
X12268483Y-77438803D02*
X12268483Y-77153089D01*
X12268483Y-77153089D02*
X12220864Y-77057851D01*
X12220864Y-77057851D02*
X12173245Y-77010232D01*
X12173245Y-77010232D02*
X12078007Y-76962612D01*
X12078007Y-76962612D02*
X11887531Y-76962612D01*
X11887531Y-76962612D02*
X11792293Y-77010232D01*
X12649436Y-77010232D02*
X12744674Y-76962612D01*
X12744674Y-76962612D02*
X12935150Y-76962612D01*
X12935150Y-76962612D02*
X13030388Y-77010232D01*
X13030388Y-77010232D02*
X13078007Y-77105470D01*
X13078007Y-77105470D02*
X13078007Y-77153089D01*
X13078007Y-77153089D02*
X13030388Y-77248327D01*
X13030388Y-77248327D02*
X12935150Y-77295946D01*
X12935150Y-77295946D02*
X12792293Y-77295946D01*
X12792293Y-77295946D02*
X12697055Y-77343565D01*
X12697055Y-77343565D02*
X12649436Y-77438803D01*
X12649436Y-77438803D02*
X12649436Y-77486422D01*
X12649436Y-77486422D02*
X12697055Y-77581660D01*
X12697055Y-77581660D02*
X12792293Y-77629279D01*
X12792293Y-77629279D02*
X12935150Y-77629279D01*
X12935150Y-77629279D02*
X13030388Y-77581660D01*
X13506579Y-77057851D02*
X13554198Y-77010232D01*
X13554198Y-77010232D02*
X13506579Y-76962612D01*
X13506579Y-76962612D02*
X13458960Y-77010232D01*
X13458960Y-77010232D02*
X13506579Y-77057851D01*
X13506579Y-77057851D02*
X13506579Y-76962612D01*
X13506579Y-77581660D02*
X13554198Y-77534041D01*
X13554198Y-77534041D02*
X13506579Y-77486422D01*
X13506579Y-77486422D02*
X13458960Y-77534041D01*
X13458960Y-77534041D02*
X13506579Y-77581660D01*
X13506579Y-77581660D02*
X13506579Y-77486422D01*
X14697054Y-78010232D02*
X13839912Y-76724517D01*
X15744673Y-78010232D02*
X14887531Y-76724517D01*
X11697054Y-76019335D02*
X11697054Y-75209811D01*
X11697054Y-75209811D02*
X11649435Y-75114573D01*
X11649435Y-75114573D02*
X11601816Y-75066954D01*
X11601816Y-75066954D02*
X11506578Y-75019335D01*
X11506578Y-75019335D02*
X11363721Y-75019335D01*
X11363721Y-75019335D02*
X11268483Y-75066954D01*
X11697054Y-75400288D02*
X11601816Y-75352668D01*
X11601816Y-75352668D02*
X11411340Y-75352668D01*
X11411340Y-75352668D02*
X11316102Y-75400288D01*
X11316102Y-75400288D02*
X11268483Y-75447907D01*
X11268483Y-75447907D02*
X11220864Y-75543145D01*
X11220864Y-75543145D02*
X11220864Y-75828859D01*
X11220864Y-75828859D02*
X11268483Y-75924097D01*
X11268483Y-75924097D02*
X11316102Y-75971716D01*
X11316102Y-75971716D02*
X11411340Y-76019335D01*
X11411340Y-76019335D02*
X11601816Y-76019335D01*
X11601816Y-76019335D02*
X11697054Y-75971716D01*
X12173245Y-75352668D02*
X12173245Y-76019335D01*
X12173245Y-76352668D02*
X12125626Y-76305049D01*
X12125626Y-76305049D02*
X12173245Y-76257430D01*
X12173245Y-76257430D02*
X12220864Y-76305049D01*
X12220864Y-76305049D02*
X12173245Y-76352668D01*
X12173245Y-76352668D02*
X12173245Y-76257430D01*
X12506578Y-76019335D02*
X12887530Y-76019335D01*
X12649435Y-76352668D02*
X12649435Y-75495526D01*
X12649435Y-75495526D02*
X12697054Y-75400288D01*
X12697054Y-75400288D02*
X12792292Y-75352668D01*
X12792292Y-75352668D02*
X12887530Y-75352668D01*
X13220864Y-75352668D02*
X13220864Y-76352668D01*
X13649435Y-75352668D02*
X13649435Y-75876478D01*
X13649435Y-75876478D02*
X13601816Y-75971716D01*
X13601816Y-75971716D02*
X13506578Y-76019335D01*
X13506578Y-76019335D02*
X13363721Y-76019335D01*
X13363721Y-76019335D02*
X13268483Y-75971716D01*
X13268483Y-75971716D02*
X13220864Y-75924097D01*
X14554197Y-76019335D02*
X14554197Y-75352668D01*
X14125626Y-76019335D02*
X14125626Y-75495526D01*
X14125626Y-75495526D02*
X14173245Y-75400288D01*
X14173245Y-75400288D02*
X14268483Y-75352668D01*
X14268483Y-75352668D02*
X14411340Y-75352668D01*
X14411340Y-75352668D02*
X14506578Y-75400288D01*
X14506578Y-75400288D02*
X14554197Y-75447907D01*
X15030388Y-75352668D02*
X15030388Y-76352668D01*
X15030388Y-75971716D02*
X15125626Y-76019335D01*
X15125626Y-76019335D02*
X15316102Y-76019335D01*
X15316102Y-76019335D02*
X15411340Y-75971716D01*
X15411340Y-75971716D02*
X15458959Y-75924097D01*
X15458959Y-75924097D02*
X15506578Y-75828859D01*
X15506578Y-75828859D02*
X15506578Y-75543145D01*
X15506578Y-75543145D02*
X15458959Y-75447907D01*
X15458959Y-75447907D02*
X15411340Y-75400288D01*
X15411340Y-75400288D02*
X15316102Y-75352668D01*
X15316102Y-75352668D02*
X15125626Y-75352668D01*
X15125626Y-75352668D02*
X15030388Y-75400288D01*
X15935150Y-75447907D02*
X15982769Y-75400288D01*
X15982769Y-75400288D02*
X15935150Y-75352668D01*
X15935150Y-75352668D02*
X15887531Y-75400288D01*
X15887531Y-75400288D02*
X15935150Y-75447907D01*
X15935150Y-75447907D02*
X15935150Y-75352668D01*
X16839911Y-75400288D02*
X16744673Y-75352668D01*
X16744673Y-75352668D02*
X16554197Y-75352668D01*
X16554197Y-75352668D02*
X16458959Y-75400288D01*
X16458959Y-75400288D02*
X16411340Y-75447907D01*
X16411340Y-75447907D02*
X16363721Y-75543145D01*
X16363721Y-75543145D02*
X16363721Y-75828859D01*
X16363721Y-75828859D02*
X16411340Y-75924097D01*
X16411340Y-75924097D02*
X16458959Y-75971716D01*
X16458959Y-75971716D02*
X16554197Y-76019335D01*
X16554197Y-76019335D02*
X16744673Y-76019335D01*
X16744673Y-76019335D02*
X16839911Y-75971716D01*
X17411340Y-75352668D02*
X17316102Y-75400288D01*
X17316102Y-75400288D02*
X17268483Y-75447907D01*
X17268483Y-75447907D02*
X17220864Y-75543145D01*
X17220864Y-75543145D02*
X17220864Y-75828859D01*
X17220864Y-75828859D02*
X17268483Y-75924097D01*
X17268483Y-75924097D02*
X17316102Y-75971716D01*
X17316102Y-75971716D02*
X17411340Y-76019335D01*
X17411340Y-76019335D02*
X17554197Y-76019335D01*
X17554197Y-76019335D02*
X17649435Y-75971716D01*
X17649435Y-75971716D02*
X17697054Y-75924097D01*
X17697054Y-75924097D02*
X17744673Y-75828859D01*
X17744673Y-75828859D02*
X17744673Y-75543145D01*
X17744673Y-75543145D02*
X17697054Y-75447907D01*
X17697054Y-75447907D02*
X17649435Y-75400288D01*
X17649435Y-75400288D02*
X17554197Y-75352668D01*
X17554197Y-75352668D02*
X17411340Y-75352668D01*
X18173245Y-75352668D02*
X18173245Y-76019335D01*
X18173245Y-75924097D02*
X18220864Y-75971716D01*
X18220864Y-75971716D02*
X18316102Y-76019335D01*
X18316102Y-76019335D02*
X18458959Y-76019335D01*
X18458959Y-76019335D02*
X18554197Y-75971716D01*
X18554197Y-75971716D02*
X18601816Y-75876478D01*
X18601816Y-75876478D02*
X18601816Y-75352668D01*
X18601816Y-75876478D02*
X18649435Y-75971716D01*
X18649435Y-75971716D02*
X18744673Y-76019335D01*
X18744673Y-76019335D02*
X18887530Y-76019335D01*
X18887530Y-76019335D02*
X18982769Y-75971716D01*
X18982769Y-75971716D02*
X19030388Y-75876478D01*
X19030388Y-75876478D02*
X19030388Y-75352668D01*
X20220863Y-76400288D02*
X19363721Y-75114573D01*
X12744674Y-73790344D02*
X12839912Y-73742724D01*
X12839912Y-73742724D02*
X13030388Y-73742724D01*
X13030388Y-73742724D02*
X13125626Y-73790344D01*
X13125626Y-73790344D02*
X13173245Y-73885582D01*
X13173245Y-73885582D02*
X13173245Y-73933201D01*
X13173245Y-73933201D02*
X13125626Y-74028439D01*
X13125626Y-74028439D02*
X13030388Y-74076058D01*
X13030388Y-74076058D02*
X12887531Y-74076058D01*
X12887531Y-74076058D02*
X12792293Y-74123677D01*
X12792293Y-74123677D02*
X12744674Y-74218915D01*
X12744674Y-74218915D02*
X12744674Y-74266534D01*
X12744674Y-74266534D02*
X12792293Y-74361772D01*
X12792293Y-74361772D02*
X12887531Y-74409391D01*
X12887531Y-74409391D02*
X13030388Y-74409391D01*
X13030388Y-74409391D02*
X13125626Y-74361772D01*
X13601817Y-73742724D02*
X13601817Y-74742724D01*
X13601817Y-74361772D02*
X13697055Y-74409391D01*
X13697055Y-74409391D02*
X13887531Y-74409391D01*
X13887531Y-74409391D02*
X13982769Y-74361772D01*
X13982769Y-74361772D02*
X14030388Y-74314153D01*
X14030388Y-74314153D02*
X14078007Y-74218915D01*
X14078007Y-74218915D02*
X14078007Y-73933201D01*
X14078007Y-73933201D02*
X14030388Y-73837963D01*
X14030388Y-73837963D02*
X13982769Y-73790344D01*
X13982769Y-73790344D02*
X13887531Y-73742724D01*
X13887531Y-73742724D02*
X13697055Y-73742724D01*
X13697055Y-73742724D02*
X13601817Y-73790344D01*
X14411341Y-74409391D02*
X14649436Y-73742724D01*
X14887531Y-74409391D02*
X14649436Y-73742724D01*
X14649436Y-73742724D02*
X14554198Y-73504629D01*
X14554198Y-73504629D02*
X14506579Y-73457010D01*
X14506579Y-73457010D02*
X14411341Y-73409391D01*
X15697055Y-73742724D02*
X15697055Y-74742724D01*
X15697055Y-73790344D02*
X15601817Y-73742724D01*
X15601817Y-73742724D02*
X15411341Y-73742724D01*
X15411341Y-73742724D02*
X15316103Y-73790344D01*
X15316103Y-73790344D02*
X15268484Y-73837963D01*
X15268484Y-73837963D02*
X15220865Y-73933201D01*
X15220865Y-73933201D02*
X15220865Y-74218915D01*
X15220865Y-74218915D02*
X15268484Y-74314153D01*
X15268484Y-74314153D02*
X15316103Y-74361772D01*
X15316103Y-74361772D02*
X15411341Y-74409391D01*
X15411341Y-74409391D02*
X15601817Y-74409391D01*
X15601817Y-74409391D02*
X15697055Y-74361772D01*
X16173246Y-74123677D02*
X16935151Y-74123677D01*
X17363722Y-73790344D02*
X17458960Y-73742724D01*
X17458960Y-73742724D02*
X17649436Y-73742724D01*
X17649436Y-73742724D02*
X17744674Y-73790344D01*
X17744674Y-73790344D02*
X17792293Y-73885582D01*
X17792293Y-73885582D02*
X17792293Y-73933201D01*
X17792293Y-73933201D02*
X17744674Y-74028439D01*
X17744674Y-74028439D02*
X17649436Y-74076058D01*
X17649436Y-74076058D02*
X17506579Y-74076058D01*
X17506579Y-74076058D02*
X17411341Y-74123677D01*
X17411341Y-74123677D02*
X17363722Y-74218915D01*
X17363722Y-74218915D02*
X17363722Y-74266534D01*
X17363722Y-74266534D02*
X17411341Y-74361772D01*
X17411341Y-74361772D02*
X17506579Y-74409391D01*
X17506579Y-74409391D02*
X17649436Y-74409391D01*
X17649436Y-74409391D02*
X17744674Y-74361772D01*
X18220865Y-74409391D02*
X18220865Y-73409391D01*
X18220865Y-74361772D02*
X18316103Y-74409391D01*
X18316103Y-74409391D02*
X18506579Y-74409391D01*
X18506579Y-74409391D02*
X18601817Y-74361772D01*
X18601817Y-74361772D02*
X18649436Y-74314153D01*
X18649436Y-74314153D02*
X18697055Y-74218915D01*
X18697055Y-74218915D02*
X18697055Y-73933201D01*
X18697055Y-73933201D02*
X18649436Y-73837963D01*
X18649436Y-73837963D02*
X18601817Y-73790344D01*
X18601817Y-73790344D02*
X18506579Y-73742724D01*
X18506579Y-73742724D02*
X18316103Y-73742724D01*
X18316103Y-73742724D02*
X18220865Y-73790344D01*
X19554198Y-73742724D02*
X19554198Y-74266534D01*
X19554198Y-74266534D02*
X19506579Y-74361772D01*
X19506579Y-74361772D02*
X19411341Y-74409391D01*
X19411341Y-74409391D02*
X19220865Y-74409391D01*
X19220865Y-74409391D02*
X19125627Y-74361772D01*
X19554198Y-73790344D02*
X19458960Y-73742724D01*
X19458960Y-73742724D02*
X19220865Y-73742724D01*
X19220865Y-73742724D02*
X19125627Y-73790344D01*
X19125627Y-73790344D02*
X19078008Y-73885582D01*
X19078008Y-73885582D02*
X19078008Y-73980820D01*
X19078008Y-73980820D02*
X19125627Y-74076058D01*
X19125627Y-74076058D02*
X19220865Y-74123677D01*
X19220865Y-74123677D02*
X19458960Y-74123677D01*
X19458960Y-74123677D02*
X19554198Y-74171296D01*
X20458960Y-73790344D02*
X20363722Y-73742724D01*
X20363722Y-73742724D02*
X20173246Y-73742724D01*
X20173246Y-73742724D02*
X20078008Y-73790344D01*
X20078008Y-73790344D02*
X20030389Y-73837963D01*
X20030389Y-73837963D02*
X19982770Y-73933201D01*
X19982770Y-73933201D02*
X19982770Y-74218915D01*
X19982770Y-74218915D02*
X20030389Y-74314153D01*
X20030389Y-74314153D02*
X20078008Y-74361772D01*
X20078008Y-74361772D02*
X20173246Y-74409391D01*
X20173246Y-74409391D02*
X20363722Y-74409391D01*
X20363722Y-74409391D02*
X20458960Y-74361772D01*
X21268484Y-73790344D02*
X21173246Y-73742724D01*
X21173246Y-73742724D02*
X20982770Y-73742724D01*
X20982770Y-73742724D02*
X20887532Y-73790344D01*
X20887532Y-73790344D02*
X20839913Y-73885582D01*
X20839913Y-73885582D02*
X20839913Y-74266534D01*
X20839913Y-74266534D02*
X20887532Y-74361772D01*
X20887532Y-74361772D02*
X20982770Y-74409391D01*
X20982770Y-74409391D02*
X21173246Y-74409391D01*
X21173246Y-74409391D02*
X21268484Y-74361772D01*
X21268484Y-74361772D02*
X21316103Y-74266534D01*
X21316103Y-74266534D02*
X21316103Y-74171296D01*
X21316103Y-74171296D02*
X20839913Y-74076058D01*
X22458960Y-74790344D02*
X21601818Y-73504629D01*
X14220865Y-72799447D02*
X14458960Y-72132780D01*
X14458960Y-72132780D02*
X14697055Y-72799447D01*
X15506579Y-72132780D02*
X15506579Y-72656590D01*
X15506579Y-72656590D02*
X15458960Y-72751828D01*
X15458960Y-72751828D02*
X15363722Y-72799447D01*
X15363722Y-72799447D02*
X15173246Y-72799447D01*
X15173246Y-72799447D02*
X15078008Y-72751828D01*
X15506579Y-72180400D02*
X15411341Y-72132780D01*
X15411341Y-72132780D02*
X15173246Y-72132780D01*
X15173246Y-72132780D02*
X15078008Y-72180400D01*
X15078008Y-72180400D02*
X15030389Y-72275638D01*
X15030389Y-72275638D02*
X15030389Y-72370876D01*
X15030389Y-72370876D02*
X15078008Y-72466114D01*
X15078008Y-72466114D02*
X15173246Y-72513733D01*
X15173246Y-72513733D02*
X15411341Y-72513733D01*
X15411341Y-72513733D02*
X15506579Y-72561352D01*
X15982770Y-72799447D02*
X15982770Y-71799447D01*
X15982770Y-72751828D02*
X16078008Y-72799447D01*
X16078008Y-72799447D02*
X16268484Y-72799447D01*
X16268484Y-72799447D02*
X16363722Y-72751828D01*
X16363722Y-72751828D02*
X16411341Y-72704209D01*
X16411341Y-72704209D02*
X16458960Y-72608971D01*
X16458960Y-72608971D02*
X16458960Y-72323257D01*
X16458960Y-72323257D02*
X16411341Y-72228019D01*
X16411341Y-72228019D02*
X16363722Y-72180400D01*
X16363722Y-72180400D02*
X16268484Y-72132780D01*
X16268484Y-72132780D02*
X16078008Y-72132780D01*
X16078008Y-72132780D02*
X15982770Y-72180400D01*
X17268484Y-72180400D02*
X17173246Y-72132780D01*
X17173246Y-72132780D02*
X16982770Y-72132780D01*
X16982770Y-72132780D02*
X16887532Y-72180400D01*
X16887532Y-72180400D02*
X16839913Y-72275638D01*
X16839913Y-72275638D02*
X16839913Y-72656590D01*
X16839913Y-72656590D02*
X16887532Y-72751828D01*
X16887532Y-72751828D02*
X16982770Y-72799447D01*
X16982770Y-72799447D02*
X17173246Y-72799447D01*
X17173246Y-72799447D02*
X17268484Y-72751828D01*
X17268484Y-72751828D02*
X17316103Y-72656590D01*
X17316103Y-72656590D02*
X17316103Y-72561352D01*
X17316103Y-72561352D02*
X16839913Y-72466114D01*
X17744675Y-72513733D02*
X18506580Y-72513733D01*
X19125627Y-72132780D02*
X19030389Y-72180400D01*
X19030389Y-72180400D02*
X18982770Y-72275638D01*
X18982770Y-72275638D02*
X18982770Y-73132780D01*
X19506580Y-72132780D02*
X19506580Y-72799447D01*
X19506580Y-73132780D02*
X19458961Y-73085161D01*
X19458961Y-73085161D02*
X19506580Y-73037542D01*
X19506580Y-73037542D02*
X19554199Y-73085161D01*
X19554199Y-73085161D02*
X19506580Y-73132780D01*
X19506580Y-73132780D02*
X19506580Y-73037542D01*
X20411341Y-72799447D02*
X20411341Y-71989923D01*
X20411341Y-71989923D02*
X20363722Y-71894685D01*
X20363722Y-71894685D02*
X20316103Y-71847066D01*
X20316103Y-71847066D02*
X20220865Y-71799447D01*
X20220865Y-71799447D02*
X20078008Y-71799447D01*
X20078008Y-71799447D02*
X19982770Y-71847066D01*
X20411341Y-72180400D02*
X20316103Y-72132780D01*
X20316103Y-72132780D02*
X20125627Y-72132780D01*
X20125627Y-72132780D02*
X20030389Y-72180400D01*
X20030389Y-72180400D02*
X19982770Y-72228019D01*
X19982770Y-72228019D02*
X19935151Y-72323257D01*
X19935151Y-72323257D02*
X19935151Y-72608971D01*
X19935151Y-72608971D02*
X19982770Y-72704209D01*
X19982770Y-72704209D02*
X20030389Y-72751828D01*
X20030389Y-72751828D02*
X20125627Y-72799447D01*
X20125627Y-72799447D02*
X20316103Y-72799447D01*
X20316103Y-72799447D02*
X20411341Y-72751828D01*
X20887532Y-72132780D02*
X20887532Y-73132780D01*
X21316103Y-72132780D02*
X21316103Y-72656590D01*
X21316103Y-72656590D02*
X21268484Y-72751828D01*
X21268484Y-72751828D02*
X21173246Y-72799447D01*
X21173246Y-72799447D02*
X21030389Y-72799447D01*
X21030389Y-72799447D02*
X20935151Y-72751828D01*
X20935151Y-72751828D02*
X20887532Y-72704209D01*
X21649437Y-72799447D02*
X22030389Y-72799447D01*
X21792294Y-73132780D02*
X21792294Y-72275638D01*
X21792294Y-72275638D02*
X21839913Y-72180400D01*
X21839913Y-72180400D02*
X21935151Y-72132780D01*
X21935151Y-72132780D02*
X22030389Y-72132780D01*
D10*
X40995670Y-56497642D02*
X41709956Y-56497642D01*
X40852813Y-56069071D02*
X41352813Y-57569071D01*
X41352813Y-57569071D02*
X41852813Y-56069071D01*
X42352812Y-56069071D02*
X42352812Y-57569071D01*
X43209955Y-56069071D02*
X42567098Y-56926214D01*
X43209955Y-57569071D02*
X42352812Y-56711928D01*
X43852812Y-56069071D02*
X43852812Y-57569071D01*
X44709955Y-56069071D02*
X44067098Y-56926214D01*
X44709955Y-57569071D02*
X43852812Y-56711928D01*
X45352812Y-57569071D02*
X45352812Y-56354785D01*
X45352812Y-56354785D02*
X45424241Y-56211928D01*
X45424241Y-56211928D02*
X45495670Y-56140500D01*
X45495670Y-56140500D02*
X45638527Y-56069071D01*
X45638527Y-56069071D02*
X45924241Y-56069071D01*
X45924241Y-56069071D02*
X46067098Y-56140500D01*
X46067098Y-56140500D02*
X46138527Y-56211928D01*
X46138527Y-56211928D02*
X46209955Y-56354785D01*
X46209955Y-56354785D02*
X46209955Y-57569071D01*
X47995670Y-56140500D02*
X48209956Y-56069071D01*
X48209956Y-56069071D02*
X48567098Y-56069071D01*
X48567098Y-56069071D02*
X48709956Y-56140500D01*
X48709956Y-56140500D02*
X48781384Y-56211928D01*
X48781384Y-56211928D02*
X48852813Y-56354785D01*
X48852813Y-56354785D02*
X48852813Y-56497642D01*
X48852813Y-56497642D02*
X48781384Y-56640500D01*
X48781384Y-56640500D02*
X48709956Y-56711928D01*
X48709956Y-56711928D02*
X48567098Y-56783357D01*
X48567098Y-56783357D02*
X48281384Y-56854785D01*
X48281384Y-56854785D02*
X48138527Y-56926214D01*
X48138527Y-56926214D02*
X48067098Y-56997642D01*
X48067098Y-56997642D02*
X47995670Y-57140500D01*
X47995670Y-57140500D02*
X47995670Y-57283357D01*
X47995670Y-57283357D02*
X48067098Y-57426214D01*
X48067098Y-57426214D02*
X48138527Y-57497642D01*
X48138527Y-57497642D02*
X48281384Y-57569071D01*
X48281384Y-57569071D02*
X48638527Y-57569071D01*
X48638527Y-57569071D02*
X48852813Y-57497642D01*
X50352812Y-56211928D02*
X50281384Y-56140500D01*
X50281384Y-56140500D02*
X50067098Y-56069071D01*
X50067098Y-56069071D02*
X49924241Y-56069071D01*
X49924241Y-56069071D02*
X49709955Y-56140500D01*
X49709955Y-56140500D02*
X49567098Y-56283357D01*
X49567098Y-56283357D02*
X49495669Y-56426214D01*
X49495669Y-56426214D02*
X49424241Y-56711928D01*
X49424241Y-56711928D02*
X49424241Y-56926214D01*
X49424241Y-56926214D02*
X49495669Y-57211928D01*
X49495669Y-57211928D02*
X49567098Y-57354785D01*
X49567098Y-57354785D02*
X49709955Y-57497642D01*
X49709955Y-57497642D02*
X49924241Y-57569071D01*
X49924241Y-57569071D02*
X50067098Y-57569071D01*
X50067098Y-57569071D02*
X50281384Y-57497642D01*
X50281384Y-57497642D02*
X50352812Y-57426214D01*
X50995669Y-56069071D02*
X50995669Y-57569071D01*
X50995669Y-56854785D02*
X51852812Y-56854785D01*
X51852812Y-56069071D02*
X51852812Y-57569071D01*
X52424241Y-57569071D02*
X52781384Y-56069071D01*
X52781384Y-56069071D02*
X53067098Y-57140500D01*
X53067098Y-57140500D02*
X53352813Y-56069071D01*
X53352813Y-56069071D02*
X53709956Y-57569071D01*
X54209956Y-56497642D02*
X54924242Y-56497642D01*
X54067099Y-56069071D02*
X54567099Y-57569071D01*
X54567099Y-57569071D02*
X55067099Y-56069071D01*
X56424241Y-56069071D02*
X55924241Y-56783357D01*
X55567098Y-56069071D02*
X55567098Y-57569071D01*
X55567098Y-57569071D02*
X56138527Y-57569071D01*
X56138527Y-57569071D02*
X56281384Y-57497642D01*
X56281384Y-57497642D02*
X56352813Y-57426214D01*
X56352813Y-57426214D02*
X56424241Y-57283357D01*
X56424241Y-57283357D02*
X56424241Y-57069071D01*
X56424241Y-57069071D02*
X56352813Y-56926214D01*
X56352813Y-56926214D02*
X56281384Y-56854785D01*
X56281384Y-56854785D02*
X56138527Y-56783357D01*
X56138527Y-56783357D02*
X55567098Y-56783357D01*
X56924241Y-57569071D02*
X57924241Y-57569071D01*
X57924241Y-57569071D02*
X56924241Y-56069071D01*
X56924241Y-56069071D02*
X57924241Y-56069071D01*
X59638526Y-56640500D02*
X60781384Y-56640500D01*
X43567098Y-19069071D02*
X42852812Y-19069071D01*
X42852812Y-19069071D02*
X42852812Y-20569071D01*
X44067098Y-19854785D02*
X44567098Y-19854785D01*
X44781384Y-19069071D02*
X44067098Y-19069071D01*
X44067098Y-19069071D02*
X44067098Y-20569071D01*
X44067098Y-20569071D02*
X44781384Y-20569071D01*
X45424241Y-19069071D02*
X45424241Y-20569071D01*
X45424241Y-20569071D02*
X45781384Y-20569071D01*
X45781384Y-20569071D02*
X45995670Y-20497642D01*
X45995670Y-20497642D02*
X46138527Y-20354785D01*
X46138527Y-20354785D02*
X46209956Y-20211928D01*
X46209956Y-20211928D02*
X46281384Y-19926214D01*
X46281384Y-19926214D02*
X46281384Y-19711928D01*
X46281384Y-19711928D02*
X46209956Y-19426214D01*
X46209956Y-19426214D02*
X46138527Y-19283357D01*
X46138527Y-19283357D02*
X45995670Y-19140500D01*
X45995670Y-19140500D02*
X45781384Y-19069071D01*
X45781384Y-19069071D02*
X45424241Y-19069071D01*
X47995670Y-19140500D02*
X48209956Y-19069071D01*
X48209956Y-19069071D02*
X48567098Y-19069071D01*
X48567098Y-19069071D02*
X48709956Y-19140500D01*
X48709956Y-19140500D02*
X48781384Y-19211928D01*
X48781384Y-19211928D02*
X48852813Y-19354785D01*
X48852813Y-19354785D02*
X48852813Y-19497642D01*
X48852813Y-19497642D02*
X48781384Y-19640500D01*
X48781384Y-19640500D02*
X48709956Y-19711928D01*
X48709956Y-19711928D02*
X48567098Y-19783357D01*
X48567098Y-19783357D02*
X48281384Y-19854785D01*
X48281384Y-19854785D02*
X48138527Y-19926214D01*
X48138527Y-19926214D02*
X48067098Y-19997642D01*
X48067098Y-19997642D02*
X47995670Y-20140500D01*
X47995670Y-20140500D02*
X47995670Y-20283357D01*
X47995670Y-20283357D02*
X48067098Y-20426214D01*
X48067098Y-20426214D02*
X48138527Y-20497642D01*
X48138527Y-20497642D02*
X48281384Y-20569071D01*
X48281384Y-20569071D02*
X48638527Y-20569071D01*
X48638527Y-20569071D02*
X48852813Y-20497642D01*
X50352812Y-19211928D02*
X50281384Y-19140500D01*
X50281384Y-19140500D02*
X50067098Y-19069071D01*
X50067098Y-19069071D02*
X49924241Y-19069071D01*
X49924241Y-19069071D02*
X49709955Y-19140500D01*
X49709955Y-19140500D02*
X49567098Y-19283357D01*
X49567098Y-19283357D02*
X49495669Y-19426214D01*
X49495669Y-19426214D02*
X49424241Y-19711928D01*
X49424241Y-19711928D02*
X49424241Y-19926214D01*
X49424241Y-19926214D02*
X49495669Y-20211928D01*
X49495669Y-20211928D02*
X49567098Y-20354785D01*
X49567098Y-20354785D02*
X49709955Y-20497642D01*
X49709955Y-20497642D02*
X49924241Y-20569071D01*
X49924241Y-20569071D02*
X50067098Y-20569071D01*
X50067098Y-20569071D02*
X50281384Y-20497642D01*
X50281384Y-20497642D02*
X50352812Y-20426214D01*
X50995669Y-19069071D02*
X50995669Y-20569071D01*
X50995669Y-19854785D02*
X51852812Y-19854785D01*
X51852812Y-19069071D02*
X51852812Y-20569071D01*
X52424241Y-20569071D02*
X52781384Y-19069071D01*
X52781384Y-19069071D02*
X53067098Y-20140500D01*
X53067098Y-20140500D02*
X53352813Y-19069071D01*
X53352813Y-19069071D02*
X53709956Y-20569071D01*
X54209956Y-19497642D02*
X54924242Y-19497642D01*
X54067099Y-19069071D02*
X54567099Y-20569071D01*
X54567099Y-20569071D02*
X55067099Y-19069071D01*
X56424241Y-19069071D02*
X55924241Y-19783357D01*
X55567098Y-19069071D02*
X55567098Y-20569071D01*
X55567098Y-20569071D02*
X56138527Y-20569071D01*
X56138527Y-20569071D02*
X56281384Y-20497642D01*
X56281384Y-20497642D02*
X56352813Y-20426214D01*
X56352813Y-20426214D02*
X56424241Y-20283357D01*
X56424241Y-20283357D02*
X56424241Y-20069071D01*
X56424241Y-20069071D02*
X56352813Y-19926214D01*
X56352813Y-19926214D02*
X56281384Y-19854785D01*
X56281384Y-19854785D02*
X56138527Y-19783357D01*
X56138527Y-19783357D02*
X55567098Y-19783357D01*
X56924241Y-20569071D02*
X57924241Y-20569071D01*
X57924241Y-20569071D02*
X56924241Y-19069071D01*
X56924241Y-19069071D02*
X57924241Y-19069071D01*
X59638526Y-19640500D02*
X60781384Y-19640500D01*
X49781383Y-77569071D02*
X49067097Y-77569071D01*
X49067097Y-77569071D02*
X49067097Y-79069071D01*
X50281383Y-78354785D02*
X50781383Y-78354785D01*
X50995669Y-77569071D02*
X50281383Y-77569071D01*
X50281383Y-77569071D02*
X50281383Y-79069071D01*
X50281383Y-79069071D02*
X50995669Y-79069071D01*
X51638526Y-77569071D02*
X51638526Y-79069071D01*
X51638526Y-79069071D02*
X51995669Y-79069071D01*
X51995669Y-79069071D02*
X52209955Y-78997642D01*
X52209955Y-78997642D02*
X52352812Y-78854785D01*
X52352812Y-78854785D02*
X52424241Y-78711928D01*
X52424241Y-78711928D02*
X52495669Y-78426214D01*
X52495669Y-78426214D02*
X52495669Y-78211928D01*
X52495669Y-78211928D02*
X52424241Y-77926214D01*
X52424241Y-77926214D02*
X52352812Y-77783357D01*
X52352812Y-77783357D02*
X52209955Y-77640500D01*
X52209955Y-77640500D02*
X51995669Y-77569071D01*
X51995669Y-77569071D02*
X51638526Y-77569071D01*
X55138526Y-77569071D02*
X54638526Y-78283357D01*
X54281383Y-77569071D02*
X54281383Y-79069071D01*
X54281383Y-79069071D02*
X54852812Y-79069071D01*
X54852812Y-79069071D02*
X54995669Y-78997642D01*
X54995669Y-78997642D02*
X55067098Y-78926214D01*
X55067098Y-78926214D02*
X55138526Y-78783357D01*
X55138526Y-78783357D02*
X55138526Y-78569071D01*
X55138526Y-78569071D02*
X55067098Y-78426214D01*
X55067098Y-78426214D02*
X54995669Y-78354785D01*
X54995669Y-78354785D02*
X54852812Y-78283357D01*
X54852812Y-78283357D02*
X54281383Y-78283357D01*
X56067098Y-79069071D02*
X56352812Y-79069071D01*
X56352812Y-79069071D02*
X56495669Y-78997642D01*
X56495669Y-78997642D02*
X56638526Y-78854785D01*
X56638526Y-78854785D02*
X56709955Y-78569071D01*
X56709955Y-78569071D02*
X56709955Y-78069071D01*
X56709955Y-78069071D02*
X56638526Y-77783357D01*
X56638526Y-77783357D02*
X56495669Y-77640500D01*
X56495669Y-77640500D02*
X56352812Y-77569071D01*
X56352812Y-77569071D02*
X56067098Y-77569071D01*
X56067098Y-77569071D02*
X55924241Y-77640500D01*
X55924241Y-77640500D02*
X55781383Y-77783357D01*
X55781383Y-77783357D02*
X55709955Y-78069071D01*
X55709955Y-78069071D02*
X55709955Y-78569071D01*
X55709955Y-78569071D02*
X55781383Y-78854785D01*
X55781383Y-78854785D02*
X55924241Y-78997642D01*
X55924241Y-78997642D02*
X56067098Y-79069071D01*
X57138527Y-79069071D02*
X57995670Y-79069071D01*
X57567098Y-77569071D02*
X57567098Y-79069071D01*
X59638526Y-78140500D02*
X60781384Y-78140500D01*
X60209955Y-77569071D02*
X60209955Y-78711928D01*
X43567098Y-63069071D02*
X42852812Y-63069071D01*
X42852812Y-63069071D02*
X42852812Y-64569071D01*
X44067098Y-63854785D02*
X44567098Y-63854785D01*
X44781384Y-63069071D02*
X44067098Y-63069071D01*
X44067098Y-63069071D02*
X44067098Y-64569071D01*
X44067098Y-64569071D02*
X44781384Y-64569071D01*
X45424241Y-63069071D02*
X45424241Y-64569071D01*
X45424241Y-64569071D02*
X45781384Y-64569071D01*
X45781384Y-64569071D02*
X45995670Y-64497642D01*
X45995670Y-64497642D02*
X46138527Y-64354785D01*
X46138527Y-64354785D02*
X46209956Y-64211928D01*
X46209956Y-64211928D02*
X46281384Y-63926214D01*
X46281384Y-63926214D02*
X46281384Y-63711928D01*
X46281384Y-63711928D02*
X46209956Y-63426214D01*
X46209956Y-63426214D02*
X46138527Y-63283357D01*
X46138527Y-63283357D02*
X45995670Y-63140500D01*
X45995670Y-63140500D02*
X45781384Y-63069071D01*
X45781384Y-63069071D02*
X45424241Y-63069071D01*
X47995670Y-63140500D02*
X48209956Y-63069071D01*
X48209956Y-63069071D02*
X48567098Y-63069071D01*
X48567098Y-63069071D02*
X48709956Y-63140500D01*
X48709956Y-63140500D02*
X48781384Y-63211928D01*
X48781384Y-63211928D02*
X48852813Y-63354785D01*
X48852813Y-63354785D02*
X48852813Y-63497642D01*
X48852813Y-63497642D02*
X48781384Y-63640500D01*
X48781384Y-63640500D02*
X48709956Y-63711928D01*
X48709956Y-63711928D02*
X48567098Y-63783357D01*
X48567098Y-63783357D02*
X48281384Y-63854785D01*
X48281384Y-63854785D02*
X48138527Y-63926214D01*
X48138527Y-63926214D02*
X48067098Y-63997642D01*
X48067098Y-63997642D02*
X47995670Y-64140500D01*
X47995670Y-64140500D02*
X47995670Y-64283357D01*
X47995670Y-64283357D02*
X48067098Y-64426214D01*
X48067098Y-64426214D02*
X48138527Y-64497642D01*
X48138527Y-64497642D02*
X48281384Y-64569071D01*
X48281384Y-64569071D02*
X48638527Y-64569071D01*
X48638527Y-64569071D02*
X48852813Y-64497642D01*
X50352812Y-63211928D02*
X50281384Y-63140500D01*
X50281384Y-63140500D02*
X50067098Y-63069071D01*
X50067098Y-63069071D02*
X49924241Y-63069071D01*
X49924241Y-63069071D02*
X49709955Y-63140500D01*
X49709955Y-63140500D02*
X49567098Y-63283357D01*
X49567098Y-63283357D02*
X49495669Y-63426214D01*
X49495669Y-63426214D02*
X49424241Y-63711928D01*
X49424241Y-63711928D02*
X49424241Y-63926214D01*
X49424241Y-63926214D02*
X49495669Y-64211928D01*
X49495669Y-64211928D02*
X49567098Y-64354785D01*
X49567098Y-64354785D02*
X49709955Y-64497642D01*
X49709955Y-64497642D02*
X49924241Y-64569071D01*
X49924241Y-64569071D02*
X50067098Y-64569071D01*
X50067098Y-64569071D02*
X50281384Y-64497642D01*
X50281384Y-64497642D02*
X50352812Y-64426214D01*
X50995669Y-63069071D02*
X50995669Y-64569071D01*
X50995669Y-63854785D02*
X51852812Y-63854785D01*
X51852812Y-63069071D02*
X51852812Y-64569071D01*
X52424241Y-64569071D02*
X52781384Y-63069071D01*
X52781384Y-63069071D02*
X53067098Y-64140500D01*
X53067098Y-64140500D02*
X53352813Y-63069071D01*
X53352813Y-63069071D02*
X53709956Y-64569071D01*
X54209956Y-63497642D02*
X54924242Y-63497642D01*
X54067099Y-63069071D02*
X54567099Y-64569071D01*
X54567099Y-64569071D02*
X55067099Y-63069071D01*
X56424241Y-63069071D02*
X55924241Y-63783357D01*
X55567098Y-63069071D02*
X55567098Y-64569071D01*
X55567098Y-64569071D02*
X56138527Y-64569071D01*
X56138527Y-64569071D02*
X56281384Y-64497642D01*
X56281384Y-64497642D02*
X56352813Y-64426214D01*
X56352813Y-64426214D02*
X56424241Y-64283357D01*
X56424241Y-64283357D02*
X56424241Y-64069071D01*
X56424241Y-64069071D02*
X56352813Y-63926214D01*
X56352813Y-63926214D02*
X56281384Y-63854785D01*
X56281384Y-63854785D02*
X56138527Y-63783357D01*
X56138527Y-63783357D02*
X55567098Y-63783357D01*
X56924241Y-64569071D02*
X57924241Y-64569071D01*
X57924241Y-64569071D02*
X56924241Y-63069071D01*
X56924241Y-63069071D02*
X57924241Y-63069071D01*
X59638526Y-63640500D02*
X60781384Y-63640500D01*
D11*
X10316101Y-18182500D02*
X9982768Y-18658691D01*
X9744673Y-18182500D02*
X9744673Y-19182500D01*
X9744673Y-19182500D02*
X10125625Y-19182500D01*
X10125625Y-19182500D02*
X10220863Y-19134881D01*
X10220863Y-19134881D02*
X10268482Y-19087262D01*
X10268482Y-19087262D02*
X10316101Y-18992024D01*
X10316101Y-18992024D02*
X10316101Y-18849167D01*
X10316101Y-18849167D02*
X10268482Y-18753929D01*
X10268482Y-18753929D02*
X10220863Y-18706310D01*
X10220863Y-18706310D02*
X10125625Y-18658691D01*
X10125625Y-18658691D02*
X9744673Y-18658691D01*
X11125625Y-18230120D02*
X11030387Y-18182500D01*
X11030387Y-18182500D02*
X10839911Y-18182500D01*
X10839911Y-18182500D02*
X10744673Y-18230120D01*
X10744673Y-18230120D02*
X10697054Y-18325358D01*
X10697054Y-18325358D02*
X10697054Y-18706310D01*
X10697054Y-18706310D02*
X10744673Y-18801548D01*
X10744673Y-18801548D02*
X10839911Y-18849167D01*
X10839911Y-18849167D02*
X11030387Y-18849167D01*
X11030387Y-18849167D02*
X11125625Y-18801548D01*
X11125625Y-18801548D02*
X11173244Y-18706310D01*
X11173244Y-18706310D02*
X11173244Y-18611072D01*
X11173244Y-18611072D02*
X10697054Y-18515834D01*
X11506578Y-18849167D02*
X11744673Y-18182500D01*
X11744673Y-18182500D02*
X11982768Y-18849167D01*
X12363721Y-18277739D02*
X12411340Y-18230120D01*
X12411340Y-18230120D02*
X12363721Y-18182500D01*
X12363721Y-18182500D02*
X12316102Y-18230120D01*
X12316102Y-18230120D02*
X12363721Y-18277739D01*
X12363721Y-18277739D02*
X12363721Y-18182500D01*
X12839911Y-18706310D02*
X13173244Y-18706310D01*
X13316101Y-18182500D02*
X12839911Y-18182500D01*
X12839911Y-18182500D02*
X12839911Y-19182500D01*
X12839911Y-19182500D02*
X13316101Y-19182500D01*
X15458959Y-19182500D02*
X15554197Y-19182500D01*
X15554197Y-19182500D02*
X15649435Y-19134881D01*
X15649435Y-19134881D02*
X15697054Y-19087262D01*
X15697054Y-19087262D02*
X15744673Y-18992024D01*
X15744673Y-18992024D02*
X15792292Y-18801548D01*
X15792292Y-18801548D02*
X15792292Y-18563453D01*
X15792292Y-18563453D02*
X15744673Y-18372977D01*
X15744673Y-18372977D02*
X15697054Y-18277739D01*
X15697054Y-18277739D02*
X15649435Y-18230120D01*
X15649435Y-18230120D02*
X15554197Y-18182500D01*
X15554197Y-18182500D02*
X15458959Y-18182500D01*
X15458959Y-18182500D02*
X15363721Y-18230120D01*
X15363721Y-18230120D02*
X15316102Y-18277739D01*
X15316102Y-18277739D02*
X15268483Y-18372977D01*
X15268483Y-18372977D02*
X15220864Y-18563453D01*
X15220864Y-18563453D02*
X15220864Y-18801548D01*
X15220864Y-18801548D02*
X15268483Y-18992024D01*
X15268483Y-18992024D02*
X15316102Y-19087262D01*
X15316102Y-19087262D02*
X15363721Y-19134881D01*
X15363721Y-19134881D02*
X15458959Y-19182500D01*
X16125626Y-19182500D02*
X16744673Y-19182500D01*
X16744673Y-19182500D02*
X16411340Y-18801548D01*
X16411340Y-18801548D02*
X16554197Y-18801548D01*
X16554197Y-18801548D02*
X16649435Y-18753929D01*
X16649435Y-18753929D02*
X16697054Y-18706310D01*
X16697054Y-18706310D02*
X16744673Y-18611072D01*
X16744673Y-18611072D02*
X16744673Y-18372977D01*
X16744673Y-18372977D02*
X16697054Y-18277739D01*
X16697054Y-18277739D02*
X16649435Y-18230120D01*
X16649435Y-18230120D02*
X16554197Y-18182500D01*
X16554197Y-18182500D02*
X16268483Y-18182500D01*
X16268483Y-18182500D02*
X16173245Y-18230120D01*
X16173245Y-18230120D02*
X16125626Y-18277739D01*
X17887530Y-19230120D02*
X17030388Y-17944405D01*
X18173245Y-19087262D02*
X18220864Y-19134881D01*
X18220864Y-19134881D02*
X18316102Y-19182500D01*
X18316102Y-19182500D02*
X18554197Y-19182500D01*
X18554197Y-19182500D02*
X18649435Y-19134881D01*
X18649435Y-19134881D02*
X18697054Y-19087262D01*
X18697054Y-19087262D02*
X18744673Y-18992024D01*
X18744673Y-18992024D02*
X18744673Y-18896786D01*
X18744673Y-18896786D02*
X18697054Y-18753929D01*
X18697054Y-18753929D02*
X18125626Y-18182500D01*
X18125626Y-18182500D02*
X18744673Y-18182500D01*
X19363721Y-19182500D02*
X19458959Y-19182500D01*
X19458959Y-19182500D02*
X19554197Y-19134881D01*
X19554197Y-19134881D02*
X19601816Y-19087262D01*
X19601816Y-19087262D02*
X19649435Y-18992024D01*
X19649435Y-18992024D02*
X19697054Y-18801548D01*
X19697054Y-18801548D02*
X19697054Y-18563453D01*
X19697054Y-18563453D02*
X19649435Y-18372977D01*
X19649435Y-18372977D02*
X19601816Y-18277739D01*
X19601816Y-18277739D02*
X19554197Y-18230120D01*
X19554197Y-18230120D02*
X19458959Y-18182500D01*
X19458959Y-18182500D02*
X19363721Y-18182500D01*
X19363721Y-18182500D02*
X19268483Y-18230120D01*
X19268483Y-18230120D02*
X19220864Y-18277739D01*
X19220864Y-18277739D02*
X19173245Y-18372977D01*
X19173245Y-18372977D02*
X19125626Y-18563453D01*
X19125626Y-18563453D02*
X19125626Y-18801548D01*
X19125626Y-18801548D02*
X19173245Y-18992024D01*
X19173245Y-18992024D02*
X19220864Y-19087262D01*
X19220864Y-19087262D02*
X19268483Y-19134881D01*
X19268483Y-19134881D02*
X19363721Y-19182500D01*
X20078007Y-19087262D02*
X20125626Y-19134881D01*
X20125626Y-19134881D02*
X20220864Y-19182500D01*
X20220864Y-19182500D02*
X20458959Y-19182500D01*
X20458959Y-19182500D02*
X20554197Y-19134881D01*
X20554197Y-19134881D02*
X20601816Y-19087262D01*
X20601816Y-19087262D02*
X20649435Y-18992024D01*
X20649435Y-18992024D02*
X20649435Y-18896786D01*
X20649435Y-18896786D02*
X20601816Y-18753929D01*
X20601816Y-18753929D02*
X20030388Y-18182500D01*
X20030388Y-18182500D02*
X20649435Y-18182500D01*
X21554197Y-19182500D02*
X21078007Y-19182500D01*
X21078007Y-19182500D02*
X21030388Y-18706310D01*
X21030388Y-18706310D02*
X21078007Y-18753929D01*
X21078007Y-18753929D02*
X21173245Y-18801548D01*
X21173245Y-18801548D02*
X21411340Y-18801548D01*
X21411340Y-18801548D02*
X21506578Y-18753929D01*
X21506578Y-18753929D02*
X21554197Y-18706310D01*
X21554197Y-18706310D02*
X21601816Y-18611072D01*
X21601816Y-18611072D02*
X21601816Y-18372977D01*
X21601816Y-18372977D02*
X21554197Y-18277739D01*
X21554197Y-18277739D02*
X21506578Y-18230120D01*
X21506578Y-18230120D02*
X21411340Y-18182500D01*
X21411340Y-18182500D02*
X21173245Y-18182500D01*
X21173245Y-18182500D02*
X21078007Y-18230120D01*
X21078007Y-18230120D02*
X21030388Y-18277739D01*
X10316101Y-16667795D02*
X10268482Y-16620176D01*
X10268482Y-16620176D02*
X10125625Y-16572556D01*
X10125625Y-16572556D02*
X10030387Y-16572556D01*
X10030387Y-16572556D02*
X9887530Y-16620176D01*
X9887530Y-16620176D02*
X9792292Y-16715414D01*
X9792292Y-16715414D02*
X9744673Y-16810652D01*
X9744673Y-16810652D02*
X9697054Y-17001128D01*
X9697054Y-17001128D02*
X9697054Y-17143985D01*
X9697054Y-17143985D02*
X9744673Y-17334461D01*
X9744673Y-17334461D02*
X9792292Y-17429699D01*
X9792292Y-17429699D02*
X9887530Y-17524937D01*
X9887530Y-17524937D02*
X10030387Y-17572556D01*
X10030387Y-17572556D02*
X10125625Y-17572556D01*
X10125625Y-17572556D02*
X10268482Y-17524937D01*
X10268482Y-17524937D02*
X10316101Y-17477318D01*
X10744673Y-17096366D02*
X11078006Y-17096366D01*
X11220863Y-16572556D02*
X10744673Y-16572556D01*
X10744673Y-16572556D02*
X10744673Y-17572556D01*
X10744673Y-17572556D02*
X11220863Y-17572556D01*
X12220863Y-16572556D02*
X11887530Y-17048747D01*
X11649435Y-16572556D02*
X11649435Y-17572556D01*
X11649435Y-17572556D02*
X12030387Y-17572556D01*
X12030387Y-17572556D02*
X12125625Y-17524937D01*
X12125625Y-17524937D02*
X12173244Y-17477318D01*
X12173244Y-17477318D02*
X12220863Y-17382080D01*
X12220863Y-17382080D02*
X12220863Y-17239223D01*
X12220863Y-17239223D02*
X12173244Y-17143985D01*
X12173244Y-17143985D02*
X12125625Y-17096366D01*
X12125625Y-17096366D02*
X12030387Y-17048747D01*
X12030387Y-17048747D02*
X11649435Y-17048747D01*
X12649435Y-16572556D02*
X12649435Y-17572556D01*
X12649435Y-17572556D02*
X13220863Y-16572556D01*
X13220863Y-16572556D02*
X13220863Y-17572556D01*
X14649435Y-17572556D02*
X14839911Y-17572556D01*
X14839911Y-17572556D02*
X14935149Y-17524937D01*
X14935149Y-17524937D02*
X15030387Y-17429699D01*
X15030387Y-17429699D02*
X15078006Y-17239223D01*
X15078006Y-17239223D02*
X15078006Y-16905890D01*
X15078006Y-16905890D02*
X15030387Y-16715414D01*
X15030387Y-16715414D02*
X14935149Y-16620176D01*
X14935149Y-16620176D02*
X14839911Y-16572556D01*
X14839911Y-16572556D02*
X14649435Y-16572556D01*
X14649435Y-16572556D02*
X14554197Y-16620176D01*
X14554197Y-16620176D02*
X14458959Y-16715414D01*
X14458959Y-16715414D02*
X14411340Y-16905890D01*
X14411340Y-16905890D02*
X14411340Y-17239223D01*
X14411340Y-17239223D02*
X14458959Y-17429699D01*
X14458959Y-17429699D02*
X14554197Y-17524937D01*
X14554197Y-17524937D02*
X14649435Y-17572556D01*
X15506578Y-16572556D02*
X15506578Y-17572556D01*
X15506578Y-17096366D02*
X16078006Y-17096366D01*
X16078006Y-16572556D02*
X16078006Y-17572556D01*
X17030387Y-16572556D02*
X16554197Y-16572556D01*
X16554197Y-16572556D02*
X16554197Y-17572556D01*
X18125626Y-16572556D02*
X18125626Y-17572556D01*
X18125626Y-17572556D02*
X18506578Y-17572556D01*
X18506578Y-17572556D02*
X18601816Y-17524937D01*
X18601816Y-17524937D02*
X18649435Y-17477318D01*
X18649435Y-17477318D02*
X18697054Y-17382080D01*
X18697054Y-17382080D02*
X18697054Y-17239223D01*
X18697054Y-17239223D02*
X18649435Y-17143985D01*
X18649435Y-17143985D02*
X18601816Y-17096366D01*
X18601816Y-17096366D02*
X18506578Y-17048747D01*
X18506578Y-17048747D02*
X18125626Y-17048747D01*
X19839912Y-17477318D02*
X19887531Y-17524937D01*
X19887531Y-17524937D02*
X19982769Y-17572556D01*
X19982769Y-17572556D02*
X20220864Y-17572556D01*
X20220864Y-17572556D02*
X20316102Y-17524937D01*
X20316102Y-17524937D02*
X20363721Y-17477318D01*
X20363721Y-17477318D02*
X20411340Y-17382080D01*
X20411340Y-17382080D02*
X20411340Y-17286842D01*
X20411340Y-17286842D02*
X20363721Y-17143985D01*
X20363721Y-17143985D02*
X19792293Y-16572556D01*
X19792293Y-16572556D02*
X20411340Y-16572556D01*
X20839912Y-16667795D02*
X20887531Y-16620176D01*
X20887531Y-16620176D02*
X20839912Y-16572556D01*
X20839912Y-16572556D02*
X20792293Y-16620176D01*
X20792293Y-16620176D02*
X20839912Y-16667795D01*
X20839912Y-16667795D02*
X20839912Y-16572556D01*
X21506578Y-17572556D02*
X21601816Y-17572556D01*
X21601816Y-17572556D02*
X21697054Y-17524937D01*
X21697054Y-17524937D02*
X21744673Y-17477318D01*
X21744673Y-17477318D02*
X21792292Y-17382080D01*
X21792292Y-17382080D02*
X21839911Y-17191604D01*
X21839911Y-17191604D02*
X21839911Y-16953509D01*
X21839911Y-16953509D02*
X21792292Y-16763033D01*
X21792292Y-16763033D02*
X21744673Y-16667795D01*
X21744673Y-16667795D02*
X21697054Y-16620176D01*
X21697054Y-16620176D02*
X21601816Y-16572556D01*
X21601816Y-16572556D02*
X21506578Y-16572556D01*
X21506578Y-16572556D02*
X21411340Y-16620176D01*
X21411340Y-16620176D02*
X21363721Y-16667795D01*
X21363721Y-16667795D02*
X21316102Y-16763033D01*
X21316102Y-16763033D02*
X21268483Y-16953509D01*
X21268483Y-16953509D02*
X21268483Y-17191604D01*
X21268483Y-17191604D02*
X21316102Y-17382080D01*
X21316102Y-17382080D02*
X21363721Y-17477318D01*
X21363721Y-17477318D02*
X21411340Y-17524937D01*
X21411340Y-17524937D02*
X21506578Y-17572556D01*
X9744673Y-14962612D02*
X9744673Y-15962612D01*
X10173244Y-14962612D02*
X10173244Y-15486422D01*
X10173244Y-15486422D02*
X10125625Y-15581660D01*
X10125625Y-15581660D02*
X10030387Y-15629279D01*
X10030387Y-15629279D02*
X9887530Y-15629279D01*
X9887530Y-15629279D02*
X9792292Y-15581660D01*
X9792292Y-15581660D02*
X9744673Y-15534041D01*
X10506578Y-15629279D02*
X10887530Y-15629279D01*
X10649435Y-15962612D02*
X10649435Y-15105470D01*
X10649435Y-15105470D02*
X10697054Y-15010232D01*
X10697054Y-15010232D02*
X10792292Y-14962612D01*
X10792292Y-14962612D02*
X10887530Y-14962612D01*
X11078007Y-15629279D02*
X11458959Y-15629279D01*
X11220864Y-15962612D02*
X11220864Y-15105470D01*
X11220864Y-15105470D02*
X11268483Y-15010232D01*
X11268483Y-15010232D02*
X11363721Y-14962612D01*
X11363721Y-14962612D02*
X11458959Y-14962612D01*
X11792293Y-15629279D02*
X11792293Y-14629279D01*
X11792293Y-15581660D02*
X11887531Y-15629279D01*
X11887531Y-15629279D02*
X12078007Y-15629279D01*
X12078007Y-15629279D02*
X12173245Y-15581660D01*
X12173245Y-15581660D02*
X12220864Y-15534041D01*
X12220864Y-15534041D02*
X12268483Y-15438803D01*
X12268483Y-15438803D02*
X12268483Y-15153089D01*
X12268483Y-15153089D02*
X12220864Y-15057851D01*
X12220864Y-15057851D02*
X12173245Y-15010232D01*
X12173245Y-15010232D02*
X12078007Y-14962612D01*
X12078007Y-14962612D02*
X11887531Y-14962612D01*
X11887531Y-14962612D02*
X11792293Y-15010232D01*
X12649436Y-15010232D02*
X12744674Y-14962612D01*
X12744674Y-14962612D02*
X12935150Y-14962612D01*
X12935150Y-14962612D02*
X13030388Y-15010232D01*
X13030388Y-15010232D02*
X13078007Y-15105470D01*
X13078007Y-15105470D02*
X13078007Y-15153089D01*
X13078007Y-15153089D02*
X13030388Y-15248327D01*
X13030388Y-15248327D02*
X12935150Y-15295946D01*
X12935150Y-15295946D02*
X12792293Y-15295946D01*
X12792293Y-15295946D02*
X12697055Y-15343565D01*
X12697055Y-15343565D02*
X12649436Y-15438803D01*
X12649436Y-15438803D02*
X12649436Y-15486422D01*
X12649436Y-15486422D02*
X12697055Y-15581660D01*
X12697055Y-15581660D02*
X12792293Y-15629279D01*
X12792293Y-15629279D02*
X12935150Y-15629279D01*
X12935150Y-15629279D02*
X13030388Y-15581660D01*
X13506579Y-15057851D02*
X13554198Y-15010232D01*
X13554198Y-15010232D02*
X13506579Y-14962612D01*
X13506579Y-14962612D02*
X13458960Y-15010232D01*
X13458960Y-15010232D02*
X13506579Y-15057851D01*
X13506579Y-15057851D02*
X13506579Y-14962612D01*
X13506579Y-15581660D02*
X13554198Y-15534041D01*
X13554198Y-15534041D02*
X13506579Y-15486422D01*
X13506579Y-15486422D02*
X13458960Y-15534041D01*
X13458960Y-15534041D02*
X13506579Y-15581660D01*
X13506579Y-15581660D02*
X13506579Y-15486422D01*
X14697054Y-16010232D02*
X13839912Y-14724517D01*
X15744673Y-16010232D02*
X14887531Y-14724517D01*
X11697054Y-14019335D02*
X11697054Y-13209811D01*
X11697054Y-13209811D02*
X11649435Y-13114573D01*
X11649435Y-13114573D02*
X11601816Y-13066954D01*
X11601816Y-13066954D02*
X11506578Y-13019335D01*
X11506578Y-13019335D02*
X11363721Y-13019335D01*
X11363721Y-13019335D02*
X11268483Y-13066954D01*
X11697054Y-13400288D02*
X11601816Y-13352668D01*
X11601816Y-13352668D02*
X11411340Y-13352668D01*
X11411340Y-13352668D02*
X11316102Y-13400288D01*
X11316102Y-13400288D02*
X11268483Y-13447907D01*
X11268483Y-13447907D02*
X11220864Y-13543145D01*
X11220864Y-13543145D02*
X11220864Y-13828859D01*
X11220864Y-13828859D02*
X11268483Y-13924097D01*
X11268483Y-13924097D02*
X11316102Y-13971716D01*
X11316102Y-13971716D02*
X11411340Y-14019335D01*
X11411340Y-14019335D02*
X11601816Y-14019335D01*
X11601816Y-14019335D02*
X11697054Y-13971716D01*
X12173245Y-13352668D02*
X12173245Y-14019335D01*
X12173245Y-14352668D02*
X12125626Y-14305049D01*
X12125626Y-14305049D02*
X12173245Y-14257430D01*
X12173245Y-14257430D02*
X12220864Y-14305049D01*
X12220864Y-14305049D02*
X12173245Y-14352668D01*
X12173245Y-14352668D02*
X12173245Y-14257430D01*
X12506578Y-14019335D02*
X12887530Y-14019335D01*
X12649435Y-14352668D02*
X12649435Y-13495526D01*
X12649435Y-13495526D02*
X12697054Y-13400288D01*
X12697054Y-13400288D02*
X12792292Y-13352668D01*
X12792292Y-13352668D02*
X12887530Y-13352668D01*
X13220864Y-13352668D02*
X13220864Y-14352668D01*
X13649435Y-13352668D02*
X13649435Y-13876478D01*
X13649435Y-13876478D02*
X13601816Y-13971716D01*
X13601816Y-13971716D02*
X13506578Y-14019335D01*
X13506578Y-14019335D02*
X13363721Y-14019335D01*
X13363721Y-14019335D02*
X13268483Y-13971716D01*
X13268483Y-13971716D02*
X13220864Y-13924097D01*
X14554197Y-14019335D02*
X14554197Y-13352668D01*
X14125626Y-14019335D02*
X14125626Y-13495526D01*
X14125626Y-13495526D02*
X14173245Y-13400288D01*
X14173245Y-13400288D02*
X14268483Y-13352668D01*
X14268483Y-13352668D02*
X14411340Y-13352668D01*
X14411340Y-13352668D02*
X14506578Y-13400288D01*
X14506578Y-13400288D02*
X14554197Y-13447907D01*
X15030388Y-13352668D02*
X15030388Y-14352668D01*
X15030388Y-13971716D02*
X15125626Y-14019335D01*
X15125626Y-14019335D02*
X15316102Y-14019335D01*
X15316102Y-14019335D02*
X15411340Y-13971716D01*
X15411340Y-13971716D02*
X15458959Y-13924097D01*
X15458959Y-13924097D02*
X15506578Y-13828859D01*
X15506578Y-13828859D02*
X15506578Y-13543145D01*
X15506578Y-13543145D02*
X15458959Y-13447907D01*
X15458959Y-13447907D02*
X15411340Y-13400288D01*
X15411340Y-13400288D02*
X15316102Y-13352668D01*
X15316102Y-13352668D02*
X15125626Y-13352668D01*
X15125626Y-13352668D02*
X15030388Y-13400288D01*
X15935150Y-13447907D02*
X15982769Y-13400288D01*
X15982769Y-13400288D02*
X15935150Y-13352668D01*
X15935150Y-13352668D02*
X15887531Y-13400288D01*
X15887531Y-13400288D02*
X15935150Y-13447907D01*
X15935150Y-13447907D02*
X15935150Y-13352668D01*
X16839911Y-13400288D02*
X16744673Y-13352668D01*
X16744673Y-13352668D02*
X16554197Y-13352668D01*
X16554197Y-13352668D02*
X16458959Y-13400288D01*
X16458959Y-13400288D02*
X16411340Y-13447907D01*
X16411340Y-13447907D02*
X16363721Y-13543145D01*
X16363721Y-13543145D02*
X16363721Y-13828859D01*
X16363721Y-13828859D02*
X16411340Y-13924097D01*
X16411340Y-13924097D02*
X16458959Y-13971716D01*
X16458959Y-13971716D02*
X16554197Y-14019335D01*
X16554197Y-14019335D02*
X16744673Y-14019335D01*
X16744673Y-14019335D02*
X16839911Y-13971716D01*
X17411340Y-13352668D02*
X17316102Y-13400288D01*
X17316102Y-13400288D02*
X17268483Y-13447907D01*
X17268483Y-13447907D02*
X17220864Y-13543145D01*
X17220864Y-13543145D02*
X17220864Y-13828859D01*
X17220864Y-13828859D02*
X17268483Y-13924097D01*
X17268483Y-13924097D02*
X17316102Y-13971716D01*
X17316102Y-13971716D02*
X17411340Y-14019335D01*
X17411340Y-14019335D02*
X17554197Y-14019335D01*
X17554197Y-14019335D02*
X17649435Y-13971716D01*
X17649435Y-13971716D02*
X17697054Y-13924097D01*
X17697054Y-13924097D02*
X17744673Y-13828859D01*
X17744673Y-13828859D02*
X17744673Y-13543145D01*
X17744673Y-13543145D02*
X17697054Y-13447907D01*
X17697054Y-13447907D02*
X17649435Y-13400288D01*
X17649435Y-13400288D02*
X17554197Y-13352668D01*
X17554197Y-13352668D02*
X17411340Y-13352668D01*
X18173245Y-13352668D02*
X18173245Y-14019335D01*
X18173245Y-13924097D02*
X18220864Y-13971716D01*
X18220864Y-13971716D02*
X18316102Y-14019335D01*
X18316102Y-14019335D02*
X18458959Y-14019335D01*
X18458959Y-14019335D02*
X18554197Y-13971716D01*
X18554197Y-13971716D02*
X18601816Y-13876478D01*
X18601816Y-13876478D02*
X18601816Y-13352668D01*
X18601816Y-13876478D02*
X18649435Y-13971716D01*
X18649435Y-13971716D02*
X18744673Y-14019335D01*
X18744673Y-14019335D02*
X18887530Y-14019335D01*
X18887530Y-14019335D02*
X18982769Y-13971716D01*
X18982769Y-13971716D02*
X19030388Y-13876478D01*
X19030388Y-13876478D02*
X19030388Y-13352668D01*
X20220863Y-14400288D02*
X19363721Y-13114573D01*
X12744674Y-11790344D02*
X12839912Y-11742724D01*
X12839912Y-11742724D02*
X13030388Y-11742724D01*
X13030388Y-11742724D02*
X13125626Y-11790344D01*
X13125626Y-11790344D02*
X13173245Y-11885582D01*
X13173245Y-11885582D02*
X13173245Y-11933201D01*
X13173245Y-11933201D02*
X13125626Y-12028439D01*
X13125626Y-12028439D02*
X13030388Y-12076058D01*
X13030388Y-12076058D02*
X12887531Y-12076058D01*
X12887531Y-12076058D02*
X12792293Y-12123677D01*
X12792293Y-12123677D02*
X12744674Y-12218915D01*
X12744674Y-12218915D02*
X12744674Y-12266534D01*
X12744674Y-12266534D02*
X12792293Y-12361772D01*
X12792293Y-12361772D02*
X12887531Y-12409391D01*
X12887531Y-12409391D02*
X13030388Y-12409391D01*
X13030388Y-12409391D02*
X13125626Y-12361772D01*
X13601817Y-11742724D02*
X13601817Y-12742724D01*
X13601817Y-12361772D02*
X13697055Y-12409391D01*
X13697055Y-12409391D02*
X13887531Y-12409391D01*
X13887531Y-12409391D02*
X13982769Y-12361772D01*
X13982769Y-12361772D02*
X14030388Y-12314153D01*
X14030388Y-12314153D02*
X14078007Y-12218915D01*
X14078007Y-12218915D02*
X14078007Y-11933201D01*
X14078007Y-11933201D02*
X14030388Y-11837963D01*
X14030388Y-11837963D02*
X13982769Y-11790344D01*
X13982769Y-11790344D02*
X13887531Y-11742724D01*
X13887531Y-11742724D02*
X13697055Y-11742724D01*
X13697055Y-11742724D02*
X13601817Y-11790344D01*
X14411341Y-12409391D02*
X14649436Y-11742724D01*
X14887531Y-12409391D02*
X14649436Y-11742724D01*
X14649436Y-11742724D02*
X14554198Y-11504629D01*
X14554198Y-11504629D02*
X14506579Y-11457010D01*
X14506579Y-11457010D02*
X14411341Y-11409391D01*
X15697055Y-11742724D02*
X15697055Y-12742724D01*
X15697055Y-11790344D02*
X15601817Y-11742724D01*
X15601817Y-11742724D02*
X15411341Y-11742724D01*
X15411341Y-11742724D02*
X15316103Y-11790344D01*
X15316103Y-11790344D02*
X15268484Y-11837963D01*
X15268484Y-11837963D02*
X15220865Y-11933201D01*
X15220865Y-11933201D02*
X15220865Y-12218915D01*
X15220865Y-12218915D02*
X15268484Y-12314153D01*
X15268484Y-12314153D02*
X15316103Y-12361772D01*
X15316103Y-12361772D02*
X15411341Y-12409391D01*
X15411341Y-12409391D02*
X15601817Y-12409391D01*
X15601817Y-12409391D02*
X15697055Y-12361772D01*
X16173246Y-12123677D02*
X16935151Y-12123677D01*
X17363722Y-11790344D02*
X17458960Y-11742724D01*
X17458960Y-11742724D02*
X17649436Y-11742724D01*
X17649436Y-11742724D02*
X17744674Y-11790344D01*
X17744674Y-11790344D02*
X17792293Y-11885582D01*
X17792293Y-11885582D02*
X17792293Y-11933201D01*
X17792293Y-11933201D02*
X17744674Y-12028439D01*
X17744674Y-12028439D02*
X17649436Y-12076058D01*
X17649436Y-12076058D02*
X17506579Y-12076058D01*
X17506579Y-12076058D02*
X17411341Y-12123677D01*
X17411341Y-12123677D02*
X17363722Y-12218915D01*
X17363722Y-12218915D02*
X17363722Y-12266534D01*
X17363722Y-12266534D02*
X17411341Y-12361772D01*
X17411341Y-12361772D02*
X17506579Y-12409391D01*
X17506579Y-12409391D02*
X17649436Y-12409391D01*
X17649436Y-12409391D02*
X17744674Y-12361772D01*
X18220865Y-12409391D02*
X18220865Y-11409391D01*
X18220865Y-12361772D02*
X18316103Y-12409391D01*
X18316103Y-12409391D02*
X18506579Y-12409391D01*
X18506579Y-12409391D02*
X18601817Y-12361772D01*
X18601817Y-12361772D02*
X18649436Y-12314153D01*
X18649436Y-12314153D02*
X18697055Y-12218915D01*
X18697055Y-12218915D02*
X18697055Y-11933201D01*
X18697055Y-11933201D02*
X18649436Y-11837963D01*
X18649436Y-11837963D02*
X18601817Y-11790344D01*
X18601817Y-11790344D02*
X18506579Y-11742724D01*
X18506579Y-11742724D02*
X18316103Y-11742724D01*
X18316103Y-11742724D02*
X18220865Y-11790344D01*
X19554198Y-11742724D02*
X19554198Y-12266534D01*
X19554198Y-12266534D02*
X19506579Y-12361772D01*
X19506579Y-12361772D02*
X19411341Y-12409391D01*
X19411341Y-12409391D02*
X19220865Y-12409391D01*
X19220865Y-12409391D02*
X19125627Y-12361772D01*
X19554198Y-11790344D02*
X19458960Y-11742724D01*
X19458960Y-11742724D02*
X19220865Y-11742724D01*
X19220865Y-11742724D02*
X19125627Y-11790344D01*
X19125627Y-11790344D02*
X19078008Y-11885582D01*
X19078008Y-11885582D02*
X19078008Y-11980820D01*
X19078008Y-11980820D02*
X19125627Y-12076058D01*
X19125627Y-12076058D02*
X19220865Y-12123677D01*
X19220865Y-12123677D02*
X19458960Y-12123677D01*
X19458960Y-12123677D02*
X19554198Y-12171296D01*
X20458960Y-11790344D02*
X20363722Y-11742724D01*
X20363722Y-11742724D02*
X20173246Y-11742724D01*
X20173246Y-11742724D02*
X20078008Y-11790344D01*
X20078008Y-11790344D02*
X20030389Y-11837963D01*
X20030389Y-11837963D02*
X19982770Y-11933201D01*
X19982770Y-11933201D02*
X19982770Y-12218915D01*
X19982770Y-12218915D02*
X20030389Y-12314153D01*
X20030389Y-12314153D02*
X20078008Y-12361772D01*
X20078008Y-12361772D02*
X20173246Y-12409391D01*
X20173246Y-12409391D02*
X20363722Y-12409391D01*
X20363722Y-12409391D02*
X20458960Y-12361772D01*
X21268484Y-11790344D02*
X21173246Y-11742724D01*
X21173246Y-11742724D02*
X20982770Y-11742724D01*
X20982770Y-11742724D02*
X20887532Y-11790344D01*
X20887532Y-11790344D02*
X20839913Y-11885582D01*
X20839913Y-11885582D02*
X20839913Y-12266534D01*
X20839913Y-12266534D02*
X20887532Y-12361772D01*
X20887532Y-12361772D02*
X20982770Y-12409391D01*
X20982770Y-12409391D02*
X21173246Y-12409391D01*
X21173246Y-12409391D02*
X21268484Y-12361772D01*
X21268484Y-12361772D02*
X21316103Y-12266534D01*
X21316103Y-12266534D02*
X21316103Y-12171296D01*
X21316103Y-12171296D02*
X20839913Y-12076058D01*
X22458960Y-12790344D02*
X21601818Y-11504629D01*
X14220865Y-10799447D02*
X14458960Y-10132780D01*
X14458960Y-10132780D02*
X14697055Y-10799447D01*
X15506579Y-10132780D02*
X15506579Y-10656590D01*
X15506579Y-10656590D02*
X15458960Y-10751828D01*
X15458960Y-10751828D02*
X15363722Y-10799447D01*
X15363722Y-10799447D02*
X15173246Y-10799447D01*
X15173246Y-10799447D02*
X15078008Y-10751828D01*
X15506579Y-10180400D02*
X15411341Y-10132780D01*
X15411341Y-10132780D02*
X15173246Y-10132780D01*
X15173246Y-10132780D02*
X15078008Y-10180400D01*
X15078008Y-10180400D02*
X15030389Y-10275638D01*
X15030389Y-10275638D02*
X15030389Y-10370876D01*
X15030389Y-10370876D02*
X15078008Y-10466114D01*
X15078008Y-10466114D02*
X15173246Y-10513733D01*
X15173246Y-10513733D02*
X15411341Y-10513733D01*
X15411341Y-10513733D02*
X15506579Y-10561352D01*
X15982770Y-10799447D02*
X15982770Y-9799447D01*
X15982770Y-10751828D02*
X16078008Y-10799447D01*
X16078008Y-10799447D02*
X16268484Y-10799447D01*
X16268484Y-10799447D02*
X16363722Y-10751828D01*
X16363722Y-10751828D02*
X16411341Y-10704209D01*
X16411341Y-10704209D02*
X16458960Y-10608971D01*
X16458960Y-10608971D02*
X16458960Y-10323257D01*
X16458960Y-10323257D02*
X16411341Y-10228019D01*
X16411341Y-10228019D02*
X16363722Y-10180400D01*
X16363722Y-10180400D02*
X16268484Y-10132780D01*
X16268484Y-10132780D02*
X16078008Y-10132780D01*
X16078008Y-10132780D02*
X15982770Y-10180400D01*
X17268484Y-10180400D02*
X17173246Y-10132780D01*
X17173246Y-10132780D02*
X16982770Y-10132780D01*
X16982770Y-10132780D02*
X16887532Y-10180400D01*
X16887532Y-10180400D02*
X16839913Y-10275638D01*
X16839913Y-10275638D02*
X16839913Y-10656590D01*
X16839913Y-10656590D02*
X16887532Y-10751828D01*
X16887532Y-10751828D02*
X16982770Y-10799447D01*
X16982770Y-10799447D02*
X17173246Y-10799447D01*
X17173246Y-10799447D02*
X17268484Y-10751828D01*
X17268484Y-10751828D02*
X17316103Y-10656590D01*
X17316103Y-10656590D02*
X17316103Y-10561352D01*
X17316103Y-10561352D02*
X16839913Y-10466114D01*
X17744675Y-10513733D02*
X18506580Y-10513733D01*
X19125627Y-10132780D02*
X19030389Y-10180400D01*
X19030389Y-10180400D02*
X18982770Y-10275638D01*
X18982770Y-10275638D02*
X18982770Y-11132780D01*
X19506580Y-10132780D02*
X19506580Y-10799447D01*
X19506580Y-11132780D02*
X19458961Y-11085161D01*
X19458961Y-11085161D02*
X19506580Y-11037542D01*
X19506580Y-11037542D02*
X19554199Y-11085161D01*
X19554199Y-11085161D02*
X19506580Y-11132780D01*
X19506580Y-11132780D02*
X19506580Y-11037542D01*
X20411341Y-10799447D02*
X20411341Y-9989923D01*
X20411341Y-9989923D02*
X20363722Y-9894685D01*
X20363722Y-9894685D02*
X20316103Y-9847066D01*
X20316103Y-9847066D02*
X20220865Y-9799447D01*
X20220865Y-9799447D02*
X20078008Y-9799447D01*
X20078008Y-9799447D02*
X19982770Y-9847066D01*
X20411341Y-10180400D02*
X20316103Y-10132780D01*
X20316103Y-10132780D02*
X20125627Y-10132780D01*
X20125627Y-10132780D02*
X20030389Y-10180400D01*
X20030389Y-10180400D02*
X19982770Y-10228019D01*
X19982770Y-10228019D02*
X19935151Y-10323257D01*
X19935151Y-10323257D02*
X19935151Y-10608971D01*
X19935151Y-10608971D02*
X19982770Y-10704209D01*
X19982770Y-10704209D02*
X20030389Y-10751828D01*
X20030389Y-10751828D02*
X20125627Y-10799447D01*
X20125627Y-10799447D02*
X20316103Y-10799447D01*
X20316103Y-10799447D02*
X20411341Y-10751828D01*
X20887532Y-10132780D02*
X20887532Y-11132780D01*
X21316103Y-10132780D02*
X21316103Y-10656590D01*
X21316103Y-10656590D02*
X21268484Y-10751828D01*
X21268484Y-10751828D02*
X21173246Y-10799447D01*
X21173246Y-10799447D02*
X21030389Y-10799447D01*
X21030389Y-10799447D02*
X20935151Y-10751828D01*
X20935151Y-10751828D02*
X20887532Y-10704209D01*
X21649437Y-10799447D02*
X22030389Y-10799447D01*
X21792294Y-11132780D02*
X21792294Y-10275638D01*
X21792294Y-10275638D02*
X21839913Y-10180400D01*
X21839913Y-10180400D02*
X21935151Y-10132780D01*
X21935151Y-10132780D02*
X22030389Y-10132780D01*
D10*
X40995670Y-74497642D02*
X41709956Y-74497642D01*
X40852813Y-74069071D02*
X41352813Y-75569071D01*
X41352813Y-75569071D02*
X41852813Y-74069071D01*
X42352812Y-74069071D02*
X42352812Y-75569071D01*
X43209955Y-74069071D02*
X42567098Y-74926214D01*
X43209955Y-75569071D02*
X42352812Y-74711928D01*
X43852812Y-74069071D02*
X43852812Y-75569071D01*
X44709955Y-74069071D02*
X44067098Y-74926214D01*
X44709955Y-75569071D02*
X43852812Y-74711928D01*
X45352812Y-75569071D02*
X45352812Y-74354785D01*
X45352812Y-74354785D02*
X45424241Y-74211928D01*
X45424241Y-74211928D02*
X45495670Y-74140500D01*
X45495670Y-74140500D02*
X45638527Y-74069071D01*
X45638527Y-74069071D02*
X45924241Y-74069071D01*
X45924241Y-74069071D02*
X46067098Y-74140500D01*
X46067098Y-74140500D02*
X46138527Y-74211928D01*
X46138527Y-74211928D02*
X46209955Y-74354785D01*
X46209955Y-74354785D02*
X46209955Y-75569071D01*
X47995670Y-74140500D02*
X48209956Y-74069071D01*
X48209956Y-74069071D02*
X48567098Y-74069071D01*
X48567098Y-74069071D02*
X48709956Y-74140500D01*
X48709956Y-74140500D02*
X48781384Y-74211928D01*
X48781384Y-74211928D02*
X48852813Y-74354785D01*
X48852813Y-74354785D02*
X48852813Y-74497642D01*
X48852813Y-74497642D02*
X48781384Y-74640500D01*
X48781384Y-74640500D02*
X48709956Y-74711928D01*
X48709956Y-74711928D02*
X48567098Y-74783357D01*
X48567098Y-74783357D02*
X48281384Y-74854785D01*
X48281384Y-74854785D02*
X48138527Y-74926214D01*
X48138527Y-74926214D02*
X48067098Y-74997642D01*
X48067098Y-74997642D02*
X47995670Y-75140500D01*
X47995670Y-75140500D02*
X47995670Y-75283357D01*
X47995670Y-75283357D02*
X48067098Y-75426214D01*
X48067098Y-75426214D02*
X48138527Y-75497642D01*
X48138527Y-75497642D02*
X48281384Y-75569071D01*
X48281384Y-75569071D02*
X48638527Y-75569071D01*
X48638527Y-75569071D02*
X48852813Y-75497642D01*
X50352812Y-74211928D02*
X50281384Y-74140500D01*
X50281384Y-74140500D02*
X50067098Y-74069071D01*
X50067098Y-74069071D02*
X49924241Y-74069071D01*
X49924241Y-74069071D02*
X49709955Y-74140500D01*
X49709955Y-74140500D02*
X49567098Y-74283357D01*
X49567098Y-74283357D02*
X49495669Y-74426214D01*
X49495669Y-74426214D02*
X49424241Y-74711928D01*
X49424241Y-74711928D02*
X49424241Y-74926214D01*
X49424241Y-74926214D02*
X49495669Y-75211928D01*
X49495669Y-75211928D02*
X49567098Y-75354785D01*
X49567098Y-75354785D02*
X49709955Y-75497642D01*
X49709955Y-75497642D02*
X49924241Y-75569071D01*
X49924241Y-75569071D02*
X50067098Y-75569071D01*
X50067098Y-75569071D02*
X50281384Y-75497642D01*
X50281384Y-75497642D02*
X50352812Y-75426214D01*
X50995669Y-74069071D02*
X50995669Y-75569071D01*
X50995669Y-74854785D02*
X51852812Y-74854785D01*
X51852812Y-74069071D02*
X51852812Y-75569071D01*
X52424241Y-75569071D02*
X52781384Y-74069071D01*
X52781384Y-74069071D02*
X53067098Y-75140500D01*
X53067098Y-75140500D02*
X53352813Y-74069071D01*
X53352813Y-74069071D02*
X53709956Y-75569071D01*
X54209956Y-74497642D02*
X54924242Y-74497642D01*
X54067099Y-74069071D02*
X54567099Y-75569071D01*
X54567099Y-75569071D02*
X55067099Y-74069071D01*
X56424241Y-74069071D02*
X55924241Y-74783357D01*
X55567098Y-74069071D02*
X55567098Y-75569071D01*
X55567098Y-75569071D02*
X56138527Y-75569071D01*
X56138527Y-75569071D02*
X56281384Y-75497642D01*
X56281384Y-75497642D02*
X56352813Y-75426214D01*
X56352813Y-75426214D02*
X56424241Y-75283357D01*
X56424241Y-75283357D02*
X56424241Y-75069071D01*
X56424241Y-75069071D02*
X56352813Y-74926214D01*
X56352813Y-74926214D02*
X56281384Y-74854785D01*
X56281384Y-74854785D02*
X56138527Y-74783357D01*
X56138527Y-74783357D02*
X55567098Y-74783357D01*
X56924241Y-75569071D02*
X57924241Y-75569071D01*
X57924241Y-75569071D02*
X56924241Y-74069071D01*
X56924241Y-74069071D02*
X57924241Y-74069071D01*
X59638526Y-74640500D02*
X60781384Y-74640500D01*
%LPC*%
D12*
G04 #@! TO.C,KiKit_MB_25_2*
X8375000Y-43833333D03*
G04 #@! TD*
G04 #@! TO.C,KiKit_MB_32_4*
X2732143Y-84000000D03*
G04 #@! TD*
G04 #@! TO.C,KiKit_MB_10_5*
X62326001Y-25000031D03*
G04 #@! TD*
G04 #@! TO.C,KiKit_MB_30_3*
X66625000Y-87666666D03*
G04 #@! TD*
G04 #@! TO.C,KiKit_MB_19_3*
X41625000Y-84000000D03*
G04 #@! TD*
G04 #@! TO.C,KiKit_MB_28_1*
X66625000Y0D03*
G04 #@! TD*
G04 #@! TO.C,KiKit_MB_19_4*
X40774500Y-84000000D03*
G04 #@! TD*
G04 #@! TO.C,KiKit_MB_23_4*
X24975498Y-70500195D03*
G04 #@! TD*
G04 #@! TO.C,KiKit_MB_6_5*
X22423998Y-20499837D03*
G04 #@! TD*
G04 #@! TO.C,KiKit_MB_4_4*
X61475502Y-7000042D03*
G04 #@! TD*
G04 #@! TO.C,KiKit_MB_8_4*
X42475502Y-25000254D03*
G04 #@! TD*
G04 #@! TO.C,KiKit_MB_17_2*
X23274498Y-52500173D03*
G04 #@! TD*
G04 #@! TO.C,KiKit_MB_13_1*
X43325999Y-66000000D03*
G04 #@! TD*
G04 #@! TO.C,KiKit_MB_14_2*
X40774502Y-51000274D03*
G04 #@! TD*
G04 #@! TO.C,KiKit_MB_18_2*
X24975498Y-64499804D03*
G04 #@! TD*
D13*
G04 #@! TO.C,KiKit_TO_4*
X72500000Y-88500000D03*
G04 #@! TD*
D12*
G04 #@! TO.C,KiKit_MB_29_4*
X8375000Y-88500000D03*
G04 #@! TD*
G04 #@! TO.C,KiKit_MB_34_6*
X73178571Y-84000000D03*
G04 #@! TD*
G04 #@! TO.C,KiKit_MB_30_5*
X66625000Y-89333333D03*
G04 #@! TD*
G04 #@! TO.C,KiKit_MB_11_5*
X25825998Y-26500206D03*
G04 #@! TD*
D14*
G04 #@! TO.C,0-J2*
X64875000Y-9250000D03*
G04 #@! TD*
G04 #@! TO.C,2-J3*
X64875000Y-56750000D03*
G04 #@! TD*
G04 #@! TO.C,3-J4*
X64875000Y-78250000D03*
G04 #@! TD*
D12*
G04 #@! TO.C,KiKit_MB_34_3*
X70446428Y-84000000D03*
G04 #@! TD*
D14*
G04 #@! TO.C,3-J5*
X64875000Y-81750000D03*
G04 #@! TD*
D12*
G04 #@! TO.C,KiKit_MB_17_5*
X25825998Y-52500206D03*
G04 #@! TD*
G04 #@! TO.C,KiKit_MB_29_2*
X8375000Y-86833333D03*
G04 #@! TD*
G04 #@! TO.C,KiKit_MB_8_2*
X40774502Y-25000274D03*
G04 #@! TD*
G04 #@! TO.C,KiKit_MB_5_3*
X24124998Y-8500185D03*
G04 #@! TD*
G04 #@! TO.C,KiKit_MB_22_2*
X59774502Y-69000060D03*
G04 #@! TD*
G04 #@! TO.C,KiKit_MB_28_6*
X66625000Y-4166667D03*
G04 #@! TD*
G04 #@! TO.C,KiKit_MB_30_6*
X66625000Y-90166666D03*
G04 #@! TD*
G04 #@! TO.C,KiKit_MB_32_3*
X1821429Y-84000000D03*
G04 #@! TD*
G04 #@! TO.C,KiKit_MB_18_4*
X23274498Y-64499826D03*
G04 #@! TD*
G04 #@! TO.C,KiKit_MB_19_2*
X42475499Y-84000000D03*
G04 #@! TD*
G04 #@! TO.C,KiKit_MB_7_2*
X42475499Y-40000000D03*
G04 #@! TD*
D14*
G04 #@! TO.C,3-J2*
X64875000Y-71250000D03*
G04 #@! TD*
D12*
G04 #@! TO.C,KiKit_MB_15_5*
X58924000Y-66000000D03*
G04 #@! TD*
G04 #@! TO.C,KiKit_MB_10_1*
X58924002Y-25000069D03*
G04 #@! TD*
G04 #@! TO.C,KiKit_MB_6_2*
X24975498Y-20499804D03*
G04 #@! TD*
G04 #@! TO.C,KiKit_MB_9_2*
X61475499Y-40000000D03*
G04 #@! TD*
G04 #@! TO.C,KiKit_MB_25_6*
X8375000Y-47166666D03*
G04 #@! TD*
G04 #@! TO.C,KiKit_MB_5_1*
X22423998Y-8500163D03*
G04 #@! TD*
G04 #@! TO.C,KiKit_MB_14_5*
X43326001Y-51000245D03*
G04 #@! TD*
G04 #@! TO.C,KiKit_MB_33_6*
X73178571Y-7000000D03*
G04 #@! TD*
G04 #@! TO.C,KiKit_MB_3_2*
X61475499Y-22000000D03*
G04 #@! TD*
G04 #@! TO.C,KiKit_MB_18_1*
X25825998Y-64499793D03*
G04 #@! TD*
G04 #@! TO.C,KiKit_MB_24_4*
X23274498Y-82499826D03*
G04 #@! TD*
G04 #@! TO.C,KiKit_MB_9_1*
X62325999Y-40000000D03*
G04 #@! TD*
G04 #@! TO.C,KiKit_MB_9_5*
X58924000Y-40000000D03*
G04 #@! TD*
G04 #@! TO.C,KiKit_MB_12_3*
X24124998Y-38499815D03*
G04 #@! TD*
G04 #@! TO.C,KiKit_MB_3_1*
X62325999Y-22000000D03*
G04 #@! TD*
G04 #@! TO.C,KiKit_MB_30_2*
X66625000Y-86833333D03*
G04 #@! TD*
D14*
G04 #@! TO.C,1-J5*
X64875000Y-37750000D03*
G04 #@! TD*
D12*
G04 #@! TO.C,KiKit_MB_33_5*
X72267857Y-7000000D03*
G04 #@! TD*
G04 #@! TO.C,KiKit_MB_1_4*
X40774500Y-22000000D03*
G04 #@! TD*
G04 #@! TO.C,KiKit_MB_1_5*
X39924000Y-22000000D03*
G04 #@! TD*
G04 #@! TO.C,KiKit_MB_29_7*
X8375000Y-91000000D03*
G04 #@! TD*
G04 #@! TO.C,KiKit_MB_33_4*
X71357142Y-7000000D03*
G04 #@! TD*
G04 #@! TO.C,KiKit_MB_13_4*
X40774500Y-66000000D03*
G04 #@! TD*
G04 #@! TO.C,KiKit_MB_7_1*
X43325999Y-40000000D03*
G04 #@! TD*
G04 #@! TO.C,KiKit_MB_16_2*
X59774502Y-51000060D03*
G04 #@! TD*
G04 #@! TO.C,KiKit_MB_26_2*
X66625000Y-43833333D03*
G04 #@! TD*
D14*
G04 #@! TO.C,3-J3*
X64875000Y-74750000D03*
G04 #@! TD*
G04 #@! TO.C,0-J4*
X64875000Y-16250000D03*
G04 #@! TD*
D12*
G04 #@! TO.C,KiKit_MB_25_1*
X8375000Y-43000000D03*
G04 #@! TD*
G04 #@! TO.C,KiKit_MB_31_4*
X2732143Y-7000000D03*
G04 #@! TD*
G04 #@! TO.C,KiKit_MB_15_3*
X60625000Y-66000000D03*
G04 #@! TD*
G04 #@! TO.C,KiKit_MB_31_8*
X6375000Y-7000000D03*
G04 #@! TD*
G04 #@! TO.C,KiKit_MB_23_3*
X24124998Y-70500184D03*
G04 #@! TD*
G04 #@! TO.C,KiKit_MB_27_4*
X8375000Y-2500000D03*
G04 #@! TD*
G04 #@! TO.C,KiKit_MB_25_7*
X8375000Y-48000000D03*
G04 #@! TD*
G04 #@! TO.C,KiKit_MB_26_7*
X66625000Y-48000000D03*
G04 #@! TD*
G04 #@! TO.C,KiKit_MB_34_1*
X68625000Y-84000000D03*
G04 #@! TD*
G04 #@! TO.C,KiKit_MB_31_7*
X5464286Y-7000000D03*
G04 #@! TD*
G04 #@! TO.C,KiKit_MB_11_3*
X24124998Y-26500184D03*
G04 #@! TD*
G04 #@! TO.C,KiKit_MB_34_5*
X72267857Y-84000000D03*
G04 #@! TD*
G04 #@! TO.C,KiKit_MB_7_4*
X40774500Y-40000000D03*
G04 #@! TD*
G04 #@! TO.C,KiKit_MB_22_4*
X61475502Y-69000041D03*
G04 #@! TD*
G04 #@! TO.C,KiKit_MB_27_2*
X8375000Y-833334D03*
G04 #@! TD*
G04 #@! TO.C,KiKit_MB_22_3*
X60625002Y-69000050D03*
G04 #@! TD*
G04 #@! TO.C,KiKit_MB_8_1*
X39924002Y-25000283D03*
G04 #@! TD*
G04 #@! TO.C,KiKit_MB_25_5*
X8375000Y-46333333D03*
G04 #@! TD*
G04 #@! TO.C,KiKit_MB_7_3*
X41625000Y-40000000D03*
G04 #@! TD*
G04 #@! TO.C,KiKit_MB_12_5*
X22423998Y-38499837D03*
G04 #@! TD*
G04 #@! TO.C,KiKit_MB_33_7*
X74089285Y-7000000D03*
G04 #@! TD*
G04 #@! TO.C,KiKit_MB_21_5*
X58924000Y-84000000D03*
G04 #@! TD*
G04 #@! TO.C,KiKit_MB_20_4*
X42475502Y-69000254D03*
G04 #@! TD*
G04 #@! TO.C,KiKit_MB_26_1*
X66625000Y-43000000D03*
G04 #@! TD*
G04 #@! TO.C,KiKit_MB_28_2*
X66625000Y-833334D03*
G04 #@! TD*
G04 #@! TO.C,KiKit_MB_28_5*
X66625000Y-3333334D03*
G04 #@! TD*
G04 #@! TO.C,KiKit_MB_10_2*
X59774502Y-25000060D03*
G04 #@! TD*
G04 #@! TO.C,KiKit_MB_14_4*
X42475502Y-51000254D03*
G04 #@! TD*
G04 #@! TO.C,KiKit_MB_28_4*
X66625000Y-2500000D03*
G04 #@! TD*
G04 #@! TO.C,KiKit_MB_21_3*
X60625000Y-84000000D03*
G04 #@! TD*
G04 #@! TO.C,KiKit_MB_26_3*
X66625000Y-44666666D03*
G04 #@! TD*
G04 #@! TO.C,KiKit_MB_27_1*
X8375000Y0D03*
G04 #@! TD*
G04 #@! TO.C,KiKit_MB_22_1*
X58924002Y-69000069D03*
G04 #@! TD*
G04 #@! TO.C,KiKit_MB_15_2*
X61475499Y-66000000D03*
G04 #@! TD*
G04 #@! TO.C,KiKit_MB_23_2*
X23274498Y-70500173D03*
G04 #@! TD*
G04 #@! TO.C,KiKit_MB_30_1*
X66625000Y-86000000D03*
G04 #@! TD*
G04 #@! TO.C,KiKit_MB_22_5*
X62326001Y-69000031D03*
G04 #@! TD*
G04 #@! TO.C,KiKit_MB_4_3*
X60625002Y-7000051D03*
G04 #@! TD*
D13*
G04 #@! TO.C,KiKit_TO_3*
X2500000Y-88500000D03*
G04 #@! TD*
D12*
G04 #@! TO.C,KiKit_MB_20_2*
X40774502Y-69000274D03*
G04 #@! TD*
G04 #@! TO.C,KiKit_MB_29_3*
X8375000Y-87666666D03*
G04 #@! TD*
G04 #@! TO.C,KiKit_MB_26_4*
X66625000Y-45500000D03*
G04 #@! TD*
G04 #@! TO.C,KiKit_MB_11_1*
X22423998Y-26500162D03*
G04 #@! TD*
G04 #@! TO.C,KiKit_MB_25_4*
X8375000Y-45500000D03*
G04 #@! TD*
G04 #@! TO.C,KiKit_MB_18_5*
X22423998Y-64499837D03*
G04 #@! TD*
G04 #@! TO.C,KiKit_MB_29_5*
X8375000Y-89333333D03*
G04 #@! TD*
G04 #@! TO.C,KiKit_MB_31_6*
X4553572Y-7000000D03*
G04 #@! TD*
G04 #@! TO.C,KiKit_MB_2_4*
X42475502Y-7000255D03*
G04 #@! TD*
G04 #@! TO.C,KiKit_MB_13_3*
X41625000Y-66000000D03*
G04 #@! TD*
G04 #@! TO.C,KiKit_MB_1_2*
X42475499Y-22000000D03*
G04 #@! TD*
G04 #@! TO.C,KiKit_MB_34_4*
X71357142Y-84000000D03*
G04 #@! TD*
G04 #@! TO.C,KiKit_MB_25_3*
X8375000Y-44666666D03*
G04 #@! TD*
G04 #@! TO.C,KiKit_MB_3_3*
X60625000Y-22000000D03*
G04 #@! TD*
G04 #@! TO.C,KiKit_MB_20_3*
X41625002Y-69000264D03*
G04 #@! TD*
G04 #@! TO.C,KiKit_MB_32_8*
X6375000Y-84000000D03*
G04 #@! TD*
G04 #@! TO.C,KiKit_MB_26_6*
X66625000Y-47166666D03*
G04 #@! TD*
G04 #@! TO.C,KiKit_MB_12_4*
X23274498Y-38499826D03*
G04 #@! TD*
D14*
G04 #@! TO.C,1-J4*
X64875000Y-34250000D03*
G04 #@! TD*
D12*
G04 #@! TO.C,KiKit_MB_23_1*
X22423998Y-70500162D03*
G04 #@! TD*
G04 #@! TO.C,KiKit_MB_4_1*
X58924002Y-7000070D03*
G04 #@! TD*
D14*
G04 #@! TO.C,2-J2*
X64875000Y-53250000D03*
G04 #@! TD*
G04 #@! TO.C,0-J5*
X64875000Y-19750000D03*
G04 #@! TD*
D12*
G04 #@! TO.C,KiKit_MB_7_5*
X39924000Y-40000000D03*
G04 #@! TD*
G04 #@! TO.C,KiKit_MB_10_4*
X61475502Y-25000041D03*
G04 #@! TD*
G04 #@! TO.C,KiKit_MB_19_5*
X39924000Y-84000000D03*
G04 #@! TD*
G04 #@! TO.C,KiKit_MB_28_7*
X66625000Y-5000000D03*
G04 #@! TD*
G04 #@! TO.C,KiKit_MB_2_2*
X40774502Y-7000275D03*
G04 #@! TD*
G04 #@! TO.C,KiKit_MB_31_3*
X1821429Y-7000000D03*
G04 #@! TD*
G04 #@! TO.C,KiKit_MB_30_7*
X66625000Y-91000000D03*
G04 #@! TD*
G04 #@! TO.C,KiKit_MB_26_5*
X66625000Y-46333333D03*
G04 #@! TD*
G04 #@! TO.C,KiKit_MB_1_1*
X43325999Y-22000000D03*
G04 #@! TD*
G04 #@! TO.C,KiKit_MB_30_4*
X66625000Y-88500000D03*
G04 #@! TD*
G04 #@! TO.C,KiKit_MB_28_3*
X66625000Y-1666667D03*
G04 #@! TD*
G04 #@! TO.C,KiKit_MB_31_2*
X910715Y-7000000D03*
G04 #@! TD*
G04 #@! TO.C,KiKit_MB_32_5*
X3642858Y-84000000D03*
G04 #@! TD*
G04 #@! TO.C,KiKit_MB_27_3*
X8375000Y-1666667D03*
G04 #@! TD*
G04 #@! TO.C,KiKit_MB_12_1*
X25825998Y-38499793D03*
G04 #@! TD*
G04 #@! TO.C,KiKit_MB_5_4*
X24975498Y-8500196D03*
G04 #@! TD*
G04 #@! TO.C,KiKit_MB_21_4*
X59774500Y-84000000D03*
G04 #@! TD*
G04 #@! TO.C,KiKit_MB_6_3*
X24124998Y-20499815D03*
G04 #@! TD*
G04 #@! TO.C,KiKit_MB_8_5*
X43326001Y-25000245D03*
G04 #@! TD*
G04 #@! TO.C,KiKit_MB_2_5*
X43326001Y-7000246D03*
G04 #@! TD*
G04 #@! TO.C,KiKit_MB_21_1*
X62325999Y-84000000D03*
G04 #@! TD*
G04 #@! TO.C,KiKit_MB_6_1*
X25825998Y-20499793D03*
G04 #@! TD*
G04 #@! TO.C,KiKit_MB_19_1*
X43325999Y-84000000D03*
G04 #@! TD*
G04 #@! TO.C,KiKit_MB_8_3*
X41625002Y-25000264D03*
G04 #@! TD*
G04 #@! TO.C,KiKit_MB_1_3*
X41625000Y-22000000D03*
G04 #@! TD*
G04 #@! TO.C,KiKit_MB_27_7*
X8375000Y-5000000D03*
G04 #@! TD*
G04 #@! TO.C,KiKit_MB_18_3*
X24124998Y-64499815D03*
G04 #@! TD*
G04 #@! TO.C,KiKit_MB_32_1*
X0Y-84000000D03*
G04 #@! TD*
G04 #@! TO.C,KiKit_MB_13_5*
X39924000Y-66000000D03*
G04 #@! TD*
G04 #@! TO.C,KiKit_MB_32_7*
X5464286Y-84000000D03*
G04 #@! TD*
G04 #@! TO.C,KiKit_MB_16_1*
X58924002Y-51000069D03*
G04 #@! TD*
G04 #@! TO.C,KiKit_MB_4_5*
X62326001Y-7000032D03*
G04 #@! TD*
G04 #@! TO.C,KiKit_MB_20_1*
X39924002Y-69000283D03*
G04 #@! TD*
G04 #@! TO.C,KiKit_MB_15_4*
X59774500Y-66000000D03*
G04 #@! TD*
G04 #@! TO.C,KiKit_MB_10_3*
X60625002Y-25000050D03*
G04 #@! TD*
G04 #@! TO.C,KiKit_MB_13_2*
X42475499Y-66000000D03*
G04 #@! TD*
G04 #@! TO.C,KiKit_MB_27_5*
X8375000Y-3333334D03*
G04 #@! TD*
G04 #@! TO.C,KiKit_MB_2_1*
X39924002Y-7000284D03*
G04 #@! TD*
G04 #@! TO.C,KiKit_MB_34_7*
X74089285Y-84000000D03*
G04 #@! TD*
G04 #@! TO.C,KiKit_MB_5_5*
X25825998Y-8500207D03*
G04 #@! TD*
G04 #@! TO.C,KiKit_MB_24_5*
X22423998Y-82499837D03*
G04 #@! TD*
G04 #@! TO.C,KiKit_MB_16_3*
X60625002Y-51000050D03*
G04 #@! TD*
G04 #@! TO.C,KiKit_MB_9_4*
X59774500Y-40000000D03*
G04 #@! TD*
D13*
G04 #@! TO.C,KiKit_TO_1*
X2500000Y-2500000D03*
G04 #@! TD*
D12*
G04 #@! TO.C,KiKit_MB_3_5*
X58924000Y-22000000D03*
G04 #@! TD*
D14*
G04 #@! TO.C,0-J3*
X64875000Y-12750000D03*
G04 #@! TD*
D12*
G04 #@! TO.C,KiKit_MB_15_1*
X62325999Y-66000000D03*
G04 #@! TD*
G04 #@! TO.C,KiKit_MB_23_5*
X25825998Y-70500206D03*
G04 #@! TD*
G04 #@! TO.C,KiKit_MB_32_2*
X910715Y-84000000D03*
G04 #@! TD*
G04 #@! TO.C,KiKit_MB_16_4*
X61475502Y-51000041D03*
G04 #@! TD*
G04 #@! TO.C,KiKit_MB_4_2*
X59774502Y-7000061D03*
G04 #@! TD*
G04 #@! TO.C,KiKit_MB_21_2*
X61475499Y-84000000D03*
G04 #@! TD*
G04 #@! TO.C,KiKit_MB_34_2*
X69535714Y-84000000D03*
G04 #@! TD*
G04 #@! TO.C,KiKit_MB_24_2*
X24975498Y-82499804D03*
G04 #@! TD*
G04 #@! TO.C,KiKit_MB_12_2*
X24975498Y-38499804D03*
G04 #@! TD*
G04 #@! TO.C,KiKit_MB_24_3*
X24124998Y-82499815D03*
G04 #@! TD*
G04 #@! TO.C,KiKit_MB_34_8*
X75000000Y-84000000D03*
G04 #@! TD*
G04 #@! TO.C,KiKit_MB_17_1*
X22423998Y-52500162D03*
G04 #@! TD*
G04 #@! TO.C,KiKit_MB_5_2*
X23274498Y-8500174D03*
G04 #@! TD*
G04 #@! TO.C,KiKit_MB_27_6*
X8375000Y-4166667D03*
G04 #@! TD*
G04 #@! TO.C,KiKit_MB_17_3*
X24124998Y-52500184D03*
G04 #@! TD*
G04 #@! TO.C,KiKit_MB_9_3*
X60625000Y-40000000D03*
G04 #@! TD*
G04 #@! TO.C,KiKit_MB_31_5*
X3642858Y-7000000D03*
G04 #@! TD*
G04 #@! TO.C,KiKit_MB_16_5*
X62326001Y-51000031D03*
G04 #@! TD*
G04 #@! TO.C,KiKit_MB_33_1*
X68625000Y-7000000D03*
G04 #@! TD*
G04 #@! TO.C,KiKit_MB_6_4*
X23274498Y-20499826D03*
G04 #@! TD*
G04 #@! TO.C,KiKit_MB_31_1*
X0Y-7000000D03*
G04 #@! TD*
D14*
G04 #@! TO.C,1-J2*
X64875000Y-27250000D03*
G04 #@! TD*
D12*
G04 #@! TO.C,KiKit_MB_11_2*
X23274498Y-26500173D03*
G04 #@! TD*
G04 #@! TO.C,KiKit_MB_29_1*
X8375000Y-86000000D03*
G04 #@! TD*
G04 #@! TO.C,KiKit_MB_2_3*
X41625002Y-7000265D03*
G04 #@! TD*
G04 #@! TO.C,KiKit_MB_11_4*
X24975498Y-26500195D03*
G04 #@! TD*
D14*
G04 #@! TO.C,1-J3*
X64875000Y-30750000D03*
G04 #@! TD*
G04 #@! TO.C,2-J5*
X64875000Y-63750000D03*
G04 #@! TD*
D12*
G04 #@! TO.C,KiKit_MB_17_4*
X24975498Y-52500195D03*
G04 #@! TD*
G04 #@! TO.C,KiKit_MB_24_1*
X25825998Y-82499793D03*
G04 #@! TD*
D13*
G04 #@! TO.C,KiKit_TO_2*
X72500000Y-2500000D03*
G04 #@! TD*
D12*
G04 #@! TO.C,KiKit_MB_20_5*
X43326001Y-69000245D03*
G04 #@! TD*
G04 #@! TO.C,KiKit_MB_14_1*
X39924002Y-51000283D03*
G04 #@! TD*
D14*
G04 #@! TO.C,2-J4*
X64875000Y-60250000D03*
G04 #@! TD*
D12*
G04 #@! TO.C,KiKit_MB_33_3*
X70446428Y-7000000D03*
G04 #@! TD*
G04 #@! TO.C,KiKit_MB_32_6*
X4553572Y-84000000D03*
G04 #@! TD*
G04 #@! TO.C,KiKit_MB_33_8*
X75000000Y-7000000D03*
G04 #@! TD*
G04 #@! TO.C,KiKit_MB_3_4*
X59774500Y-22000000D03*
G04 #@! TD*
G04 #@! TO.C,KiKit_MB_14_3*
X41625002Y-51000264D03*
G04 #@! TD*
G04 #@! TO.C,KiKit_MB_33_2*
X69535714Y-7000000D03*
G04 #@! TD*
G04 #@! TO.C,KiKit_MB_29_6*
X8375000Y-90166666D03*
G04 #@! TD*
D14*
G04 #@! TO.C,KiKit_FID_B_1*
X4500000Y-4500000D03*
G04 #@! TD*
G04 #@! TO.C,KiKit_FID_B_3*
X4500000Y-86500000D03*
G04 #@! TD*
G04 #@! TO.C,KiKit_FID_B_4*
X70500000Y-86500000D03*
G04 #@! TD*
G04 #@! TO.C,KiKit_FID_B_2*
X70500000Y-4500000D03*
G04 #@! TD*
%LPD*%
M02*
