G04 #@! TF.GenerationSoftware,KiCad,Pcbnew,8.0.1*
G04 #@! TF.CreationDate,2025-03-12T15:21:45+01:00*
G04 #@! TF.ProjectId,panel_E,70616e65-6c5f-4452-9e6b-696361645f70,E*
G04 #@! TF.SameCoordinates,Original*
G04 #@! TF.FileFunction,Paste,Top*
G04 #@! TF.FilePolarity,Positive*
%FSLAX46Y46*%
G04 Gerber Fmt 4.6, Leading zero omitted, Abs format (unit mm)*
G04 Created by KiCad (PCBNEW 8.0.1) date 2025-03-12 15:21:45*
%MOMM*%
%LPD*%
G01*
G04 APERTURE LIST*
G04 Aperture macros list*
%AMRoundRect*
0 Rectangle with rounded corners*
0 $1 Rounding radius*
0 $2 $3 $4 $5 $6 $7 $8 $9 X,Y pos of 4 corners*
0 Add a 4 corners polygon primitive as box body*
4,1,4,$2,$3,$4,$5,$6,$7,$8,$9,$2,$3,0*
0 Add four circle primitives for the rounded corners*
1,1,$1+$1,$2,$3*
1,1,$1+$1,$4,$5*
1,1,$1+$1,$6,$7*
1,1,$1+$1,$8,$9*
0 Add four rect primitives between the rounded corners*
20,1,$1+$1,$2,$3,$4,$5,0*
20,1,$1+$1,$4,$5,$6,$7,0*
20,1,$1+$1,$6,$7,$8,$9,0*
20,1,$1+$1,$8,$9,$2,$3,0*%
G04 Aperture macros list end*
%ADD10RoundRect,0.225000X0.225000X0.250000X-0.225000X0.250000X-0.225000X-0.250000X0.225000X-0.250000X0*%
%ADD11R,0.750000X1.000000*%
%ADD12RoundRect,0.200000X0.275000X-0.200000X0.275000X0.200000X-0.275000X0.200000X-0.275000X-0.200000X0*%
%ADD13RoundRect,0.225000X0.250000X-0.225000X0.250000X0.225000X-0.250000X0.225000X-0.250000X-0.225000X0*%
%ADD14RoundRect,0.200000X-0.200000X-0.275000X0.200000X-0.275000X0.200000X0.275000X-0.200000X0.275000X0*%
%ADD15RoundRect,0.225000X-0.250000X0.225000X-0.250000X-0.225000X0.250000X-0.225000X0.250000X0.225000X0*%
%ADD16RoundRect,0.218750X0.218750X0.256250X-0.218750X0.256250X-0.218750X-0.256250X0.218750X-0.256250X0*%
%ADD17RoundRect,0.225000X-0.225000X-0.250000X0.225000X-0.250000X0.225000X0.250000X-0.225000X0.250000X0*%
%ADD18RoundRect,0.112500X-0.187500X-0.112500X0.187500X-0.112500X0.187500X0.112500X-0.187500X0.112500X0*%
%ADD19RoundRect,0.112500X0.112500X-0.187500X0.112500X0.187500X-0.112500X0.187500X-0.112500X-0.187500X0*%
%ADD20R,0.800000X2.700000*%
%ADD21RoundRect,0.150000X0.512500X0.150000X-0.512500X0.150000X-0.512500X-0.150000X0.512500X-0.150000X0*%
%ADD22RoundRect,0.150000X0.150000X-0.512500X0.150000X0.512500X-0.150000X0.512500X-0.150000X-0.512500X0*%
%ADD23RoundRect,0.150000X-0.150000X0.512500X-0.150000X-0.512500X0.150000X-0.512500X0.150000X0.512500X0*%
%ADD24RoundRect,0.200000X-0.275000X0.200000X-0.275000X-0.200000X0.275000X-0.200000X0.275000X0.200000X0*%
%ADD25RoundRect,0.200000X0.200000X0.275000X-0.200000X0.275000X-0.200000X-0.275000X0.200000X-0.275000X0*%
%ADD26RoundRect,0.150000X-0.512500X-0.150000X0.512500X-0.150000X0.512500X0.150000X-0.512500X0.150000X0*%
%ADD27RoundRect,0.112500X-0.112500X0.187500X-0.112500X-0.187500X0.112500X-0.187500X0.112500X0.187500X0*%
G04 APERTURE END LIST*
D10*
G04 #@! TO.C,1-C5*
X51150000Y-31500000D03*
X49600000Y-31500000D03*
G04 #@! TD*
D11*
G04 #@! TO.C,3-SW1*
X27250000Y-73500000D03*
X27250000Y-79500000D03*
X23500000Y-73500000D03*
X23500000Y-79500000D03*
G04 #@! TD*
D12*
G04 #@! TO.C,3-R7*
X45125000Y-82525000D03*
X45125000Y-80875000D03*
G04 #@! TD*
D13*
G04 #@! TO.C,3-C6*
X43375000Y-79275000D03*
X43375000Y-77725000D03*
G04 #@! TD*
D14*
G04 #@! TO.C,2-R4*
X53350000Y-58250000D03*
X55000000Y-58250000D03*
G04 #@! TD*
D10*
G04 #@! TO.C,2-C7*
X47150000Y-56500000D03*
X45600000Y-56500000D03*
G04 #@! TD*
D15*
G04 #@! TO.C,0-C4*
X48625000Y-18925000D03*
X48625000Y-20475000D03*
G04 #@! TD*
G04 #@! TO.C,1-C2*
X37875000Y-36225000D03*
X37875000Y-37775000D03*
G04 #@! TD*
D12*
G04 #@! TO.C,2-R9*
X43375000Y-58325000D03*
X43375000Y-56675000D03*
G04 #@! TD*
D16*
G04 #@! TO.C,3-D2*
X26162500Y-81000000D03*
X24587500Y-81000000D03*
G04 #@! TD*
D10*
G04 #@! TO.C,0-C5*
X51150000Y-13500000D03*
X49600000Y-13500000D03*
G04 #@! TD*
D17*
G04 #@! TO.C,2-C3*
X45600000Y-60200000D03*
X47150000Y-60200000D03*
G04 #@! TD*
D11*
G04 #@! TO.C,1-SW1*
X27250000Y-29500000D03*
X27250000Y-35500000D03*
X23500000Y-29500000D03*
X23500000Y-35500000D03*
G04 #@! TD*
D18*
G04 #@! TO.C,0-D4*
X45325000Y-14250000D03*
X47425000Y-14250000D03*
G04 #@! TD*
D19*
G04 #@! TO.C,2-D5*
X50375000Y-64800000D03*
X50375000Y-62700000D03*
G04 #@! TD*
D12*
G04 #@! TO.C,3-R8*
X46875000Y-82525000D03*
X46875000Y-80875000D03*
G04 #@! TD*
D20*
G04 #@! TO.C,3-L2*
X51525000Y-72750000D03*
X49225000Y-72750000D03*
G04 #@! TD*
D16*
G04 #@! TO.C,0-D2*
X26162500Y-19000000D03*
X24587500Y-19000000D03*
G04 #@! TD*
D18*
G04 #@! TO.C,2-D4*
X45325000Y-58250000D03*
X47425000Y-58250000D03*
G04 #@! TD*
D12*
G04 #@! TO.C,1-R7*
X45125000Y-38525000D03*
X45125000Y-36875000D03*
G04 #@! TD*
D21*
G04 #@! TO.C,3-U5*
X42650000Y-72950000D03*
X42650000Y-72000000D03*
X42650000Y-71050000D03*
X40375000Y-71050000D03*
X40375000Y-72000000D03*
X40375000Y-72950000D03*
G04 #@! TD*
D20*
G04 #@! TO.C,3-L1*
X60525000Y-81500000D03*
X58225000Y-81500000D03*
G04 #@! TD*
D12*
G04 #@! TO.C,1-R8*
X46875000Y-38525000D03*
X46875000Y-36875000D03*
G04 #@! TD*
G04 #@! TO.C,3-R5*
X38375000Y-72825000D03*
X38375000Y-71175000D03*
G04 #@! TD*
G04 #@! TO.C,2-R8*
X46875000Y-64525000D03*
X46875000Y-62875000D03*
G04 #@! TD*
G04 #@! TO.C,2-R7*
X45125000Y-64525000D03*
X45125000Y-62875000D03*
G04 #@! TD*
D22*
G04 #@! TO.C,3-Q1*
X57675000Y-73887500D03*
X58625000Y-73887500D03*
X59575000Y-73887500D03*
X59575000Y-71612500D03*
X58625000Y-71612500D03*
X57675000Y-71612500D03*
G04 #@! TD*
D12*
G04 #@! TO.C,3-R11*
X59875000Y-78075000D03*
X59875000Y-76425000D03*
G04 #@! TD*
D23*
G04 #@! TO.C,0-U1*
X55325000Y-9612500D03*
X54375000Y-9612500D03*
X53425000Y-9612500D03*
X53425000Y-11887500D03*
X54375000Y-11887500D03*
X55325000Y-11887500D03*
G04 #@! TD*
D17*
G04 #@! TO.C,3-C1*
X56600000Y-76250000D03*
X58150000Y-76250000D03*
G04 #@! TD*
D10*
G04 #@! TO.C,2-C5*
X51150000Y-57500000D03*
X49600000Y-57500000D03*
G04 #@! TD*
D23*
G04 #@! TO.C,0-U2*
X41575000Y-17862500D03*
X40625000Y-17862500D03*
X39675000Y-17862500D03*
X39675000Y-20137500D03*
X41575000Y-20137500D03*
G04 #@! TD*
D24*
G04 #@! TO.C,0-R10*
X62375000Y-18675000D03*
X62375000Y-20325000D03*
G04 #@! TD*
D25*
G04 #@! TO.C,3-R6*
X58200000Y-78000000D03*
X56550000Y-78000000D03*
G04 #@! TD*
D12*
G04 #@! TO.C,2-R1*
X37875000Y-59100000D03*
X37875000Y-57450000D03*
G04 #@! TD*
D25*
G04 #@! TO.C,1-R3*
X55000000Y-34000000D03*
X53350000Y-34000000D03*
G04 #@! TD*
D12*
G04 #@! TO.C,1-R5*
X38375000Y-28825000D03*
X38375000Y-27175000D03*
G04 #@! TD*
G04 #@! TO.C,1-R1*
X37875000Y-33100000D03*
X37875000Y-31450000D03*
G04 #@! TD*
D18*
G04 #@! TO.C,1-D4*
X45325000Y-32250000D03*
X47425000Y-32250000D03*
G04 #@! TD*
D22*
G04 #@! TO.C,0-Q1*
X57675000Y-11887500D03*
X58625000Y-11887500D03*
X59575000Y-11887500D03*
X59575000Y-9612500D03*
X58625000Y-9612500D03*
X57675000Y-9612500D03*
G04 #@! TD*
G04 #@! TO.C,0-U7*
X39675000Y-15337500D03*
X40625000Y-15337500D03*
X41575000Y-15337500D03*
X41575000Y-13062500D03*
X39675000Y-13062500D03*
G04 #@! TD*
D20*
G04 #@! TO.C,0-L2*
X51525000Y-10750000D03*
X49225000Y-10750000D03*
G04 #@! TD*
D22*
G04 #@! TO.C,2-U6*
X54575000Y-64400000D03*
X55525000Y-64400000D03*
X56475000Y-64400000D03*
X56475000Y-62125000D03*
X54575000Y-62125000D03*
G04 #@! TD*
D12*
G04 #@! TO.C,0-R2*
X43375000Y-20500000D03*
X43375000Y-18850000D03*
G04 #@! TD*
D14*
G04 #@! TO.C,1-R4*
X53350000Y-32250000D03*
X55000000Y-32250000D03*
G04 #@! TD*
G04 #@! TO.C,0-R4*
X53350000Y-14250000D03*
X55000000Y-14250000D03*
G04 #@! TD*
D12*
G04 #@! TO.C,0-R1*
X37875000Y-15100000D03*
X37875000Y-13450000D03*
G04 #@! TD*
D23*
G04 #@! TO.C,1-U1*
X55325000Y-27612500D03*
X54375000Y-27612500D03*
X53425000Y-27612500D03*
X53425000Y-29887500D03*
X54375000Y-29887500D03*
X55325000Y-29887500D03*
G04 #@! TD*
D15*
G04 #@! TO.C,1-C4*
X48625000Y-36925000D03*
X48625000Y-38475000D03*
G04 #@! TD*
D19*
G04 #@! TO.C,1-D5*
X50375000Y-38800000D03*
X50375000Y-36700000D03*
G04 #@! TD*
D22*
G04 #@! TO.C,2-Q1*
X57675000Y-55887500D03*
X58625000Y-55887500D03*
X59575000Y-55887500D03*
X59575000Y-53612500D03*
X58625000Y-53612500D03*
X57675000Y-53612500D03*
G04 #@! TD*
D23*
G04 #@! TO.C,3-U1*
X55325000Y-71612500D03*
X54375000Y-71612500D03*
X53425000Y-71612500D03*
X53425000Y-73887500D03*
X54375000Y-73887500D03*
X55325000Y-73887500D03*
G04 #@! TD*
D17*
G04 #@! TO.C,0-C1*
X56600000Y-14250000D03*
X58150000Y-14250000D03*
G04 #@! TD*
D12*
G04 #@! TO.C,2-R5*
X38375000Y-54825000D03*
X38375000Y-53175000D03*
G04 #@! TD*
D18*
G04 #@! TO.C,3-D4*
X45325000Y-76250000D03*
X47425000Y-76250000D03*
G04 #@! TD*
D12*
G04 #@! TO.C,2-R2*
X43375000Y-64500000D03*
X43375000Y-62850000D03*
G04 #@! TD*
G04 #@! TO.C,0-R7*
X45125000Y-20525000D03*
X45125000Y-18875000D03*
G04 #@! TD*
D10*
G04 #@! TO.C,0-C7*
X47150000Y-12500000D03*
X45600000Y-12500000D03*
G04 #@! TD*
D25*
G04 #@! TO.C,2-R6*
X58200000Y-60000000D03*
X56550000Y-60000000D03*
G04 #@! TD*
D26*
G04 #@! TO.C,3-U3*
X49237500Y-77300000D03*
X49237500Y-78250000D03*
X49237500Y-79200000D03*
X51512500Y-79200000D03*
X51512500Y-77300000D03*
G04 #@! TD*
D21*
G04 #@! TO.C,1-U4*
X47262500Y-28950000D03*
X47262500Y-28000000D03*
X47262500Y-27050000D03*
X44987500Y-27050000D03*
X44987500Y-28000000D03*
X44987500Y-28950000D03*
G04 #@! TD*
D22*
G04 #@! TO.C,3-U6*
X54575000Y-82400000D03*
X55525000Y-82400000D03*
X56475000Y-82400000D03*
X56475000Y-80125000D03*
X54575000Y-80125000D03*
G04 #@! TD*
D21*
G04 #@! TO.C,0-U4*
X47262500Y-10950000D03*
X47262500Y-10000000D03*
X47262500Y-9050000D03*
X44987500Y-9050000D03*
X44987500Y-10000000D03*
X44987500Y-10950000D03*
G04 #@! TD*
D12*
G04 #@! TO.C,1-R11*
X59875000Y-34075000D03*
X59875000Y-32425000D03*
G04 #@! TD*
D26*
G04 #@! TO.C,1-U3*
X49237500Y-33300000D03*
X49237500Y-34250000D03*
X49237500Y-35200000D03*
X51512500Y-35200000D03*
X51512500Y-33300000D03*
G04 #@! TD*
D12*
G04 #@! TO.C,1-R9*
X43375000Y-32325000D03*
X43375000Y-30675000D03*
G04 #@! TD*
D16*
G04 #@! TO.C,2-D2*
X26162500Y-63000000D03*
X24587500Y-63000000D03*
G04 #@! TD*
D17*
G04 #@! TO.C,3-C3*
X45600000Y-78200000D03*
X47150000Y-78200000D03*
G04 #@! TD*
D12*
G04 #@! TO.C,1-R2*
X43375000Y-38500000D03*
X43375000Y-36850000D03*
G04 #@! TD*
D17*
G04 #@! TO.C,2-C1*
X56600000Y-58250000D03*
X58150000Y-58250000D03*
G04 #@! TD*
D12*
G04 #@! TO.C,2-R11*
X59875000Y-60075000D03*
X59875000Y-58425000D03*
G04 #@! TD*
D20*
G04 #@! TO.C,1-L1*
X60525000Y-37500000D03*
X58225000Y-37500000D03*
G04 #@! TD*
D14*
G04 #@! TO.C,3-R4*
X53350000Y-76250000D03*
X55000000Y-76250000D03*
G04 #@! TD*
D13*
G04 #@! TO.C,2-C6*
X43375000Y-61275000D03*
X43375000Y-59725000D03*
G04 #@! TD*
D20*
G04 #@! TO.C,0-L1*
X60525000Y-19500000D03*
X58225000Y-19500000D03*
G04 #@! TD*
D23*
G04 #@! TO.C,2-U1*
X55325000Y-53612500D03*
X54375000Y-53612500D03*
X53425000Y-53612500D03*
X53425000Y-55887500D03*
X54375000Y-55887500D03*
X55325000Y-55887500D03*
G04 #@! TD*
G04 #@! TO.C,1-U2*
X41575000Y-35862500D03*
X40625000Y-35862500D03*
X39675000Y-35862500D03*
X39675000Y-38137500D03*
X41575000Y-38137500D03*
G04 #@! TD*
D11*
G04 #@! TO.C,2-SW1*
X27250000Y-55500000D03*
X27250000Y-61500000D03*
X23500000Y-55500000D03*
X23500000Y-61500000D03*
G04 #@! TD*
D25*
G04 #@! TO.C,3-R3*
X55000000Y-78000000D03*
X53350000Y-78000000D03*
G04 #@! TD*
D23*
G04 #@! TO.C,3-U2*
X41575000Y-79862500D03*
X40625000Y-79862500D03*
X39675000Y-79862500D03*
X39675000Y-82137500D03*
X41575000Y-82137500D03*
G04 #@! TD*
D16*
G04 #@! TO.C,1-D2*
X26162500Y-37000000D03*
X24587500Y-37000000D03*
G04 #@! TD*
D12*
G04 #@! TO.C,3-R1*
X37875000Y-77100000D03*
X37875000Y-75450000D03*
G04 #@! TD*
D21*
G04 #@! TO.C,0-U5*
X42650000Y-10950000D03*
X42650000Y-10000000D03*
X42650000Y-9050000D03*
X40375000Y-9050000D03*
X40375000Y-10000000D03*
X40375000Y-10950000D03*
G04 #@! TD*
D12*
G04 #@! TO.C,3-R2*
X43375000Y-82500000D03*
X43375000Y-80850000D03*
G04 #@! TD*
D21*
G04 #@! TO.C,3-U4*
X47262500Y-72950000D03*
X47262500Y-72000000D03*
X47262500Y-71050000D03*
X44987500Y-71050000D03*
X44987500Y-72000000D03*
X44987500Y-72950000D03*
G04 #@! TD*
D26*
G04 #@! TO.C,0-U3*
X49237500Y-15300000D03*
X49237500Y-16250000D03*
X49237500Y-17200000D03*
X51512500Y-17200000D03*
X51512500Y-15300000D03*
G04 #@! TD*
D22*
G04 #@! TO.C,1-Q1*
X57675000Y-29887500D03*
X58625000Y-29887500D03*
X59575000Y-29887500D03*
X59575000Y-27612500D03*
X58625000Y-27612500D03*
X57675000Y-27612500D03*
G04 #@! TD*
D15*
G04 #@! TO.C,3-C4*
X48625000Y-80925000D03*
X48625000Y-82475000D03*
G04 #@! TD*
D21*
G04 #@! TO.C,1-U5*
X42650000Y-28950000D03*
X42650000Y-28000000D03*
X42650000Y-27050000D03*
X40375000Y-27050000D03*
X40375000Y-28000000D03*
X40375000Y-28950000D03*
G04 #@! TD*
D12*
G04 #@! TO.C,0-R5*
X38375000Y-10825000D03*
X38375000Y-9175000D03*
G04 #@! TD*
D21*
G04 #@! TO.C,2-U5*
X42650000Y-54950000D03*
X42650000Y-54000000D03*
X42650000Y-53050000D03*
X40375000Y-53050000D03*
X40375000Y-54000000D03*
X40375000Y-54950000D03*
G04 #@! TD*
D17*
G04 #@! TO.C,0-C3*
X45600000Y-16200000D03*
X47150000Y-16200000D03*
G04 #@! TD*
D23*
G04 #@! TO.C,2-U2*
X41575000Y-61862500D03*
X40625000Y-61862500D03*
X39675000Y-61862500D03*
X39675000Y-64137500D03*
X41575000Y-64137500D03*
G04 #@! TD*
D25*
G04 #@! TO.C,0-R6*
X58200000Y-16000000D03*
X56550000Y-16000000D03*
G04 #@! TD*
D19*
G04 #@! TO.C,0-D5*
X50375000Y-20800000D03*
X50375000Y-18700000D03*
G04 #@! TD*
D12*
G04 #@! TO.C,3-R9*
X43375000Y-76325000D03*
X43375000Y-74675000D03*
G04 #@! TD*
D15*
G04 #@! TO.C,3-C2*
X37875000Y-80225000D03*
X37875000Y-81775000D03*
G04 #@! TD*
D22*
G04 #@! TO.C,1-U7*
X39675000Y-33337500D03*
X40625000Y-33337500D03*
X41575000Y-33337500D03*
X41575000Y-31062500D03*
X39675000Y-31062500D03*
G04 #@! TD*
G04 #@! TO.C,0-U6*
X54575000Y-20400000D03*
X55525000Y-20400000D03*
X56475000Y-20400000D03*
X56475000Y-18125000D03*
X54575000Y-18125000D03*
G04 #@! TD*
G04 #@! TO.C,1-U6*
X54575000Y-38400000D03*
X55525000Y-38400000D03*
X56475000Y-38400000D03*
X56475000Y-36125000D03*
X54575000Y-36125000D03*
G04 #@! TD*
D27*
G04 #@! TO.C,1-D3*
X52375000Y-36700000D03*
X52375000Y-38800000D03*
G04 #@! TD*
D25*
G04 #@! TO.C,2-R3*
X55000000Y-60000000D03*
X53350000Y-60000000D03*
G04 #@! TD*
D20*
G04 #@! TO.C,2-L2*
X51525000Y-54750000D03*
X49225000Y-54750000D03*
G04 #@! TD*
D27*
G04 #@! TO.C,0-D3*
X52375000Y-18700000D03*
X52375000Y-20800000D03*
G04 #@! TD*
D12*
G04 #@! TO.C,0-R8*
X46875000Y-20525000D03*
X46875000Y-18875000D03*
G04 #@! TD*
D15*
G04 #@! TO.C,0-C2*
X37875000Y-18225000D03*
X37875000Y-19775000D03*
G04 #@! TD*
D19*
G04 #@! TO.C,3-D5*
X50375000Y-82800000D03*
X50375000Y-80700000D03*
G04 #@! TD*
D25*
G04 #@! TO.C,0-R3*
X55000000Y-16000000D03*
X53350000Y-16000000D03*
G04 #@! TD*
D20*
G04 #@! TO.C,1-L2*
X51525000Y-28750000D03*
X49225000Y-28750000D03*
G04 #@! TD*
D12*
G04 #@! TO.C,0-R9*
X43375000Y-14325000D03*
X43375000Y-12675000D03*
G04 #@! TD*
D25*
G04 #@! TO.C,1-R6*
X58200000Y-34000000D03*
X56550000Y-34000000D03*
G04 #@! TD*
D24*
G04 #@! TO.C,3-R10*
X62375000Y-80675000D03*
X62375000Y-82325000D03*
G04 #@! TD*
D10*
G04 #@! TO.C,1-C7*
X47150000Y-30500000D03*
X45600000Y-30500000D03*
G04 #@! TD*
D26*
G04 #@! TO.C,2-U3*
X49237500Y-59300000D03*
X49237500Y-60250000D03*
X49237500Y-61200000D03*
X51512500Y-61200000D03*
X51512500Y-59300000D03*
G04 #@! TD*
D17*
G04 #@! TO.C,1-C3*
X45600000Y-34200000D03*
X47150000Y-34200000D03*
G04 #@! TD*
D22*
G04 #@! TO.C,3-U7*
X39675000Y-77337500D03*
X40625000Y-77337500D03*
X41575000Y-77337500D03*
X41575000Y-75062500D03*
X39675000Y-75062500D03*
G04 #@! TD*
D20*
G04 #@! TO.C,2-L1*
X60525000Y-63500000D03*
X58225000Y-63500000D03*
G04 #@! TD*
D24*
G04 #@! TO.C,2-R10*
X62375000Y-62675000D03*
X62375000Y-64325000D03*
G04 #@! TD*
D13*
G04 #@! TO.C,1-C6*
X43375000Y-35275000D03*
X43375000Y-33725000D03*
G04 #@! TD*
D10*
G04 #@! TO.C,3-C5*
X51150000Y-75500000D03*
X49600000Y-75500000D03*
G04 #@! TD*
D15*
G04 #@! TO.C,2-C2*
X37875000Y-62225000D03*
X37875000Y-63775000D03*
G04 #@! TD*
D12*
G04 #@! TO.C,0-R11*
X59875000Y-16075000D03*
X59875000Y-14425000D03*
G04 #@! TD*
D10*
G04 #@! TO.C,3-C7*
X47150000Y-74500000D03*
X45600000Y-74500000D03*
G04 #@! TD*
D27*
G04 #@! TO.C,2-D3*
X52375000Y-62700000D03*
X52375000Y-64800000D03*
G04 #@! TD*
D21*
G04 #@! TO.C,2-U4*
X47262500Y-54950000D03*
X47262500Y-54000000D03*
X47262500Y-53050000D03*
X44987500Y-53050000D03*
X44987500Y-54000000D03*
X44987500Y-54950000D03*
G04 #@! TD*
D13*
G04 #@! TO.C,0-C6*
X43375000Y-17275000D03*
X43375000Y-15725000D03*
G04 #@! TD*
D22*
G04 #@! TO.C,2-U7*
X39675000Y-59337500D03*
X40625000Y-59337500D03*
X41575000Y-59337500D03*
X41575000Y-57062500D03*
X39675000Y-57062500D03*
G04 #@! TD*
D24*
G04 #@! TO.C,1-R10*
X62375000Y-36675000D03*
X62375000Y-38325000D03*
G04 #@! TD*
D27*
G04 #@! TO.C,3-D3*
X52375000Y-80700000D03*
X52375000Y-82800000D03*
G04 #@! TD*
D15*
G04 #@! TO.C,2-C4*
X48625000Y-62925000D03*
X48625000Y-64475000D03*
G04 #@! TD*
D11*
G04 #@! TO.C,0-SW1*
X27250000Y-11500000D03*
X27250000Y-17500000D03*
X23500000Y-11500000D03*
X23500000Y-17500000D03*
G04 #@! TD*
D17*
G04 #@! TO.C,1-C1*
X56600000Y-32250000D03*
X58150000Y-32250000D03*
G04 #@! TD*
M02*
