G04 #@! TF.GenerationSoftware,KiCad,Pcbnew,8.0.1*
G04 #@! TF.CreationDate,2025-03-12T15:21:45+01:00*
G04 #@! TF.ProjectId,panel_E,70616e65-6c5f-4452-9e6b-696361645f70,E*
G04 #@! TF.SameCoordinates,Original*
G04 #@! TF.FileFunction,Soldermask,Top*
G04 #@! TF.FilePolarity,Negative*
%FSLAX46Y46*%
G04 Gerber Fmt 4.6, Leading zero omitted, Abs format (unit mm)*
G04 Created by KiCad (PCBNEW 8.0.1) date 2025-03-12 15:21:45*
%MOMM*%
%LPD*%
G01*
G04 APERTURE LIST*
G04 Aperture macros list*
%AMRoundRect*
0 Rectangle with rounded corners*
0 $1 Rounding radius*
0 $2 $3 $4 $5 $6 $7 $8 $9 X,Y pos of 4 corners*
0 Add a 4 corners polygon primitive as box body*
4,1,4,$2,$3,$4,$5,$6,$7,$8,$9,$2,$3,0*
0 Add four circle primitives for the rounded corners*
1,1,$1+$1,$2,$3*
1,1,$1+$1,$4,$5*
1,1,$1+$1,$6,$7*
1,1,$1+$1,$8,$9*
0 Add four rect primitives between the rounded corners*
20,1,$1+$1,$2,$3,$4,$5,0*
20,1,$1+$1,$4,$5,$6,$7,0*
20,1,$1+$1,$6,$7,$8,$9,0*
20,1,$1+$1,$8,$9,$2,$3,0*%
%AMFreePoly0*
4,1,19,0.550000,-0.750000,0.000000,-0.750000,0.000000,-0.744911,-0.071157,-0.744911,-0.207708,-0.704816,-0.327430,-0.627875,-0.420627,-0.520320,-0.479746,-0.390866,-0.500000,-0.250000,-0.500000,0.250000,-0.479746,0.390866,-0.420627,0.520320,-0.327430,0.627875,-0.207708,0.704816,-0.071157,0.744911,0.000000,0.744911,0.000000,0.750000,0.550000,0.750000,0.550000,-0.750000,0.550000,-0.750000,
$1*%
%AMFreePoly1*
4,1,19,0.000000,0.744911,0.071157,0.744911,0.207708,0.704816,0.327430,0.627875,0.420627,0.520320,0.479746,0.390866,0.500000,0.250000,0.500000,-0.250000,0.479746,-0.390866,0.420627,-0.520320,0.327430,-0.627875,0.207708,-0.704816,0.071157,-0.744911,0.000000,-0.744911,0.000000,-0.750000,-0.550000,-0.750000,-0.550000,0.750000,0.000000,0.750000,0.000000,0.744911,0.000000,0.744911,
$1*%
G04 Aperture macros list end*
%ADD10RoundRect,0.225000X0.225000X0.250000X-0.225000X0.250000X-0.225000X-0.250000X0.225000X-0.250000X0*%
%ADD11C,0.500000*%
%ADD12R,0.750000X1.000000*%
%ADD13RoundRect,0.200000X0.275000X-0.200000X0.275000X0.200000X-0.275000X0.200000X-0.275000X-0.200000X0*%
%ADD14RoundRect,0.225000X0.250000X-0.225000X0.250000X0.225000X-0.250000X0.225000X-0.250000X-0.225000X0*%
%ADD15RoundRect,0.200000X-0.200000X-0.275000X0.200000X-0.275000X0.200000X0.275000X-0.200000X0.275000X0*%
%ADD16FreePoly0,90.000000*%
%ADD17R,1.500000X1.000000*%
%ADD18FreePoly1,90.000000*%
%ADD19RoundRect,0.225000X-0.250000X0.225000X-0.250000X-0.225000X0.250000X-0.225000X0.250000X0.225000X0*%
%ADD20C,1.152000*%
%ADD21RoundRect,0.218750X0.218750X0.256250X-0.218750X0.256250X-0.218750X-0.256250X0.218750X-0.256250X0*%
%ADD22RoundRect,0.225000X-0.225000X-0.250000X0.225000X-0.250000X0.225000X0.250000X-0.225000X0.250000X0*%
%ADD23C,2.000000*%
%ADD24RoundRect,0.112500X-0.187500X-0.112500X0.187500X-0.112500X0.187500X0.112500X-0.187500X0.112500X0*%
%ADD25RoundRect,0.112500X0.112500X-0.187500X0.112500X0.187500X-0.112500X0.187500X-0.112500X-0.187500X0*%
%ADD26R,0.800000X2.700000*%
%ADD27RoundRect,1.000000X5.000000X-0.000010X5.000000X0.000010X-5.000000X0.000010X-5.000000X-0.000010X0*%
%ADD28RoundRect,0.750000X5.000000X-0.000010X5.000000X0.000010X-5.000000X0.000010X-5.000000X-0.000010X0*%
%ADD29RoundRect,0.150000X0.512500X0.150000X-0.512500X0.150000X-0.512500X-0.150000X0.512500X-0.150000X0*%
%ADD30RoundRect,0.150000X0.150000X-0.512500X0.150000X0.512500X-0.150000X0.512500X-0.150000X-0.512500X0*%
%ADD31RoundRect,0.150000X-0.150000X0.512500X-0.150000X-0.512500X0.150000X-0.512500X0.150000X0.512500X0*%
%ADD32RoundRect,0.200000X-0.275000X0.200000X-0.275000X-0.200000X0.275000X-0.200000X0.275000X0.200000X0*%
%ADD33RoundRect,0.200000X0.200000X0.275000X-0.200000X0.275000X-0.200000X-0.275000X0.200000X-0.275000X0*%
%ADD34RoundRect,0.150000X-0.512500X-0.150000X0.512500X-0.150000X0.512500X0.150000X-0.512500X0.150000X0*%
%ADD35RoundRect,0.112500X-0.112500X0.187500X-0.112500X-0.187500X0.112500X-0.187500X0.112500X0.187500X0*%
G04 APERTURE END LIST*
D10*
G04 #@! TO.C,1-C5*
X51150000Y-31500000D03*
X49600000Y-31500000D03*
G04 #@! TD*
D11*
G04 #@! TO.C,KiKit_MB_25_2*
X8375000Y-43833333D03*
G04 #@! TD*
D12*
G04 #@! TO.C,3-SW1*
X27250000Y-73500000D03*
X27250000Y-79500000D03*
X23500000Y-73500000D03*
X23500000Y-79500000D03*
G04 #@! TD*
D11*
G04 #@! TO.C,KiKit_MB_32_4*
X2732143Y-84000000D03*
G04 #@! TD*
G04 #@! TO.C,KiKit_MB_10_5*
X62326001Y-25000031D03*
G04 #@! TD*
D13*
G04 #@! TO.C,3-R7*
X45125000Y-82525000D03*
X45125000Y-80875000D03*
G04 #@! TD*
D11*
G04 #@! TO.C,KiKit_MB_30_3*
X66625000Y-87666666D03*
G04 #@! TD*
D14*
G04 #@! TO.C,3-C6*
X43375000Y-79275000D03*
X43375000Y-77725000D03*
G04 #@! TD*
D15*
G04 #@! TO.C,2-R4*
X53350000Y-58250000D03*
X55000000Y-58250000D03*
G04 #@! TD*
D10*
G04 #@! TO.C,2-C7*
X47150000Y-56500000D03*
X45600000Y-56500000D03*
G04 #@! TD*
D11*
G04 #@! TO.C,KiKit_MB_19_3*
X41625000Y-84000000D03*
G04 #@! TD*
D16*
G04 #@! TO.C,1-JP4*
X61875000Y-34750000D03*
D17*
X61875000Y-33450000D03*
D18*
X61875000Y-32150000D03*
G04 #@! TD*
D19*
G04 #@! TO.C,0-C4*
X48625000Y-18925000D03*
X48625000Y-20475000D03*
G04 #@! TD*
D11*
G04 #@! TO.C,KiKit_MB_28_1*
X66625000Y0D03*
G04 #@! TD*
G04 #@! TO.C,KiKit_MB_19_4*
X40774500Y-84000000D03*
G04 #@! TD*
D16*
G04 #@! TO.C,1-JP1*
X61875000Y-29800000D03*
D17*
X61875000Y-28500000D03*
D18*
X61875000Y-27200000D03*
G04 #@! TD*
D11*
G04 #@! TO.C,KiKit_MB_23_4*
X24975498Y-70500195D03*
G04 #@! TD*
G04 #@! TO.C,KiKit_MB_6_5*
X22423998Y-20499837D03*
G04 #@! TD*
G04 #@! TO.C,KiKit_MB_4_4*
X61475502Y-7000042D03*
G04 #@! TD*
G04 #@! TO.C,KiKit_MB_8_4*
X42475502Y-25000254D03*
G04 #@! TD*
D19*
G04 #@! TO.C,1-C2*
X37875000Y-36225000D03*
X37875000Y-37775000D03*
G04 #@! TD*
D13*
G04 #@! TO.C,2-R9*
X43375000Y-58325000D03*
X43375000Y-56675000D03*
G04 #@! TD*
D11*
G04 #@! TO.C,KiKit_MB_17_2*
X23274498Y-52500173D03*
G04 #@! TD*
G04 #@! TO.C,KiKit_MB_13_1*
X43325999Y-66000000D03*
G04 #@! TD*
G04 #@! TO.C,KiKit_MB_14_2*
X40774502Y-51000274D03*
G04 #@! TD*
G04 #@! TO.C,KiKit_MB_18_2*
X24975498Y-64499804D03*
G04 #@! TD*
D20*
G04 #@! TO.C,KiKit_TO_4*
X72500000Y-88500000D03*
G04 #@! TD*
D11*
G04 #@! TO.C,KiKit_MB_29_4*
X8375000Y-88500000D03*
G04 #@! TD*
D21*
G04 #@! TO.C,3-D2*
X26162500Y-81000000D03*
X24587500Y-81000000D03*
G04 #@! TD*
D10*
G04 #@! TO.C,0-C5*
X51150000Y-13500000D03*
X49600000Y-13500000D03*
G04 #@! TD*
D11*
G04 #@! TO.C,KiKit_MB_34_6*
X73178571Y-84000000D03*
G04 #@! TD*
D22*
G04 #@! TO.C,2-C3*
X45600000Y-60200000D03*
X47150000Y-60200000D03*
G04 #@! TD*
D11*
G04 #@! TO.C,KiKit_MB_30_5*
X66625000Y-89333333D03*
G04 #@! TD*
G04 #@! TO.C,KiKit_MB_11_5*
X25825998Y-26500206D03*
G04 #@! TD*
D23*
G04 #@! TO.C,0-J2*
X64875000Y-9250000D03*
G04 #@! TD*
G04 #@! TO.C,2-J3*
X64875000Y-56750000D03*
G04 #@! TD*
D12*
G04 #@! TO.C,1-SW1*
X27250000Y-29500000D03*
X27250000Y-35500000D03*
X23500000Y-29500000D03*
X23500000Y-35500000D03*
G04 #@! TD*
D24*
G04 #@! TO.C,0-D4*
X45325000Y-14250000D03*
X47425000Y-14250000D03*
G04 #@! TD*
D23*
G04 #@! TO.C,3-J4*
X64875000Y-78250000D03*
G04 #@! TD*
D11*
G04 #@! TO.C,KiKit_MB_34_3*
X70446428Y-84000000D03*
G04 #@! TD*
D25*
G04 #@! TO.C,2-D5*
X50375000Y-64800000D03*
X50375000Y-62700000D03*
G04 #@! TD*
D23*
G04 #@! TO.C,3-J5*
X64875000Y-81750000D03*
G04 #@! TD*
D13*
G04 #@! TO.C,3-R8*
X46875000Y-82525000D03*
X46875000Y-80875000D03*
G04 #@! TD*
D11*
G04 #@! TO.C,KiKit_MB_17_5*
X25825998Y-52500206D03*
G04 #@! TD*
G04 #@! TO.C,KiKit_MB_29_2*
X8375000Y-86833333D03*
G04 #@! TD*
D26*
G04 #@! TO.C,3-L2*
X51525000Y-72750000D03*
X49225000Y-72750000D03*
G04 #@! TD*
D21*
G04 #@! TO.C,0-D2*
X26162500Y-19000000D03*
X24587500Y-19000000D03*
G04 #@! TD*
D27*
G04 #@! TO.C,3-J1*
X14875000Y-80310000D03*
D28*
X15125000Y-77580000D03*
X15125000Y-75420000D03*
D27*
X14875000Y-72690000D03*
G04 #@! TD*
D11*
G04 #@! TO.C,KiKit_MB_8_2*
X40774502Y-25000274D03*
G04 #@! TD*
G04 #@! TO.C,KiKit_MB_5_3*
X24124998Y-8500185D03*
G04 #@! TD*
G04 #@! TO.C,KiKit_MB_22_2*
X59774502Y-69000060D03*
G04 #@! TD*
G04 #@! TO.C,KiKit_MB_28_6*
X66625000Y-4166667D03*
G04 #@! TD*
G04 #@! TO.C,KiKit_MB_30_6*
X66625000Y-90166666D03*
G04 #@! TD*
G04 #@! TO.C,KiKit_MB_32_3*
X1821429Y-84000000D03*
G04 #@! TD*
G04 #@! TO.C,KiKit_MB_18_4*
X23274498Y-64499826D03*
G04 #@! TD*
D24*
G04 #@! TO.C,2-D4*
X45325000Y-58250000D03*
X47425000Y-58250000D03*
G04 #@! TD*
D11*
G04 #@! TO.C,KiKit_MB_19_2*
X42475499Y-84000000D03*
G04 #@! TD*
G04 #@! TO.C,KiKit_MB_7_2*
X42475499Y-40000000D03*
G04 #@! TD*
D13*
G04 #@! TO.C,1-R7*
X45125000Y-38525000D03*
X45125000Y-36875000D03*
G04 #@! TD*
D29*
G04 #@! TO.C,3-U5*
X42650000Y-72950000D03*
X42650000Y-72000000D03*
X42650000Y-71050000D03*
X40375000Y-71050000D03*
X40375000Y-72000000D03*
X40375000Y-72950000D03*
G04 #@! TD*
D26*
G04 #@! TO.C,3-L1*
X60525000Y-81500000D03*
X58225000Y-81500000D03*
G04 #@! TD*
D23*
G04 #@! TO.C,3-J2*
X64875000Y-71250000D03*
G04 #@! TD*
D11*
G04 #@! TO.C,KiKit_MB_15_5*
X58924000Y-66000000D03*
G04 #@! TD*
D13*
G04 #@! TO.C,1-R8*
X46875000Y-38525000D03*
X46875000Y-36875000D03*
G04 #@! TD*
D11*
G04 #@! TO.C,KiKit_MB_10_1*
X58924002Y-25000069D03*
G04 #@! TD*
G04 #@! TO.C,KiKit_MB_6_2*
X24975498Y-20499804D03*
G04 #@! TD*
G04 #@! TO.C,KiKit_MB_9_2*
X61475499Y-40000000D03*
G04 #@! TD*
G04 #@! TO.C,KiKit_MB_25_6*
X8375000Y-47166666D03*
G04 #@! TD*
G04 #@! TO.C,KiKit_MB_5_1*
X22423998Y-8500163D03*
G04 #@! TD*
G04 #@! TO.C,KiKit_MB_14_5*
X43326001Y-51000245D03*
G04 #@! TD*
G04 #@! TO.C,KiKit_MB_33_6*
X73178571Y-7000000D03*
G04 #@! TD*
G04 #@! TO.C,KiKit_MB_3_2*
X61475499Y-22000000D03*
G04 #@! TD*
G04 #@! TO.C,KiKit_MB_18_1*
X25825998Y-64499793D03*
G04 #@! TD*
G04 #@! TO.C,KiKit_MB_24_4*
X23274498Y-82499826D03*
G04 #@! TD*
G04 #@! TO.C,KiKit_MB_9_1*
X62325999Y-40000000D03*
G04 #@! TD*
D13*
G04 #@! TO.C,3-R5*
X38375000Y-72825000D03*
X38375000Y-71175000D03*
G04 #@! TD*
D11*
G04 #@! TO.C,KiKit_MB_9_5*
X58924000Y-40000000D03*
G04 #@! TD*
G04 #@! TO.C,KiKit_MB_12_3*
X24124998Y-38499815D03*
G04 #@! TD*
D13*
G04 #@! TO.C,2-R8*
X46875000Y-64525000D03*
X46875000Y-62875000D03*
G04 #@! TD*
G04 #@! TO.C,2-R7*
X45125000Y-64525000D03*
X45125000Y-62875000D03*
G04 #@! TD*
D11*
G04 #@! TO.C,KiKit_MB_3_1*
X62325999Y-22000000D03*
G04 #@! TD*
D30*
G04 #@! TO.C,3-Q1*
X57675000Y-73887500D03*
X58625000Y-73887500D03*
X59575000Y-73887500D03*
X59575000Y-71612500D03*
X58625000Y-71612500D03*
X57675000Y-71612500D03*
G04 #@! TD*
D23*
G04 #@! TO.C,KiKit_FID_T_1*
X4500000Y-4500000D03*
G04 #@! TD*
D13*
G04 #@! TO.C,3-R11*
X59875000Y-78075000D03*
X59875000Y-76425000D03*
G04 #@! TD*
D11*
G04 #@! TO.C,KiKit_MB_30_2*
X66625000Y-86833333D03*
G04 #@! TD*
D31*
G04 #@! TO.C,0-U1*
X55325000Y-9612500D03*
X54375000Y-9612500D03*
X53425000Y-9612500D03*
X53425000Y-11887500D03*
X54375000Y-11887500D03*
X55325000Y-11887500D03*
G04 #@! TD*
D23*
G04 #@! TO.C,1-J5*
X64875000Y-37750000D03*
G04 #@! TD*
D11*
G04 #@! TO.C,KiKit_MB_33_5*
X72267857Y-7000000D03*
G04 #@! TD*
G04 #@! TO.C,KiKit_MB_1_4*
X40774500Y-22000000D03*
G04 #@! TD*
G04 #@! TO.C,KiKit_MB_1_5*
X39924000Y-22000000D03*
G04 #@! TD*
G04 #@! TO.C,KiKit_MB_29_7*
X8375000Y-91000000D03*
G04 #@! TD*
D22*
G04 #@! TO.C,3-C1*
X56600000Y-76250000D03*
X58150000Y-76250000D03*
G04 #@! TD*
D10*
G04 #@! TO.C,2-C5*
X51150000Y-57500000D03*
X49600000Y-57500000D03*
G04 #@! TD*
D11*
G04 #@! TO.C,KiKit_MB_33_4*
X71357142Y-7000000D03*
G04 #@! TD*
G04 #@! TO.C,KiKit_MB_13_4*
X40774500Y-66000000D03*
G04 #@! TD*
D31*
G04 #@! TO.C,0-U2*
X41575000Y-17862500D03*
X40625000Y-17862500D03*
X39675000Y-17862500D03*
X39675000Y-20137500D03*
X41575000Y-20137500D03*
G04 #@! TD*
D11*
G04 #@! TO.C,KiKit_MB_7_1*
X43325999Y-40000000D03*
G04 #@! TD*
G04 #@! TO.C,KiKit_MB_16_2*
X59774502Y-51000060D03*
G04 #@! TD*
G04 #@! TO.C,KiKit_MB_26_2*
X66625000Y-43833333D03*
G04 #@! TD*
D32*
G04 #@! TO.C,0-R10*
X62375000Y-18675000D03*
X62375000Y-20325000D03*
G04 #@! TD*
D23*
G04 #@! TO.C,3-J3*
X64875000Y-74750000D03*
G04 #@! TD*
G04 #@! TO.C,0-J4*
X64875000Y-16250000D03*
G04 #@! TD*
D33*
G04 #@! TO.C,3-R6*
X58200000Y-78000000D03*
X56550000Y-78000000D03*
G04 #@! TD*
D13*
G04 #@! TO.C,2-R1*
X37875000Y-59100000D03*
X37875000Y-57450000D03*
G04 #@! TD*
D11*
G04 #@! TO.C,KiKit_MB_25_1*
X8375000Y-43000000D03*
G04 #@! TD*
D33*
G04 #@! TO.C,1-R3*
X55000000Y-34000000D03*
X53350000Y-34000000D03*
G04 #@! TD*
D11*
G04 #@! TO.C,KiKit_MB_31_4*
X2732143Y-7000000D03*
G04 #@! TD*
G04 #@! TO.C,KiKit_MB_15_3*
X60625000Y-66000000D03*
G04 #@! TD*
G04 #@! TO.C,KiKit_MB_31_8*
X6375000Y-7000000D03*
G04 #@! TD*
G04 #@! TO.C,KiKit_MB_23_3*
X24124998Y-70500184D03*
G04 #@! TD*
D13*
G04 #@! TO.C,1-R5*
X38375000Y-28825000D03*
X38375000Y-27175000D03*
G04 #@! TD*
D11*
G04 #@! TO.C,KiKit_MB_27_4*
X8375000Y-2500000D03*
G04 #@! TD*
D13*
G04 #@! TO.C,1-R1*
X37875000Y-33100000D03*
X37875000Y-31450000D03*
G04 #@! TD*
D11*
G04 #@! TO.C,KiKit_MB_25_7*
X8375000Y-48000000D03*
G04 #@! TD*
G04 #@! TO.C,KiKit_MB_26_7*
X66625000Y-48000000D03*
G04 #@! TD*
D24*
G04 #@! TO.C,1-D4*
X45325000Y-32250000D03*
X47425000Y-32250000D03*
G04 #@! TD*
D30*
G04 #@! TO.C,0-Q1*
X57675000Y-11887500D03*
X58625000Y-11887500D03*
X59575000Y-11887500D03*
X59575000Y-9612500D03*
X58625000Y-9612500D03*
X57675000Y-9612500D03*
G04 #@! TD*
D11*
G04 #@! TO.C,KiKit_MB_34_1*
X68625000Y-84000000D03*
G04 #@! TD*
G04 #@! TO.C,KiKit_MB_31_7*
X5464286Y-7000000D03*
G04 #@! TD*
D30*
G04 #@! TO.C,0-U7*
X39675000Y-15337500D03*
X40625000Y-15337500D03*
X41575000Y-15337500D03*
X41575000Y-13062500D03*
X39675000Y-13062500D03*
G04 #@! TD*
D11*
G04 #@! TO.C,KiKit_MB_11_3*
X24124998Y-26500184D03*
G04 #@! TD*
D26*
G04 #@! TO.C,0-L2*
X51525000Y-10750000D03*
X49225000Y-10750000D03*
G04 #@! TD*
D30*
G04 #@! TO.C,2-U6*
X54575000Y-64400000D03*
X55525000Y-64400000D03*
X56475000Y-64400000D03*
X56475000Y-62125000D03*
X54575000Y-62125000D03*
G04 #@! TD*
D11*
G04 #@! TO.C,KiKit_MB_34_5*
X72267857Y-84000000D03*
G04 #@! TD*
D13*
G04 #@! TO.C,0-R2*
X43375000Y-20500000D03*
X43375000Y-18850000D03*
G04 #@! TD*
D11*
G04 #@! TO.C,KiKit_MB_7_4*
X40774500Y-40000000D03*
G04 #@! TD*
G04 #@! TO.C,KiKit_MB_22_4*
X61475502Y-69000041D03*
G04 #@! TD*
G04 #@! TO.C,KiKit_MB_27_2*
X8375000Y-833334D03*
G04 #@! TD*
G04 #@! TO.C,KiKit_MB_22_3*
X60625002Y-69000050D03*
G04 #@! TD*
D15*
G04 #@! TO.C,1-R4*
X53350000Y-32250000D03*
X55000000Y-32250000D03*
G04 #@! TD*
D11*
G04 #@! TO.C,KiKit_MB_8_1*
X39924002Y-25000283D03*
G04 #@! TD*
G04 #@! TO.C,KiKit_MB_25_5*
X8375000Y-46333333D03*
G04 #@! TD*
D15*
G04 #@! TO.C,0-R4*
X53350000Y-14250000D03*
X55000000Y-14250000D03*
G04 #@! TD*
D11*
G04 #@! TO.C,KiKit_MB_7_3*
X41625000Y-40000000D03*
G04 #@! TD*
G04 #@! TO.C,KiKit_MB_12_5*
X22423998Y-38499837D03*
G04 #@! TD*
D13*
G04 #@! TO.C,0-R1*
X37875000Y-15100000D03*
X37875000Y-13450000D03*
G04 #@! TD*
D31*
G04 #@! TO.C,1-U1*
X55325000Y-27612500D03*
X54375000Y-27612500D03*
X53425000Y-27612500D03*
X53425000Y-29887500D03*
X54375000Y-29887500D03*
X55325000Y-29887500D03*
G04 #@! TD*
D11*
G04 #@! TO.C,KiKit_MB_33_7*
X74089285Y-7000000D03*
G04 #@! TD*
G04 #@! TO.C,KiKit_MB_21_5*
X58924000Y-84000000D03*
G04 #@! TD*
D19*
G04 #@! TO.C,1-C4*
X48625000Y-36925000D03*
X48625000Y-38475000D03*
G04 #@! TD*
D11*
G04 #@! TO.C,KiKit_MB_20_4*
X42475502Y-69000254D03*
G04 #@! TD*
D25*
G04 #@! TO.C,1-D5*
X50375000Y-38800000D03*
X50375000Y-36700000D03*
G04 #@! TD*
D30*
G04 #@! TO.C,2-Q1*
X57675000Y-55887500D03*
X58625000Y-55887500D03*
X59575000Y-55887500D03*
X59575000Y-53612500D03*
X58625000Y-53612500D03*
X57675000Y-53612500D03*
G04 #@! TD*
D11*
G04 #@! TO.C,KiKit_MB_26_1*
X66625000Y-43000000D03*
G04 #@! TD*
D31*
G04 #@! TO.C,3-U1*
X55325000Y-71612500D03*
X54375000Y-71612500D03*
X53425000Y-71612500D03*
X53425000Y-73887500D03*
X54375000Y-73887500D03*
X55325000Y-73887500D03*
G04 #@! TD*
D22*
G04 #@! TO.C,0-C1*
X56600000Y-14250000D03*
X58150000Y-14250000D03*
G04 #@! TD*
D11*
G04 #@! TO.C,KiKit_MB_28_2*
X66625000Y-833334D03*
G04 #@! TD*
D13*
G04 #@! TO.C,2-R5*
X38375000Y-54825000D03*
X38375000Y-53175000D03*
G04 #@! TD*
D11*
G04 #@! TO.C,KiKit_MB_28_5*
X66625000Y-3333334D03*
G04 #@! TD*
G04 #@! TO.C,KiKit_MB_10_2*
X59774502Y-25000060D03*
G04 #@! TD*
G04 #@! TO.C,KiKit_MB_14_4*
X42475502Y-51000254D03*
G04 #@! TD*
G04 #@! TO.C,KiKit_MB_28_4*
X66625000Y-2500000D03*
G04 #@! TD*
D24*
G04 #@! TO.C,3-D4*
X45325000Y-76250000D03*
X47425000Y-76250000D03*
G04 #@! TD*
D16*
G04 #@! TO.C,3-JP1*
X61875000Y-73800000D03*
D17*
X61875000Y-72500000D03*
D18*
X61875000Y-71200000D03*
G04 #@! TD*
D13*
G04 #@! TO.C,2-R2*
X43375000Y-64500000D03*
X43375000Y-62850000D03*
G04 #@! TD*
D11*
G04 #@! TO.C,KiKit_MB_21_3*
X60625000Y-84000000D03*
G04 #@! TD*
G04 #@! TO.C,KiKit_MB_26_3*
X66625000Y-44666666D03*
G04 #@! TD*
G04 #@! TO.C,KiKit_MB_27_1*
X8375000Y0D03*
G04 #@! TD*
G04 #@! TO.C,KiKit_MB_22_1*
X58924002Y-69000069D03*
G04 #@! TD*
D13*
G04 #@! TO.C,0-R7*
X45125000Y-20525000D03*
X45125000Y-18875000D03*
G04 #@! TD*
D11*
G04 #@! TO.C,KiKit_MB_15_2*
X61475499Y-66000000D03*
G04 #@! TD*
G04 #@! TO.C,KiKit_MB_23_2*
X23274498Y-70500173D03*
G04 #@! TD*
G04 #@! TO.C,KiKit_MB_30_1*
X66625000Y-86000000D03*
G04 #@! TD*
D10*
G04 #@! TO.C,0-C7*
X47150000Y-12500000D03*
X45600000Y-12500000D03*
G04 #@! TD*
D33*
G04 #@! TO.C,2-R6*
X58200000Y-60000000D03*
X56550000Y-60000000D03*
G04 #@! TD*
D34*
G04 #@! TO.C,3-U3*
X49237500Y-77300000D03*
X49237500Y-78250000D03*
X49237500Y-79200000D03*
X51512500Y-79200000D03*
X51512500Y-77300000D03*
G04 #@! TD*
D29*
G04 #@! TO.C,1-U4*
X47262500Y-28950000D03*
X47262500Y-28000000D03*
X47262500Y-27050000D03*
X44987500Y-27050000D03*
X44987500Y-28000000D03*
X44987500Y-28950000D03*
G04 #@! TD*
D30*
G04 #@! TO.C,3-U6*
X54575000Y-82400000D03*
X55525000Y-82400000D03*
X56475000Y-82400000D03*
X56475000Y-80125000D03*
X54575000Y-80125000D03*
G04 #@! TD*
D29*
G04 #@! TO.C,0-U4*
X47262500Y-10950000D03*
X47262500Y-10000000D03*
X47262500Y-9050000D03*
X44987500Y-9050000D03*
X44987500Y-10000000D03*
X44987500Y-10950000D03*
G04 #@! TD*
D11*
G04 #@! TO.C,KiKit_MB_22_5*
X62326001Y-69000031D03*
G04 #@! TD*
G04 #@! TO.C,KiKit_MB_4_3*
X60625002Y-7000051D03*
G04 #@! TD*
D20*
G04 #@! TO.C,KiKit_TO_3*
X2500000Y-88500000D03*
G04 #@! TD*
D13*
G04 #@! TO.C,1-R11*
X59875000Y-34075000D03*
X59875000Y-32425000D03*
G04 #@! TD*
D34*
G04 #@! TO.C,1-U3*
X49237500Y-33300000D03*
X49237500Y-34250000D03*
X49237500Y-35200000D03*
X51512500Y-35200000D03*
X51512500Y-33300000D03*
G04 #@! TD*
D11*
G04 #@! TO.C,KiKit_MB_20_2*
X40774502Y-69000274D03*
G04 #@! TD*
D13*
G04 #@! TO.C,1-R9*
X43375000Y-32325000D03*
X43375000Y-30675000D03*
G04 #@! TD*
D11*
G04 #@! TO.C,KiKit_MB_29_3*
X8375000Y-87666666D03*
G04 #@! TD*
G04 #@! TO.C,KiKit_MB_26_4*
X66625000Y-45500000D03*
G04 #@! TD*
G04 #@! TO.C,KiKit_MB_11_1*
X22423998Y-26500162D03*
G04 #@! TD*
G04 #@! TO.C,KiKit_MB_25_4*
X8375000Y-45500000D03*
G04 #@! TD*
D21*
G04 #@! TO.C,2-D2*
X26162500Y-63000000D03*
X24587500Y-63000000D03*
G04 #@! TD*
D22*
G04 #@! TO.C,3-C3*
X45600000Y-78200000D03*
X47150000Y-78200000D03*
G04 #@! TD*
D11*
G04 #@! TO.C,KiKit_MB_18_5*
X22423998Y-64499837D03*
G04 #@! TD*
D13*
G04 #@! TO.C,1-R2*
X43375000Y-38500000D03*
X43375000Y-36850000D03*
G04 #@! TD*
D22*
G04 #@! TO.C,2-C1*
X56600000Y-58250000D03*
X58150000Y-58250000D03*
G04 #@! TD*
D13*
G04 #@! TO.C,2-R11*
X59875000Y-60075000D03*
X59875000Y-58425000D03*
G04 #@! TD*
D26*
G04 #@! TO.C,1-L1*
X60525000Y-37500000D03*
X58225000Y-37500000D03*
G04 #@! TD*
D11*
G04 #@! TO.C,KiKit_MB_29_5*
X8375000Y-89333333D03*
G04 #@! TD*
D15*
G04 #@! TO.C,3-R4*
X53350000Y-76250000D03*
X55000000Y-76250000D03*
G04 #@! TD*
D11*
G04 #@! TO.C,KiKit_MB_31_6*
X4553572Y-7000000D03*
G04 #@! TD*
D14*
G04 #@! TO.C,2-C6*
X43375000Y-61275000D03*
X43375000Y-59725000D03*
G04 #@! TD*
D26*
G04 #@! TO.C,0-L1*
X60525000Y-19500000D03*
X58225000Y-19500000D03*
G04 #@! TD*
D31*
G04 #@! TO.C,2-U1*
X55325000Y-53612500D03*
X54375000Y-53612500D03*
X53425000Y-53612500D03*
X53425000Y-55887500D03*
X54375000Y-55887500D03*
X55325000Y-55887500D03*
G04 #@! TD*
D11*
G04 #@! TO.C,KiKit_MB_2_4*
X42475502Y-7000255D03*
G04 #@! TD*
G04 #@! TO.C,KiKit_MB_13_3*
X41625000Y-66000000D03*
G04 #@! TD*
G04 #@! TO.C,KiKit_MB_1_2*
X42475499Y-22000000D03*
G04 #@! TD*
D31*
G04 #@! TO.C,1-U2*
X41575000Y-35862500D03*
X40625000Y-35862500D03*
X39675000Y-35862500D03*
X39675000Y-38137500D03*
X41575000Y-38137500D03*
G04 #@! TD*
D11*
G04 #@! TO.C,KiKit_MB_34_4*
X71357142Y-84000000D03*
G04 #@! TD*
D12*
G04 #@! TO.C,2-SW1*
X27250000Y-55500000D03*
X27250000Y-61500000D03*
X23500000Y-55500000D03*
X23500000Y-61500000D03*
G04 #@! TD*
D33*
G04 #@! TO.C,3-R3*
X55000000Y-78000000D03*
X53350000Y-78000000D03*
G04 #@! TD*
D31*
G04 #@! TO.C,3-U2*
X41575000Y-79862500D03*
X40625000Y-79862500D03*
X39675000Y-79862500D03*
X39675000Y-82137500D03*
X41575000Y-82137500D03*
G04 #@! TD*
D21*
G04 #@! TO.C,1-D2*
X26162500Y-37000000D03*
X24587500Y-37000000D03*
G04 #@! TD*
D11*
G04 #@! TO.C,KiKit_MB_25_3*
X8375000Y-44666666D03*
G04 #@! TD*
D13*
G04 #@! TO.C,3-R1*
X37875000Y-77100000D03*
X37875000Y-75450000D03*
G04 #@! TD*
D11*
G04 #@! TO.C,KiKit_MB_3_3*
X60625000Y-22000000D03*
G04 #@! TD*
D29*
G04 #@! TO.C,0-U5*
X42650000Y-10950000D03*
X42650000Y-10000000D03*
X42650000Y-9050000D03*
X40375000Y-9050000D03*
X40375000Y-10000000D03*
X40375000Y-10950000D03*
G04 #@! TD*
D11*
G04 #@! TO.C,KiKit_MB_20_3*
X41625002Y-69000264D03*
G04 #@! TD*
G04 #@! TO.C,KiKit_MB_32_8*
X6375000Y-84000000D03*
G04 #@! TD*
G04 #@! TO.C,KiKit_MB_26_6*
X66625000Y-47166666D03*
G04 #@! TD*
G04 #@! TO.C,KiKit_MB_12_4*
X23274498Y-38499826D03*
G04 #@! TD*
D13*
G04 #@! TO.C,3-R2*
X43375000Y-82500000D03*
X43375000Y-80850000D03*
G04 #@! TD*
D23*
G04 #@! TO.C,1-J4*
X64875000Y-34250000D03*
G04 #@! TD*
D16*
G04 #@! TO.C,3-JP4*
X61875000Y-78750000D03*
D17*
X61875000Y-77450000D03*
D18*
X61875000Y-76150000D03*
G04 #@! TD*
D11*
G04 #@! TO.C,KiKit_MB_23_1*
X22423998Y-70500162D03*
G04 #@! TD*
G04 #@! TO.C,KiKit_MB_4_1*
X58924002Y-7000070D03*
G04 #@! TD*
D16*
G04 #@! TO.C,0-JP1*
X61875000Y-11800000D03*
D17*
X61875000Y-10500000D03*
D18*
X61875000Y-9200000D03*
G04 #@! TD*
D23*
G04 #@! TO.C,2-J2*
X64875000Y-53250000D03*
G04 #@! TD*
G04 #@! TO.C,0-J5*
X64875000Y-19750000D03*
G04 #@! TD*
D29*
G04 #@! TO.C,3-U4*
X47262500Y-72950000D03*
X47262500Y-72000000D03*
X47262500Y-71050000D03*
X44987500Y-71050000D03*
X44987500Y-72000000D03*
X44987500Y-72950000D03*
G04 #@! TD*
D34*
G04 #@! TO.C,0-U3*
X49237500Y-15300000D03*
X49237500Y-16250000D03*
X49237500Y-17200000D03*
X51512500Y-17200000D03*
X51512500Y-15300000D03*
G04 #@! TD*
D11*
G04 #@! TO.C,KiKit_MB_7_5*
X39924000Y-40000000D03*
G04 #@! TD*
D30*
G04 #@! TO.C,1-Q1*
X57675000Y-29887500D03*
X58625000Y-29887500D03*
X59575000Y-29887500D03*
X59575000Y-27612500D03*
X58625000Y-27612500D03*
X57675000Y-27612500D03*
G04 #@! TD*
D19*
G04 #@! TO.C,3-C4*
X48625000Y-80925000D03*
X48625000Y-82475000D03*
G04 #@! TD*
D11*
G04 #@! TO.C,KiKit_MB_10_4*
X61475502Y-25000041D03*
G04 #@! TD*
D29*
G04 #@! TO.C,1-U5*
X42650000Y-28950000D03*
X42650000Y-28000000D03*
X42650000Y-27050000D03*
X40375000Y-27050000D03*
X40375000Y-28000000D03*
X40375000Y-28950000D03*
G04 #@! TD*
D23*
G04 #@! TO.C,KiKit_FID_T_4*
X70500000Y-86500000D03*
G04 #@! TD*
D11*
G04 #@! TO.C,KiKit_MB_19_5*
X39924000Y-84000000D03*
G04 #@! TD*
G04 #@! TO.C,KiKit_MB_28_7*
X66625000Y-5000000D03*
G04 #@! TD*
D13*
G04 #@! TO.C,0-R5*
X38375000Y-10825000D03*
X38375000Y-9175000D03*
G04 #@! TD*
D11*
G04 #@! TO.C,KiKit_MB_2_2*
X40774502Y-7000275D03*
G04 #@! TD*
G04 #@! TO.C,KiKit_MB_31_3*
X1821429Y-7000000D03*
G04 #@! TD*
G04 #@! TO.C,KiKit_MB_30_7*
X66625000Y-91000000D03*
G04 #@! TD*
G04 #@! TO.C,KiKit_MB_26_5*
X66625000Y-46333333D03*
G04 #@! TD*
G04 #@! TO.C,KiKit_MB_1_1*
X43325999Y-22000000D03*
G04 #@! TD*
D29*
G04 #@! TO.C,2-U5*
X42650000Y-54950000D03*
X42650000Y-54000000D03*
X42650000Y-53050000D03*
X40375000Y-53050000D03*
X40375000Y-54000000D03*
X40375000Y-54950000D03*
G04 #@! TD*
D16*
G04 #@! TO.C,2-JP4*
X61875000Y-60750000D03*
D17*
X61875000Y-59450000D03*
D18*
X61875000Y-58150000D03*
G04 #@! TD*
D11*
G04 #@! TO.C,KiKit_MB_30_4*
X66625000Y-88500000D03*
G04 #@! TD*
G04 #@! TO.C,KiKit_MB_28_3*
X66625000Y-1666667D03*
G04 #@! TD*
G04 #@! TO.C,KiKit_MB_31_2*
X910715Y-7000000D03*
G04 #@! TD*
D22*
G04 #@! TO.C,0-C3*
X45600000Y-16200000D03*
X47150000Y-16200000D03*
G04 #@! TD*
D11*
G04 #@! TO.C,KiKit_MB_32_5*
X3642858Y-84000000D03*
G04 #@! TD*
D31*
G04 #@! TO.C,2-U2*
X41575000Y-61862500D03*
X40625000Y-61862500D03*
X39675000Y-61862500D03*
X39675000Y-64137500D03*
X41575000Y-64137500D03*
G04 #@! TD*
D33*
G04 #@! TO.C,0-R6*
X58200000Y-16000000D03*
X56550000Y-16000000D03*
G04 #@! TD*
D11*
G04 #@! TO.C,KiKit_MB_27_3*
X8375000Y-1666667D03*
G04 #@! TD*
G04 #@! TO.C,KiKit_MB_12_1*
X25825998Y-38499793D03*
G04 #@! TD*
G04 #@! TO.C,KiKit_MB_5_4*
X24975498Y-8500196D03*
G04 #@! TD*
D25*
G04 #@! TO.C,0-D5*
X50375000Y-20800000D03*
X50375000Y-18700000D03*
G04 #@! TD*
D13*
G04 #@! TO.C,3-R9*
X43375000Y-76325000D03*
X43375000Y-74675000D03*
G04 #@! TD*
D11*
G04 #@! TO.C,KiKit_MB_21_4*
X59774500Y-84000000D03*
G04 #@! TD*
G04 #@! TO.C,KiKit_MB_6_3*
X24124998Y-20499815D03*
G04 #@! TD*
D19*
G04 #@! TO.C,3-C2*
X37875000Y-80225000D03*
X37875000Y-81775000D03*
G04 #@! TD*
D11*
G04 #@! TO.C,KiKit_MB_8_5*
X43326001Y-25000245D03*
G04 #@! TD*
G04 #@! TO.C,KiKit_MB_2_5*
X43326001Y-7000246D03*
G04 #@! TD*
D30*
G04 #@! TO.C,1-U7*
X39675000Y-33337500D03*
X40625000Y-33337500D03*
X41575000Y-33337500D03*
X41575000Y-31062500D03*
X39675000Y-31062500D03*
G04 #@! TD*
D11*
G04 #@! TO.C,KiKit_MB_21_1*
X62325999Y-84000000D03*
G04 #@! TD*
G04 #@! TO.C,KiKit_MB_6_1*
X25825998Y-20499793D03*
G04 #@! TD*
G04 #@! TO.C,KiKit_MB_19_1*
X43325999Y-84000000D03*
G04 #@! TD*
D30*
G04 #@! TO.C,0-U6*
X54575000Y-20400000D03*
X55525000Y-20400000D03*
X56475000Y-20400000D03*
X56475000Y-18125000D03*
X54575000Y-18125000D03*
G04 #@! TD*
D11*
G04 #@! TO.C,KiKit_MB_8_3*
X41625002Y-25000264D03*
G04 #@! TD*
G04 #@! TO.C,KiKit_MB_1_3*
X41625000Y-22000000D03*
G04 #@! TD*
G04 #@! TO.C,KiKit_MB_27_7*
X8375000Y-5000000D03*
G04 #@! TD*
G04 #@! TO.C,KiKit_MB_18_3*
X24124998Y-64499815D03*
G04 #@! TD*
D30*
G04 #@! TO.C,1-U6*
X54575000Y-38400000D03*
X55525000Y-38400000D03*
X56475000Y-38400000D03*
X56475000Y-36125000D03*
X54575000Y-36125000D03*
G04 #@! TD*
D11*
G04 #@! TO.C,KiKit_MB_32_1*
X0Y-84000000D03*
G04 #@! TD*
D35*
G04 #@! TO.C,1-D3*
X52375000Y-36700000D03*
X52375000Y-38800000D03*
G04 #@! TD*
D11*
G04 #@! TO.C,KiKit_MB_13_5*
X39924000Y-66000000D03*
G04 #@! TD*
G04 #@! TO.C,KiKit_MB_32_7*
X5464286Y-84000000D03*
G04 #@! TD*
G04 #@! TO.C,KiKit_MB_16_1*
X58924002Y-51000069D03*
G04 #@! TD*
D33*
G04 #@! TO.C,2-R3*
X55000000Y-60000000D03*
X53350000Y-60000000D03*
G04 #@! TD*
D26*
G04 #@! TO.C,2-L2*
X51525000Y-54750000D03*
X49225000Y-54750000D03*
G04 #@! TD*
D11*
G04 #@! TO.C,KiKit_MB_4_5*
X62326001Y-7000032D03*
G04 #@! TD*
G04 #@! TO.C,KiKit_MB_20_1*
X39924002Y-69000283D03*
G04 #@! TD*
D35*
G04 #@! TO.C,0-D3*
X52375000Y-18700000D03*
X52375000Y-20800000D03*
G04 #@! TD*
D11*
G04 #@! TO.C,KiKit_MB_15_4*
X59774500Y-66000000D03*
G04 #@! TD*
G04 #@! TO.C,KiKit_MB_10_3*
X60625002Y-25000050D03*
G04 #@! TD*
G04 #@! TO.C,KiKit_MB_13_2*
X42475499Y-66000000D03*
G04 #@! TD*
D13*
G04 #@! TO.C,0-R8*
X46875000Y-20525000D03*
X46875000Y-18875000D03*
G04 #@! TD*
D19*
G04 #@! TO.C,0-C2*
X37875000Y-18225000D03*
X37875000Y-19775000D03*
G04 #@! TD*
D25*
G04 #@! TO.C,3-D5*
X50375000Y-82800000D03*
X50375000Y-80700000D03*
G04 #@! TD*
D11*
G04 #@! TO.C,KiKit_MB_27_5*
X8375000Y-3333334D03*
G04 #@! TD*
G04 #@! TO.C,KiKit_MB_2_1*
X39924002Y-7000284D03*
G04 #@! TD*
D16*
G04 #@! TO.C,2-JP1*
X61875000Y-55800000D03*
D17*
X61875000Y-54500000D03*
D18*
X61875000Y-53200000D03*
G04 #@! TD*
D11*
G04 #@! TO.C,KiKit_MB_34_7*
X74089285Y-84000000D03*
G04 #@! TD*
G04 #@! TO.C,KiKit_MB_5_5*
X25825998Y-8500207D03*
G04 #@! TD*
D33*
G04 #@! TO.C,0-R3*
X55000000Y-16000000D03*
X53350000Y-16000000D03*
G04 #@! TD*
D11*
G04 #@! TO.C,KiKit_MB_24_5*
X22423998Y-82499837D03*
G04 #@! TD*
G04 #@! TO.C,KiKit_MB_16_3*
X60625002Y-51000050D03*
G04 #@! TD*
D26*
G04 #@! TO.C,1-L2*
X51525000Y-28750000D03*
X49225000Y-28750000D03*
G04 #@! TD*
D11*
G04 #@! TO.C,KiKit_MB_9_4*
X59774500Y-40000000D03*
G04 #@! TD*
D13*
G04 #@! TO.C,0-R9*
X43375000Y-14325000D03*
X43375000Y-12675000D03*
G04 #@! TD*
D20*
G04 #@! TO.C,KiKit_TO_1*
X2500000Y-2500000D03*
G04 #@! TD*
D33*
G04 #@! TO.C,1-R6*
X58200000Y-34000000D03*
X56550000Y-34000000D03*
G04 #@! TD*
D11*
G04 #@! TO.C,KiKit_MB_3_5*
X58924000Y-22000000D03*
G04 #@! TD*
D32*
G04 #@! TO.C,3-R10*
X62375000Y-80675000D03*
X62375000Y-82325000D03*
G04 #@! TD*
D10*
G04 #@! TO.C,1-C7*
X47150000Y-30500000D03*
X45600000Y-30500000D03*
G04 #@! TD*
D23*
G04 #@! TO.C,0-J3*
X64875000Y-12750000D03*
G04 #@! TD*
D34*
G04 #@! TO.C,2-U3*
X49237500Y-59300000D03*
X49237500Y-60250000D03*
X49237500Y-61200000D03*
X51512500Y-61200000D03*
X51512500Y-59300000D03*
G04 #@! TD*
D22*
G04 #@! TO.C,1-C3*
X45600000Y-34200000D03*
X47150000Y-34200000D03*
G04 #@! TD*
D11*
G04 #@! TO.C,KiKit_MB_15_1*
X62325999Y-66000000D03*
G04 #@! TD*
G04 #@! TO.C,KiKit_MB_23_5*
X25825998Y-70500206D03*
G04 #@! TD*
D30*
G04 #@! TO.C,3-U7*
X39675000Y-77337500D03*
X40625000Y-77337500D03*
X41575000Y-77337500D03*
X41575000Y-75062500D03*
X39675000Y-75062500D03*
G04 #@! TD*
D11*
G04 #@! TO.C,KiKit_MB_32_2*
X910715Y-84000000D03*
G04 #@! TD*
D26*
G04 #@! TO.C,2-L1*
X60525000Y-63500000D03*
X58225000Y-63500000D03*
G04 #@! TD*
D11*
G04 #@! TO.C,KiKit_MB_16_4*
X61475502Y-51000041D03*
G04 #@! TD*
G04 #@! TO.C,KiKit_MB_4_2*
X59774502Y-7000061D03*
G04 #@! TD*
G04 #@! TO.C,KiKit_MB_21_2*
X61475499Y-84000000D03*
G04 #@! TD*
G04 #@! TO.C,KiKit_MB_34_2*
X69535714Y-84000000D03*
G04 #@! TD*
D32*
G04 #@! TO.C,2-R10*
X62375000Y-62675000D03*
X62375000Y-64325000D03*
G04 #@! TD*
D11*
G04 #@! TO.C,KiKit_MB_24_2*
X24975498Y-82499804D03*
G04 #@! TD*
G04 #@! TO.C,KiKit_MB_12_2*
X24975498Y-38499804D03*
G04 #@! TD*
D14*
G04 #@! TO.C,1-C6*
X43375000Y-35275000D03*
X43375000Y-33725000D03*
G04 #@! TD*
D11*
G04 #@! TO.C,KiKit_MB_24_3*
X24124998Y-82499815D03*
G04 #@! TD*
G04 #@! TO.C,KiKit_MB_34_8*
X75000000Y-84000000D03*
G04 #@! TD*
G04 #@! TO.C,KiKit_MB_17_1*
X22423998Y-52500162D03*
G04 #@! TD*
G04 #@! TO.C,KiKit_MB_5_2*
X23274498Y-8500174D03*
G04 #@! TD*
D10*
G04 #@! TO.C,3-C5*
X51150000Y-75500000D03*
X49600000Y-75500000D03*
G04 #@! TD*
D16*
G04 #@! TO.C,0-JP4*
X61875000Y-16750000D03*
D17*
X61875000Y-15450000D03*
D18*
X61875000Y-14150000D03*
G04 #@! TD*
D19*
G04 #@! TO.C,2-C2*
X37875000Y-62225000D03*
X37875000Y-63775000D03*
G04 #@! TD*
D27*
G04 #@! TO.C,0-J1*
X14875000Y-18310000D03*
D28*
X15125000Y-15580000D03*
X15125000Y-13420000D03*
D27*
X14875000Y-10690000D03*
G04 #@! TD*
D13*
G04 #@! TO.C,0-R11*
X59875000Y-16075000D03*
X59875000Y-14425000D03*
G04 #@! TD*
D11*
G04 #@! TO.C,KiKit_MB_27_6*
X8375000Y-4166667D03*
G04 #@! TD*
D27*
G04 #@! TO.C,1-J1*
X14875000Y-36310000D03*
D28*
X15125000Y-33580000D03*
X15125000Y-31420000D03*
D27*
X14875000Y-28690000D03*
G04 #@! TD*
D11*
G04 #@! TO.C,KiKit_MB_17_3*
X24124998Y-52500184D03*
G04 #@! TD*
D10*
G04 #@! TO.C,3-C7*
X47150000Y-74500000D03*
X45600000Y-74500000D03*
G04 #@! TD*
D35*
G04 #@! TO.C,2-D3*
X52375000Y-62700000D03*
X52375000Y-64800000D03*
G04 #@! TD*
D29*
G04 #@! TO.C,2-U4*
X47262500Y-54950000D03*
X47262500Y-54000000D03*
X47262500Y-53050000D03*
X44987500Y-53050000D03*
X44987500Y-54000000D03*
X44987500Y-54950000D03*
G04 #@! TD*
D11*
G04 #@! TO.C,KiKit_MB_9_3*
X60625000Y-40000000D03*
G04 #@! TD*
D14*
G04 #@! TO.C,0-C6*
X43375000Y-17275000D03*
X43375000Y-15725000D03*
G04 #@! TD*
D11*
G04 #@! TO.C,KiKit_MB_31_5*
X3642858Y-7000000D03*
G04 #@! TD*
G04 #@! TO.C,KiKit_MB_16_5*
X62326001Y-51000031D03*
G04 #@! TD*
D30*
G04 #@! TO.C,2-U7*
X39675000Y-59337500D03*
X40625000Y-59337500D03*
X41575000Y-59337500D03*
X41575000Y-57062500D03*
X39675000Y-57062500D03*
G04 #@! TD*
D11*
G04 #@! TO.C,KiKit_MB_33_1*
X68625000Y-7000000D03*
G04 #@! TD*
G04 #@! TO.C,KiKit_MB_6_4*
X23274498Y-20499826D03*
G04 #@! TD*
G04 #@! TO.C,KiKit_MB_31_1*
X0Y-7000000D03*
G04 #@! TD*
D23*
G04 #@! TO.C,1-J2*
X64875000Y-27250000D03*
G04 #@! TD*
D11*
G04 #@! TO.C,KiKit_MB_11_2*
X23274498Y-26500173D03*
G04 #@! TD*
G04 #@! TO.C,KiKit_MB_29_1*
X8375000Y-86000000D03*
G04 #@! TD*
G04 #@! TO.C,KiKit_MB_2_3*
X41625002Y-7000265D03*
G04 #@! TD*
D27*
G04 #@! TO.C,2-J1*
X14875000Y-62310000D03*
D28*
X15125000Y-59580000D03*
X15125000Y-57420000D03*
D27*
X14875000Y-54690000D03*
G04 #@! TD*
D23*
G04 #@! TO.C,KiKit_FID_T_2*
X70500000Y-4500000D03*
G04 #@! TD*
D32*
G04 #@! TO.C,1-R10*
X62375000Y-36675000D03*
X62375000Y-38325000D03*
G04 #@! TD*
D11*
G04 #@! TO.C,KiKit_MB_11_4*
X24975498Y-26500195D03*
G04 #@! TD*
D23*
G04 #@! TO.C,1-J3*
X64875000Y-30750000D03*
G04 #@! TD*
G04 #@! TO.C,2-J5*
X64875000Y-63750000D03*
G04 #@! TD*
D11*
G04 #@! TO.C,KiKit_MB_17_4*
X24975498Y-52500195D03*
G04 #@! TD*
G04 #@! TO.C,KiKit_MB_24_1*
X25825998Y-82499793D03*
G04 #@! TD*
D20*
G04 #@! TO.C,KiKit_TO_2*
X72500000Y-2500000D03*
G04 #@! TD*
D23*
G04 #@! TO.C,KiKit_FID_T_3*
X4500000Y-86500000D03*
G04 #@! TD*
D11*
G04 #@! TO.C,KiKit_MB_20_5*
X43326001Y-69000245D03*
G04 #@! TD*
G04 #@! TO.C,KiKit_MB_14_1*
X39924002Y-51000283D03*
G04 #@! TD*
D23*
G04 #@! TO.C,2-J4*
X64875000Y-60250000D03*
G04 #@! TD*
D35*
G04 #@! TO.C,3-D3*
X52375000Y-80700000D03*
X52375000Y-82800000D03*
G04 #@! TD*
D11*
G04 #@! TO.C,KiKit_MB_33_3*
X70446428Y-7000000D03*
G04 #@! TD*
G04 #@! TO.C,KiKit_MB_32_6*
X4553572Y-84000000D03*
G04 #@! TD*
D19*
G04 #@! TO.C,2-C4*
X48625000Y-62925000D03*
X48625000Y-64475000D03*
G04 #@! TD*
D12*
G04 #@! TO.C,0-SW1*
X27250000Y-11500000D03*
X27250000Y-17500000D03*
X23500000Y-11500000D03*
X23500000Y-17500000D03*
G04 #@! TD*
D11*
G04 #@! TO.C,KiKit_MB_33_8*
X75000000Y-7000000D03*
G04 #@! TD*
G04 #@! TO.C,KiKit_MB_3_4*
X59774500Y-22000000D03*
G04 #@! TD*
G04 #@! TO.C,KiKit_MB_14_3*
X41625002Y-51000264D03*
G04 #@! TD*
G04 #@! TO.C,KiKit_MB_33_2*
X69535714Y-7000000D03*
G04 #@! TD*
G04 #@! TO.C,KiKit_MB_29_6*
X8375000Y-90166666D03*
G04 #@! TD*
D22*
G04 #@! TO.C,1-C1*
X56600000Y-32250000D03*
X58150000Y-32250000D03*
G04 #@! TD*
M02*
