M48
; DRILL file {KiCad 8.0.1} date 2025-03-12T15:21:45+0100
; FORMAT={-:-/ absolute / metric / decimal}
; #@! TF.CreationDate,2025-03-12T15:21:45+01:00
; #@! TF.GenerationSoftware,Kicad,Pcbnew,8.0.1
; #@! TF.FileFunction,NonPlated,1,2,NPTH
FMAT,2
METRIC
; #@! TA.AperFunction,NonPlated,NPTH,ComponentDrill
T1C0.500
; #@! TA.AperFunction,NonPlated,NPTH,ComponentDrill
T2C1.152
%
G90
G05
T1
X0.0Y-7.0
X0.0Y-84.0
X0.911Y-7.0
X0.911Y-84.0
X1.821Y-7.0
X1.821Y-84.0
X2.732Y-7.0
X2.732Y-84.0
X3.643Y-7.0
X3.643Y-84.0
X4.554Y-7.0
X4.554Y-84.0
X5.464Y-7.0
X5.464Y-84.0
X6.375Y-7.0
X6.375Y-84.0
X8.375Y0.0
X8.375Y-0.833
X8.375Y-1.667
X8.375Y-2.5
X8.375Y-3.333
X8.375Y-4.167
X8.375Y-5.0
X8.375Y-43.0
X8.375Y-43.833
X8.375Y-44.667
X8.375Y-45.5
X8.375Y-46.333
X8.375Y-47.167
X8.375Y-48.0
X8.375Y-86.0
X8.375Y-86.833
X8.375Y-87.667
X8.375Y-88.5
X8.375Y-89.333
X8.375Y-90.167
X8.375Y-91.0
X22.424Y-8.5
X22.424Y-20.5
X22.424Y-26.5
X22.424Y-38.5
X22.424Y-52.5
X22.424Y-64.5
X22.424Y-70.5
X22.424Y-82.5
X23.274Y-8.5
X23.274Y-20.5
X23.274Y-26.5
X23.274Y-38.5
X23.274Y-52.5
X23.274Y-64.5
X23.274Y-70.5
X23.274Y-82.5
X24.125Y-8.5
X24.125Y-20.5
X24.125Y-26.5
X24.125Y-38.5
X24.125Y-52.5
X24.125Y-64.5
X24.125Y-70.5
X24.125Y-82.5
X24.975Y-8.5
X24.975Y-20.5
X24.975Y-26.5
X24.975Y-38.5
X24.975Y-52.5
X24.975Y-64.5
X24.975Y-70.5
X24.975Y-82.5
X25.826Y-8.5
X25.826Y-20.5
X25.826Y-26.5
X25.826Y-38.5
X25.826Y-52.5
X25.826Y-64.5
X25.826Y-70.5
X25.826Y-82.5
X39.924Y-22.0
X39.924Y-40.0
X39.924Y-66.0
X39.924Y-84.0
X39.924Y-7.0
X39.924Y-25.0
X39.924Y-51.0
X39.924Y-69.0
X40.774Y-22.0
X40.774Y-40.0
X40.774Y-66.0
X40.774Y-84.0
X40.775Y-7.0
X40.775Y-25.0
X40.775Y-51.0
X40.775Y-69.0
X41.625Y-22.0
X41.625Y-40.0
X41.625Y-66.0
X41.625Y-84.0
X41.625Y-7.0
X41.625Y-25.0
X41.625Y-51.0
X41.625Y-69.0
X42.475Y-22.0
X42.475Y-40.0
X42.475Y-66.0
X42.475Y-84.0
X42.476Y-7.0
X42.476Y-25.0
X42.476Y-51.0
X42.476Y-69.0
X43.326Y-22.0
X43.326Y-40.0
X43.326Y-66.0
X43.326Y-84.0
X43.326Y-7.0
X43.326Y-25.0
X43.326Y-51.0
X43.326Y-69.0
X58.924Y-22.0
X58.924Y-40.0
X58.924Y-66.0
X58.924Y-84.0
X58.924Y-7.0
X58.924Y-25.0
X58.924Y-51.0
X58.924Y-69.0
X59.774Y-22.0
X59.774Y-40.0
X59.774Y-66.0
X59.774Y-84.0
X59.775Y-7.0
X59.775Y-25.0
X59.775Y-51.0
X59.775Y-69.0
X60.625Y-22.0
X60.625Y-40.0
X60.625Y-66.0
X60.625Y-84.0
X60.625Y-7.0
X60.625Y-25.0
X60.625Y-51.0
X60.625Y-69.0
X61.475Y-22.0
X61.475Y-40.0
X61.475Y-66.0
X61.475Y-84.0
X61.476Y-7.0
X61.476Y-25.0
X61.476Y-51.0
X61.476Y-69.0
X62.326Y-22.0
X62.326Y-40.0
X62.326Y-66.0
X62.326Y-84.0
X62.326Y-7.0
X62.326Y-25.0
X62.326Y-51.0
X62.326Y-69.0
X66.625Y0.0
X66.625Y-0.833
X66.625Y-1.667
X66.625Y-2.5
X66.625Y-3.333
X66.625Y-4.167
X66.625Y-5.0
X66.625Y-43.0
X66.625Y-43.833
X66.625Y-44.667
X66.625Y-45.5
X66.625Y-46.333
X66.625Y-47.167
X66.625Y-48.0
X66.625Y-86.0
X66.625Y-86.833
X66.625Y-87.667
X66.625Y-88.5
X66.625Y-89.333
X66.625Y-90.167
X66.625Y-91.0
X68.625Y-7.0
X68.625Y-84.0
X69.536Y-7.0
X69.536Y-84.0
X70.446Y-7.0
X70.446Y-84.0
X71.357Y-7.0
X71.357Y-84.0
X72.268Y-7.0
X72.268Y-84.0
X73.179Y-7.0
X73.179Y-84.0
X74.089Y-7.0
X74.089Y-84.0
X75.0Y-7.0
X75.0Y-84.0
T2
X2.5Y-2.5
X2.5Y-88.5
X72.5Y-2.5
X72.5Y-88.5
M30
