M48
; DRILL file {KiCad 8.0.1} date 2025-05-23T10:36:24+0200
; FORMAT={-:-/ absolute / metric / decimal}
; #@! TF.CreationDate,2025-05-23T10:36:24+02:00
; #@! TF.GenerationSoftware,Kicad,Pcbnew,8.0.1
; #@! TF.FileFunction,Plated,1,2,PTH
FMAT,2
METRIC
; #@! TA.AperFunction,Plated,PTH,ViaDrill
T1C0.300
; #@! TA.AperFunction,Plated,PTH,ComponentDrill
T2C1.000
%
G90
G05
T1
X21.75Y-9.5
X21.75Y-10.5
X21.75Y-27.0
X21.75Y-28.0
X21.75Y-44.5
X21.75Y-45.5
X21.75Y-69.5
X21.75Y-70.5
X21.75Y-87.0
X21.75Y-88.0
X21.75Y-104.5
X21.75Y-105.5
X22.1Y-12.7
X22.1Y-30.2
X22.1Y-47.7
X22.1Y-72.7
X22.1Y-90.2
X22.1Y-107.7
X22.125Y-17.5
X22.125Y-35.0
X22.125Y-52.5
X22.125Y-77.5
X22.125Y-95.0
X22.125Y-112.5
X22.75Y-9.5
X22.75Y-10.5
X22.75Y-27.0
X22.75Y-28.0
X22.75Y-44.5
X22.75Y-45.5
X22.75Y-69.5
X22.75Y-70.5
X22.75Y-87.0
X22.75Y-88.0
X22.75Y-104.5
X22.75Y-105.5
X23.2Y-19.7
X23.2Y-37.2
X23.2Y-54.7
X23.2Y-79.7
X23.2Y-97.2
X23.2Y-114.7
X23.75Y-9.5
X23.75Y-10.5
X23.75Y-27.0
X23.75Y-28.0
X23.75Y-44.5
X23.75Y-45.5
X23.75Y-69.5
X23.75Y-70.5
X23.75Y-87.0
X23.75Y-88.0
X23.75Y-104.5
X23.75Y-105.5
X24.75Y-17.5
X24.75Y-35.0
X24.75Y-52.5
X24.75Y-77.5
X24.75Y-95.0
X24.75Y-112.5
X25.4Y-19.0
X25.4Y-36.5
X25.4Y-54.0
X25.4Y-79.0
X25.4Y-96.5
X25.4Y-114.0
X27.0Y-17.5
X27.0Y-35.0
X27.0Y-52.5
X27.0Y-77.5
X27.0Y-95.0
X27.0Y-112.5
X29.4Y-18.65
X29.4Y-36.15
X29.4Y-53.65
X29.4Y-78.65
X29.4Y-96.15
X29.4Y-113.65
X30.7Y-9.3
X30.7Y-26.8
X30.7Y-44.3
X30.7Y-69.3
X30.7Y-86.8
X30.7Y-104.3
X31.4Y-18.65
X31.4Y-36.15
X31.4Y-53.65
X31.4Y-78.65
X31.4Y-96.15
X31.4Y-113.65
X32.7Y-9.3
X32.7Y-26.8
X32.7Y-44.3
X32.7Y-69.3
X32.7Y-86.8
X32.7Y-104.3
X33.05Y-17.05
X33.05Y-34.55
X33.05Y-52.05
X33.05Y-77.05
X33.05Y-94.55
X33.05Y-112.05
X34.0Y-16.1
X34.0Y-33.6
X34.0Y-51.1
X34.0Y-76.1
X34.0Y-93.6
X34.0Y-111.1
X34.708Y-17.35
X34.708Y-34.85
X34.708Y-52.35
X34.708Y-77.35
X34.708Y-94.85
X34.708Y-112.35
X34.9Y-12.0
X34.9Y-13.4
X34.9Y-29.5
X34.9Y-30.9
X34.9Y-47.0
X34.9Y-48.4
X34.9Y-72.0
X34.9Y-73.4
X34.9Y-89.5
X34.9Y-90.9
X34.9Y-107.0
X34.9Y-108.4
X35.6Y-16.0
X35.6Y-17.4
X35.6Y-33.5
X35.6Y-34.9
X35.6Y-51.0
X35.6Y-52.4
X35.6Y-76.0
X35.6Y-77.4
X35.6Y-93.5
X35.6Y-94.9
X35.6Y-111.0
X35.6Y-112.4
X35.95Y-11.3
X35.95Y-28.8
X35.95Y-46.3
X35.95Y-71.3
X35.95Y-88.8
X35.95Y-106.3
X37.25Y-16.0
X37.25Y-33.5
X37.25Y-51.0
X37.25Y-76.0
X37.25Y-93.5
X37.25Y-111.0
X37.5Y-12.0
X37.5Y-14.2
X37.5Y-18.0
X37.5Y-29.5
X37.5Y-31.7
X37.5Y-35.5
X37.5Y-47.0
X37.5Y-49.2
X37.5Y-53.0
X37.5Y-72.0
X37.5Y-74.2
X37.5Y-78.0
X37.5Y-89.5
X37.5Y-91.7
X37.5Y-95.5
X37.5Y-107.0
X37.5Y-109.2
X37.5Y-113.0
X38.3Y-13.4
X38.3Y-16.55
X38.3Y-30.9
X38.3Y-34.05
X38.3Y-48.4
X38.3Y-51.55
X38.3Y-73.4
X38.3Y-76.55
X38.3Y-90.9
X38.3Y-94.05
X38.3Y-108.4
X38.3Y-111.55
X39.2Y-16.6
X39.2Y-34.1
X39.2Y-51.6
X39.2Y-76.6
X39.2Y-94.1
X39.2Y-111.6
X40.2Y-14.75
X40.2Y-15.8
X40.2Y-32.25
X40.2Y-33.3
X40.2Y-49.75
X40.2Y-50.8
X40.2Y-74.75
X40.2Y-75.8
X40.2Y-92.25
X40.2Y-93.3
X40.2Y-109.75
X40.2Y-110.8
X40.75Y-10.0
X40.75Y-12.0
X40.75Y-27.5
X40.75Y-29.5
X40.75Y-45.0
X40.75Y-47.0
X40.75Y-70.0
X40.75Y-72.0
X40.75Y-87.5
X40.75Y-89.5
X40.75Y-105.0
X40.75Y-107.0
X41.1Y-17.3
X41.1Y-34.8
X41.1Y-52.3
X41.1Y-77.3
X41.1Y-94.8
X41.1Y-112.3
X42.0Y-20.0
X42.0Y-37.5
X42.0Y-55.0
X42.0Y-80.0
X42.0Y-97.5
X42.0Y-115.0
X42.5Y-7.8
X42.5Y-10.0
X42.5Y-25.3
X42.5Y-27.5
X42.5Y-42.8
X42.5Y-45.0
X42.5Y-67.8
X42.5Y-70.0
X42.5Y-85.3
X42.5Y-87.5
X42.5Y-102.8
X42.5Y-105.0
X43.0Y-17.25
X43.0Y-34.75
X43.0Y-52.25
X43.0Y-77.25
X43.0Y-94.75
X43.0Y-112.25
X43.75Y-18.0
X43.75Y-35.5
X43.75Y-53.0
X43.75Y-78.0
X43.75Y-95.5
X43.75Y-113.0
X45.2Y-14.4
X45.2Y-31.9
X45.2Y-49.4
X45.2Y-74.4
X45.2Y-91.9
X45.2Y-109.4
X45.25Y-10.0
X45.25Y-27.5
X45.25Y-45.0
X45.25Y-70.0
X45.25Y-87.5
X45.25Y-105.0
X45.75Y-12.5
X45.75Y-30.0
X45.75Y-47.5
X45.75Y-72.5
X45.75Y-90.0
X45.75Y-107.5
X45.8Y-16.2
X45.8Y-33.7
X45.8Y-51.2
X45.8Y-76.2
X45.8Y-93.7
X45.8Y-111.2
X46.59Y-17.278
X46.59Y-34.778
X46.59Y-52.278
X46.59Y-77.278
X46.59Y-94.778
X46.59Y-112.278
X47.002Y-17.975
X47.002Y-35.475
X47.002Y-52.975
X47.002Y-77.975
X47.002Y-95.475
X47.002Y-112.975
X47.228Y-19.875
X47.228Y-37.375
X47.228Y-54.875
X47.228Y-79.875
X47.228Y-97.375
X47.228Y-114.875
X47.5Y-16.25
X47.5Y-33.75
X47.5Y-51.25
X47.5Y-76.25
X47.5Y-93.75
X47.5Y-111.25
X48.25Y-13.5
X48.25Y-16.25
X48.25Y-19.75
X48.25Y-31.0
X48.25Y-33.75
X48.25Y-37.25
X48.25Y-48.5
X48.25Y-51.25
X48.25Y-54.75
X48.25Y-73.5
X48.25Y-76.25
X48.25Y-79.75
X48.25Y-91.0
X48.25Y-93.75
X48.25Y-97.25
X48.25Y-108.5
X48.25Y-111.25
X48.25Y-114.75
X49.0Y-8.75
X49.0Y-14.45
X49.0Y-26.25
X49.0Y-31.95
X49.0Y-43.75
X49.0Y-49.45
X49.0Y-68.75
X49.0Y-74.45
X49.0Y-86.25
X49.0Y-91.95
X49.0Y-103.75
X49.0Y-109.45
X49.25Y-16.25
X49.25Y-33.75
X49.25Y-51.25
X49.25Y-76.25
X49.25Y-93.75
X49.25Y-111.25
X50.0Y-21.0
X50.0Y-38.5
X50.0Y-56.0
X50.0Y-81.0
X50.0Y-98.5
X50.0Y-116.0
X50.137Y-17.2
X50.137Y-34.7
X50.137Y-52.2
X50.137Y-77.2
X50.137Y-94.7
X50.137Y-112.2
X52.0Y-16.0
X52.0Y-17.0
X52.0Y-33.5
X52.0Y-34.5
X52.0Y-51.0
X52.0Y-52.0
X52.0Y-76.0
X52.0Y-77.0
X52.0Y-93.5
X52.0Y-94.5
X52.0Y-111.0
X52.0Y-112.0
X54.0Y-20.0
X54.0Y-20.75
X54.0Y-37.5
X54.0Y-38.25
X54.0Y-55.0
X54.0Y-55.75
X54.0Y-80.0
X54.0Y-80.75
X54.0Y-97.5
X54.0Y-98.25
X54.0Y-115.0
X54.0Y-115.75
X55.25Y-13.15
X55.25Y-17.0
X55.25Y-30.65
X55.25Y-34.5
X55.25Y-48.15
X55.25Y-52.0
X55.25Y-73.15
X55.25Y-77.0
X55.25Y-90.65
X55.25Y-94.5
X55.25Y-108.15
X55.25Y-112.0
X58.0Y-18.25
X58.0Y-20.75
X58.0Y-35.75
X58.0Y-38.25
X58.0Y-53.25
X58.0Y-55.75
X58.0Y-78.25
X58.0Y-80.75
X58.0Y-95.75
X58.0Y-98.25
X58.0Y-113.25
X58.0Y-115.75
X58.25Y-11.5
X58.25Y-12.25
X58.25Y-29.0
X58.25Y-29.75
X58.25Y-46.5
X58.25Y-47.25
X58.25Y-71.5
X58.25Y-72.25
X58.25Y-89.0
X58.25Y-89.75
X58.25Y-106.5
X58.25Y-107.25
X60.5Y-9.25
X60.5Y-10.5
X60.5Y-26.75
X60.5Y-28.0
X60.5Y-44.25
X60.5Y-45.5
X60.5Y-69.25
X60.5Y-70.5
X60.5Y-86.75
X60.5Y-88.0
X60.5Y-104.25
X60.5Y-105.5
X90.0Y-9.5
X90.0Y-10.5
X90.0Y-27.0
X90.0Y-28.0
X90.0Y-44.5
X90.0Y-45.5
X90.0Y-69.5
X90.0Y-70.5
X90.0Y-87.0
X90.0Y-88.0
X90.0Y-104.5
X90.0Y-105.5
X90.35Y-12.7
X90.35Y-30.2
X90.35Y-47.7
X90.35Y-72.7
X90.35Y-90.2
X90.35Y-107.7
X90.375Y-17.5
X90.375Y-35.0
X90.375Y-52.5
X90.375Y-77.5
X90.375Y-95.0
X90.375Y-112.5
X91.0Y-9.5
X91.0Y-10.5
X91.0Y-27.0
X91.0Y-28.0
X91.0Y-44.5
X91.0Y-45.5
X91.0Y-69.5
X91.0Y-70.5
X91.0Y-87.0
X91.0Y-88.0
X91.0Y-104.5
X91.0Y-105.5
X91.45Y-19.7
X91.45Y-37.2
X91.45Y-54.7
X91.45Y-79.7
X91.45Y-97.2
X91.45Y-114.7
X92.0Y-9.5
X92.0Y-10.5
X92.0Y-27.0
X92.0Y-28.0
X92.0Y-44.5
X92.0Y-45.5
X92.0Y-69.5
X92.0Y-70.5
X92.0Y-87.0
X92.0Y-88.0
X92.0Y-104.5
X92.0Y-105.5
X93.0Y-17.5
X93.0Y-35.0
X93.0Y-52.5
X93.0Y-77.5
X93.0Y-95.0
X93.0Y-112.5
X93.65Y-19.0
X93.65Y-36.5
X93.65Y-54.0
X93.65Y-79.0
X93.65Y-96.5
X93.65Y-114.0
X95.25Y-17.5
X95.25Y-35.0
X95.25Y-52.5
X95.25Y-77.5
X95.25Y-95.0
X95.25Y-112.5
X97.65Y-18.65
X97.65Y-36.15
X97.65Y-53.65
X97.65Y-78.65
X97.65Y-96.15
X97.65Y-113.65
X98.95Y-9.3
X98.95Y-26.8
X98.95Y-44.3
X98.95Y-69.3
X98.95Y-86.8
X98.95Y-104.3
X99.65Y-18.65
X99.65Y-36.15
X99.65Y-53.65
X99.65Y-78.65
X99.65Y-96.15
X99.65Y-113.65
X100.95Y-9.3
X100.95Y-26.8
X100.95Y-44.3
X100.95Y-69.3
X100.95Y-86.8
X100.95Y-104.3
X101.3Y-17.05
X101.3Y-34.55
X101.3Y-52.05
X101.3Y-77.05
X101.3Y-94.55
X101.3Y-112.05
X102.25Y-16.1
X102.25Y-33.6
X102.25Y-51.1
X102.25Y-76.1
X102.25Y-93.6
X102.25Y-111.1
X102.958Y-17.35
X102.958Y-34.85
X102.958Y-52.35
X102.958Y-77.35
X102.958Y-94.85
X102.958Y-112.35
X103.15Y-12.0
X103.15Y-13.4
X103.15Y-29.5
X103.15Y-30.9
X103.15Y-47.0
X103.15Y-48.4
X103.15Y-72.0
X103.15Y-73.4
X103.15Y-89.5
X103.15Y-90.9
X103.15Y-107.0
X103.15Y-108.4
X103.85Y-16.0
X103.85Y-17.4
X103.85Y-33.5
X103.85Y-34.9
X103.85Y-51.0
X103.85Y-52.4
X103.85Y-76.0
X103.85Y-77.4
X103.85Y-93.5
X103.85Y-94.9
X103.85Y-111.0
X103.85Y-112.4
X104.2Y-11.3
X104.2Y-28.8
X104.2Y-46.3
X104.2Y-71.3
X104.2Y-88.8
X104.2Y-106.3
X105.5Y-16.0
X105.5Y-33.5
X105.5Y-51.0
X105.5Y-76.0
X105.5Y-93.5
X105.5Y-111.0
X105.75Y-12.0
X105.75Y-14.2
X105.75Y-18.0
X105.75Y-29.5
X105.75Y-31.7
X105.75Y-35.5
X105.75Y-47.0
X105.75Y-49.2
X105.75Y-53.0
X105.75Y-72.0
X105.75Y-74.2
X105.75Y-78.0
X105.75Y-89.5
X105.75Y-91.7
X105.75Y-95.5
X105.75Y-107.0
X105.75Y-109.2
X105.75Y-113.0
X106.55Y-13.4
X106.55Y-16.55
X106.55Y-30.9
X106.55Y-34.05
X106.55Y-48.4
X106.55Y-51.55
X106.55Y-73.4
X106.55Y-76.55
X106.55Y-90.9
X106.55Y-94.05
X106.55Y-108.4
X106.55Y-111.55
X107.45Y-16.6
X107.45Y-34.1
X107.45Y-51.6
X107.45Y-76.6
X107.45Y-94.1
X107.45Y-111.6
X108.45Y-14.75
X108.45Y-15.8
X108.45Y-32.25
X108.45Y-33.3
X108.45Y-49.75
X108.45Y-50.8
X108.45Y-74.75
X108.45Y-75.8
X108.45Y-92.25
X108.45Y-93.3
X108.45Y-109.75
X108.45Y-110.8
X109.0Y-10.0
X109.0Y-12.0
X109.0Y-27.5
X109.0Y-29.5
X109.0Y-45.0
X109.0Y-47.0
X109.0Y-70.0
X109.0Y-72.0
X109.0Y-87.5
X109.0Y-89.5
X109.0Y-105.0
X109.0Y-107.0
X109.35Y-17.3
X109.35Y-34.8
X109.35Y-52.3
X109.35Y-77.3
X109.35Y-94.8
X109.35Y-112.3
X110.25Y-20.0
X110.25Y-37.5
X110.25Y-55.0
X110.25Y-80.0
X110.25Y-97.5
X110.25Y-115.0
X110.75Y-7.8
X110.75Y-10.0
X110.75Y-25.3
X110.75Y-27.5
X110.75Y-42.8
X110.75Y-45.0
X110.75Y-67.8
X110.75Y-70.0
X110.75Y-85.3
X110.75Y-87.5
X110.75Y-102.8
X110.75Y-105.0
X111.25Y-17.25
X111.25Y-34.75
X111.25Y-52.25
X111.25Y-77.25
X111.25Y-94.75
X111.25Y-112.25
X112.0Y-18.0
X112.0Y-35.5
X112.0Y-53.0
X112.0Y-78.0
X112.0Y-95.5
X112.0Y-113.0
X113.45Y-14.4
X113.45Y-31.9
X113.45Y-49.4
X113.45Y-74.4
X113.45Y-91.9
X113.45Y-109.4
X113.5Y-10.0
X113.5Y-27.5
X113.5Y-45.0
X113.5Y-70.0
X113.5Y-87.5
X113.5Y-105.0
X114.0Y-12.5
X114.0Y-30.0
X114.0Y-47.5
X114.0Y-72.5
X114.0Y-90.0
X114.0Y-107.5
X114.05Y-16.2
X114.05Y-33.7
X114.05Y-51.2
X114.05Y-76.2
X114.05Y-93.7
X114.05Y-111.2
X114.84Y-17.278
X114.84Y-34.778
X114.84Y-52.278
X114.84Y-77.278
X114.84Y-94.778
X114.84Y-112.278
X115.252Y-17.975
X115.252Y-35.475
X115.252Y-52.975
X115.252Y-77.975
X115.252Y-95.475
X115.252Y-112.975
X115.478Y-19.875
X115.478Y-37.375
X115.478Y-54.875
X115.478Y-79.875
X115.478Y-97.375
X115.478Y-114.875
X115.75Y-16.25
X115.75Y-33.75
X115.75Y-51.25
X115.75Y-76.25
X115.75Y-93.75
X115.75Y-111.25
X116.5Y-13.5
X116.5Y-16.25
X116.5Y-19.75
X116.5Y-31.0
X116.5Y-33.75
X116.5Y-37.25
X116.5Y-48.5
X116.5Y-51.25
X116.5Y-54.75
X116.5Y-73.5
X116.5Y-76.25
X116.5Y-79.75
X116.5Y-91.0
X116.5Y-93.75
X116.5Y-97.25
X116.5Y-108.5
X116.5Y-111.25
X116.5Y-114.75
X117.25Y-8.75
X117.25Y-14.45
X117.25Y-26.25
X117.25Y-31.95
X117.25Y-43.75
X117.25Y-49.45
X117.25Y-68.75
X117.25Y-74.45
X117.25Y-86.25
X117.25Y-91.95
X117.25Y-103.75
X117.25Y-109.45
X117.5Y-16.25
X117.5Y-33.75
X117.5Y-51.25
X117.5Y-76.25
X117.5Y-93.75
X117.5Y-111.25
X118.25Y-21.0
X118.25Y-38.5
X118.25Y-56.0
X118.25Y-81.0
X118.25Y-98.5
X118.25Y-116.0
X118.387Y-17.2
X118.387Y-34.7
X118.387Y-52.2
X118.387Y-77.2
X118.387Y-94.7
X118.387Y-112.2
X120.25Y-16.0
X120.25Y-17.0
X120.25Y-33.5
X120.25Y-34.5
X120.25Y-51.0
X120.25Y-52.0
X120.25Y-76.0
X120.25Y-77.0
X120.25Y-93.5
X120.25Y-94.5
X120.25Y-111.0
X120.25Y-112.0
X122.25Y-20.0
X122.25Y-20.75
X122.25Y-37.5
X122.25Y-38.25
X122.25Y-55.0
X122.25Y-55.75
X122.25Y-80.0
X122.25Y-80.75
X122.25Y-97.5
X122.25Y-98.25
X122.25Y-115.0
X122.25Y-115.75
X123.5Y-13.15
X123.5Y-17.0
X123.5Y-30.65
X123.5Y-34.5
X123.5Y-48.15
X123.5Y-52.0
X123.5Y-73.15
X123.5Y-77.0
X123.5Y-90.65
X123.5Y-94.5
X123.5Y-108.15
X123.5Y-112.0
X126.25Y-18.25
X126.25Y-20.75
X126.25Y-35.75
X126.25Y-38.25
X126.25Y-53.25
X126.25Y-55.75
X126.25Y-78.25
X126.25Y-80.75
X126.25Y-95.75
X126.25Y-98.25
X126.25Y-113.25
X126.25Y-115.75
X126.5Y-11.5
X126.5Y-12.25
X126.5Y-29.0
X126.5Y-29.75
X126.5Y-46.5
X126.5Y-47.25
X126.5Y-71.5
X126.5Y-72.25
X126.5Y-89.0
X126.5Y-89.75
X126.5Y-106.5
X126.5Y-107.25
X128.75Y-9.25
X128.75Y-10.5
X128.75Y-26.75
X128.75Y-28.0
X128.75Y-44.25
X128.75Y-45.5
X128.75Y-69.25
X128.75Y-70.5
X128.75Y-86.75
X128.75Y-88.0
X128.75Y-104.25
X128.75Y-105.5
T2
X63.5Y-9.25
X63.5Y-12.75
X63.5Y-16.25
X63.5Y-19.75
X63.5Y-26.75
X63.5Y-30.25
X63.5Y-33.75
X63.5Y-37.25
X63.5Y-44.25
X63.5Y-47.75
X63.5Y-51.25
X63.5Y-54.75
X63.5Y-69.25
X63.5Y-72.75
X63.5Y-76.25
X63.5Y-79.75
X63.5Y-86.75
X63.5Y-90.25
X63.5Y-93.75
X63.5Y-97.25
X63.5Y-104.25
X63.5Y-107.75
X63.5Y-111.25
X63.5Y-114.75
X131.75Y-9.25
X131.75Y-12.75
X131.75Y-16.25
X131.75Y-19.75
X131.75Y-26.75
X131.75Y-30.25
X131.75Y-33.75
X131.75Y-37.25
X131.75Y-44.25
X131.75Y-47.75
X131.75Y-51.25
X131.75Y-54.75
X131.75Y-69.25
X131.75Y-72.75
X131.75Y-76.25
X131.75Y-79.75
X131.75Y-86.75
X131.75Y-90.25
X131.75Y-93.75
X131.75Y-97.25
X131.75Y-104.25
X131.75Y-107.75
X131.75Y-111.25
X131.75Y-114.75
M30
