M48
; DRILL file {KiCad 8.0.1} date 2025-05-23T10:36:24+0200
; FORMAT={-:-/ absolute / metric / decimal}
; #@! TF.CreationDate,2025-05-23T10:36:24+02:00
; #@! TF.GenerationSoftware,Kicad,Pcbnew,8.0.1
; #@! TF.FileFunction,NonPlated,1,2,NPTH
FMAT,2
METRIC
; #@! TA.AperFunction,NonPlated,NPTH,ComponentDrill
T1C0.500
; #@! TA.AperFunction,NonPlated,NPTH,ComponentDrill
T2C1.152
%
G90
G05
T1
X0.0Y-7.0
X0.0Y-117.0
X0.833Y-7.0
X0.833Y-117.0
X1.667Y-7.0
X1.667Y-117.0
X2.5Y-7.0
X2.5Y-117.0
X3.333Y-7.0
X3.333Y-117.0
X4.167Y-7.0
X4.167Y-117.0
X5.0Y-7.0
X5.0Y-117.0
X7.0Y0.0
X7.0Y-0.833
X7.0Y-1.667
X7.0Y-2.5
X7.0Y-3.333
X7.0Y-4.167
X7.0Y-5.0
X7.0Y-59.5
X7.0Y-60.333
X7.0Y-61.167
X7.0Y-62.0
X7.0Y-62.833
X7.0Y-63.667
X7.0Y-64.5
X7.0Y-119.0
X7.0Y-119.833
X7.0Y-120.667
X7.0Y-121.5
X7.0Y-122.333
X7.0Y-123.167
X7.0Y-124.0
X21.049Y-8.5
X21.049Y-20.5
X21.049Y-26.0
X21.049Y-38.0
X21.049Y-43.5
X21.049Y-55.5
X21.049Y-68.5
X21.049Y-80.5
X21.049Y-86.0
X21.049Y-98.0
X21.049Y-103.5
X21.049Y-115.5
X21.899Y-8.5
X21.899Y-20.5
X21.899Y-26.0
X21.899Y-38.0
X21.899Y-43.5
X21.899Y-55.5
X21.899Y-68.5
X21.899Y-80.5
X21.899Y-86.0
X21.899Y-98.0
X21.899Y-103.5
X21.899Y-115.5
X22.75Y-8.5
X22.75Y-20.5
X22.75Y-26.0
X22.75Y-38.0
X22.75Y-43.5
X22.75Y-55.5
X22.75Y-68.5
X22.75Y-80.5
X22.75Y-86.0
X22.75Y-98.0
X22.75Y-103.5
X22.75Y-115.5
X23.6Y-8.5
X23.6Y-20.5
X23.6Y-26.0
X23.6Y-38.0
X23.6Y-43.5
X23.6Y-55.5
X23.6Y-68.5
X23.6Y-80.5
X23.6Y-86.0
X23.6Y-98.0
X23.6Y-103.5
X23.6Y-115.5
X24.451Y-8.5
X24.451Y-20.5
X24.451Y-26.0
X24.451Y-38.0
X24.451Y-43.5
X24.451Y-55.5
X24.451Y-68.5
X24.451Y-80.5
X24.451Y-86.0
X24.451Y-98.0
X24.451Y-103.5
X24.451Y-115.5
X38.549Y-22.0
X38.549Y-39.5
X38.549Y-57.0
X38.549Y-82.0
X38.549Y-99.5
X38.549Y-117.0
X38.549Y-7.0
X38.549Y-24.5
X38.549Y-42.0
X38.549Y-67.0
X38.549Y-84.5
X38.549Y-102.0
X39.399Y-22.0
X39.399Y-39.5
X39.399Y-57.0
X39.399Y-82.0
X39.399Y-99.5
X39.399Y-117.0
X39.4Y-7.0
X39.4Y-24.5
X39.4Y-42.0
X39.4Y-67.0
X39.4Y-84.5
X39.4Y-102.0
X40.25Y-22.0
X40.25Y-39.5
X40.25Y-57.0
X40.25Y-82.0
X40.25Y-99.5
X40.25Y-117.0
X40.25Y-7.0
X40.25Y-24.5
X40.25Y-42.0
X40.25Y-67.0
X40.25Y-84.5
X40.25Y-102.0
X41.1Y-22.0
X41.1Y-39.5
X41.1Y-57.0
X41.1Y-82.0
X41.1Y-99.5
X41.1Y-117.0
X41.101Y-7.0
X41.101Y-24.5
X41.101Y-42.0
X41.101Y-67.0
X41.101Y-84.5
X41.101Y-102.0
X41.951Y-22.0
X41.951Y-39.5
X41.951Y-57.0
X41.951Y-82.0
X41.951Y-99.5
X41.951Y-117.0
X41.951Y-7.0
X41.951Y-24.5
X41.951Y-42.0
X41.951Y-67.0
X41.951Y-84.5
X41.951Y-102.0
X57.549Y-22.0
X57.549Y-39.5
X57.549Y-57.0
X57.549Y-82.0
X57.549Y-99.5
X57.549Y-117.0
X57.549Y-7.0
X57.549Y-24.5
X57.549Y-42.0
X57.549Y-67.0
X57.549Y-84.5
X57.549Y-102.0
X58.399Y-22.0
X58.399Y-39.5
X58.399Y-57.0
X58.399Y-82.0
X58.399Y-99.5
X58.399Y-117.0
X58.4Y-7.0
X58.4Y-24.5
X58.4Y-42.0
X58.4Y-67.0
X58.4Y-84.5
X58.4Y-102.0
X59.25Y-22.0
X59.25Y-39.5
X59.25Y-57.0
X59.25Y-82.0
X59.25Y-99.5
X59.25Y-117.0
X59.25Y-7.0
X59.25Y-24.5
X59.25Y-42.0
X59.25Y-67.0
X59.25Y-84.5
X59.25Y-102.0
X60.1Y-22.0
X60.1Y-39.5
X60.1Y-57.0
X60.1Y-82.0
X60.1Y-99.5
X60.1Y-117.0
X60.101Y-7.0
X60.101Y-24.5
X60.101Y-42.0
X60.101Y-67.0
X60.101Y-84.5
X60.101Y-102.0
X60.951Y-22.0
X60.951Y-39.5
X60.951Y-57.0
X60.951Y-82.0
X60.951Y-99.5
X60.951Y-117.0
X60.951Y-7.0
X60.951Y-24.5
X60.951Y-42.0
X60.951Y-67.0
X60.951Y-84.5
X60.951Y-102.0
X67.75Y-7.0
X67.75Y-20.75
X67.75Y-25.75
X67.75Y-38.25
X67.75Y-43.25
X67.75Y-59.5
X67.75Y-59.5
X67.75Y-60.333
X67.75Y-61.167
X67.75Y-62.0
X67.75Y-62.833
X67.75Y-63.667
X67.75Y-64.5
X67.75Y-64.5
X67.75Y-80.75
X67.75Y-85.75
X67.75Y-98.25
X67.75Y-103.25
X67.75Y-117.0
X68.583Y-7.0
X68.583Y-20.75
X68.583Y-25.75
X68.583Y-38.25
X68.583Y-43.25
X68.583Y-59.5
X68.583Y-64.5
X68.583Y-80.75
X68.583Y-85.75
X68.583Y-98.25
X68.583Y-103.25
X68.583Y-117.0
X69.417Y-7.0
X69.417Y-20.75
X69.417Y-25.75
X69.417Y-38.25
X69.417Y-43.25
X69.417Y-59.5
X69.417Y-64.5
X69.417Y-80.75
X69.417Y-85.75
X69.417Y-98.25
X69.417Y-103.25
X69.417Y-117.0
X70.25Y-7.0
X70.25Y-20.75
X70.25Y-25.75
X70.25Y-38.25
X70.25Y-43.25
X70.25Y-59.5
X70.25Y-64.5
X70.25Y-80.75
X70.25Y-85.75
X70.25Y-98.25
X70.25Y-103.25
X70.25Y-117.0
X71.083Y-7.0
X71.083Y-20.75
X71.083Y-25.75
X71.083Y-38.25
X71.083Y-43.25
X71.083Y-59.5
X71.083Y-64.5
X71.083Y-80.75
X71.083Y-85.75
X71.083Y-98.25
X71.083Y-103.25
X71.083Y-117.0
X71.917Y-7.0
X71.917Y-20.75
X71.917Y-25.75
X71.917Y-38.25
X71.917Y-43.25
X71.917Y-59.5
X71.917Y-64.5
X71.917Y-80.75
X71.917Y-85.75
X71.917Y-98.25
X71.917Y-103.25
X71.917Y-117.0
X72.75Y-7.0
X72.75Y-20.75
X72.75Y-25.75
X72.75Y-38.25
X72.75Y-43.25
X72.75Y-59.5
X72.75Y-59.5
X72.75Y-60.333
X72.75Y-61.167
X72.75Y-62.0
X72.75Y-62.833
X72.75Y-63.667
X72.75Y-64.5
X72.75Y-64.5
X72.75Y-80.75
X72.75Y-85.75
X72.75Y-98.25
X72.75Y-103.25
X72.75Y-117.0
X89.299Y-8.5
X89.299Y-20.5
X89.299Y-26.0
X89.299Y-38.0
X89.299Y-43.5
X89.299Y-55.5
X89.299Y-68.5
X89.299Y-80.5
X89.299Y-86.0
X89.299Y-98.0
X89.299Y-103.5
X89.299Y-115.5
X90.149Y-8.5
X90.149Y-20.5
X90.149Y-26.0
X90.149Y-38.0
X90.149Y-43.5
X90.149Y-55.5
X90.149Y-68.5
X90.149Y-80.5
X90.149Y-86.0
X90.149Y-98.0
X90.149Y-103.5
X90.149Y-115.5
X91.0Y-8.5
X91.0Y-20.5
X91.0Y-26.0
X91.0Y-38.0
X91.0Y-43.5
X91.0Y-55.5
X91.0Y-68.5
X91.0Y-80.5
X91.0Y-86.0
X91.0Y-98.0
X91.0Y-103.5
X91.0Y-115.5
X91.85Y-8.5
X91.85Y-20.5
X91.85Y-26.0
X91.85Y-38.0
X91.85Y-43.5
X91.85Y-55.5
X91.85Y-68.5
X91.85Y-80.5
X91.85Y-86.0
X91.85Y-98.0
X91.85Y-103.5
X91.85Y-115.5
X92.701Y-8.5
X92.701Y-20.5
X92.701Y-26.0
X92.701Y-38.0
X92.701Y-43.5
X92.701Y-55.5
X92.701Y-68.5
X92.701Y-80.5
X92.701Y-86.0
X92.701Y-98.0
X92.701Y-103.5
X92.701Y-115.5
X106.799Y-22.0
X106.799Y-39.5
X106.799Y-57.0
X106.799Y-82.0
X106.799Y-99.5
X106.799Y-117.0
X106.799Y-7.0
X106.799Y-24.5
X106.799Y-42.0
X106.799Y-67.0
X106.799Y-84.5
X106.799Y-102.0
X107.649Y-22.0
X107.649Y-39.5
X107.649Y-57.0
X107.649Y-82.0
X107.649Y-99.5
X107.649Y-117.0
X107.65Y-7.0
X107.65Y-24.5
X107.65Y-42.0
X107.65Y-67.0
X107.65Y-84.5
X107.65Y-102.0
X108.5Y-22.0
X108.5Y-39.5
X108.5Y-57.0
X108.5Y-82.0
X108.5Y-99.5
X108.5Y-117.0
X108.5Y-7.0
X108.5Y-24.5
X108.5Y-42.0
X108.5Y-67.0
X108.5Y-84.5
X108.5Y-102.0
X109.35Y-22.0
X109.35Y-39.5
X109.35Y-57.0
X109.35Y-82.0
X109.35Y-99.5
X109.35Y-117.0
X109.351Y-7.0
X109.351Y-24.5
X109.351Y-42.0
X109.351Y-67.0
X109.351Y-84.5
X109.351Y-102.0
X110.201Y-22.0
X110.201Y-39.5
X110.201Y-57.0
X110.201Y-82.0
X110.201Y-99.5
X110.201Y-117.0
X110.201Y-7.0
X110.201Y-24.5
X110.201Y-42.0
X110.201Y-67.0
X110.201Y-84.5
X110.201Y-102.0
X125.799Y-22.0
X125.799Y-39.5
X125.799Y-57.0
X125.799Y-82.0
X125.799Y-99.5
X125.799Y-117.0
X125.799Y-7.0
X125.799Y-24.5
X125.799Y-42.0
X125.799Y-67.0
X125.799Y-84.5
X125.799Y-102.0
X126.649Y-22.0
X126.649Y-39.5
X126.649Y-57.0
X126.649Y-82.0
X126.649Y-99.5
X126.649Y-117.0
X126.65Y-7.0
X126.65Y-24.5
X126.65Y-42.0
X126.65Y-67.0
X126.65Y-84.5
X126.65Y-102.0
X127.5Y-22.0
X127.5Y-39.5
X127.5Y-57.0
X127.5Y-82.0
X127.5Y-99.5
X127.5Y-117.0
X127.5Y-7.0
X127.5Y-24.5
X127.5Y-42.0
X127.5Y-67.0
X127.5Y-84.5
X127.5Y-102.0
X128.35Y-22.0
X128.35Y-39.5
X128.35Y-57.0
X128.35Y-82.0
X128.35Y-99.5
X128.35Y-117.0
X128.351Y-7.0
X128.351Y-24.5
X128.351Y-42.0
X128.351Y-67.0
X128.351Y-84.5
X128.351Y-102.0
X129.201Y-22.0
X129.201Y-39.5
X129.201Y-57.0
X129.201Y-82.0
X129.201Y-99.5
X129.201Y-117.0
X129.201Y-7.0
X129.201Y-24.5
X129.201Y-42.0
X129.201Y-67.0
X129.201Y-84.5
X129.201Y-102.0
X133.5Y0.0
X133.5Y-0.833
X133.5Y-1.667
X133.5Y-2.5
X133.5Y-3.333
X133.5Y-4.167
X133.5Y-5.0
X133.5Y-59.5
X133.5Y-60.333
X133.5Y-61.167
X133.5Y-62.0
X133.5Y-62.833
X133.5Y-63.667
X133.5Y-64.5
X133.5Y-119.0
X133.5Y-119.833
X133.5Y-120.667
X133.5Y-121.5
X133.5Y-122.333
X133.5Y-123.167
X133.5Y-124.0
X135.5Y-7.0
X135.5Y-117.0
X136.333Y-7.0
X136.333Y-117.0
X137.167Y-7.0
X137.167Y-117.0
X138.0Y-7.0
X138.0Y-117.0
X138.833Y-7.0
X138.833Y-117.0
X139.667Y-7.0
X139.667Y-117.0
X140.5Y-7.0
X140.5Y-117.0
T2
X2.5Y-2.5
X2.5Y-121.5
X138.0Y-2.5
X138.0Y-121.5
M30
