M48
; DRILL file {KiCad 8.0.1} date 2025-05-23T10:36:48+0200
; FORMAT={-:-/ absolute / metric / decimal}
; #@! TF.CreationDate,2025-05-23T10:36:48+02:00
; #@! TF.GenerationSoftware,Kicad,Pcbnew,8.0.1
; #@! TF.FileFunction,NonPlated,1,2,NPTH
FMAT,2
METRIC
; #@! TA.AperFunction,NonPlated,NPTH,ComponentDrill
T1C0.500
; #@! TA.AperFunction,NonPlated,NPTH,ComponentDrill
T2C1.152
%
G90
G05
T1
X0.0Y-7.0
X0.0Y-82.0
X0.911Y-7.0
X0.911Y-82.0
X1.821Y-7.0
X1.821Y-82.0
X2.732Y-7.0
X2.732Y-82.0
X3.643Y-7.0
X3.643Y-82.0
X4.554Y-7.0
X4.554Y-82.0
X5.464Y-7.0
X5.464Y-82.0
X6.375Y-7.0
X6.375Y-82.0
X8.375Y0.0
X8.375Y-0.833
X8.375Y-1.667
X8.375Y-2.5
X8.375Y-3.333
X8.375Y-4.167
X8.375Y-5.0
X8.375Y-42.0
X8.375Y-42.833
X8.375Y-43.667
X8.375Y-44.5
X8.375Y-45.333
X8.375Y-46.167
X8.375Y-47.0
X8.375Y-84.0
X8.375Y-84.833
X8.375Y-85.667
X8.375Y-86.5
X8.375Y-87.333
X8.375Y-88.167
X8.375Y-89.0
X22.424Y-8.5
X22.424Y-20.5
X22.424Y-26.0
X22.424Y-38.0
X22.424Y-51.0
X22.424Y-63.0
X22.424Y-68.5
X22.424Y-80.5
X23.274Y-8.5
X23.274Y-20.5
X23.274Y-26.0
X23.274Y-38.0
X23.274Y-51.0
X23.274Y-63.0
X23.274Y-68.5
X23.274Y-80.5
X24.125Y-8.5
X24.125Y-20.5
X24.125Y-26.0
X24.125Y-38.0
X24.125Y-51.0
X24.125Y-63.0
X24.125Y-68.5
X24.125Y-80.5
X24.975Y-8.5
X24.975Y-20.5
X24.975Y-26.0
X24.975Y-38.0
X24.975Y-51.0
X24.975Y-63.0
X24.975Y-68.5
X24.975Y-80.5
X25.826Y-8.5
X25.826Y-20.5
X25.826Y-26.0
X25.826Y-38.0
X25.826Y-51.0
X25.826Y-63.0
X25.826Y-68.5
X25.826Y-80.5
X39.924Y-22.0
X39.924Y-39.5
X39.924Y-64.5
X39.924Y-82.0
X39.924Y-7.0
X39.924Y-24.5
X39.924Y-49.5
X39.924Y-67.0
X40.774Y-22.0
X40.774Y-39.5
X40.774Y-64.5
X40.774Y-82.0
X40.775Y-7.0
X40.775Y-24.5
X40.775Y-49.5
X40.775Y-67.0
X41.625Y-22.0
X41.625Y-39.5
X41.625Y-64.5
X41.625Y-82.0
X41.625Y-7.0
X41.625Y-24.5
X41.625Y-49.5
X41.625Y-67.0
X42.475Y-22.0
X42.475Y-39.5
X42.475Y-64.5
X42.475Y-82.0
X42.476Y-7.0
X42.476Y-24.5
X42.476Y-49.5
X42.476Y-67.0
X43.326Y-22.0
X43.326Y-39.5
X43.326Y-64.5
X43.326Y-82.0
X43.326Y-7.0
X43.326Y-24.5
X43.326Y-49.5
X43.326Y-67.0
X58.924Y-22.0
X58.924Y-39.5
X58.924Y-64.5
X58.924Y-82.0
X58.924Y-7.0
X58.924Y-24.5
X58.924Y-49.5
X58.924Y-67.0
X59.774Y-22.0
X59.774Y-39.5
X59.774Y-64.5
X59.774Y-82.0
X59.775Y-7.0
X59.775Y-24.5
X59.775Y-49.5
X59.775Y-67.0
X60.625Y-22.0
X60.625Y-39.5
X60.625Y-64.5
X60.625Y-82.0
X60.625Y-7.0
X60.625Y-24.5
X60.625Y-49.5
X60.625Y-67.0
X61.475Y-22.0
X61.475Y-39.5
X61.475Y-64.5
X61.475Y-82.0
X61.476Y-7.0
X61.476Y-24.5
X61.476Y-49.5
X61.476Y-67.0
X62.326Y-22.0
X62.326Y-39.5
X62.326Y-64.5
X62.326Y-82.0
X62.326Y-7.0
X62.326Y-24.5
X62.326Y-49.5
X62.326Y-67.0
X66.625Y0.0
X66.625Y-0.833
X66.625Y-1.667
X66.625Y-2.5
X66.625Y-3.333
X66.625Y-4.167
X66.625Y-5.0
X66.625Y-42.0
X66.625Y-42.833
X66.625Y-43.667
X66.625Y-44.5
X66.625Y-45.333
X66.625Y-46.167
X66.625Y-47.0
X66.625Y-84.0
X66.625Y-84.833
X66.625Y-85.667
X66.625Y-86.5
X66.625Y-87.333
X66.625Y-88.167
X66.625Y-89.0
X68.625Y-7.0
X68.625Y-82.0
X69.536Y-7.0
X69.536Y-82.0
X70.446Y-7.0
X70.446Y-82.0
X71.357Y-7.0
X71.357Y-82.0
X72.268Y-7.0
X72.268Y-82.0
X73.179Y-7.0
X73.179Y-82.0
X74.089Y-7.0
X74.089Y-82.0
X75.0Y-7.0
X75.0Y-82.0
T2
X2.5Y-2.5
X2.5Y-86.5
X72.5Y-2.5
X72.5Y-86.5
M30
