G04 #@! TF.GenerationSoftware,KiCad,Pcbnew,8.0.1*
G04 #@! TF.CreationDate,2025-05-23T10:36:48+02:00*
G04 #@! TF.ProjectId,panel-4,70616e65-6c2d-4342-9e6b-696361645f70,F*
G04 #@! TF.SameCoordinates,Original*
G04 #@! TF.FileFunction,Soldermask,Bot*
G04 #@! TF.FilePolarity,Negative*
%FSLAX46Y46*%
G04 Gerber Fmt 4.6, Leading zero omitted, Abs format (unit mm)*
G04 Created by KiCad (PCBNEW 8.0.1) date 2025-05-23 10:36:48*
%MOMM*%
%LPD*%
G01*
G04 APERTURE LIST*
%ADD10C,0.500000*%
%ADD11C,2.000000*%
%ADD12C,1.152000*%
G04 APERTURE END LIST*
D10*
G04 #@! TO.C,KiKit_MB_17_2*
X23274498Y-51000173D03*
G04 #@! TD*
G04 #@! TO.C,KiKit_MB_33_8*
X75000000Y-7000000D03*
G04 #@! TD*
G04 #@! TO.C,KiKit_MB_6_2*
X24975498Y-20499804D03*
G04 #@! TD*
G04 #@! TO.C,KiKit_MB_14_2*
X40774502Y-49500274D03*
G04 #@! TD*
G04 #@! TO.C,KiKit_MB_17_1*
X22423998Y-51000162D03*
G04 #@! TD*
G04 #@! TO.C,KiKit_MB_6_4*
X23274498Y-20499826D03*
G04 #@! TD*
G04 #@! TO.C,KiKit_MB_18_4*
X23274498Y-62999826D03*
G04 #@! TD*
G04 #@! TO.C,KiKit_MB_21_2*
X61475499Y-82000000D03*
G04 #@! TD*
G04 #@! TO.C,KiKit_MB_24_5*
X22423998Y-80499837D03*
G04 #@! TD*
G04 #@! TO.C,KiKit_MB_9_2*
X61475499Y-39500000D03*
G04 #@! TD*
D11*
G04 #@! TO.C,0-J5*
X64875000Y-19750000D03*
G04 #@! TD*
D10*
G04 #@! TO.C,KiKit_MB_21_5*
X58924000Y-82000000D03*
G04 #@! TD*
D11*
G04 #@! TO.C,0-J2*
X64875000Y-9250000D03*
G04 #@! TD*
D10*
G04 #@! TO.C,KiKit_MB_7_1*
X43325999Y-39500000D03*
G04 #@! TD*
G04 #@! TO.C,KiKit_MB_11_4*
X24975498Y-26000195D03*
G04 #@! TD*
G04 #@! TO.C,KiKit_MB_34_1*
X68625000Y-82000000D03*
G04 #@! TD*
G04 #@! TO.C,KiKit_MB_4_2*
X59774502Y-7000061D03*
G04 #@! TD*
D11*
G04 #@! TO.C,2-J2*
X64875000Y-51750000D03*
G04 #@! TD*
D10*
G04 #@! TO.C,KiKit_MB_16_3*
X60625002Y-49500050D03*
G04 #@! TD*
G04 #@! TO.C,KiKit_MB_23_1*
X22423998Y-68500162D03*
G04 #@! TD*
G04 #@! TO.C,KiKit_MB_11_5*
X25825998Y-26000206D03*
G04 #@! TD*
G04 #@! TO.C,KiKit_MB_31_5*
X3642858Y-7000000D03*
G04 #@! TD*
G04 #@! TO.C,KiKit_MB_28_1*
X66625000Y0D03*
G04 #@! TD*
G04 #@! TO.C,KiKit_MB_21_4*
X59774500Y-82000000D03*
G04 #@! TD*
G04 #@! TO.C,KiKit_MB_31_8*
X6375000Y-7000000D03*
G04 #@! TD*
G04 #@! TO.C,KiKit_MB_15_4*
X59774500Y-64500000D03*
G04 #@! TD*
G04 #@! TO.C,KiKit_MB_28_6*
X66625000Y-4166667D03*
G04 #@! TD*
D11*
G04 #@! TO.C,3-J4*
X64875000Y-76250000D03*
G04 #@! TD*
D10*
G04 #@! TO.C,KiKit_MB_4_3*
X60625002Y-7000051D03*
G04 #@! TD*
G04 #@! TO.C,KiKit_MB_16_1*
X58924002Y-49500069D03*
G04 #@! TD*
G04 #@! TO.C,KiKit_MB_2_4*
X42475502Y-7000255D03*
G04 #@! TD*
G04 #@! TO.C,KiKit_MB_3_4*
X59774500Y-22000000D03*
G04 #@! TD*
G04 #@! TO.C,KiKit_MB_10_2*
X59774502Y-24500060D03*
G04 #@! TD*
G04 #@! TO.C,KiKit_MB_33_4*
X71357142Y-7000000D03*
G04 #@! TD*
G04 #@! TO.C,KiKit_MB_10_5*
X62326001Y-24500031D03*
G04 #@! TD*
G04 #@! TO.C,KiKit_MB_30_6*
X66625000Y-88166666D03*
G04 #@! TD*
G04 #@! TO.C,KiKit_MB_5_2*
X23274498Y-8500174D03*
G04 #@! TD*
G04 #@! TO.C,KiKit_MB_1_1*
X43325999Y-22000000D03*
G04 #@! TD*
G04 #@! TO.C,KiKit_MB_31_3*
X1821429Y-7000000D03*
G04 #@! TD*
G04 #@! TO.C,KiKit_MB_12_1*
X25825998Y-37999793D03*
G04 #@! TD*
G04 #@! TO.C,KiKit_MB_5_4*
X24975498Y-8500196D03*
G04 #@! TD*
G04 #@! TO.C,KiKit_MB_24_2*
X24975498Y-80499804D03*
G04 #@! TD*
G04 #@! TO.C,KiKit_MB_3_1*
X62325999Y-22000000D03*
G04 #@! TD*
G04 #@! TO.C,KiKit_MB_25_2*
X8375000Y-42833333D03*
G04 #@! TD*
G04 #@! TO.C,KiKit_MB_30_1*
X66625000Y-84000000D03*
G04 #@! TD*
G04 #@! TO.C,KiKit_MB_4_5*
X62326001Y-7000032D03*
G04 #@! TD*
G04 #@! TO.C,KiKit_MB_32_2*
X910715Y-82000000D03*
G04 #@! TD*
G04 #@! TO.C,KiKit_MB_32_7*
X5464286Y-82000000D03*
G04 #@! TD*
G04 #@! TO.C,KiKit_MB_24_1*
X25825998Y-80499793D03*
G04 #@! TD*
G04 #@! TO.C,KiKit_MB_10_4*
X61475502Y-24500041D03*
G04 #@! TD*
G04 #@! TO.C,KiKit_MB_26_4*
X66625000Y-44500000D03*
G04 #@! TD*
G04 #@! TO.C,KiKit_MB_15_2*
X61475499Y-64500000D03*
G04 #@! TD*
G04 #@! TO.C,KiKit_MB_24_3*
X24124998Y-80499815D03*
G04 #@! TD*
G04 #@! TO.C,KiKit_MB_32_4*
X2732143Y-82000000D03*
G04 #@! TD*
G04 #@! TO.C,KiKit_MB_20_1*
X39924002Y-67000283D03*
G04 #@! TD*
G04 #@! TO.C,KiKit_MB_34_4*
X71357142Y-82000000D03*
G04 #@! TD*
G04 #@! TO.C,KiKit_MB_13_2*
X42475499Y-64500000D03*
G04 #@! TD*
G04 #@! TO.C,KiKit_MB_13_5*
X39924000Y-64500000D03*
G04 #@! TD*
G04 #@! TO.C,KiKit_MB_27_7*
X8375000Y-5000000D03*
G04 #@! TD*
G04 #@! TO.C,KiKit_MB_5_1*
X22423998Y-8500163D03*
G04 #@! TD*
G04 #@! TO.C,KiKit_MB_14_4*
X42475502Y-49500254D03*
G04 #@! TD*
G04 #@! TO.C,KiKit_MB_20_2*
X40774502Y-67000274D03*
G04 #@! TD*
G04 #@! TO.C,KiKit_MB_34_8*
X75000000Y-82000000D03*
G04 #@! TD*
G04 #@! TO.C,KiKit_MB_19_3*
X41625000Y-82000000D03*
G04 #@! TD*
G04 #@! TO.C,KiKit_MB_13_1*
X43325999Y-64500000D03*
G04 #@! TD*
G04 #@! TO.C,KiKit_MB_30_5*
X66625000Y-87333333D03*
G04 #@! TD*
G04 #@! TO.C,KiKit_MB_32_5*
X3642858Y-82000000D03*
G04 #@! TD*
G04 #@! TO.C,KiKit_MB_12_5*
X22423998Y-37999837D03*
G04 #@! TD*
G04 #@! TO.C,KiKit_MB_33_2*
X69535714Y-7000000D03*
G04 #@! TD*
G04 #@! TO.C,KiKit_MB_2_2*
X40774502Y-7000275D03*
G04 #@! TD*
G04 #@! TO.C,KiKit_MB_24_4*
X23274498Y-80499826D03*
G04 #@! TD*
G04 #@! TO.C,KiKit_MB_28_7*
X66625000Y-5000000D03*
G04 #@! TD*
G04 #@! TO.C,KiKit_MB_33_1*
X68625000Y-7000000D03*
G04 #@! TD*
G04 #@! TO.C,KiKit_MB_33_3*
X70446428Y-7000000D03*
G04 #@! TD*
G04 #@! TO.C,KiKit_MB_2_5*
X43326001Y-7000246D03*
G04 #@! TD*
G04 #@! TO.C,KiKit_MB_28_4*
X66625000Y-2500000D03*
G04 #@! TD*
G04 #@! TO.C,KiKit_MB_10_3*
X60625002Y-24500050D03*
G04 #@! TD*
G04 #@! TO.C,KiKit_MB_19_1*
X43325999Y-82000000D03*
G04 #@! TD*
G04 #@! TO.C,KiKit_MB_3_2*
X61475499Y-22000000D03*
G04 #@! TD*
G04 #@! TO.C,KiKit_MB_32_6*
X4553572Y-82000000D03*
G04 #@! TD*
D12*
G04 #@! TO.C,KiKit_TO_3*
X2500000Y-86500000D03*
G04 #@! TD*
D10*
G04 #@! TO.C,KiKit_MB_29_4*
X8375000Y-86500000D03*
G04 #@! TD*
D11*
G04 #@! TO.C,0-J4*
X64875000Y-16250000D03*
G04 #@! TD*
D10*
G04 #@! TO.C,KiKit_MB_26_7*
X66625000Y-47000000D03*
G04 #@! TD*
G04 #@! TO.C,KiKit_MB_15_5*
X58924000Y-64500000D03*
G04 #@! TD*
G04 #@! TO.C,KiKit_MB_12_3*
X24124998Y-37999815D03*
G04 #@! TD*
G04 #@! TO.C,KiKit_MB_27_5*
X8375000Y-3333334D03*
G04 #@! TD*
D11*
G04 #@! TO.C,3-J3*
X64875000Y-72750000D03*
G04 #@! TD*
D10*
G04 #@! TO.C,KiKit_MB_5_3*
X24124998Y-8500185D03*
G04 #@! TD*
G04 #@! TO.C,KiKit_MB_8_4*
X42475502Y-24500254D03*
G04 #@! TD*
D11*
G04 #@! TO.C,1-J4*
X64875000Y-33750000D03*
G04 #@! TD*
D10*
G04 #@! TO.C,KiKit_MB_19_5*
X39924000Y-82000000D03*
G04 #@! TD*
G04 #@! TO.C,KiKit_MB_9_1*
X62325999Y-39500000D03*
G04 #@! TD*
G04 #@! TO.C,KiKit_MB_25_7*
X8375000Y-47000000D03*
G04 #@! TD*
G04 #@! TO.C,KiKit_MB_29_7*
X8375000Y-89000000D03*
G04 #@! TD*
G04 #@! TO.C,KiKit_MB_7_2*
X42475499Y-39500000D03*
G04 #@! TD*
D11*
G04 #@! TO.C,2-J4*
X64875000Y-58750000D03*
G04 #@! TD*
D10*
G04 #@! TO.C,KiKit_MB_6_3*
X24124998Y-20499815D03*
G04 #@! TD*
G04 #@! TO.C,KiKit_MB_1_4*
X40774500Y-22000000D03*
G04 #@! TD*
G04 #@! TO.C,KiKit_MB_21_3*
X60625000Y-82000000D03*
G04 #@! TD*
G04 #@! TO.C,KiKit_MB_34_2*
X69535714Y-82000000D03*
G04 #@! TD*
G04 #@! TO.C,KiKit_MB_27_1*
X8375000Y0D03*
G04 #@! TD*
G04 #@! TO.C,KiKit_MB_31_2*
X910715Y-7000000D03*
G04 #@! TD*
G04 #@! TO.C,KiKit_MB_9_5*
X58924000Y-39500000D03*
G04 #@! TD*
G04 #@! TO.C,KiKit_MB_7_4*
X40774500Y-39500000D03*
G04 #@! TD*
G04 #@! TO.C,KiKit_MB_13_3*
X41625000Y-64500000D03*
G04 #@! TD*
G04 #@! TO.C,KiKit_MB_29_6*
X8375000Y-88166666D03*
G04 #@! TD*
G04 #@! TO.C,KiKit_MB_26_2*
X66625000Y-42833333D03*
G04 #@! TD*
G04 #@! TO.C,KiKit_MB_25_6*
X8375000Y-46166666D03*
G04 #@! TD*
G04 #@! TO.C,KiKit_MB_1_2*
X42475499Y-22000000D03*
G04 #@! TD*
D12*
G04 #@! TO.C,KiKit_TO_1*
X2500000Y-2500000D03*
G04 #@! TD*
D10*
G04 #@! TO.C,KiKit_MB_22_3*
X60625002Y-67000050D03*
G04 #@! TD*
G04 #@! TO.C,KiKit_MB_28_2*
X66625000Y-833334D03*
G04 #@! TD*
G04 #@! TO.C,KiKit_MB_1_5*
X39924000Y-22000000D03*
G04 #@! TD*
D12*
G04 #@! TO.C,KiKit_TO_2*
X72500000Y-2500000D03*
G04 #@! TD*
D11*
G04 #@! TO.C,2-J3*
X64875000Y-55250000D03*
G04 #@! TD*
D10*
G04 #@! TO.C,KiKit_MB_23_3*
X24124998Y-68500184D03*
G04 #@! TD*
G04 #@! TO.C,KiKit_MB_3_3*
X60625000Y-22000000D03*
G04 #@! TD*
G04 #@! TO.C,KiKit_MB_4_4*
X61475502Y-7000042D03*
G04 #@! TD*
G04 #@! TO.C,KiKit_MB_29_3*
X8375000Y-85666666D03*
G04 #@! TD*
G04 #@! TO.C,KiKit_MB_34_3*
X70446428Y-82000000D03*
G04 #@! TD*
G04 #@! TO.C,KiKit_MB_23_2*
X23274498Y-68500173D03*
G04 #@! TD*
G04 #@! TO.C,KiKit_MB_4_1*
X58924002Y-7000070D03*
G04 #@! TD*
G04 #@! TO.C,KiKit_MB_2_1*
X39924002Y-7000284D03*
G04 #@! TD*
G04 #@! TO.C,KiKit_MB_8_2*
X40774502Y-24500274D03*
G04 #@! TD*
G04 #@! TO.C,KiKit_MB_9_3*
X60625000Y-39500000D03*
G04 #@! TD*
G04 #@! TO.C,KiKit_MB_27_4*
X8375000Y-2500000D03*
G04 #@! TD*
D11*
G04 #@! TO.C,2-J5*
X64875000Y-62250000D03*
G04 #@! TD*
D10*
G04 #@! TO.C,KiKit_MB_9_4*
X59774500Y-39500000D03*
G04 #@! TD*
G04 #@! TO.C,KiKit_MB_18_5*
X22423998Y-62999837D03*
G04 #@! TD*
G04 #@! TO.C,KiKit_MB_22_4*
X61475502Y-67000041D03*
G04 #@! TD*
G04 #@! TO.C,KiKit_MB_7_3*
X41625000Y-39500000D03*
G04 #@! TD*
G04 #@! TO.C,KiKit_MB_16_5*
X62326001Y-49500031D03*
G04 #@! TD*
G04 #@! TO.C,KiKit_MB_2_3*
X41625002Y-7000265D03*
G04 #@! TD*
D11*
G04 #@! TO.C,1-J2*
X64875000Y-26750000D03*
G04 #@! TD*
D10*
G04 #@! TO.C,KiKit_MB_27_3*
X8375000Y-1666667D03*
G04 #@! TD*
G04 #@! TO.C,KiKit_MB_15_3*
X60625000Y-64500000D03*
G04 #@! TD*
G04 #@! TO.C,KiKit_MB_28_5*
X66625000Y-3333334D03*
G04 #@! TD*
G04 #@! TO.C,KiKit_MB_25_1*
X8375000Y-42000000D03*
G04 #@! TD*
G04 #@! TO.C,KiKit_MB_10_1*
X58924002Y-24500069D03*
G04 #@! TD*
G04 #@! TO.C,KiKit_MB_3_5*
X58924000Y-22000000D03*
G04 #@! TD*
G04 #@! TO.C,KiKit_MB_19_4*
X40774500Y-82000000D03*
G04 #@! TD*
G04 #@! TO.C,KiKit_MB_20_5*
X43326001Y-67000245D03*
G04 #@! TD*
G04 #@! TO.C,KiKit_MB_12_2*
X24975498Y-37999804D03*
G04 #@! TD*
G04 #@! TO.C,KiKit_MB_27_2*
X8375000Y-833334D03*
G04 #@! TD*
G04 #@! TO.C,KiKit_MB_16_4*
X61475502Y-49500041D03*
G04 #@! TD*
G04 #@! TO.C,KiKit_MB_20_3*
X41625002Y-67000264D03*
G04 #@! TD*
G04 #@! TO.C,KiKit_MB_14_3*
X41625002Y-49500264D03*
G04 #@! TD*
G04 #@! TO.C,KiKit_MB_19_2*
X42475499Y-82000000D03*
G04 #@! TD*
G04 #@! TO.C,KiKit_MB_34_5*
X72267857Y-82000000D03*
G04 #@! TD*
G04 #@! TO.C,KiKit_MB_5_5*
X25825998Y-8500207D03*
G04 #@! TD*
G04 #@! TO.C,KiKit_MB_7_5*
X39924000Y-39500000D03*
G04 #@! TD*
G04 #@! TO.C,KiKit_MB_23_4*
X24975498Y-68500195D03*
G04 #@! TD*
G04 #@! TO.C,KiKit_MB_25_5*
X8375000Y-45333333D03*
G04 #@! TD*
G04 #@! TO.C,KiKit_MB_34_6*
X73178571Y-82000000D03*
G04 #@! TD*
G04 #@! TO.C,KiKit_MB_8_1*
X39924002Y-24500283D03*
G04 #@! TD*
G04 #@! TO.C,KiKit_MB_31_6*
X4553572Y-7000000D03*
G04 #@! TD*
G04 #@! TO.C,KiKit_MB_32_1*
X0Y-82000000D03*
G04 #@! TD*
G04 #@! TO.C,KiKit_MB_33_6*
X73178571Y-7000000D03*
G04 #@! TD*
G04 #@! TO.C,KiKit_MB_29_2*
X8375000Y-84833333D03*
G04 #@! TD*
G04 #@! TO.C,KiKit_MB_11_2*
X23274498Y-26000173D03*
G04 #@! TD*
G04 #@! TO.C,KiKit_MB_22_5*
X62326001Y-67000031D03*
G04 #@! TD*
G04 #@! TO.C,KiKit_MB_26_1*
X66625000Y-42000000D03*
G04 #@! TD*
G04 #@! TO.C,KiKit_MB_26_3*
X66625000Y-43666666D03*
G04 #@! TD*
D11*
G04 #@! TO.C,0-J3*
X64875000Y-12750000D03*
G04 #@! TD*
D10*
G04 #@! TO.C,KiKit_MB_29_5*
X8375000Y-87333333D03*
G04 #@! TD*
D11*
G04 #@! TO.C,3-J2*
X64875000Y-69250000D03*
G04 #@! TD*
D10*
G04 #@! TO.C,KiKit_MB_17_4*
X24975498Y-51000195D03*
G04 #@! TD*
G04 #@! TO.C,KiKit_MB_30_7*
X66625000Y-89000000D03*
G04 #@! TD*
G04 #@! TO.C,KiKit_MB_14_1*
X39924002Y-49500283D03*
G04 #@! TD*
G04 #@! TO.C,KiKit_MB_11_3*
X24124998Y-26000184D03*
G04 #@! TD*
D12*
G04 #@! TO.C,KiKit_TO_4*
X72500000Y-86500000D03*
G04 #@! TD*
D10*
G04 #@! TO.C,KiKit_MB_16_2*
X59774502Y-49500060D03*
G04 #@! TD*
G04 #@! TO.C,KiKit_MB_14_5*
X43326001Y-49500245D03*
G04 #@! TD*
G04 #@! TO.C,KiKit_MB_30_2*
X66625000Y-84833333D03*
G04 #@! TD*
G04 #@! TO.C,KiKit_MB_31_1*
X0Y-7000000D03*
G04 #@! TD*
G04 #@! TO.C,KiKit_MB_33_5*
X72267857Y-7000000D03*
G04 #@! TD*
G04 #@! TO.C,KiKit_MB_31_7*
X5464286Y-7000000D03*
G04 #@! TD*
G04 #@! TO.C,KiKit_MB_26_6*
X66625000Y-46166666D03*
G04 #@! TD*
G04 #@! TO.C,KiKit_MB_33_7*
X74089285Y-7000000D03*
G04 #@! TD*
D11*
G04 #@! TO.C,1-J3*
X64875000Y-30250000D03*
G04 #@! TD*
D10*
G04 #@! TO.C,KiKit_MB_8_3*
X41625002Y-24500264D03*
G04 #@! TD*
G04 #@! TO.C,KiKit_MB_20_4*
X42475502Y-67000254D03*
G04 #@! TD*
G04 #@! TO.C,KiKit_MB_22_2*
X59774502Y-67000060D03*
G04 #@! TD*
G04 #@! TO.C,KiKit_MB_6_1*
X25825998Y-20499793D03*
G04 #@! TD*
G04 #@! TO.C,KiKit_MB_17_5*
X25825998Y-51000206D03*
G04 #@! TD*
G04 #@! TO.C,KiKit_MB_28_3*
X66625000Y-1666667D03*
G04 #@! TD*
G04 #@! TO.C,KiKit_MB_15_1*
X62325999Y-64500000D03*
G04 #@! TD*
G04 #@! TO.C,KiKit_MB_26_5*
X66625000Y-45333333D03*
G04 #@! TD*
G04 #@! TO.C,KiKit_MB_27_6*
X8375000Y-4166667D03*
G04 #@! TD*
D11*
G04 #@! TO.C,1-J5*
X64875000Y-37250000D03*
G04 #@! TD*
D10*
G04 #@! TO.C,KiKit_MB_32_3*
X1821429Y-82000000D03*
G04 #@! TD*
G04 #@! TO.C,KiKit_MB_23_5*
X25825998Y-68500206D03*
G04 #@! TD*
G04 #@! TO.C,KiKit_MB_11_1*
X22423998Y-26000162D03*
G04 #@! TD*
G04 #@! TO.C,KiKit_MB_12_4*
X23274498Y-37999826D03*
G04 #@! TD*
G04 #@! TO.C,KiKit_MB_21_1*
X62325999Y-82000000D03*
G04 #@! TD*
G04 #@! TO.C,KiKit_MB_32_8*
X6375000Y-82000000D03*
G04 #@! TD*
G04 #@! TO.C,KiKit_MB_34_7*
X74089285Y-82000000D03*
G04 #@! TD*
G04 #@! TO.C,KiKit_MB_30_4*
X66625000Y-86500000D03*
G04 #@! TD*
G04 #@! TO.C,KiKit_MB_18_1*
X25825998Y-62999793D03*
G04 #@! TD*
G04 #@! TO.C,KiKit_MB_25_4*
X8375000Y-44500000D03*
G04 #@! TD*
G04 #@! TO.C,KiKit_MB_30_3*
X66625000Y-85666666D03*
G04 #@! TD*
G04 #@! TO.C,KiKit_MB_17_3*
X24124998Y-51000184D03*
G04 #@! TD*
G04 #@! TO.C,KiKit_MB_8_5*
X43326001Y-24500245D03*
G04 #@! TD*
D11*
G04 #@! TO.C,3-J5*
X64875000Y-79750000D03*
G04 #@! TD*
D10*
G04 #@! TO.C,KiKit_MB_22_1*
X58924002Y-67000069D03*
G04 #@! TD*
G04 #@! TO.C,KiKit_MB_1_3*
X41625000Y-22000000D03*
G04 #@! TD*
G04 #@! TO.C,KiKit_MB_29_1*
X8375000Y-84000000D03*
G04 #@! TD*
G04 #@! TO.C,KiKit_MB_25_3*
X8375000Y-43666666D03*
G04 #@! TD*
G04 #@! TO.C,KiKit_MB_31_4*
X2732143Y-7000000D03*
G04 #@! TD*
G04 #@! TO.C,KiKit_MB_18_3*
X24124998Y-62999815D03*
G04 #@! TD*
G04 #@! TO.C,KiKit_MB_13_4*
X40774500Y-64500000D03*
G04 #@! TD*
G04 #@! TO.C,KiKit_MB_18_2*
X24975498Y-62999804D03*
G04 #@! TD*
G04 #@! TO.C,KiKit_MB_6_5*
X22423998Y-20499837D03*
G04 #@! TD*
D11*
G04 #@! TO.C,KiKit_FID_B_1*
X4500000Y-4500000D03*
G04 #@! TD*
G04 #@! TO.C,KiKit_FID_B_4*
X70500000Y-84500000D03*
G04 #@! TD*
G04 #@! TO.C,KiKit_FID_B_3*
X4500000Y-84500000D03*
G04 #@! TD*
G04 #@! TO.C,KiKit_FID_B_2*
X70500000Y-4500000D03*
G04 #@! TD*
M02*
