G04 #@! TF.GenerationSoftware,KiCad,Pcbnew,8.0.1*
G04 #@! TF.CreationDate,2025-05-23T10:36:48+02:00*
G04 #@! TF.ProjectId,panel-4,70616e65-6c2d-4342-9e6b-696361645f70,F*
G04 #@! TF.SameCoordinates,Original*
G04 #@! TF.FileFunction,Legend,Top*
G04 #@! TF.FilePolarity,Positive*
%FSLAX46Y46*%
G04 Gerber Fmt 4.6, Leading zero omitted, Abs format (unit mm)*
G04 Created by KiCad (PCBNEW 8.0.1) date 2025-05-23 10:36:48*
%MOMM*%
%LPD*%
G01*
G04 APERTURE LIST*
G04 Aperture macros list*
%AMRoundRect*
0 Rectangle with rounded corners*
0 $1 Rounding radius*
0 $2 $3 $4 $5 $6 $7 $8 $9 X,Y pos of 4 corners*
0 Add a 4 corners polygon primitive as box body*
4,1,4,$2,$3,$4,$5,$6,$7,$8,$9,$2,$3,0*
0 Add four circle primitives for the rounded corners*
1,1,$1+$1,$2,$3*
1,1,$1+$1,$4,$5*
1,1,$1+$1,$6,$7*
1,1,$1+$1,$8,$9*
0 Add four rect primitives between the rounded corners*
20,1,$1+$1,$2,$3,$4,$5,0*
20,1,$1+$1,$4,$5,$6,$7,0*
20,1,$1+$1,$6,$7,$8,$9,0*
20,1,$1+$1,$8,$9,$2,$3,0*%
%AMFreePoly0*
4,1,19,0.550000,-0.750000,0.000000,-0.750000,0.000000,-0.744911,-0.071157,-0.744911,-0.207708,-0.704816,-0.327430,-0.627875,-0.420627,-0.520320,-0.479746,-0.390866,-0.500000,-0.250000,-0.500000,0.250000,-0.479746,0.390866,-0.420627,0.520320,-0.327430,0.627875,-0.207708,0.704816,-0.071157,0.744911,0.000000,0.744911,0.000000,0.750000,0.550000,0.750000,0.550000,-0.750000,0.550000,-0.750000,
$1*%
%AMFreePoly1*
4,1,19,0.000000,0.744911,0.071157,0.744911,0.207708,0.704816,0.327430,0.627875,0.420627,0.520320,0.479746,0.390866,0.500000,0.250000,0.500000,-0.250000,0.479746,-0.390866,0.420627,-0.520320,0.327430,-0.627875,0.207708,-0.704816,0.071157,-0.744911,0.000000,-0.744911,0.000000,-0.750000,-0.550000,-0.750000,-0.550000,0.750000,0.000000,0.750000,0.000000,0.744911,0.000000,0.744911,
$1*%
G04 Aperture macros list end*
%ADD10C,0.400000*%
%ADD11C,0.300000*%
%ADD12C,0.120000*%
%ADD13C,0.100000*%
%ADD14RoundRect,0.200000X-0.200000X-0.275000X0.200000X-0.275000X0.200000X0.275000X-0.200000X0.275000X0*%
%ADD15C,0.500000*%
%ADD16RoundRect,0.200000X0.200000X0.275000X-0.200000X0.275000X-0.200000X-0.275000X0.200000X-0.275000X0*%
%ADD17R,0.750000X1.000000*%
%ADD18RoundRect,0.200000X0.275000X-0.200000X0.275000X0.200000X-0.275000X0.200000X-0.275000X-0.200000X0*%
%ADD19RoundRect,0.112500X-0.112500X0.187500X-0.112500X-0.187500X0.112500X-0.187500X0.112500X0.187500X0*%
%ADD20RoundRect,0.150000X-0.150000X0.512500X-0.150000X-0.512500X0.150000X-0.512500X0.150000X0.512500X0*%
%ADD21FreePoly0,90.000000*%
%ADD22R,1.500000X1.000000*%
%ADD23FreePoly1,90.000000*%
%ADD24C,2.000000*%
%ADD25RoundRect,0.112500X0.112500X-0.187500X0.112500X0.187500X-0.112500X0.187500X-0.112500X-0.187500X0*%
%ADD26RoundRect,0.150000X0.512500X0.150000X-0.512500X0.150000X-0.512500X-0.150000X0.512500X-0.150000X0*%
%ADD27RoundRect,0.225000X-0.225000X-0.250000X0.225000X-0.250000X0.225000X0.250000X-0.225000X0.250000X0*%
%ADD28RoundRect,0.150000X0.150000X-0.512500X0.150000X0.512500X-0.150000X0.512500X-0.150000X-0.512500X0*%
%ADD29RoundRect,0.200000X-0.275000X0.200000X-0.275000X-0.200000X0.275000X-0.200000X0.275000X0.200000X0*%
%ADD30RoundRect,0.225000X0.250000X-0.225000X0.250000X0.225000X-0.250000X0.225000X-0.250000X-0.225000X0*%
%ADD31RoundRect,0.225000X-0.250000X0.225000X-0.250000X-0.225000X0.250000X-0.225000X0.250000X0.225000X0*%
%ADD32RoundRect,0.218750X0.218750X0.256250X-0.218750X0.256250X-0.218750X-0.256250X0.218750X-0.256250X0*%
%ADD33RoundRect,1.000000X5.000000X-0.000010X5.000000X0.000010X-5.000000X0.000010X-5.000000X-0.000010X0*%
%ADD34RoundRect,0.750000X5.000000X-0.000010X5.000000X0.000010X-5.000000X0.000010X-5.000000X-0.000010X0*%
%ADD35RoundRect,0.225000X0.225000X0.250000X-0.225000X0.250000X-0.225000X-0.250000X0.225000X-0.250000X0*%
%ADD36C,1.152000*%
%ADD37RoundRect,0.112500X-0.187500X-0.112500X0.187500X-0.112500X0.187500X0.112500X-0.187500X0.112500X0*%
%ADD38R,0.800000X2.700000*%
%ADD39RoundRect,0.150000X-0.512500X-0.150000X0.512500X-0.150000X0.512500X0.150000X-0.512500X0.150000X0*%
G04 APERTURE END LIST*
D10*
X19357141Y-44356819D02*
X20023808Y-44356819D01*
X20309522Y-45404438D02*
X19357141Y-45404438D01*
X19357141Y-45404438D02*
X19357141Y-43404438D01*
X19357141Y-43404438D02*
X20309522Y-43404438D01*
X21071427Y-45309200D02*
X21357141Y-45404438D01*
X21357141Y-45404438D02*
X21833332Y-45404438D01*
X21833332Y-45404438D02*
X22023808Y-45309200D01*
X22023808Y-45309200D02*
X22119046Y-45213961D01*
X22119046Y-45213961D02*
X22214284Y-45023485D01*
X22214284Y-45023485D02*
X22214284Y-44833009D01*
X22214284Y-44833009D02*
X22119046Y-44642533D01*
X22119046Y-44642533D02*
X22023808Y-44547295D01*
X22023808Y-44547295D02*
X21833332Y-44452057D01*
X21833332Y-44452057D02*
X21452379Y-44356819D01*
X21452379Y-44356819D02*
X21261903Y-44261580D01*
X21261903Y-44261580D02*
X21166665Y-44166342D01*
X21166665Y-44166342D02*
X21071427Y-43975866D01*
X21071427Y-43975866D02*
X21071427Y-43785390D01*
X21071427Y-43785390D02*
X21166665Y-43594914D01*
X21166665Y-43594914D02*
X21261903Y-43499676D01*
X21261903Y-43499676D02*
X21452379Y-43404438D01*
X21452379Y-43404438D02*
X21928570Y-43404438D01*
X21928570Y-43404438D02*
X22214284Y-43499676D01*
X24595237Y-45404438D02*
X24595237Y-43404438D01*
X25452380Y-45309200D02*
X25738094Y-45404438D01*
X25738094Y-45404438D02*
X26214285Y-45404438D01*
X26214285Y-45404438D02*
X26404761Y-45309200D01*
X26404761Y-45309200D02*
X26499999Y-45213961D01*
X26499999Y-45213961D02*
X26595237Y-45023485D01*
X26595237Y-45023485D02*
X26595237Y-44833009D01*
X26595237Y-44833009D02*
X26499999Y-44642533D01*
X26499999Y-44642533D02*
X26404761Y-44547295D01*
X26404761Y-44547295D02*
X26214285Y-44452057D01*
X26214285Y-44452057D02*
X25833332Y-44356819D01*
X25833332Y-44356819D02*
X25642856Y-44261580D01*
X25642856Y-44261580D02*
X25547618Y-44166342D01*
X25547618Y-44166342D02*
X25452380Y-43975866D01*
X25452380Y-43975866D02*
X25452380Y-43785390D01*
X25452380Y-43785390D02*
X25547618Y-43594914D01*
X25547618Y-43594914D02*
X25642856Y-43499676D01*
X25642856Y-43499676D02*
X25833332Y-43404438D01*
X25833332Y-43404438D02*
X26309523Y-43404438D01*
X26309523Y-43404438D02*
X26595237Y-43499676D01*
X27166666Y-43404438D02*
X28309523Y-43404438D01*
X27738094Y-45404438D02*
X27738094Y-43404438D01*
X31166667Y-44356819D02*
X30500000Y-44356819D01*
X30500000Y-45404438D02*
X30500000Y-43404438D01*
X30500000Y-43404438D02*
X31452381Y-43404438D01*
X32214286Y-43404438D02*
X32214286Y-45023485D01*
X32214286Y-45023485D02*
X32309524Y-45213961D01*
X32309524Y-45213961D02*
X32404762Y-45309200D01*
X32404762Y-45309200D02*
X32595238Y-45404438D01*
X32595238Y-45404438D02*
X32976191Y-45404438D01*
X32976191Y-45404438D02*
X33166667Y-45309200D01*
X33166667Y-45309200D02*
X33261905Y-45213961D01*
X33261905Y-45213961D02*
X33357143Y-45023485D01*
X33357143Y-45023485D02*
X33357143Y-43404438D01*
X32404762Y-42737771D02*
X32500000Y-42833009D01*
X32500000Y-42833009D02*
X32404762Y-42928247D01*
X32404762Y-42928247D02*
X32309524Y-42833009D01*
X32309524Y-42833009D02*
X32404762Y-42737771D01*
X32404762Y-42737771D02*
X32404762Y-42928247D01*
X33166667Y-42737771D02*
X33261905Y-42833009D01*
X33261905Y-42833009D02*
X33166667Y-42928247D01*
X33166667Y-42928247D02*
X33071429Y-42833009D01*
X33071429Y-42833009D02*
X33166667Y-42737771D01*
X33166667Y-42737771D02*
X33166667Y-42928247D01*
X34309524Y-45404438D02*
X34309524Y-43404438D01*
X34309524Y-43404438D02*
X35452381Y-45404438D01*
X35452381Y-45404438D02*
X35452381Y-43404438D01*
X37071429Y-44356819D02*
X36404762Y-44356819D01*
X36404762Y-45404438D02*
X36404762Y-43404438D01*
X36404762Y-43404438D02*
X37357143Y-43404438D01*
X39357144Y-43404438D02*
X40023810Y-45404438D01*
X40023810Y-45404438D02*
X40690477Y-43404438D01*
X41738096Y-43404438D02*
X42119049Y-43404438D01*
X42119049Y-43404438D02*
X42309525Y-43499676D01*
X42309525Y-43499676D02*
X42500001Y-43690152D01*
X42500001Y-43690152D02*
X42595239Y-44071104D01*
X42595239Y-44071104D02*
X42595239Y-44737771D01*
X42595239Y-44737771D02*
X42500001Y-45118723D01*
X42500001Y-45118723D02*
X42309525Y-45309200D01*
X42309525Y-45309200D02*
X42119049Y-45404438D01*
X42119049Y-45404438D02*
X41738096Y-45404438D01*
X41738096Y-45404438D02*
X41547620Y-45309200D01*
X41547620Y-45309200D02*
X41357144Y-45118723D01*
X41357144Y-45118723D02*
X41261906Y-44737771D01*
X41261906Y-44737771D02*
X41261906Y-44071104D01*
X41261906Y-44071104D02*
X41357144Y-43690152D01*
X41357144Y-43690152D02*
X41547620Y-43499676D01*
X41547620Y-43499676D02*
X41738096Y-43404438D01*
X44595239Y-45404438D02*
X43928572Y-44452057D01*
X43452382Y-45404438D02*
X43452382Y-43404438D01*
X43452382Y-43404438D02*
X44214287Y-43404438D01*
X44214287Y-43404438D02*
X44404763Y-43499676D01*
X44404763Y-43499676D02*
X44500001Y-43594914D01*
X44500001Y-43594914D02*
X44595239Y-43785390D01*
X44595239Y-43785390D02*
X44595239Y-44071104D01*
X44595239Y-44071104D02*
X44500001Y-44261580D01*
X44500001Y-44261580D02*
X44404763Y-44356819D01*
X44404763Y-44356819D02*
X44214287Y-44452057D01*
X44214287Y-44452057D02*
X43452382Y-44452057D01*
X46785716Y-43404438D02*
X48119049Y-43404438D01*
X48119049Y-43404438D02*
X46785716Y-45404438D01*
X46785716Y-45404438D02*
X48119049Y-45404438D01*
X48690478Y-43404438D02*
X49166668Y-45404438D01*
X49166668Y-45404438D02*
X49547621Y-43975866D01*
X49547621Y-43975866D02*
X49928573Y-45404438D01*
X49928573Y-45404438D02*
X50404764Y-43404438D01*
X51547620Y-43404438D02*
X51928573Y-43404438D01*
X51928573Y-43404438D02*
X52119049Y-43499676D01*
X52119049Y-43499676D02*
X52309525Y-43690152D01*
X52309525Y-43690152D02*
X52404763Y-44071104D01*
X52404763Y-44071104D02*
X52404763Y-44737771D01*
X52404763Y-44737771D02*
X52309525Y-45118723D01*
X52309525Y-45118723D02*
X52119049Y-45309200D01*
X52119049Y-45309200D02*
X51928573Y-45404438D01*
X51928573Y-45404438D02*
X51547620Y-45404438D01*
X51547620Y-45404438D02*
X51357144Y-45309200D01*
X51357144Y-45309200D02*
X51166668Y-45118723D01*
X51166668Y-45118723D02*
X51071430Y-44737771D01*
X51071430Y-44737771D02*
X51071430Y-44071104D01*
X51071430Y-44071104D02*
X51166668Y-43690152D01*
X51166668Y-43690152D02*
X51357144Y-43499676D01*
X51357144Y-43499676D02*
X51547620Y-43404438D01*
X51357144Y-42737771D02*
X51452382Y-42833009D01*
X51452382Y-42833009D02*
X51357144Y-42928247D01*
X51357144Y-42928247D02*
X51261906Y-42833009D01*
X51261906Y-42833009D02*
X51357144Y-42737771D01*
X51357144Y-42737771D02*
X51357144Y-42928247D01*
X52119049Y-42737771D02*
X52214287Y-42833009D01*
X52214287Y-42833009D02*
X52119049Y-42928247D01*
X52119049Y-42928247D02*
X52023811Y-42833009D01*
X52023811Y-42833009D02*
X52119049Y-42737771D01*
X52119049Y-42737771D02*
X52119049Y-42928247D01*
X54214287Y-45404438D02*
X53261906Y-45404438D01*
X53261906Y-45404438D02*
X53261906Y-43404438D01*
X55547621Y-44356819D02*
X54880954Y-44356819D01*
X54880954Y-45404438D02*
X54880954Y-43404438D01*
X54880954Y-43404438D02*
X55833335Y-43404438D01*
D11*
X12607140Y-87178328D02*
X12607140Y-85678328D01*
X13249998Y-87178328D02*
X13249998Y-86392614D01*
X13249998Y-86392614D02*
X13178569Y-86249757D01*
X13178569Y-86249757D02*
X13035712Y-86178328D01*
X13035712Y-86178328D02*
X12821426Y-86178328D01*
X12821426Y-86178328D02*
X12678569Y-86249757D01*
X12678569Y-86249757D02*
X12607140Y-86321185D01*
X13749998Y-86178328D02*
X14321426Y-86178328D01*
X13964283Y-85678328D02*
X13964283Y-86964042D01*
X13964283Y-86964042D02*
X14035712Y-87106900D01*
X14035712Y-87106900D02*
X14178569Y-87178328D01*
X14178569Y-87178328D02*
X14321426Y-87178328D01*
X14607141Y-86178328D02*
X15178569Y-86178328D01*
X14821426Y-85678328D02*
X14821426Y-86964042D01*
X14821426Y-86964042D02*
X14892855Y-87106900D01*
X14892855Y-87106900D02*
X15035712Y-87178328D01*
X15035712Y-87178328D02*
X15178569Y-87178328D01*
X15678569Y-86178328D02*
X15678569Y-87678328D01*
X15678569Y-86249757D02*
X15821427Y-86178328D01*
X15821427Y-86178328D02*
X16107141Y-86178328D01*
X16107141Y-86178328D02*
X16249998Y-86249757D01*
X16249998Y-86249757D02*
X16321427Y-86321185D01*
X16321427Y-86321185D02*
X16392855Y-86464042D01*
X16392855Y-86464042D02*
X16392855Y-86892614D01*
X16392855Y-86892614D02*
X16321427Y-87035471D01*
X16321427Y-87035471D02*
X16249998Y-87106900D01*
X16249998Y-87106900D02*
X16107141Y-87178328D01*
X16107141Y-87178328D02*
X15821427Y-87178328D01*
X15821427Y-87178328D02*
X15678569Y-87106900D01*
X16964284Y-87106900D02*
X17107141Y-87178328D01*
X17107141Y-87178328D02*
X17392855Y-87178328D01*
X17392855Y-87178328D02*
X17535712Y-87106900D01*
X17535712Y-87106900D02*
X17607141Y-86964042D01*
X17607141Y-86964042D02*
X17607141Y-86892614D01*
X17607141Y-86892614D02*
X17535712Y-86749757D01*
X17535712Y-86749757D02*
X17392855Y-86678328D01*
X17392855Y-86678328D02*
X17178570Y-86678328D01*
X17178570Y-86678328D02*
X17035712Y-86606900D01*
X17035712Y-86606900D02*
X16964284Y-86464042D01*
X16964284Y-86464042D02*
X16964284Y-86392614D01*
X16964284Y-86392614D02*
X17035712Y-86249757D01*
X17035712Y-86249757D02*
X17178570Y-86178328D01*
X17178570Y-86178328D02*
X17392855Y-86178328D01*
X17392855Y-86178328D02*
X17535712Y-86249757D01*
X18249998Y-87035471D02*
X18321427Y-87106900D01*
X18321427Y-87106900D02*
X18249998Y-87178328D01*
X18249998Y-87178328D02*
X18178570Y-87106900D01*
X18178570Y-87106900D02*
X18249998Y-87035471D01*
X18249998Y-87035471D02*
X18249998Y-87178328D01*
X18249998Y-86249757D02*
X18321427Y-86321185D01*
X18321427Y-86321185D02*
X18249998Y-86392614D01*
X18249998Y-86392614D02*
X18178570Y-86321185D01*
X18178570Y-86321185D02*
X18249998Y-86249757D01*
X18249998Y-86249757D02*
X18249998Y-86392614D01*
X20035713Y-85606900D02*
X18749999Y-87535471D01*
X21607142Y-85606900D02*
X20321428Y-87535471D01*
X22750000Y-86178328D02*
X22750000Y-87392614D01*
X22750000Y-87392614D02*
X22678571Y-87535471D01*
X22678571Y-87535471D02*
X22607142Y-87606900D01*
X22607142Y-87606900D02*
X22464285Y-87678328D01*
X22464285Y-87678328D02*
X22250000Y-87678328D01*
X22250000Y-87678328D02*
X22107142Y-87606900D01*
X22750000Y-87106900D02*
X22607142Y-87178328D01*
X22607142Y-87178328D02*
X22321428Y-87178328D01*
X22321428Y-87178328D02*
X22178571Y-87106900D01*
X22178571Y-87106900D02*
X22107142Y-87035471D01*
X22107142Y-87035471D02*
X22035714Y-86892614D01*
X22035714Y-86892614D02*
X22035714Y-86464042D01*
X22035714Y-86464042D02*
X22107142Y-86321185D01*
X22107142Y-86321185D02*
X22178571Y-86249757D01*
X22178571Y-86249757D02*
X22321428Y-86178328D01*
X22321428Y-86178328D02*
X22607142Y-86178328D01*
X22607142Y-86178328D02*
X22750000Y-86249757D01*
X23464285Y-87178328D02*
X23464285Y-86178328D01*
X23464285Y-85678328D02*
X23392857Y-85749757D01*
X23392857Y-85749757D02*
X23464285Y-85821185D01*
X23464285Y-85821185D02*
X23535714Y-85749757D01*
X23535714Y-85749757D02*
X23464285Y-85678328D01*
X23464285Y-85678328D02*
X23464285Y-85821185D01*
X23964286Y-86178328D02*
X24535714Y-86178328D01*
X24178571Y-85678328D02*
X24178571Y-86964042D01*
X24178571Y-86964042D02*
X24250000Y-87106900D01*
X24250000Y-87106900D02*
X24392857Y-87178328D01*
X24392857Y-87178328D02*
X24535714Y-87178328D01*
X25035714Y-87178328D02*
X25035714Y-85678328D01*
X25678572Y-87178328D02*
X25678572Y-86392614D01*
X25678572Y-86392614D02*
X25607143Y-86249757D01*
X25607143Y-86249757D02*
X25464286Y-86178328D01*
X25464286Y-86178328D02*
X25250000Y-86178328D01*
X25250000Y-86178328D02*
X25107143Y-86249757D01*
X25107143Y-86249757D02*
X25035714Y-86321185D01*
X27035715Y-86178328D02*
X27035715Y-87178328D01*
X26392857Y-86178328D02*
X26392857Y-86964042D01*
X26392857Y-86964042D02*
X26464286Y-87106900D01*
X26464286Y-87106900D02*
X26607143Y-87178328D01*
X26607143Y-87178328D02*
X26821429Y-87178328D01*
X26821429Y-87178328D02*
X26964286Y-87106900D01*
X26964286Y-87106900D02*
X27035715Y-87035471D01*
X27750000Y-87178328D02*
X27750000Y-85678328D01*
X27750000Y-86249757D02*
X27892858Y-86178328D01*
X27892858Y-86178328D02*
X28178572Y-86178328D01*
X28178572Y-86178328D02*
X28321429Y-86249757D01*
X28321429Y-86249757D02*
X28392858Y-86321185D01*
X28392858Y-86321185D02*
X28464286Y-86464042D01*
X28464286Y-86464042D02*
X28464286Y-86892614D01*
X28464286Y-86892614D02*
X28392858Y-87035471D01*
X28392858Y-87035471D02*
X28321429Y-87106900D01*
X28321429Y-87106900D02*
X28178572Y-87178328D01*
X28178572Y-87178328D02*
X27892858Y-87178328D01*
X27892858Y-87178328D02*
X27750000Y-87106900D01*
X29107143Y-87035471D02*
X29178572Y-87106900D01*
X29178572Y-87106900D02*
X29107143Y-87178328D01*
X29107143Y-87178328D02*
X29035715Y-87106900D01*
X29035715Y-87106900D02*
X29107143Y-87035471D01*
X29107143Y-87035471D02*
X29107143Y-87178328D01*
X30464287Y-87106900D02*
X30321429Y-87178328D01*
X30321429Y-87178328D02*
X30035715Y-87178328D01*
X30035715Y-87178328D02*
X29892858Y-87106900D01*
X29892858Y-87106900D02*
X29821429Y-87035471D01*
X29821429Y-87035471D02*
X29750001Y-86892614D01*
X29750001Y-86892614D02*
X29750001Y-86464042D01*
X29750001Y-86464042D02*
X29821429Y-86321185D01*
X29821429Y-86321185D02*
X29892858Y-86249757D01*
X29892858Y-86249757D02*
X30035715Y-86178328D01*
X30035715Y-86178328D02*
X30321429Y-86178328D01*
X30321429Y-86178328D02*
X30464287Y-86249757D01*
X31321429Y-87178328D02*
X31178572Y-87106900D01*
X31178572Y-87106900D02*
X31107143Y-87035471D01*
X31107143Y-87035471D02*
X31035715Y-86892614D01*
X31035715Y-86892614D02*
X31035715Y-86464042D01*
X31035715Y-86464042D02*
X31107143Y-86321185D01*
X31107143Y-86321185D02*
X31178572Y-86249757D01*
X31178572Y-86249757D02*
X31321429Y-86178328D01*
X31321429Y-86178328D02*
X31535715Y-86178328D01*
X31535715Y-86178328D02*
X31678572Y-86249757D01*
X31678572Y-86249757D02*
X31750001Y-86321185D01*
X31750001Y-86321185D02*
X31821429Y-86464042D01*
X31821429Y-86464042D02*
X31821429Y-86892614D01*
X31821429Y-86892614D02*
X31750001Y-87035471D01*
X31750001Y-87035471D02*
X31678572Y-87106900D01*
X31678572Y-87106900D02*
X31535715Y-87178328D01*
X31535715Y-87178328D02*
X31321429Y-87178328D01*
X32464286Y-87178328D02*
X32464286Y-86178328D01*
X32464286Y-86321185D02*
X32535715Y-86249757D01*
X32535715Y-86249757D02*
X32678572Y-86178328D01*
X32678572Y-86178328D02*
X32892858Y-86178328D01*
X32892858Y-86178328D02*
X33035715Y-86249757D01*
X33035715Y-86249757D02*
X33107144Y-86392614D01*
X33107144Y-86392614D02*
X33107144Y-87178328D01*
X33107144Y-86392614D02*
X33178572Y-86249757D01*
X33178572Y-86249757D02*
X33321429Y-86178328D01*
X33321429Y-86178328D02*
X33535715Y-86178328D01*
X33535715Y-86178328D02*
X33678572Y-86249757D01*
X33678572Y-86249757D02*
X33750001Y-86392614D01*
X33750001Y-86392614D02*
X33750001Y-87178328D01*
X35535715Y-85606900D02*
X34250001Y-87535471D01*
X35964287Y-87106900D02*
X36107144Y-87178328D01*
X36107144Y-87178328D02*
X36392858Y-87178328D01*
X36392858Y-87178328D02*
X36535715Y-87106900D01*
X36535715Y-87106900D02*
X36607144Y-86964042D01*
X36607144Y-86964042D02*
X36607144Y-86892614D01*
X36607144Y-86892614D02*
X36535715Y-86749757D01*
X36535715Y-86749757D02*
X36392858Y-86678328D01*
X36392858Y-86678328D02*
X36178573Y-86678328D01*
X36178573Y-86678328D02*
X36035715Y-86606900D01*
X36035715Y-86606900D02*
X35964287Y-86464042D01*
X35964287Y-86464042D02*
X35964287Y-86392614D01*
X35964287Y-86392614D02*
X36035715Y-86249757D01*
X36035715Y-86249757D02*
X36178573Y-86178328D01*
X36178573Y-86178328D02*
X36392858Y-86178328D01*
X36392858Y-86178328D02*
X36535715Y-86249757D01*
X37250001Y-87178328D02*
X37250001Y-85678328D01*
X37250001Y-86249757D02*
X37392859Y-86178328D01*
X37392859Y-86178328D02*
X37678573Y-86178328D01*
X37678573Y-86178328D02*
X37821430Y-86249757D01*
X37821430Y-86249757D02*
X37892859Y-86321185D01*
X37892859Y-86321185D02*
X37964287Y-86464042D01*
X37964287Y-86464042D02*
X37964287Y-86892614D01*
X37964287Y-86892614D02*
X37892859Y-87035471D01*
X37892859Y-87035471D02*
X37821430Y-87106900D01*
X37821430Y-87106900D02*
X37678573Y-87178328D01*
X37678573Y-87178328D02*
X37392859Y-87178328D01*
X37392859Y-87178328D02*
X37250001Y-87106900D01*
X38464287Y-86178328D02*
X38821430Y-87178328D01*
X39178573Y-86178328D02*
X38821430Y-87178328D01*
X38821430Y-87178328D02*
X38678573Y-87535471D01*
X38678573Y-87535471D02*
X38607144Y-87606900D01*
X38607144Y-87606900D02*
X38464287Y-87678328D01*
X40392859Y-87178328D02*
X40392859Y-85678328D01*
X40392859Y-87106900D02*
X40250001Y-87178328D01*
X40250001Y-87178328D02*
X39964287Y-87178328D01*
X39964287Y-87178328D02*
X39821430Y-87106900D01*
X39821430Y-87106900D02*
X39750001Y-87035471D01*
X39750001Y-87035471D02*
X39678573Y-86892614D01*
X39678573Y-86892614D02*
X39678573Y-86464042D01*
X39678573Y-86464042D02*
X39750001Y-86321185D01*
X39750001Y-86321185D02*
X39821430Y-86249757D01*
X39821430Y-86249757D02*
X39964287Y-86178328D01*
X39964287Y-86178328D02*
X40250001Y-86178328D01*
X40250001Y-86178328D02*
X40392859Y-86249757D01*
X41107144Y-86606900D02*
X42250002Y-86606900D01*
X42892859Y-87106900D02*
X43035716Y-87178328D01*
X43035716Y-87178328D02*
X43321430Y-87178328D01*
X43321430Y-87178328D02*
X43464287Y-87106900D01*
X43464287Y-87106900D02*
X43535716Y-86964042D01*
X43535716Y-86964042D02*
X43535716Y-86892614D01*
X43535716Y-86892614D02*
X43464287Y-86749757D01*
X43464287Y-86749757D02*
X43321430Y-86678328D01*
X43321430Y-86678328D02*
X43107145Y-86678328D01*
X43107145Y-86678328D02*
X42964287Y-86606900D01*
X42964287Y-86606900D02*
X42892859Y-86464042D01*
X42892859Y-86464042D02*
X42892859Y-86392614D01*
X42892859Y-86392614D02*
X42964287Y-86249757D01*
X42964287Y-86249757D02*
X43107145Y-86178328D01*
X43107145Y-86178328D02*
X43321430Y-86178328D01*
X43321430Y-86178328D02*
X43464287Y-86249757D01*
X44178573Y-86178328D02*
X44178573Y-87678328D01*
X44178573Y-86249757D02*
X44321431Y-86178328D01*
X44321431Y-86178328D02*
X44607145Y-86178328D01*
X44607145Y-86178328D02*
X44750002Y-86249757D01*
X44750002Y-86249757D02*
X44821431Y-86321185D01*
X44821431Y-86321185D02*
X44892859Y-86464042D01*
X44892859Y-86464042D02*
X44892859Y-86892614D01*
X44892859Y-86892614D02*
X44821431Y-87035471D01*
X44821431Y-87035471D02*
X44750002Y-87106900D01*
X44750002Y-87106900D02*
X44607145Y-87178328D01*
X44607145Y-87178328D02*
X44321431Y-87178328D01*
X44321431Y-87178328D02*
X44178573Y-87106900D01*
X46178574Y-87178328D02*
X46178574Y-86392614D01*
X46178574Y-86392614D02*
X46107145Y-86249757D01*
X46107145Y-86249757D02*
X45964288Y-86178328D01*
X45964288Y-86178328D02*
X45678574Y-86178328D01*
X45678574Y-86178328D02*
X45535716Y-86249757D01*
X46178574Y-87106900D02*
X46035716Y-87178328D01*
X46035716Y-87178328D02*
X45678574Y-87178328D01*
X45678574Y-87178328D02*
X45535716Y-87106900D01*
X45535716Y-87106900D02*
X45464288Y-86964042D01*
X45464288Y-86964042D02*
X45464288Y-86821185D01*
X45464288Y-86821185D02*
X45535716Y-86678328D01*
X45535716Y-86678328D02*
X45678574Y-86606900D01*
X45678574Y-86606900D02*
X46035716Y-86606900D01*
X46035716Y-86606900D02*
X46178574Y-86535471D01*
X47535717Y-87106900D02*
X47392859Y-87178328D01*
X47392859Y-87178328D02*
X47107145Y-87178328D01*
X47107145Y-87178328D02*
X46964288Y-87106900D01*
X46964288Y-87106900D02*
X46892859Y-87035471D01*
X46892859Y-87035471D02*
X46821431Y-86892614D01*
X46821431Y-86892614D02*
X46821431Y-86464042D01*
X46821431Y-86464042D02*
X46892859Y-86321185D01*
X46892859Y-86321185D02*
X46964288Y-86249757D01*
X46964288Y-86249757D02*
X47107145Y-86178328D01*
X47107145Y-86178328D02*
X47392859Y-86178328D01*
X47392859Y-86178328D02*
X47535717Y-86249757D01*
X48750002Y-87106900D02*
X48607145Y-87178328D01*
X48607145Y-87178328D02*
X48321431Y-87178328D01*
X48321431Y-87178328D02*
X48178573Y-87106900D01*
X48178573Y-87106900D02*
X48107145Y-86964042D01*
X48107145Y-86964042D02*
X48107145Y-86392614D01*
X48107145Y-86392614D02*
X48178573Y-86249757D01*
X48178573Y-86249757D02*
X48321431Y-86178328D01*
X48321431Y-86178328D02*
X48607145Y-86178328D01*
X48607145Y-86178328D02*
X48750002Y-86249757D01*
X48750002Y-86249757D02*
X48821431Y-86392614D01*
X48821431Y-86392614D02*
X48821431Y-86535471D01*
X48821431Y-86535471D02*
X48107145Y-86678328D01*
X50535716Y-85606900D02*
X49250002Y-87535471D01*
X50892859Y-86178328D02*
X51250002Y-87178328D01*
X51250002Y-87178328D02*
X51607145Y-86178328D01*
X52821431Y-87178328D02*
X52821431Y-86392614D01*
X52821431Y-86392614D02*
X52750002Y-86249757D01*
X52750002Y-86249757D02*
X52607145Y-86178328D01*
X52607145Y-86178328D02*
X52321431Y-86178328D01*
X52321431Y-86178328D02*
X52178573Y-86249757D01*
X52821431Y-87106900D02*
X52678573Y-87178328D01*
X52678573Y-87178328D02*
X52321431Y-87178328D01*
X52321431Y-87178328D02*
X52178573Y-87106900D01*
X52178573Y-87106900D02*
X52107145Y-86964042D01*
X52107145Y-86964042D02*
X52107145Y-86821185D01*
X52107145Y-86821185D02*
X52178573Y-86678328D01*
X52178573Y-86678328D02*
X52321431Y-86606900D01*
X52321431Y-86606900D02*
X52678573Y-86606900D01*
X52678573Y-86606900D02*
X52821431Y-86535471D01*
X53535716Y-86178328D02*
X53535716Y-87678328D01*
X53535716Y-86249757D02*
X53678574Y-86178328D01*
X53678574Y-86178328D02*
X53964288Y-86178328D01*
X53964288Y-86178328D02*
X54107145Y-86249757D01*
X54107145Y-86249757D02*
X54178574Y-86321185D01*
X54178574Y-86321185D02*
X54250002Y-86464042D01*
X54250002Y-86464042D02*
X54250002Y-86892614D01*
X54250002Y-86892614D02*
X54178574Y-87035471D01*
X54178574Y-87035471D02*
X54107145Y-87106900D01*
X54107145Y-87106900D02*
X53964288Y-87178328D01*
X53964288Y-87178328D02*
X53678574Y-87178328D01*
X53678574Y-87178328D02*
X53535716Y-87106900D01*
X55464288Y-87106900D02*
X55321431Y-87178328D01*
X55321431Y-87178328D02*
X55035717Y-87178328D01*
X55035717Y-87178328D02*
X54892859Y-87106900D01*
X54892859Y-87106900D02*
X54821431Y-86964042D01*
X54821431Y-86964042D02*
X54821431Y-86392614D01*
X54821431Y-86392614D02*
X54892859Y-86249757D01*
X54892859Y-86249757D02*
X55035717Y-86178328D01*
X55035717Y-86178328D02*
X55321431Y-86178328D01*
X55321431Y-86178328D02*
X55464288Y-86249757D01*
X55464288Y-86249757D02*
X55535717Y-86392614D01*
X55535717Y-86392614D02*
X55535717Y-86535471D01*
X55535717Y-86535471D02*
X54821431Y-86678328D01*
X56178573Y-86606900D02*
X57321431Y-86606900D01*
X58250002Y-87178328D02*
X58107145Y-87106900D01*
X58107145Y-87106900D02*
X58035716Y-86964042D01*
X58035716Y-86964042D02*
X58035716Y-85678328D01*
X58821430Y-87178328D02*
X58821430Y-86178328D01*
X58821430Y-85678328D02*
X58750002Y-85749757D01*
X58750002Y-85749757D02*
X58821430Y-85821185D01*
X58821430Y-85821185D02*
X58892859Y-85749757D01*
X58892859Y-85749757D02*
X58821430Y-85678328D01*
X58821430Y-85678328D02*
X58821430Y-85821185D01*
X60178574Y-86178328D02*
X60178574Y-87392614D01*
X60178574Y-87392614D02*
X60107145Y-87535471D01*
X60107145Y-87535471D02*
X60035716Y-87606900D01*
X60035716Y-87606900D02*
X59892859Y-87678328D01*
X59892859Y-87678328D02*
X59678574Y-87678328D01*
X59678574Y-87678328D02*
X59535716Y-87606900D01*
X60178574Y-87106900D02*
X60035716Y-87178328D01*
X60035716Y-87178328D02*
X59750002Y-87178328D01*
X59750002Y-87178328D02*
X59607145Y-87106900D01*
X59607145Y-87106900D02*
X59535716Y-87035471D01*
X59535716Y-87035471D02*
X59464288Y-86892614D01*
X59464288Y-86892614D02*
X59464288Y-86464042D01*
X59464288Y-86464042D02*
X59535716Y-86321185D01*
X59535716Y-86321185D02*
X59607145Y-86249757D01*
X59607145Y-86249757D02*
X59750002Y-86178328D01*
X59750002Y-86178328D02*
X60035716Y-86178328D01*
X60035716Y-86178328D02*
X60178574Y-86249757D01*
X60892859Y-87178328D02*
X60892859Y-85678328D01*
X61535717Y-87178328D02*
X61535717Y-86392614D01*
X61535717Y-86392614D02*
X61464288Y-86249757D01*
X61464288Y-86249757D02*
X61321431Y-86178328D01*
X61321431Y-86178328D02*
X61107145Y-86178328D01*
X61107145Y-86178328D02*
X60964288Y-86249757D01*
X60964288Y-86249757D02*
X60892859Y-86321185D01*
X62035717Y-86178328D02*
X62607145Y-86178328D01*
X62250002Y-85678328D02*
X62250002Y-86964042D01*
X62250002Y-86964042D02*
X62321431Y-87106900D01*
X62321431Y-87106900D02*
X62464288Y-87178328D01*
X62464288Y-87178328D02*
X62607145Y-87178328D01*
D10*
X12595235Y-3309200D02*
X12880949Y-3404438D01*
X12880949Y-3404438D02*
X13357140Y-3404438D01*
X13357140Y-3404438D02*
X13547616Y-3309200D01*
X13547616Y-3309200D02*
X13642854Y-3213961D01*
X13642854Y-3213961D02*
X13738092Y-3023485D01*
X13738092Y-3023485D02*
X13738092Y-2833009D01*
X13738092Y-2833009D02*
X13642854Y-2642533D01*
X13642854Y-2642533D02*
X13547616Y-2547295D01*
X13547616Y-2547295D02*
X13357140Y-2452057D01*
X13357140Y-2452057D02*
X12976187Y-2356819D01*
X12976187Y-2356819D02*
X12785711Y-2261580D01*
X12785711Y-2261580D02*
X12690473Y-2166342D01*
X12690473Y-2166342D02*
X12595235Y-1975866D01*
X12595235Y-1975866D02*
X12595235Y-1785390D01*
X12595235Y-1785390D02*
X12690473Y-1594914D01*
X12690473Y-1594914D02*
X12785711Y-1499676D01*
X12785711Y-1499676D02*
X12976187Y-1404438D01*
X12976187Y-1404438D02*
X13452378Y-1404438D01*
X13452378Y-1404438D02*
X13738092Y-1499676D01*
X15261902Y-2356819D02*
X15547616Y-2452057D01*
X15547616Y-2452057D02*
X15642854Y-2547295D01*
X15642854Y-2547295D02*
X15738092Y-2737771D01*
X15738092Y-2737771D02*
X15738092Y-3023485D01*
X15738092Y-3023485D02*
X15642854Y-3213961D01*
X15642854Y-3213961D02*
X15547616Y-3309200D01*
X15547616Y-3309200D02*
X15357140Y-3404438D01*
X15357140Y-3404438D02*
X14595235Y-3404438D01*
X14595235Y-3404438D02*
X14595235Y-1404438D01*
X14595235Y-1404438D02*
X15261902Y-1404438D01*
X15261902Y-1404438D02*
X15452378Y-1499676D01*
X15452378Y-1499676D02*
X15547616Y-1594914D01*
X15547616Y-1594914D02*
X15642854Y-1785390D01*
X15642854Y-1785390D02*
X15642854Y-1975866D01*
X15642854Y-1975866D02*
X15547616Y-2166342D01*
X15547616Y-2166342D02*
X15452378Y-2261580D01*
X15452378Y-2261580D02*
X15261902Y-2356819D01*
X15261902Y-2356819D02*
X14595235Y-2356819D01*
X16976187Y-2452057D02*
X16976187Y-3404438D01*
X16309521Y-1404438D02*
X16976187Y-2452057D01*
X16976187Y-2452057D02*
X17642854Y-1404438D01*
X18309521Y-3404438D02*
X18309521Y-1404438D01*
X18309521Y-1404438D02*
X18785711Y-1404438D01*
X18785711Y-1404438D02*
X19071426Y-1499676D01*
X19071426Y-1499676D02*
X19261902Y-1690152D01*
X19261902Y-1690152D02*
X19357140Y-1880628D01*
X19357140Y-1880628D02*
X19452378Y-2261580D01*
X19452378Y-2261580D02*
X19452378Y-2547295D01*
X19452378Y-2547295D02*
X19357140Y-2928247D01*
X19357140Y-2928247D02*
X19261902Y-3118723D01*
X19261902Y-3118723D02*
X19071426Y-3309200D01*
X19071426Y-3309200D02*
X18785711Y-3404438D01*
X18785711Y-3404438D02*
X18309521Y-3404438D01*
X21547617Y-1404438D02*
X22214283Y-3404438D01*
X22214283Y-3404438D02*
X22880950Y-1404438D01*
X23452379Y-2833009D02*
X24404760Y-2833009D01*
X23261903Y-3404438D02*
X23928569Y-1404438D01*
X23928569Y-1404438D02*
X24595236Y-3404438D01*
X25261903Y-3404438D02*
X25261903Y-1404438D01*
X25261903Y-1404438D02*
X26023808Y-1404438D01*
X26023808Y-1404438D02*
X26214284Y-1499676D01*
X26214284Y-1499676D02*
X26309522Y-1594914D01*
X26309522Y-1594914D02*
X26404760Y-1785390D01*
X26404760Y-1785390D02*
X26404760Y-2071104D01*
X26404760Y-2071104D02*
X26309522Y-2261580D01*
X26309522Y-2261580D02*
X26214284Y-2356819D01*
X26214284Y-2356819D02*
X26023808Y-2452057D01*
X26023808Y-2452057D02*
X25261903Y-2452057D01*
X27261903Y-2356819D02*
X27928570Y-2356819D01*
X28214284Y-3404438D02*
X27261903Y-3404438D01*
X27261903Y-3404438D02*
X27261903Y-1404438D01*
X27261903Y-1404438D02*
X28214284Y-1404438D01*
X31547618Y-3404438D02*
X30595237Y-3404438D01*
X30595237Y-3404438D02*
X30595237Y-1404438D01*
X32214285Y-3404438D02*
X32214285Y-1404438D01*
X34214285Y-1499676D02*
X34023809Y-1404438D01*
X34023809Y-1404438D02*
X33738095Y-1404438D01*
X33738095Y-1404438D02*
X33452380Y-1499676D01*
X33452380Y-1499676D02*
X33261904Y-1690152D01*
X33261904Y-1690152D02*
X33166666Y-1880628D01*
X33166666Y-1880628D02*
X33071428Y-2261580D01*
X33071428Y-2261580D02*
X33071428Y-2547295D01*
X33071428Y-2547295D02*
X33166666Y-2928247D01*
X33166666Y-2928247D02*
X33261904Y-3118723D01*
X33261904Y-3118723D02*
X33452380Y-3309200D01*
X33452380Y-3309200D02*
X33738095Y-3404438D01*
X33738095Y-3404438D02*
X33928571Y-3404438D01*
X33928571Y-3404438D02*
X34214285Y-3309200D01*
X34214285Y-3309200D02*
X34309523Y-3213961D01*
X34309523Y-3213961D02*
X34309523Y-2547295D01*
X34309523Y-2547295D02*
X33928571Y-2547295D01*
X35166666Y-3404438D02*
X35166666Y-1404438D01*
X35166666Y-2356819D02*
X36309523Y-2356819D01*
X36309523Y-3404438D02*
X36309523Y-1404438D01*
X36976190Y-1404438D02*
X38119047Y-1404438D01*
X37547618Y-3404438D02*
X37547618Y-1404438D01*
X41452381Y-3404438D02*
X40785714Y-2452057D01*
X40309524Y-3404438D02*
X40309524Y-1404438D01*
X40309524Y-1404438D02*
X41071429Y-1404438D01*
X41071429Y-1404438D02*
X41261905Y-1499676D01*
X41261905Y-1499676D02*
X41357143Y-1594914D01*
X41357143Y-1594914D02*
X41452381Y-1785390D01*
X41452381Y-1785390D02*
X41452381Y-2071104D01*
X41452381Y-2071104D02*
X41357143Y-2261580D01*
X41357143Y-2261580D02*
X41261905Y-2356819D01*
X41261905Y-2356819D02*
X41071429Y-2452057D01*
X41071429Y-2452057D02*
X40309524Y-2452057D01*
X43071429Y-3309200D02*
X42880953Y-3404438D01*
X42880953Y-3404438D02*
X42500000Y-3404438D01*
X42500000Y-3404438D02*
X42309524Y-3309200D01*
X42309524Y-3309200D02*
X42214286Y-3118723D01*
X42214286Y-3118723D02*
X42214286Y-2356819D01*
X42214286Y-2356819D02*
X42309524Y-2166342D01*
X42309524Y-2166342D02*
X42500000Y-2071104D01*
X42500000Y-2071104D02*
X42880953Y-2071104D01*
X42880953Y-2071104D02*
X43071429Y-2166342D01*
X43071429Y-2166342D02*
X43166667Y-2356819D01*
X43166667Y-2356819D02*
X43166667Y-2547295D01*
X43166667Y-2547295D02*
X42214286Y-2737771D01*
X43833334Y-2071104D02*
X44309524Y-3404438D01*
X44309524Y-3404438D02*
X44785715Y-2071104D01*
X45547620Y-3213961D02*
X45642858Y-3309200D01*
X45642858Y-3309200D02*
X45547620Y-3404438D01*
X45547620Y-3404438D02*
X45452382Y-3309200D01*
X45452382Y-3309200D02*
X45547620Y-3213961D01*
X45547620Y-3213961D02*
X45547620Y-3404438D01*
X47166668Y-2356819D02*
X46500001Y-2356819D01*
X46500001Y-3404438D02*
X46500001Y-1404438D01*
X46500001Y-1404438D02*
X47452382Y-1404438D01*
X50119049Y-1404438D02*
X50309526Y-1404438D01*
X50309526Y-1404438D02*
X50500002Y-1499676D01*
X50500002Y-1499676D02*
X50595240Y-1594914D01*
X50595240Y-1594914D02*
X50690478Y-1785390D01*
X50690478Y-1785390D02*
X50785716Y-2166342D01*
X50785716Y-2166342D02*
X50785716Y-2642533D01*
X50785716Y-2642533D02*
X50690478Y-3023485D01*
X50690478Y-3023485D02*
X50595240Y-3213961D01*
X50595240Y-3213961D02*
X50500002Y-3309200D01*
X50500002Y-3309200D02*
X50309526Y-3404438D01*
X50309526Y-3404438D02*
X50119049Y-3404438D01*
X50119049Y-3404438D02*
X49928573Y-3309200D01*
X49928573Y-3309200D02*
X49833335Y-3213961D01*
X49833335Y-3213961D02*
X49738097Y-3023485D01*
X49738097Y-3023485D02*
X49642859Y-2642533D01*
X49642859Y-2642533D02*
X49642859Y-2166342D01*
X49642859Y-2166342D02*
X49738097Y-1785390D01*
X49738097Y-1785390D02*
X49833335Y-1594914D01*
X49833335Y-1594914D02*
X49928573Y-1499676D01*
X49928573Y-1499676D02*
X50119049Y-1404438D01*
X52595240Y-1404438D02*
X51642859Y-1404438D01*
X51642859Y-1404438D02*
X51547621Y-2356819D01*
X51547621Y-2356819D02*
X51642859Y-2261580D01*
X51642859Y-2261580D02*
X51833335Y-2166342D01*
X51833335Y-2166342D02*
X52309526Y-2166342D01*
X52309526Y-2166342D02*
X52500002Y-2261580D01*
X52500002Y-2261580D02*
X52595240Y-2356819D01*
X52595240Y-2356819D02*
X52690478Y-2547295D01*
X52690478Y-2547295D02*
X52690478Y-3023485D01*
X52690478Y-3023485D02*
X52595240Y-3213961D01*
X52595240Y-3213961D02*
X52500002Y-3309200D01*
X52500002Y-3309200D02*
X52309526Y-3404438D01*
X52309526Y-3404438D02*
X51833335Y-3404438D01*
X51833335Y-3404438D02*
X51642859Y-3309200D01*
X51642859Y-3309200D02*
X51547621Y-3213961D01*
X54976192Y-1309200D02*
X53261907Y-3880628D01*
X55547621Y-1594914D02*
X55642859Y-1499676D01*
X55642859Y-1499676D02*
X55833335Y-1404438D01*
X55833335Y-1404438D02*
X56309526Y-1404438D01*
X56309526Y-1404438D02*
X56500002Y-1499676D01*
X56500002Y-1499676D02*
X56595240Y-1594914D01*
X56595240Y-1594914D02*
X56690478Y-1785390D01*
X56690478Y-1785390D02*
X56690478Y-1975866D01*
X56690478Y-1975866D02*
X56595240Y-2261580D01*
X56595240Y-2261580D02*
X55452383Y-3404438D01*
X55452383Y-3404438D02*
X56690478Y-3404438D01*
X57928573Y-1404438D02*
X58119050Y-1404438D01*
X58119050Y-1404438D02*
X58309526Y-1499676D01*
X58309526Y-1499676D02*
X58404764Y-1594914D01*
X58404764Y-1594914D02*
X58500002Y-1785390D01*
X58500002Y-1785390D02*
X58595240Y-2166342D01*
X58595240Y-2166342D02*
X58595240Y-2642533D01*
X58595240Y-2642533D02*
X58500002Y-3023485D01*
X58500002Y-3023485D02*
X58404764Y-3213961D01*
X58404764Y-3213961D02*
X58309526Y-3309200D01*
X58309526Y-3309200D02*
X58119050Y-3404438D01*
X58119050Y-3404438D02*
X57928573Y-3404438D01*
X57928573Y-3404438D02*
X57738097Y-3309200D01*
X57738097Y-3309200D02*
X57642859Y-3213961D01*
X57642859Y-3213961D02*
X57547621Y-3023485D01*
X57547621Y-3023485D02*
X57452383Y-2642533D01*
X57452383Y-2642533D02*
X57452383Y-2166342D01*
X57452383Y-2166342D02*
X57547621Y-1785390D01*
X57547621Y-1785390D02*
X57642859Y-1594914D01*
X57642859Y-1594914D02*
X57738097Y-1499676D01*
X57738097Y-1499676D02*
X57928573Y-1404438D01*
X59357145Y-1594914D02*
X59452383Y-1499676D01*
X59452383Y-1499676D02*
X59642859Y-1404438D01*
X59642859Y-1404438D02*
X60119050Y-1404438D01*
X60119050Y-1404438D02*
X60309526Y-1499676D01*
X60309526Y-1499676D02*
X60404764Y-1594914D01*
X60404764Y-1594914D02*
X60500002Y-1785390D01*
X60500002Y-1785390D02*
X60500002Y-1975866D01*
X60500002Y-1975866D02*
X60404764Y-2261580D01*
X60404764Y-2261580D02*
X59261907Y-3404438D01*
X59261907Y-3404438D02*
X60500002Y-3404438D01*
X62309526Y-1404438D02*
X61357145Y-1404438D01*
X61357145Y-1404438D02*
X61261907Y-2356819D01*
X61261907Y-2356819D02*
X61357145Y-2261580D01*
X61357145Y-2261580D02*
X61547621Y-2166342D01*
X61547621Y-2166342D02*
X62023812Y-2166342D01*
X62023812Y-2166342D02*
X62214288Y-2261580D01*
X62214288Y-2261580D02*
X62309526Y-2356819D01*
X62309526Y-2356819D02*
X62404764Y-2547295D01*
X62404764Y-2547295D02*
X62404764Y-3023485D01*
X62404764Y-3023485D02*
X62309526Y-3213961D01*
X62309526Y-3213961D02*
X62214288Y-3309200D01*
X62214288Y-3309200D02*
X62023812Y-3404438D01*
X62023812Y-3404438D02*
X61547621Y-3404438D01*
X61547621Y-3404438D02*
X61357145Y-3309200D01*
X61357145Y-3309200D02*
X61261907Y-3213961D01*
D12*
G04 #@! TO.C,2-R4*
X53937742Y-56227500D02*
X54412258Y-56227500D01*
X53937742Y-57272500D02*
X54412258Y-57272500D01*
G04 #@! TO.C,3-R6*
X57612258Y-75477500D02*
X57137742Y-75477500D01*
X57612258Y-76522500D02*
X57137742Y-76522500D01*
G04 #@! TO.C,1-SW1*
X22625000Y-30700000D02*
X22625000Y-33300000D01*
X23075000Y-30250000D02*
X22625000Y-30700000D01*
X23075000Y-33750000D02*
X22625000Y-33300000D01*
X26375000Y-29250000D02*
X24375000Y-29250000D01*
X26375000Y-34750000D02*
X24375000Y-34750000D01*
X27675000Y-30250000D02*
X28125000Y-30700000D01*
X27675000Y-33750000D02*
X28125000Y-33300000D01*
X28125000Y-30700000D02*
X28125000Y-33300000D01*
G04 #@! TO.C,3-R9*
X42852500Y-73737258D02*
X42852500Y-73262742D01*
X43897500Y-73737258D02*
X43897500Y-73262742D01*
G04 #@! TO.C,3-R5*
X37852500Y-70237258D02*
X37852500Y-69762742D01*
X38897500Y-70237258D02*
X38897500Y-69762742D01*
G04 #@! TO.C,3-D3*
X51525000Y-78140000D02*
X51525000Y-80800000D01*
X53225000Y-78140000D02*
X51525000Y-78140000D01*
X53225000Y-78140000D02*
X53225000Y-80800000D01*
G04 #@! TO.C,1-U2*
X39065000Y-36500000D02*
X39065000Y-35700000D01*
X39065000Y-36500000D02*
X39065000Y-37300000D01*
X42185000Y-36500000D02*
X42185000Y-35700000D01*
X42185000Y-36500000D02*
X42185000Y-37300000D01*
X42465000Y-35440000D02*
X42135000Y-35200000D01*
X42465000Y-34960000D01*
X42465000Y-35440000D01*
G36*
X42465000Y-35440000D02*
G01*
X42135000Y-35200000D01*
X42465000Y-34960000D01*
X42465000Y-35440000D01*
G37*
G04 #@! TO.C,3-U2*
X39065000Y-79000000D02*
X39065000Y-78200000D01*
X39065000Y-79000000D02*
X39065000Y-79800000D01*
X42185000Y-79000000D02*
X42185000Y-78200000D01*
X42185000Y-79000000D02*
X42185000Y-79800000D01*
X42465000Y-77940000D02*
X42135000Y-77700000D01*
X42465000Y-77460000D01*
X42465000Y-77940000D01*
G36*
X42465000Y-77940000D02*
G01*
X42135000Y-77700000D01*
X42465000Y-77460000D01*
X42465000Y-77940000D01*
G37*
G04 #@! TO.C,1-R9*
X42852500Y-31237258D02*
X42852500Y-30762742D01*
X43897500Y-31237258D02*
X43897500Y-30762742D01*
G04 #@! TO.C,1-JP1*
X60875000Y-29400000D02*
X60875000Y-26600000D01*
X61575000Y-25950000D02*
X62175000Y-25950000D01*
X62175000Y-30050000D02*
X61575000Y-30050000D01*
X62875000Y-26600000D02*
X62875000Y-29400000D01*
X63075000Y-29200000D02*
X63375000Y-28900000D01*
X63075000Y-29200000D02*
X63375000Y-29500000D01*
X63375000Y-29500000D02*
X63375000Y-28900000D01*
X60875000Y-26650000D02*
G75*
G02*
X61575000Y-25950000I700000J0D01*
G01*
X61575000Y-30050000D02*
G75*
G02*
X60875000Y-29350000I-1J699999D01*
G01*
X62175000Y-25950000D02*
G75*
G02*
X62875000Y-26650000I0J-700000D01*
G01*
X62875000Y-29350000D02*
G75*
G02*
X62175000Y-30050000I-699999J-1D01*
G01*
G04 #@! TO.C,2-R9*
X42852500Y-56237258D02*
X42852500Y-55762742D01*
X43897500Y-56237258D02*
X43897500Y-55762742D01*
G04 #@! TO.C,0-J5*
X66126000Y-19750000D02*
G75*
G02*
X63624000Y-19750000I-1251000J0D01*
G01*
X63624000Y-19750000D02*
G75*
G02*
X66126000Y-19750000I1251000J0D01*
G01*
G04 #@! TO.C,0-J2*
X66126000Y-9250000D02*
G75*
G02*
X63624000Y-9250000I-1251000J0D01*
G01*
X63624000Y-9250000D02*
G75*
G02*
X66126000Y-9250000I1251000J0D01*
G01*
G04 #@! TO.C,2-D5*
X49525000Y-63860000D02*
X49525000Y-61200000D01*
X49525000Y-63860000D02*
X51225000Y-63860000D01*
X51225000Y-63860000D02*
X51225000Y-61200000D01*
G04 #@! TO.C,2-SW1*
X22625000Y-55700000D02*
X22625000Y-58300000D01*
X23075000Y-55250000D02*
X22625000Y-55700000D01*
X23075000Y-58750000D02*
X22625000Y-58300000D01*
X26375000Y-54250000D02*
X24375000Y-54250000D01*
X26375000Y-59750000D02*
X24375000Y-59750000D01*
X27675000Y-55250000D02*
X28125000Y-55700000D01*
X27675000Y-58750000D02*
X28125000Y-58300000D01*
X28125000Y-55700000D02*
X28125000Y-58300000D01*
G04 #@! TO.C,3-U5*
X41512500Y-68440000D02*
X40712500Y-68440000D01*
X41512500Y-68440000D02*
X42312500Y-68440000D01*
X41512500Y-71560000D02*
X40712500Y-71560000D01*
X41512500Y-71560000D02*
X42312500Y-71560000D01*
X43052500Y-71840000D02*
X42572500Y-71840000D01*
X42812500Y-71510000D01*
X43052500Y-71840000D01*
G36*
X43052500Y-71840000D02*
G01*
X42572500Y-71840000D01*
X42812500Y-71510000D01*
X43052500Y-71840000D01*
G37*
G04 #@! TO.C,2-C3*
X46234420Y-58190000D02*
X46515580Y-58190000D01*
X46234420Y-59210000D02*
X46515580Y-59210000D01*
G04 #@! TO.C,1-U5*
X41512500Y-25940000D02*
X40712500Y-25940000D01*
X41512500Y-25940000D02*
X42312500Y-25940000D01*
X41512500Y-29060000D02*
X40712500Y-29060000D01*
X41512500Y-29060000D02*
X42312500Y-29060000D01*
X43052500Y-29340000D02*
X42572500Y-29340000D01*
X42812500Y-29010000D01*
X43052500Y-29340000D01*
G36*
X43052500Y-29340000D02*
G01*
X42572500Y-29340000D01*
X42812500Y-29010000D01*
X43052500Y-29340000D01*
G37*
G04 #@! TO.C,0-U2*
X39065000Y-19000000D02*
X39065000Y-18200000D01*
X39065000Y-19000000D02*
X39065000Y-19800000D01*
X42185000Y-19000000D02*
X42185000Y-18200000D01*
X42185000Y-19000000D02*
X42185000Y-19800000D01*
X42465000Y-17940000D02*
X42135000Y-17700000D01*
X42465000Y-17460000D01*
X42465000Y-17940000D01*
G36*
X42465000Y-17940000D02*
G01*
X42135000Y-17700000D01*
X42465000Y-17460000D01*
X42465000Y-17940000D01*
G37*
G04 #@! TO.C,2-J2*
X66126000Y-51750000D02*
G75*
G02*
X63624000Y-51750000I-1251000J0D01*
G01*
X63624000Y-51750000D02*
G75*
G02*
X66126000Y-51750000I1251000J0D01*
G01*
G04 #@! TO.C,1-Q1*
X57065000Y-28250000D02*
X57065000Y-27450000D01*
X57065000Y-28250000D02*
X57065000Y-29050000D01*
X60185000Y-28250000D02*
X60185000Y-27450000D01*
X60185000Y-28250000D02*
X60185000Y-29050000D01*
X57115000Y-29550000D02*
X56785000Y-29790000D01*
X56785000Y-29310000D01*
X57115000Y-29550000D01*
G36*
X57115000Y-29550000D02*
G01*
X56785000Y-29790000D01*
X56785000Y-29310000D01*
X57115000Y-29550000D01*
G37*
G04 #@! TO.C,0-R10*
X61852500Y-19262742D02*
X61852500Y-19737258D01*
X62897500Y-19262742D02*
X62897500Y-19737258D01*
G04 #@! TO.C,1-R1*
X37352500Y-32012258D02*
X37352500Y-31537742D01*
X38397500Y-32012258D02*
X38397500Y-31537742D01*
G04 #@! TO.C,3-J4*
X66126000Y-76250000D02*
G75*
G02*
X63624000Y-76250000I-1251000J0D01*
G01*
X63624000Y-76250000D02*
G75*
G02*
X66126000Y-76250000I1251000J0D01*
G01*
G04 #@! TO.C,2-R3*
X54412258Y-57977500D02*
X53937742Y-57977500D01*
X54412258Y-59022500D02*
X53937742Y-59022500D01*
G04 #@! TO.C,3-U1*
X52815000Y-70750000D02*
X52815000Y-69950000D01*
X52815000Y-70750000D02*
X52815000Y-71550000D01*
X55935000Y-70750000D02*
X55935000Y-69950000D01*
X55935000Y-70750000D02*
X55935000Y-71550000D01*
X56215000Y-69690000D02*
X55885000Y-69450000D01*
X56215000Y-69210000D01*
X56215000Y-69690000D01*
G36*
X56215000Y-69690000D02*
G01*
X55885000Y-69450000D01*
X56215000Y-69210000D01*
X56215000Y-69690000D01*
G37*
G04 #@! TO.C,2-C6*
X42865000Y-59140580D02*
X42865000Y-58859420D01*
X43885000Y-59140580D02*
X43885000Y-58859420D01*
G04 #@! TO.C,0-R7*
X44602500Y-19937258D02*
X44602500Y-19462742D01*
X45647500Y-19937258D02*
X45647500Y-19462742D01*
G04 #@! TO.C,2-R6*
X57612258Y-57977500D02*
X57137742Y-57977500D01*
X57612258Y-59022500D02*
X57137742Y-59022500D01*
G04 #@! TO.C,1-C4*
X48115000Y-37059420D02*
X48115000Y-37340580D01*
X49135000Y-37059420D02*
X49135000Y-37340580D01*
G04 #@! TO.C,1-C1*
X57234420Y-31240000D02*
X57515580Y-31240000D01*
X57234420Y-32260000D02*
X57515580Y-32260000D01*
G04 #@! TO.C,3-C6*
X42865000Y-76640580D02*
X42865000Y-76359420D01*
X43885000Y-76640580D02*
X43885000Y-76359420D01*
G04 #@! TO.C,1-U4*
X46125000Y-25940000D02*
X45325000Y-25940000D01*
X46125000Y-25940000D02*
X46925000Y-25940000D01*
X46125000Y-29060000D02*
X45325000Y-29060000D01*
X46125000Y-29060000D02*
X46925000Y-29060000D01*
X47665000Y-29340000D02*
X47185000Y-29340000D01*
X47425000Y-29010000D01*
X47665000Y-29340000D01*
G36*
X47665000Y-29340000D02*
G01*
X47185000Y-29340000D01*
X47425000Y-29010000D01*
X47665000Y-29340000D01*
G37*
G04 #@! TO.C,0-D2*
X24575000Y-19735000D02*
X26860000Y-19735000D01*
X26860000Y-18265000D02*
X24575000Y-18265000D01*
X26860000Y-19735000D02*
X26860000Y-18265000D01*
G04 #@! TO.C,3-U4*
X46125000Y-68440000D02*
X45325000Y-68440000D01*
X46125000Y-68440000D02*
X46925000Y-68440000D01*
X46125000Y-71560000D02*
X45325000Y-71560000D01*
X46125000Y-71560000D02*
X46925000Y-71560000D01*
X47665000Y-71840000D02*
X47185000Y-71840000D01*
X47425000Y-71510000D01*
X47665000Y-71840000D01*
G36*
X47665000Y-71840000D02*
G01*
X47185000Y-71840000D01*
X47425000Y-71510000D01*
X47665000Y-71840000D01*
G37*
G04 #@! TO.C,3-C2*
X37365000Y-78859420D02*
X37365000Y-79140580D01*
X38385000Y-78859420D02*
X38385000Y-79140580D01*
G04 #@! TO.C,2-U1*
X52815000Y-53250000D02*
X52815000Y-52450000D01*
X52815000Y-53250000D02*
X52815000Y-54050000D01*
X55935000Y-53250000D02*
X55935000Y-52450000D01*
X55935000Y-53250000D02*
X55935000Y-54050000D01*
X56215000Y-52190000D02*
X55885000Y-51950000D01*
X56215000Y-51710000D01*
X56215000Y-52190000D01*
G36*
X56215000Y-52190000D02*
G01*
X55885000Y-51950000D01*
X56215000Y-51710000D01*
X56215000Y-52190000D01*
G37*
G04 #@! TO.C,2-R5*
X37852500Y-52737258D02*
X37852500Y-52262742D01*
X38897500Y-52737258D02*
X38897500Y-52262742D01*
G04 #@! TO.C,3-R2*
X42852500Y-79912258D02*
X42852500Y-79437742D01*
X43897500Y-79912258D02*
X43897500Y-79437742D01*
G04 #@! TO.C,0-R4*
X53937742Y-13727500D02*
X54412258Y-13727500D01*
X53937742Y-14772500D02*
X54412258Y-14772500D01*
G04 #@! TO.C,3-U6*
X53965000Y-79262500D02*
X53965000Y-78462500D01*
X53965000Y-79262500D02*
X53965000Y-80062500D01*
X57085000Y-79262500D02*
X57085000Y-78462500D01*
X57085000Y-79262500D02*
X57085000Y-80062500D01*
X54015000Y-80562500D02*
X53685000Y-80802500D01*
X53685000Y-80322500D01*
X54015000Y-80562500D01*
G36*
X54015000Y-80562500D02*
G01*
X53685000Y-80802500D01*
X53685000Y-80322500D01*
X54015000Y-80562500D01*
G37*
G04 #@! TO.C,2-R8*
X46352500Y-62437258D02*
X46352500Y-61962742D01*
X47397500Y-62437258D02*
X47397500Y-61962742D01*
G04 #@! TO.C,1-R10*
X61852500Y-36762742D02*
X61852500Y-37237258D01*
X62897500Y-36762742D02*
X62897500Y-37237258D01*
G04 #@! TO.C,0-JP4*
X60875000Y-16850000D02*
X60875000Y-14050000D01*
X61575000Y-13400000D02*
X62175000Y-13400000D01*
X62175000Y-17500000D02*
X61575000Y-17500000D01*
X62875000Y-14050000D02*
X62875000Y-16850000D01*
X63075000Y-16650000D02*
X63375000Y-16350000D01*
X63075000Y-16650000D02*
X63375000Y-16950000D01*
X63375000Y-16950000D02*
X63375000Y-16350000D01*
X60875000Y-14100000D02*
G75*
G02*
X61575000Y-13400000I700000J0D01*
G01*
X61575000Y-17500000D02*
G75*
G02*
X60875000Y-16800000I-1J699999D01*
G01*
X62175000Y-13400000D02*
G75*
G02*
X62875000Y-14100000I0J-700000D01*
G01*
X62875000Y-16800000D02*
G75*
G02*
X62175000Y-17500000I-699999J-1D01*
G01*
G04 #@! TO.C,0-JP1*
X60875000Y-11900000D02*
X60875000Y-9100000D01*
X61575000Y-8450000D02*
X62175000Y-8450000D01*
X62175000Y-12550000D02*
X61575000Y-12550000D01*
X62875000Y-9100000D02*
X62875000Y-11900000D01*
X63075000Y-11700000D02*
X63375000Y-11400000D01*
X63075000Y-11700000D02*
X63375000Y-12000000D01*
X63375000Y-12000000D02*
X63375000Y-11400000D01*
X60875000Y-9150000D02*
G75*
G02*
X61575000Y-8450000I700000J0D01*
G01*
X61575000Y-12550000D02*
G75*
G02*
X60875000Y-11850000I-1J699999D01*
G01*
X62175000Y-8450000D02*
G75*
G02*
X62875000Y-9150000I0J-700000D01*
G01*
X62875000Y-11850000D02*
G75*
G02*
X62175000Y-12550000I-699999J-1D01*
G01*
G04 #@! TO.C,2-U5*
X41512500Y-50940000D02*
X40712500Y-50940000D01*
X41512500Y-50940000D02*
X42312500Y-50940000D01*
X41512500Y-54060000D02*
X40712500Y-54060000D01*
X41512500Y-54060000D02*
X42312500Y-54060000D01*
X43052500Y-54340000D02*
X42572500Y-54340000D01*
X42812500Y-54010000D01*
X43052500Y-54340000D01*
G36*
X43052500Y-54340000D02*
G01*
X42572500Y-54340000D01*
X42812500Y-54010000D01*
X43052500Y-54340000D01*
G37*
G04 #@! TO.C,0-U1*
X52815000Y-10750000D02*
X52815000Y-9950000D01*
X52815000Y-10750000D02*
X52815000Y-11550000D01*
X55935000Y-10750000D02*
X55935000Y-9950000D01*
X55935000Y-10750000D02*
X55935000Y-11550000D01*
X56215000Y-9690000D02*
X55885000Y-9450000D01*
X56215000Y-9210000D01*
X56215000Y-9690000D01*
G36*
X56215000Y-9690000D02*
G01*
X55885000Y-9450000D01*
X56215000Y-9210000D01*
X56215000Y-9690000D01*
G37*
G04 #@! TO.C,0-U7*
X39065000Y-14200000D02*
X39065000Y-13400000D01*
X39065000Y-14200000D02*
X39065000Y-15000000D01*
X42185000Y-14200000D02*
X42185000Y-13400000D01*
X42185000Y-14200000D02*
X42185000Y-15000000D01*
X39115000Y-15500000D02*
X38785000Y-15740000D01*
X38785000Y-15260000D01*
X39115000Y-15500000D01*
G36*
X39115000Y-15500000D02*
G01*
X38785000Y-15740000D01*
X38785000Y-15260000D01*
X39115000Y-15500000D01*
G37*
G04 #@! TO.C,3-R3*
X54412258Y-75477500D02*
X53937742Y-75477500D01*
X54412258Y-76522500D02*
X53937742Y-76522500D01*
G04 #@! TO.C,1-R8*
X46352500Y-37437258D02*
X46352500Y-36962742D01*
X47397500Y-37437258D02*
X47397500Y-36962742D01*
G04 #@! TO.C,1-C5*
X50515580Y-30490000D02*
X50234420Y-30490000D01*
X50515580Y-31510000D02*
X50234420Y-31510000D01*
G04 #@! TO.C,2-C1*
X57234420Y-56240000D02*
X57515580Y-56240000D01*
X57234420Y-57260000D02*
X57515580Y-57260000D01*
G04 #@! TO.C,2-U2*
X39065000Y-61500000D02*
X39065000Y-60700000D01*
X39065000Y-61500000D02*
X39065000Y-62300000D01*
X42185000Y-61500000D02*
X42185000Y-60700000D01*
X42185000Y-61500000D02*
X42185000Y-62300000D01*
X42465000Y-60440000D02*
X42135000Y-60200000D01*
X42465000Y-59960000D01*
X42465000Y-60440000D01*
G36*
X42465000Y-60440000D02*
G01*
X42135000Y-60200000D01*
X42465000Y-59960000D01*
X42465000Y-60440000D01*
G37*
G04 #@! TO.C,0-J4*
X66126000Y-16250000D02*
G75*
G02*
X63624000Y-16250000I-1251000J0D01*
G01*
X63624000Y-16250000D02*
G75*
G02*
X66126000Y-16250000I1251000J0D01*
G01*
G04 #@! TO.C,1-R3*
X54412258Y-32977500D02*
X53937742Y-32977500D01*
X54412258Y-34022500D02*
X53937742Y-34022500D01*
G04 #@! TO.C,3-R4*
X53937742Y-73727500D02*
X54412258Y-73727500D01*
X53937742Y-74772500D02*
X54412258Y-74772500D01*
G04 #@! TO.C,1-D4*
X44765000Y-30900000D02*
X44765000Y-32600000D01*
X44765000Y-30900000D02*
X47425000Y-30900000D01*
X44765000Y-32600000D02*
X47425000Y-32600000D01*
G04 #@! TO.C,0-C5*
X50515580Y-12990000D02*
X50234420Y-12990000D01*
X50515580Y-14010000D02*
X50234420Y-14010000D01*
G04 #@! TO.C,3-J3*
X66126000Y-72750000D02*
G75*
G02*
X63624000Y-72750000I-1251000J0D01*
G01*
X63624000Y-72750000D02*
G75*
G02*
X66126000Y-72750000I1251000J0D01*
G01*
G04 #@! TO.C,3-D4*
X44765000Y-73400000D02*
X44765000Y-75100000D01*
X44765000Y-73400000D02*
X47425000Y-73400000D01*
X44765000Y-75100000D02*
X47425000Y-75100000D01*
G04 #@! TO.C,2-D3*
X51525000Y-60640000D02*
X51525000Y-63300000D01*
X53225000Y-60640000D02*
X51525000Y-60640000D01*
X53225000Y-60640000D02*
X53225000Y-63300000D01*
D13*
G04 #@! TO.C,3-L2*
X51075000Y-69350000D02*
X49675000Y-69350000D01*
X51075000Y-72150000D02*
X49675000Y-72150000D01*
D12*
G04 #@! TO.C,1-C3*
X46234420Y-33190000D02*
X46515580Y-33190000D01*
X46234420Y-34210000D02*
X46515580Y-34210000D01*
G04 #@! TO.C,1-J4*
X66126000Y-33750000D02*
G75*
G02*
X63624000Y-33750000I-1251000J0D01*
G01*
X63624000Y-33750000D02*
G75*
G02*
X66126000Y-33750000I1251000J0D01*
G01*
G04 #@! TO.C,0-SW1*
X22625000Y-13200000D02*
X22625000Y-15800000D01*
X23075000Y-12750000D02*
X22625000Y-13200000D01*
X23075000Y-16250000D02*
X22625000Y-15800000D01*
X26375000Y-11750000D02*
X24375000Y-11750000D01*
X26375000Y-17250000D02*
X24375000Y-17250000D01*
X27675000Y-12750000D02*
X28125000Y-13200000D01*
X27675000Y-16250000D02*
X28125000Y-15800000D01*
X28125000Y-13200000D02*
X28125000Y-15800000D01*
G04 #@! TO.C,2-U7*
X39065000Y-56700000D02*
X39065000Y-55900000D01*
X39065000Y-56700000D02*
X39065000Y-57500000D01*
X42185000Y-56700000D02*
X42185000Y-55900000D01*
X42185000Y-56700000D02*
X42185000Y-57500000D01*
X39115000Y-58000000D02*
X38785000Y-58240000D01*
X38785000Y-57760000D01*
X39115000Y-58000000D01*
G36*
X39115000Y-58000000D02*
G01*
X38785000Y-58240000D01*
X38785000Y-57760000D01*
X39115000Y-58000000D01*
G37*
G04 #@! TO.C,2-J4*
X66126000Y-58750000D02*
G75*
G02*
X63624000Y-58750000I-1251000J0D01*
G01*
X63624000Y-58750000D02*
G75*
G02*
X66126000Y-58750000I1251000J0D01*
G01*
G04 #@! TO.C,2-R11*
X59352500Y-57987258D02*
X59352500Y-57512742D01*
X60397500Y-57987258D02*
X60397500Y-57512742D01*
G04 #@! TO.C,3-R11*
X59352500Y-75487258D02*
X59352500Y-75012742D01*
X60397500Y-75487258D02*
X60397500Y-75012742D01*
G04 #@! TO.C,1-R6*
X57612258Y-32977500D02*
X57137742Y-32977500D01*
X57612258Y-34022500D02*
X57137742Y-34022500D01*
G04 #@! TO.C,0-D3*
X51525000Y-18140000D02*
X51525000Y-20800000D01*
X53225000Y-18140000D02*
X51525000Y-18140000D01*
X53225000Y-18140000D02*
X53225000Y-20800000D01*
G04 #@! TO.C,2-J3*
X66126000Y-55250000D02*
G75*
G02*
X63624000Y-55250000I-1251000J0D01*
G01*
X63624000Y-55250000D02*
G75*
G02*
X66126000Y-55250000I1251000J0D01*
G01*
G04 #@! TO.C,3-R8*
X46352500Y-79937258D02*
X46352500Y-79462742D01*
X47397500Y-79937258D02*
X47397500Y-79462742D01*
G04 #@! TO.C,1-R11*
X59352500Y-32987258D02*
X59352500Y-32512742D01*
X60397500Y-32987258D02*
X60397500Y-32512742D01*
D13*
G04 #@! TO.C,1-L2*
X51075000Y-26850000D02*
X49675000Y-26850000D01*
X51075000Y-29650000D02*
X49675000Y-29650000D01*
D12*
G04 #@! TO.C,3-R7*
X44602500Y-79937258D02*
X44602500Y-79462742D01*
X45647500Y-79937258D02*
X45647500Y-79462742D01*
D13*
G04 #@! TO.C,1-L1*
X60075000Y-35600000D02*
X58675000Y-35600000D01*
X60075000Y-38400000D02*
X58675000Y-38400000D01*
D12*
G04 #@! TO.C,0-R2*
X42852500Y-19912258D02*
X42852500Y-19437742D01*
X43897500Y-19912258D02*
X43897500Y-19437742D01*
G04 #@! TO.C,1-R5*
X37852500Y-27737258D02*
X37852500Y-27262742D01*
X38897500Y-27737258D02*
X38897500Y-27262742D01*
G04 #@! TO.C,0-R3*
X54412258Y-15477500D02*
X53937742Y-15477500D01*
X54412258Y-16522500D02*
X53937742Y-16522500D01*
G04 #@! TO.C,2-J5*
X66126000Y-62250000D02*
G75*
G02*
X63624000Y-62250000I-1251000J0D01*
G01*
X63624000Y-62250000D02*
G75*
G02*
X66126000Y-62250000I1251000J0D01*
G01*
G04 #@! TO.C,1-C7*
X46515580Y-29490000D02*
X46234420Y-29490000D01*
X46515580Y-30510000D02*
X46234420Y-30510000D01*
G04 #@! TO.C,3-D2*
X24575000Y-79735000D02*
X26860000Y-79735000D01*
X26860000Y-78265000D02*
X24575000Y-78265000D01*
X26860000Y-79735000D02*
X26860000Y-78265000D01*
G04 #@! TO.C,2-C2*
X37365000Y-61359420D02*
X37365000Y-61640580D01*
X38385000Y-61359420D02*
X38385000Y-61640580D01*
G04 #@! TO.C,1-D5*
X49525000Y-38860000D02*
X49525000Y-36200000D01*
X49525000Y-38860000D02*
X51225000Y-38860000D01*
X51225000Y-38860000D02*
X51225000Y-36200000D01*
G04 #@! TO.C,2-U3*
X50375000Y-57190000D02*
X49575000Y-57190000D01*
X50375000Y-57190000D02*
X51175000Y-57190000D01*
X50375000Y-60310000D02*
X49575000Y-60310000D01*
X50375000Y-60310000D02*
X51175000Y-60310000D01*
X49075000Y-57240000D02*
X48835000Y-56910000D01*
X49315000Y-56910000D01*
X49075000Y-57240000D01*
G36*
X49075000Y-57240000D02*
G01*
X48835000Y-56910000D01*
X49315000Y-56910000D01*
X49075000Y-57240000D01*
G37*
G04 #@! TO.C,1-R7*
X44602500Y-37437258D02*
X44602500Y-36962742D01*
X45647500Y-37437258D02*
X45647500Y-36962742D01*
G04 #@! TO.C,1-J2*
X66126000Y-26750000D02*
G75*
G02*
X63624000Y-26750000I-1251000J0D01*
G01*
X63624000Y-26750000D02*
G75*
G02*
X66126000Y-26750000I1251000J0D01*
G01*
G04 #@! TO.C,0-C3*
X46234420Y-15690000D02*
X46515580Y-15690000D01*
X46234420Y-16710000D02*
X46515580Y-16710000D01*
G04 #@! TO.C,1-C6*
X42865000Y-34140580D02*
X42865000Y-33859420D01*
X43885000Y-34140580D02*
X43885000Y-33859420D01*
G04 #@! TO.C,1-D3*
X51525000Y-35640000D02*
X51525000Y-38300000D01*
X53225000Y-35640000D02*
X51525000Y-35640000D01*
X53225000Y-35640000D02*
X53225000Y-38300000D01*
G04 #@! TO.C,3-R1*
X37352500Y-74512258D02*
X37352500Y-74037742D01*
X38397500Y-74512258D02*
X38397500Y-74037742D01*
G04 #@! TO.C,2-C4*
X48115000Y-62059420D02*
X48115000Y-62340580D01*
X49135000Y-62059420D02*
X49135000Y-62340580D01*
G04 #@! TO.C,3-JP1*
X60875000Y-71900000D02*
X60875000Y-69100000D01*
X61575000Y-68450000D02*
X62175000Y-68450000D01*
X62175000Y-72550000D02*
X61575000Y-72550000D01*
X62875000Y-69100000D02*
X62875000Y-71900000D01*
X63075000Y-71700000D02*
X63375000Y-71400000D01*
X63075000Y-71700000D02*
X63375000Y-72000000D01*
X63375000Y-72000000D02*
X63375000Y-71400000D01*
X60875000Y-69150000D02*
G75*
G02*
X61575000Y-68450000I700000J0D01*
G01*
X61575000Y-72550000D02*
G75*
G02*
X60875000Y-71850000I-1J699999D01*
G01*
X62175000Y-68450000D02*
G75*
G02*
X62875000Y-69150000I0J-700000D01*
G01*
X62875000Y-71850000D02*
G75*
G02*
X62175000Y-72550000I-699999J-1D01*
G01*
D13*
G04 #@! TO.C,0-L1*
X60075000Y-18100000D02*
X58675000Y-18100000D01*
X60075000Y-20900000D02*
X58675000Y-20900000D01*
D12*
G04 #@! TO.C,0-R8*
X46352500Y-19937258D02*
X46352500Y-19462742D01*
X47397500Y-19937258D02*
X47397500Y-19462742D01*
G04 #@! TO.C,1-U3*
X50375000Y-32190000D02*
X49575000Y-32190000D01*
X50375000Y-32190000D02*
X51175000Y-32190000D01*
X50375000Y-35310000D02*
X49575000Y-35310000D01*
X50375000Y-35310000D02*
X51175000Y-35310000D01*
X49075000Y-32240000D02*
X48835000Y-31910000D01*
X49315000Y-31910000D01*
X49075000Y-32240000D01*
G36*
X49075000Y-32240000D02*
G01*
X48835000Y-31910000D01*
X49315000Y-31910000D01*
X49075000Y-32240000D01*
G37*
G04 #@! TO.C,2-C7*
X46515580Y-54490000D02*
X46234420Y-54490000D01*
X46515580Y-55510000D02*
X46234420Y-55510000D01*
G04 #@! TO.C,1-R2*
X42852500Y-37412258D02*
X42852500Y-36937742D01*
X43897500Y-37412258D02*
X43897500Y-36937742D01*
G04 #@! TO.C,3-D5*
X49525000Y-81360000D02*
X49525000Y-78700000D01*
X49525000Y-81360000D02*
X51225000Y-81360000D01*
X51225000Y-81360000D02*
X51225000Y-78700000D01*
G04 #@! TO.C,1-JP4*
X60875000Y-34350000D02*
X60875000Y-31550000D01*
X61575000Y-30900000D02*
X62175000Y-30900000D01*
X62175000Y-35000000D02*
X61575000Y-35000000D01*
X62875000Y-31550000D02*
X62875000Y-34350000D01*
X63075000Y-34150000D02*
X63375000Y-33850000D01*
X63075000Y-34150000D02*
X63375000Y-34450000D01*
X63375000Y-34450000D02*
X63375000Y-33850000D01*
X60875000Y-31600000D02*
G75*
G02*
X61575000Y-30900000I700000J0D01*
G01*
X61575000Y-35000000D02*
G75*
G02*
X60875000Y-34300000I-1J699999D01*
G01*
X62175000Y-30900000D02*
G75*
G02*
X62875000Y-31600000I0J-700000D01*
G01*
X62875000Y-34300000D02*
G75*
G02*
X62175000Y-35000000I-699999J-1D01*
G01*
G04 #@! TO.C,3-R10*
X61852500Y-79262742D02*
X61852500Y-79737258D01*
X62897500Y-79262742D02*
X62897500Y-79737258D01*
G04 #@! TO.C,3-SW1*
X22625000Y-73200000D02*
X22625000Y-75800000D01*
X23075000Y-72750000D02*
X22625000Y-73200000D01*
X23075000Y-76250000D02*
X22625000Y-75800000D01*
X26375000Y-71750000D02*
X24375000Y-71750000D01*
X26375000Y-77250000D02*
X24375000Y-77250000D01*
X27675000Y-72750000D02*
X28125000Y-73200000D01*
X27675000Y-76250000D02*
X28125000Y-75800000D01*
X28125000Y-73200000D02*
X28125000Y-75800000D01*
G04 #@! TO.C,3-C7*
X46515580Y-71990000D02*
X46234420Y-71990000D01*
X46515580Y-73010000D02*
X46234420Y-73010000D01*
G04 #@! TO.C,1-C2*
X37365000Y-36359420D02*
X37365000Y-36640580D01*
X38385000Y-36359420D02*
X38385000Y-36640580D01*
G04 #@! TO.C,1-U6*
X53965000Y-36762500D02*
X53965000Y-35962500D01*
X53965000Y-36762500D02*
X53965000Y-37562500D01*
X57085000Y-36762500D02*
X57085000Y-35962500D01*
X57085000Y-36762500D02*
X57085000Y-37562500D01*
X54015000Y-38062500D02*
X53685000Y-38302500D01*
X53685000Y-37822500D01*
X54015000Y-38062500D01*
G36*
X54015000Y-38062500D02*
G01*
X53685000Y-38302500D01*
X53685000Y-37822500D01*
X54015000Y-38062500D01*
G37*
G04 #@! TO.C,0-J3*
X66126000Y-12750000D02*
G75*
G02*
X63624000Y-12750000I-1251000J0D01*
G01*
X63624000Y-12750000D02*
G75*
G02*
X66126000Y-12750000I1251000J0D01*
G01*
G04 #@! TO.C,2-R2*
X42852500Y-62412258D02*
X42852500Y-61937742D01*
X43897500Y-62412258D02*
X43897500Y-61937742D01*
G04 #@! TO.C,0-R11*
X59352500Y-15487258D02*
X59352500Y-15012742D01*
X60397500Y-15487258D02*
X60397500Y-15012742D01*
G04 #@! TO.C,3-J2*
X66126000Y-69250000D02*
G75*
G02*
X63624000Y-69250000I-1251000J0D01*
G01*
X63624000Y-69250000D02*
G75*
G02*
X66126000Y-69250000I1251000J0D01*
G01*
D13*
G04 #@! TO.C,3-L1*
X60075000Y-78100000D02*
X58675000Y-78100000D01*
X60075000Y-80900000D02*
X58675000Y-80900000D01*
D12*
G04 #@! TO.C,3-JP4*
X60875000Y-76850000D02*
X60875000Y-74050000D01*
X61575000Y-73400000D02*
X62175000Y-73400000D01*
X62175000Y-77500000D02*
X61575000Y-77500000D01*
X62875000Y-74050000D02*
X62875000Y-76850000D01*
X63075000Y-76650000D02*
X63375000Y-76350000D01*
X63075000Y-76650000D02*
X63375000Y-76950000D01*
X63375000Y-76950000D02*
X63375000Y-76350000D01*
X60875000Y-74100000D02*
G75*
G02*
X61575000Y-73400000I700000J0D01*
G01*
X61575000Y-77500000D02*
G75*
G02*
X60875000Y-76800000I-1J699999D01*
G01*
X62175000Y-73400000D02*
G75*
G02*
X62875000Y-74100000I0J-700000D01*
G01*
X62875000Y-76800000D02*
G75*
G02*
X62175000Y-77500000I-699999J-1D01*
G01*
G04 #@! TO.C,3-C1*
X57234420Y-73740000D02*
X57515580Y-73740000D01*
X57234420Y-74760000D02*
X57515580Y-74760000D01*
G04 #@! TO.C,3-U7*
X39065000Y-74200000D02*
X39065000Y-73400000D01*
X39065000Y-74200000D02*
X39065000Y-75000000D01*
X42185000Y-74200000D02*
X42185000Y-73400000D01*
X42185000Y-74200000D02*
X42185000Y-75000000D01*
X39115000Y-75500000D02*
X38785000Y-75740000D01*
X38785000Y-75260000D01*
X39115000Y-75500000D01*
G36*
X39115000Y-75500000D02*
G01*
X38785000Y-75740000D01*
X38785000Y-75260000D01*
X39115000Y-75500000D01*
G37*
G04 #@! TO.C,2-R10*
X61852500Y-61762742D02*
X61852500Y-62237258D01*
X62897500Y-61762742D02*
X62897500Y-62237258D01*
G04 #@! TO.C,0-R9*
X42852500Y-13737258D02*
X42852500Y-13262742D01*
X43897500Y-13737258D02*
X43897500Y-13262742D01*
G04 #@! TO.C,3-C5*
X50515580Y-72990000D02*
X50234420Y-72990000D01*
X50515580Y-74010000D02*
X50234420Y-74010000D01*
D13*
G04 #@! TO.C,2-L1*
X60075000Y-60600000D02*
X58675000Y-60600000D01*
X60075000Y-63400000D02*
X58675000Y-63400000D01*
D12*
G04 #@! TO.C,0-U5*
X41512500Y-8440000D02*
X40712500Y-8440000D01*
X41512500Y-8440000D02*
X42312500Y-8440000D01*
X41512500Y-11560000D02*
X40712500Y-11560000D01*
X41512500Y-11560000D02*
X42312500Y-11560000D01*
X43052500Y-11840000D02*
X42572500Y-11840000D01*
X42812500Y-11510000D01*
X43052500Y-11840000D01*
G36*
X43052500Y-11840000D02*
G01*
X42572500Y-11840000D01*
X42812500Y-11510000D01*
X43052500Y-11840000D01*
G37*
G04 #@! TO.C,0-D4*
X44765000Y-13400000D02*
X44765000Y-15100000D01*
X44765000Y-13400000D02*
X47425000Y-13400000D01*
X44765000Y-15100000D02*
X47425000Y-15100000D01*
G04 #@! TO.C,2-JP1*
X60875000Y-54400000D02*
X60875000Y-51600000D01*
X61575000Y-50950000D02*
X62175000Y-50950000D01*
X62175000Y-55050000D02*
X61575000Y-55050000D01*
X62875000Y-51600000D02*
X62875000Y-54400000D01*
X63075000Y-54200000D02*
X63375000Y-53900000D01*
X63075000Y-54200000D02*
X63375000Y-54500000D01*
X63375000Y-54500000D02*
X63375000Y-53900000D01*
X60875000Y-51650000D02*
G75*
G02*
X61575000Y-50950000I700000J0D01*
G01*
X61575000Y-55050000D02*
G75*
G02*
X60875000Y-54350000I-1J699999D01*
G01*
X62175000Y-50950000D02*
G75*
G02*
X62875000Y-51650000I0J-700000D01*
G01*
X62875000Y-54350000D02*
G75*
G02*
X62175000Y-55050000I-699999J-1D01*
G01*
G04 #@! TO.C,2-JP4*
X60875000Y-59350000D02*
X60875000Y-56550000D01*
X61575000Y-55900000D02*
X62175000Y-55900000D01*
X62175000Y-60000000D02*
X61575000Y-60000000D01*
X62875000Y-56550000D02*
X62875000Y-59350000D01*
X63075000Y-59150000D02*
X63375000Y-58850000D01*
X63075000Y-59150000D02*
X63375000Y-59450000D01*
X63375000Y-59450000D02*
X63375000Y-58850000D01*
X60875000Y-56600000D02*
G75*
G02*
X61575000Y-55900000I700000J0D01*
G01*
X61575000Y-60000000D02*
G75*
G02*
X60875000Y-59300000I-1J699999D01*
G01*
X62175000Y-55900000D02*
G75*
G02*
X62875000Y-56600000I0J-700000D01*
G01*
X62875000Y-59300000D02*
G75*
G02*
X62175000Y-60000000I-699999J-1D01*
G01*
G04 #@! TO.C,2-U6*
X53965000Y-61762500D02*
X53965000Y-60962500D01*
X53965000Y-61762500D02*
X53965000Y-62562500D01*
X57085000Y-61762500D02*
X57085000Y-60962500D01*
X57085000Y-61762500D02*
X57085000Y-62562500D01*
X54015000Y-63062500D02*
X53685000Y-63302500D01*
X53685000Y-62822500D01*
X54015000Y-63062500D01*
G36*
X54015000Y-63062500D02*
G01*
X53685000Y-63302500D01*
X53685000Y-62822500D01*
X54015000Y-63062500D01*
G37*
G04 #@! TO.C,0-R6*
X57612258Y-15477500D02*
X57137742Y-15477500D01*
X57612258Y-16522500D02*
X57137742Y-16522500D01*
G04 #@! TO.C,3-C3*
X46234420Y-75690000D02*
X46515580Y-75690000D01*
X46234420Y-76710000D02*
X46515580Y-76710000D01*
D13*
G04 #@! TO.C,0-L2*
X51075000Y-9350000D02*
X49675000Y-9350000D01*
X51075000Y-12150000D02*
X49675000Y-12150000D01*
D12*
G04 #@! TO.C,1-J3*
X66126000Y-30250000D02*
G75*
G02*
X63624000Y-30250000I-1251000J0D01*
G01*
X63624000Y-30250000D02*
G75*
G02*
X66126000Y-30250000I1251000J0D01*
G01*
G04 #@! TO.C,0-C6*
X42865000Y-16640580D02*
X42865000Y-16359420D01*
X43885000Y-16640580D02*
X43885000Y-16359420D01*
G04 #@! TO.C,0-U6*
X53965000Y-19262500D02*
X53965000Y-18462500D01*
X53965000Y-19262500D02*
X53965000Y-20062500D01*
X57085000Y-19262500D02*
X57085000Y-18462500D01*
X57085000Y-19262500D02*
X57085000Y-20062500D01*
X54015000Y-20562500D02*
X53685000Y-20802500D01*
X53685000Y-20322500D01*
X54015000Y-20562500D01*
G36*
X54015000Y-20562500D02*
G01*
X53685000Y-20802500D01*
X53685000Y-20322500D01*
X54015000Y-20562500D01*
G37*
G04 #@! TO.C,0-C4*
X48115000Y-19559420D02*
X48115000Y-19840580D01*
X49135000Y-19559420D02*
X49135000Y-19840580D01*
G04 #@! TO.C,2-R7*
X44602500Y-62437258D02*
X44602500Y-61962742D01*
X45647500Y-62437258D02*
X45647500Y-61962742D01*
G04 #@! TO.C,0-D5*
X49525000Y-21360000D02*
X49525000Y-18700000D01*
X49525000Y-21360000D02*
X51225000Y-21360000D01*
X51225000Y-21360000D02*
X51225000Y-18700000D01*
G04 #@! TO.C,3-U3*
X50375000Y-74690000D02*
X49575000Y-74690000D01*
X50375000Y-74690000D02*
X51175000Y-74690000D01*
X50375000Y-77810000D02*
X49575000Y-77810000D01*
X50375000Y-77810000D02*
X51175000Y-77810000D01*
X49075000Y-74740000D02*
X48835000Y-74410000D01*
X49315000Y-74410000D01*
X49075000Y-74740000D01*
G36*
X49075000Y-74740000D02*
G01*
X48835000Y-74410000D01*
X49315000Y-74410000D01*
X49075000Y-74740000D01*
G37*
G04 #@! TO.C,0-R5*
X37852500Y-10237258D02*
X37852500Y-9762742D01*
X38897500Y-10237258D02*
X38897500Y-9762742D01*
G04 #@! TO.C,2-U4*
X46125000Y-50940000D02*
X45325000Y-50940000D01*
X46125000Y-50940000D02*
X46925000Y-50940000D01*
X46125000Y-54060000D02*
X45325000Y-54060000D01*
X46125000Y-54060000D02*
X46925000Y-54060000D01*
X47665000Y-54340000D02*
X47185000Y-54340000D01*
X47425000Y-54010000D01*
X47665000Y-54340000D01*
G36*
X47665000Y-54340000D02*
G01*
X47185000Y-54340000D01*
X47425000Y-54010000D01*
X47665000Y-54340000D01*
G37*
G04 #@! TO.C,3-C4*
X48115000Y-79559420D02*
X48115000Y-79840580D01*
X49135000Y-79559420D02*
X49135000Y-79840580D01*
G04 #@! TO.C,1-U1*
X52815000Y-28250000D02*
X52815000Y-27450000D01*
X52815000Y-28250000D02*
X52815000Y-29050000D01*
X55935000Y-28250000D02*
X55935000Y-27450000D01*
X55935000Y-28250000D02*
X55935000Y-29050000D01*
X56215000Y-27190000D02*
X55885000Y-26950000D01*
X56215000Y-26710000D01*
X56215000Y-27190000D01*
G36*
X56215000Y-27190000D02*
G01*
X55885000Y-26950000D01*
X56215000Y-26710000D01*
X56215000Y-27190000D01*
G37*
G04 #@! TO.C,1-J5*
X66126000Y-37250000D02*
G75*
G02*
X63624000Y-37250000I-1251000J0D01*
G01*
X63624000Y-37250000D02*
G75*
G02*
X66126000Y-37250000I1251000J0D01*
G01*
G04 #@! TO.C,1-R4*
X53937742Y-31227500D02*
X54412258Y-31227500D01*
X53937742Y-32272500D02*
X54412258Y-32272500D01*
G04 #@! TO.C,0-Q1*
X57065000Y-10750000D02*
X57065000Y-9950000D01*
X57065000Y-10750000D02*
X57065000Y-11550000D01*
X60185000Y-10750000D02*
X60185000Y-9950000D01*
X60185000Y-10750000D02*
X60185000Y-11550000D01*
X57115000Y-12050000D02*
X56785000Y-12290000D01*
X56785000Y-11810000D01*
X57115000Y-12050000D01*
G36*
X57115000Y-12050000D02*
G01*
X56785000Y-12290000D01*
X56785000Y-11810000D01*
X57115000Y-12050000D01*
G37*
D13*
G04 #@! TO.C,2-L2*
X51075000Y-51850000D02*
X49675000Y-51850000D01*
X51075000Y-54650000D02*
X49675000Y-54650000D01*
D12*
G04 #@! TO.C,3-Q1*
X57065000Y-70750000D02*
X57065000Y-69950000D01*
X57065000Y-70750000D02*
X57065000Y-71550000D01*
X60185000Y-70750000D02*
X60185000Y-69950000D01*
X60185000Y-70750000D02*
X60185000Y-71550000D01*
X57115000Y-72050000D02*
X56785000Y-72290000D01*
X56785000Y-71810000D01*
X57115000Y-72050000D01*
G36*
X57115000Y-72050000D02*
G01*
X56785000Y-72290000D01*
X56785000Y-71810000D01*
X57115000Y-72050000D01*
G37*
G04 #@! TO.C,0-U4*
X46125000Y-8440000D02*
X45325000Y-8440000D01*
X46125000Y-8440000D02*
X46925000Y-8440000D01*
X46125000Y-11560000D02*
X45325000Y-11560000D01*
X46125000Y-11560000D02*
X46925000Y-11560000D01*
X47665000Y-11840000D02*
X47185000Y-11840000D01*
X47425000Y-11510000D01*
X47665000Y-11840000D01*
G36*
X47665000Y-11840000D02*
G01*
X47185000Y-11840000D01*
X47425000Y-11510000D01*
X47665000Y-11840000D01*
G37*
G04 #@! TO.C,2-R1*
X37352500Y-57012258D02*
X37352500Y-56537742D01*
X38397500Y-57012258D02*
X38397500Y-56537742D01*
G04 #@! TO.C,0-U3*
X50375000Y-14690000D02*
X49575000Y-14690000D01*
X50375000Y-14690000D02*
X51175000Y-14690000D01*
X50375000Y-17810000D02*
X49575000Y-17810000D01*
X50375000Y-17810000D02*
X51175000Y-17810000D01*
X49075000Y-14740000D02*
X48835000Y-14410000D01*
X49315000Y-14410000D01*
X49075000Y-14740000D01*
G36*
X49075000Y-14740000D02*
G01*
X48835000Y-14410000D01*
X49315000Y-14410000D01*
X49075000Y-14740000D01*
G37*
G04 #@! TO.C,2-D4*
X44765000Y-55900000D02*
X44765000Y-57600000D01*
X44765000Y-55900000D02*
X47425000Y-55900000D01*
X44765000Y-57600000D02*
X47425000Y-57600000D01*
G04 #@! TO.C,0-R1*
X37352500Y-14512258D02*
X37352500Y-14037742D01*
X38397500Y-14512258D02*
X38397500Y-14037742D01*
G04 #@! TO.C,0-C2*
X37365000Y-18859420D02*
X37365000Y-19140580D01*
X38385000Y-18859420D02*
X38385000Y-19140580D01*
G04 #@! TO.C,0-C1*
X57234420Y-13740000D02*
X57515580Y-13740000D01*
X57234420Y-14760000D02*
X57515580Y-14760000D01*
G04 #@! TO.C,3-J5*
X66126000Y-79750000D02*
G75*
G02*
X63624000Y-79750000I-1251000J0D01*
G01*
X63624000Y-79750000D02*
G75*
G02*
X66126000Y-79750000I1251000J0D01*
G01*
G04 #@! TO.C,2-D2*
X24575000Y-62235000D02*
X26860000Y-62235000D01*
X26860000Y-60765000D02*
X24575000Y-60765000D01*
X26860000Y-62235000D02*
X26860000Y-60765000D01*
G04 #@! TO.C,2-Q1*
X57065000Y-53250000D02*
X57065000Y-52450000D01*
X57065000Y-53250000D02*
X57065000Y-54050000D01*
X60185000Y-53250000D02*
X60185000Y-52450000D01*
X60185000Y-53250000D02*
X60185000Y-54050000D01*
X57115000Y-54550000D02*
X56785000Y-54790000D01*
X56785000Y-54310000D01*
X57115000Y-54550000D01*
G36*
X57115000Y-54550000D02*
G01*
X56785000Y-54790000D01*
X56785000Y-54310000D01*
X57115000Y-54550000D01*
G37*
G04 #@! TO.C,1-U7*
X39065000Y-31700000D02*
X39065000Y-30900000D01*
X39065000Y-31700000D02*
X39065000Y-32500000D01*
X42185000Y-31700000D02*
X42185000Y-30900000D01*
X42185000Y-31700000D02*
X42185000Y-32500000D01*
X39115000Y-33000000D02*
X38785000Y-33240000D01*
X38785000Y-32760000D01*
X39115000Y-33000000D01*
G36*
X39115000Y-33000000D02*
G01*
X38785000Y-33240000D01*
X38785000Y-32760000D01*
X39115000Y-33000000D01*
G37*
G04 #@! TO.C,2-C5*
X50515580Y-55490000D02*
X50234420Y-55490000D01*
X50515580Y-56510000D02*
X50234420Y-56510000D01*
G04 #@! TO.C,0-C7*
X46515580Y-11990000D02*
X46234420Y-11990000D01*
X46515580Y-13010000D02*
X46234420Y-13010000D01*
G04 #@! TO.C,1-D2*
X24575000Y-37235000D02*
X26860000Y-37235000D01*
X26860000Y-35765000D02*
X24575000Y-35765000D01*
X26860000Y-37235000D02*
X26860000Y-35765000D01*
G04 #@! TD*
%LPC*%
D14*
G04 #@! TO.C,2-R4*
X53350000Y-56750000D03*
X55000000Y-56750000D03*
G04 #@! TD*
D15*
G04 #@! TO.C,KiKit_MB_17_2*
X23274498Y-51000173D03*
G04 #@! TD*
G04 #@! TO.C,KiKit_MB_33_8*
X75000000Y-7000000D03*
G04 #@! TD*
D16*
G04 #@! TO.C,3-R6*
X58200000Y-76000000D03*
X56550000Y-76000000D03*
G04 #@! TD*
D15*
G04 #@! TO.C,KiKit_MB_6_2*
X24975498Y-20499804D03*
G04 #@! TD*
D17*
G04 #@! TO.C,1-SW1*
X27250000Y-29000000D03*
X27250000Y-35000000D03*
X23500000Y-29000000D03*
X23500000Y-35000000D03*
G04 #@! TD*
D15*
G04 #@! TO.C,KiKit_MB_14_2*
X40774502Y-49500274D03*
G04 #@! TD*
G04 #@! TO.C,KiKit_MB_17_1*
X22423998Y-51000162D03*
G04 #@! TD*
D18*
G04 #@! TO.C,3-R9*
X43375000Y-74325000D03*
X43375000Y-72675000D03*
G04 #@! TD*
D15*
G04 #@! TO.C,KiKit_MB_6_4*
X23274498Y-20499826D03*
G04 #@! TD*
D18*
G04 #@! TO.C,3-R5*
X38375000Y-70825000D03*
X38375000Y-69175000D03*
G04 #@! TD*
D19*
G04 #@! TO.C,3-D3*
X52375000Y-78700000D03*
X52375000Y-80800000D03*
G04 #@! TD*
D15*
G04 #@! TO.C,KiKit_MB_18_4*
X23274498Y-62999826D03*
G04 #@! TD*
G04 #@! TO.C,KiKit_MB_21_2*
X61475499Y-82000000D03*
G04 #@! TD*
G04 #@! TO.C,KiKit_MB_24_5*
X22423998Y-80499837D03*
G04 #@! TD*
D20*
G04 #@! TO.C,1-U2*
X41575000Y-35362500D03*
X40625000Y-35362500D03*
X39675000Y-35362500D03*
X39675000Y-37637500D03*
X41575000Y-37637500D03*
G04 #@! TD*
D15*
G04 #@! TO.C,KiKit_MB_9_2*
X61475499Y-39500000D03*
G04 #@! TD*
D20*
G04 #@! TO.C,3-U2*
X41575000Y-77862500D03*
X40625000Y-77862500D03*
X39675000Y-77862500D03*
X39675000Y-80137500D03*
X41575000Y-80137500D03*
G04 #@! TD*
D18*
G04 #@! TO.C,1-R9*
X43375000Y-31825000D03*
X43375000Y-30175000D03*
G04 #@! TD*
D21*
G04 #@! TO.C,1-JP1*
X61875000Y-29300000D03*
D22*
X61875000Y-28000000D03*
D23*
X61875000Y-26700000D03*
G04 #@! TD*
D18*
G04 #@! TO.C,2-R9*
X43375000Y-56825000D03*
X43375000Y-55175000D03*
G04 #@! TD*
D24*
G04 #@! TO.C,0-J5*
X64875000Y-19750000D03*
G04 #@! TD*
D15*
G04 #@! TO.C,KiKit_MB_21_5*
X58924000Y-82000000D03*
G04 #@! TD*
D24*
G04 #@! TO.C,0-J2*
X64875000Y-9250000D03*
G04 #@! TD*
D15*
G04 #@! TO.C,KiKit_MB_7_1*
X43325999Y-39500000D03*
G04 #@! TD*
D25*
G04 #@! TO.C,2-D5*
X50375000Y-63300000D03*
X50375000Y-61200000D03*
G04 #@! TD*
D15*
G04 #@! TO.C,KiKit_MB_11_4*
X24975498Y-26000195D03*
G04 #@! TD*
D17*
G04 #@! TO.C,2-SW1*
X27250000Y-54000000D03*
X27250000Y-60000000D03*
X23500000Y-54000000D03*
X23500000Y-60000000D03*
G04 #@! TD*
D26*
G04 #@! TO.C,3-U5*
X42650000Y-70950000D03*
X42650000Y-70000000D03*
X42650000Y-69050000D03*
X40375000Y-69050000D03*
X40375000Y-70000000D03*
X40375000Y-70950000D03*
G04 #@! TD*
D27*
G04 #@! TO.C,2-C3*
X45600000Y-58700000D03*
X47150000Y-58700000D03*
G04 #@! TD*
D26*
G04 #@! TO.C,1-U5*
X42650000Y-28450000D03*
X42650000Y-27500000D03*
X42650000Y-26550000D03*
X40375000Y-26550000D03*
X40375000Y-27500000D03*
X40375000Y-28450000D03*
G04 #@! TD*
D15*
G04 #@! TO.C,KiKit_MB_34_1*
X68625000Y-82000000D03*
G04 #@! TD*
G04 #@! TO.C,KiKit_MB_4_2*
X59774502Y-7000061D03*
G04 #@! TD*
D20*
G04 #@! TO.C,0-U2*
X41575000Y-17862500D03*
X40625000Y-17862500D03*
X39675000Y-17862500D03*
X39675000Y-20137500D03*
X41575000Y-20137500D03*
G04 #@! TD*
D24*
G04 #@! TO.C,2-J2*
X64875000Y-51750000D03*
G04 #@! TD*
D28*
G04 #@! TO.C,1-Q1*
X57675000Y-29387500D03*
X58625000Y-29387500D03*
X59575000Y-29387500D03*
X59575000Y-27112500D03*
X58625000Y-27112500D03*
X57675000Y-27112500D03*
G04 #@! TD*
D15*
G04 #@! TO.C,KiKit_MB_16_3*
X60625002Y-49500050D03*
G04 #@! TD*
G04 #@! TO.C,KiKit_MB_23_1*
X22423998Y-68500162D03*
G04 #@! TD*
G04 #@! TO.C,KiKit_MB_11_5*
X25825998Y-26000206D03*
G04 #@! TD*
G04 #@! TO.C,KiKit_MB_31_5*
X3642858Y-7000000D03*
G04 #@! TD*
G04 #@! TO.C,KiKit_MB_28_1*
X66625000Y0D03*
G04 #@! TD*
G04 #@! TO.C,KiKit_MB_21_4*
X59774500Y-82000000D03*
G04 #@! TD*
G04 #@! TO.C,KiKit_MB_31_8*
X6375000Y-7000000D03*
G04 #@! TD*
D29*
G04 #@! TO.C,0-R10*
X62375000Y-18675000D03*
X62375000Y-20325000D03*
G04 #@! TD*
D18*
G04 #@! TO.C,1-R1*
X37875000Y-32600000D03*
X37875000Y-30950000D03*
G04 #@! TD*
D15*
G04 #@! TO.C,KiKit_MB_15_4*
X59774500Y-64500000D03*
G04 #@! TD*
G04 #@! TO.C,KiKit_MB_28_6*
X66625000Y-4166667D03*
G04 #@! TD*
D24*
G04 #@! TO.C,3-J4*
X64875000Y-76250000D03*
G04 #@! TD*
D15*
G04 #@! TO.C,KiKit_MB_4_3*
X60625002Y-7000051D03*
G04 #@! TD*
G04 #@! TO.C,KiKit_MB_16_1*
X58924002Y-49500069D03*
G04 #@! TD*
G04 #@! TO.C,KiKit_MB_2_4*
X42475502Y-7000255D03*
G04 #@! TD*
D16*
G04 #@! TO.C,2-R3*
X55000000Y-58500000D03*
X53350000Y-58500000D03*
G04 #@! TD*
D20*
G04 #@! TO.C,3-U1*
X55325000Y-69612500D03*
X54375000Y-69612500D03*
X53425000Y-69612500D03*
X53425000Y-71887500D03*
X54375000Y-71887500D03*
X55325000Y-71887500D03*
G04 #@! TD*
D15*
G04 #@! TO.C,KiKit_MB_3_4*
X59774500Y-22000000D03*
G04 #@! TD*
G04 #@! TO.C,KiKit_MB_10_2*
X59774502Y-24500060D03*
G04 #@! TD*
G04 #@! TO.C,KiKit_MB_33_4*
X71357142Y-7000000D03*
G04 #@! TD*
G04 #@! TO.C,KiKit_MB_10_5*
X62326001Y-24500031D03*
G04 #@! TD*
G04 #@! TO.C,KiKit_MB_30_6*
X66625000Y-88166666D03*
G04 #@! TD*
G04 #@! TO.C,KiKit_MB_5_2*
X23274498Y-8500174D03*
G04 #@! TD*
D30*
G04 #@! TO.C,2-C6*
X43375000Y-59775000D03*
X43375000Y-58225000D03*
G04 #@! TD*
D15*
G04 #@! TO.C,KiKit_MB_1_1*
X43325999Y-22000000D03*
G04 #@! TD*
D18*
G04 #@! TO.C,0-R7*
X45125000Y-20525000D03*
X45125000Y-18875000D03*
G04 #@! TD*
D15*
G04 #@! TO.C,KiKit_MB_31_3*
X1821429Y-7000000D03*
G04 #@! TD*
G04 #@! TO.C,KiKit_MB_12_1*
X25825998Y-37999793D03*
G04 #@! TD*
D16*
G04 #@! TO.C,2-R6*
X58200000Y-58500000D03*
X56550000Y-58500000D03*
G04 #@! TD*
D31*
G04 #@! TO.C,1-C4*
X48625000Y-36425000D03*
X48625000Y-37975000D03*
G04 #@! TD*
D27*
G04 #@! TO.C,1-C1*
X56600000Y-31750000D03*
X58150000Y-31750000D03*
G04 #@! TD*
D15*
G04 #@! TO.C,KiKit_MB_5_4*
X24975498Y-8500196D03*
G04 #@! TD*
G04 #@! TO.C,KiKit_MB_24_2*
X24975498Y-80499804D03*
G04 #@! TD*
G04 #@! TO.C,KiKit_MB_3_1*
X62325999Y-22000000D03*
G04 #@! TD*
G04 #@! TO.C,KiKit_MB_25_2*
X8375000Y-42833333D03*
G04 #@! TD*
D30*
G04 #@! TO.C,3-C6*
X43375000Y-77275000D03*
X43375000Y-75725000D03*
G04 #@! TD*
D15*
G04 #@! TO.C,KiKit_MB_30_1*
X66625000Y-84000000D03*
G04 #@! TD*
G04 #@! TO.C,KiKit_MB_4_5*
X62326001Y-7000032D03*
G04 #@! TD*
G04 #@! TO.C,KiKit_MB_32_2*
X910715Y-82000000D03*
G04 #@! TD*
D26*
G04 #@! TO.C,1-U4*
X47262500Y-28450000D03*
X47262500Y-27500000D03*
X47262500Y-26550000D03*
X44987500Y-26550000D03*
X44987500Y-27500000D03*
X44987500Y-28450000D03*
G04 #@! TD*
D15*
G04 #@! TO.C,KiKit_MB_32_7*
X5464286Y-82000000D03*
G04 #@! TD*
D32*
G04 #@! TO.C,0-D2*
X26162500Y-19000000D03*
X24587500Y-19000000D03*
G04 #@! TD*
D15*
G04 #@! TO.C,KiKit_MB_24_1*
X25825998Y-80499793D03*
G04 #@! TD*
D26*
G04 #@! TO.C,3-U4*
X47262500Y-70950000D03*
X47262500Y-70000000D03*
X47262500Y-69050000D03*
X44987500Y-69050000D03*
X44987500Y-70000000D03*
X44987500Y-70950000D03*
G04 #@! TD*
D15*
G04 #@! TO.C,KiKit_MB_10_4*
X61475502Y-24500041D03*
G04 #@! TD*
G04 #@! TO.C,KiKit_MB_26_4*
X66625000Y-44500000D03*
G04 #@! TD*
G04 #@! TO.C,KiKit_MB_15_2*
X61475499Y-64500000D03*
G04 #@! TD*
D31*
G04 #@! TO.C,3-C2*
X37875000Y-78225000D03*
X37875000Y-79775000D03*
G04 #@! TD*
D15*
G04 #@! TO.C,KiKit_MB_24_3*
X24124998Y-80499815D03*
G04 #@! TD*
D20*
G04 #@! TO.C,2-U1*
X55325000Y-52112500D03*
X54375000Y-52112500D03*
X53425000Y-52112500D03*
X53425000Y-54387500D03*
X54375000Y-54387500D03*
X55325000Y-54387500D03*
G04 #@! TD*
D15*
G04 #@! TO.C,KiKit_MB_32_4*
X2732143Y-82000000D03*
G04 #@! TD*
D33*
G04 #@! TO.C,3-J1*
X14875000Y-78310000D03*
D34*
X15125000Y-75580000D03*
X15125000Y-73420000D03*
D33*
X14875000Y-70690000D03*
G04 #@! TD*
D15*
G04 #@! TO.C,KiKit_MB_20_1*
X39924002Y-67000283D03*
G04 #@! TD*
G04 #@! TO.C,KiKit_MB_34_4*
X71357142Y-82000000D03*
G04 #@! TD*
G04 #@! TO.C,KiKit_MB_13_2*
X42475499Y-64500000D03*
G04 #@! TD*
G04 #@! TO.C,KiKit_MB_13_5*
X39924000Y-64500000D03*
G04 #@! TD*
G04 #@! TO.C,KiKit_MB_27_7*
X8375000Y-5000000D03*
G04 #@! TD*
G04 #@! TO.C,KiKit_MB_5_1*
X22423998Y-8500163D03*
G04 #@! TD*
G04 #@! TO.C,KiKit_MB_14_4*
X42475502Y-49500254D03*
G04 #@! TD*
G04 #@! TO.C,KiKit_MB_20_2*
X40774502Y-67000274D03*
G04 #@! TD*
G04 #@! TO.C,KiKit_MB_34_8*
X75000000Y-82000000D03*
G04 #@! TD*
D18*
G04 #@! TO.C,2-R5*
X38375000Y-53325000D03*
X38375000Y-51675000D03*
G04 #@! TD*
G04 #@! TO.C,3-R2*
X43375000Y-80500000D03*
X43375000Y-78850000D03*
G04 #@! TD*
D15*
G04 #@! TO.C,KiKit_MB_19_3*
X41625000Y-82000000D03*
G04 #@! TD*
D14*
G04 #@! TO.C,0-R4*
X53350000Y-14250000D03*
X55000000Y-14250000D03*
G04 #@! TD*
D28*
G04 #@! TO.C,3-U6*
X54575000Y-80400000D03*
X55525000Y-80400000D03*
X56475000Y-80400000D03*
X56475000Y-78125000D03*
X54575000Y-78125000D03*
G04 #@! TD*
D18*
G04 #@! TO.C,2-R8*
X46875000Y-63025000D03*
X46875000Y-61375000D03*
G04 #@! TD*
D15*
G04 #@! TO.C,KiKit_MB_13_1*
X43325999Y-64500000D03*
G04 #@! TD*
G04 #@! TO.C,KiKit_MB_30_5*
X66625000Y-87333333D03*
G04 #@! TD*
D29*
G04 #@! TO.C,1-R10*
X62375000Y-36175000D03*
X62375000Y-37825000D03*
G04 #@! TD*
D15*
G04 #@! TO.C,KiKit_MB_32_5*
X3642858Y-82000000D03*
G04 #@! TD*
D21*
G04 #@! TO.C,0-JP4*
X61875000Y-16750000D03*
D22*
X61875000Y-15450000D03*
D23*
X61875000Y-14150000D03*
G04 #@! TD*
D21*
G04 #@! TO.C,0-JP1*
X61875000Y-11800000D03*
D22*
X61875000Y-10500000D03*
D23*
X61875000Y-9200000D03*
G04 #@! TD*
D15*
G04 #@! TO.C,KiKit_MB_12_5*
X22423998Y-37999837D03*
G04 #@! TD*
G04 #@! TO.C,KiKit_MB_33_2*
X69535714Y-7000000D03*
G04 #@! TD*
D26*
G04 #@! TO.C,2-U5*
X42650000Y-53450000D03*
X42650000Y-52500000D03*
X42650000Y-51550000D03*
X40375000Y-51550000D03*
X40375000Y-52500000D03*
X40375000Y-53450000D03*
G04 #@! TD*
D20*
G04 #@! TO.C,0-U1*
X55325000Y-9612500D03*
X54375000Y-9612500D03*
X53425000Y-9612500D03*
X53425000Y-11887500D03*
X54375000Y-11887500D03*
X55325000Y-11887500D03*
G04 #@! TD*
D28*
G04 #@! TO.C,0-U7*
X39675000Y-15337500D03*
X40625000Y-15337500D03*
X41575000Y-15337500D03*
X41575000Y-13062500D03*
X39675000Y-13062500D03*
G04 #@! TD*
D15*
G04 #@! TO.C,KiKit_MB_2_2*
X40774502Y-7000275D03*
G04 #@! TD*
D16*
G04 #@! TO.C,3-R3*
X55000000Y-76000000D03*
X53350000Y-76000000D03*
G04 #@! TD*
D15*
G04 #@! TO.C,KiKit_MB_24_4*
X23274498Y-80499826D03*
G04 #@! TD*
G04 #@! TO.C,KiKit_MB_28_7*
X66625000Y-5000000D03*
G04 #@! TD*
G04 #@! TO.C,KiKit_MB_33_1*
X68625000Y-7000000D03*
G04 #@! TD*
G04 #@! TO.C,KiKit_MB_33_3*
X70446428Y-7000000D03*
G04 #@! TD*
D18*
G04 #@! TO.C,1-R8*
X46875000Y-38025000D03*
X46875000Y-36375000D03*
G04 #@! TD*
D15*
G04 #@! TO.C,KiKit_MB_2_5*
X43326001Y-7000246D03*
G04 #@! TD*
G04 #@! TO.C,KiKit_MB_28_4*
X66625000Y-2500000D03*
G04 #@! TD*
G04 #@! TO.C,KiKit_MB_10_3*
X60625002Y-24500050D03*
G04 #@! TD*
D24*
G04 #@! TO.C,KiKit_FID_T_3*
X4500000Y-84500000D03*
G04 #@! TD*
D15*
G04 #@! TO.C,KiKit_MB_19_1*
X43325999Y-82000000D03*
G04 #@! TD*
G04 #@! TO.C,KiKit_MB_3_2*
X61475499Y-22000000D03*
G04 #@! TD*
D35*
G04 #@! TO.C,1-C5*
X51150000Y-31000000D03*
X49600000Y-31000000D03*
G04 #@! TD*
D15*
G04 #@! TO.C,KiKit_MB_32_6*
X4553572Y-82000000D03*
G04 #@! TD*
D27*
G04 #@! TO.C,2-C1*
X56600000Y-56750000D03*
X58150000Y-56750000D03*
G04 #@! TD*
D36*
G04 #@! TO.C,KiKit_TO_3*
X2500000Y-86500000D03*
G04 #@! TD*
D24*
G04 #@! TO.C,KiKit_FID_T_1*
X4500000Y-4500000D03*
G04 #@! TD*
D15*
G04 #@! TO.C,KiKit_MB_29_4*
X8375000Y-86500000D03*
G04 #@! TD*
D20*
G04 #@! TO.C,2-U2*
X41575000Y-60362500D03*
X40625000Y-60362500D03*
X39675000Y-60362500D03*
X39675000Y-62637500D03*
X41575000Y-62637500D03*
G04 #@! TD*
D24*
G04 #@! TO.C,0-J4*
X64875000Y-16250000D03*
G04 #@! TD*
D16*
G04 #@! TO.C,1-R3*
X55000000Y-33500000D03*
X53350000Y-33500000D03*
G04 #@! TD*
D15*
G04 #@! TO.C,KiKit_MB_26_7*
X66625000Y-47000000D03*
G04 #@! TD*
D14*
G04 #@! TO.C,3-R4*
X53350000Y-74250000D03*
X55000000Y-74250000D03*
G04 #@! TD*
D33*
G04 #@! TO.C,0-J1*
X14875000Y-18310000D03*
D34*
X15125000Y-15580000D03*
X15125000Y-13420000D03*
D33*
X14875000Y-10690000D03*
G04 #@! TD*
D15*
G04 #@! TO.C,KiKit_MB_15_5*
X58924000Y-64500000D03*
G04 #@! TD*
D37*
G04 #@! TO.C,1-D4*
X45325000Y-31750000D03*
X47425000Y-31750000D03*
G04 #@! TD*
D35*
G04 #@! TO.C,0-C5*
X51150000Y-13500000D03*
X49600000Y-13500000D03*
G04 #@! TD*
D15*
G04 #@! TO.C,KiKit_MB_12_3*
X24124998Y-37999815D03*
G04 #@! TD*
G04 #@! TO.C,KiKit_MB_27_5*
X8375000Y-3333334D03*
G04 #@! TD*
D24*
G04 #@! TO.C,3-J3*
X64875000Y-72750000D03*
G04 #@! TD*
D37*
G04 #@! TO.C,3-D4*
X45325000Y-74250000D03*
X47425000Y-74250000D03*
G04 #@! TD*
D19*
G04 #@! TO.C,2-D3*
X52375000Y-61200000D03*
X52375000Y-63300000D03*
G04 #@! TD*
D15*
G04 #@! TO.C,KiKit_MB_5_3*
X24124998Y-8500185D03*
G04 #@! TD*
D38*
G04 #@! TO.C,3-L2*
X51525000Y-70750000D03*
X49225000Y-70750000D03*
G04 #@! TD*
D27*
G04 #@! TO.C,1-C3*
X45600000Y-33700000D03*
X47150000Y-33700000D03*
G04 #@! TD*
D33*
G04 #@! TO.C,2-J1*
X14875000Y-60810000D03*
D34*
X15125000Y-58080000D03*
X15125000Y-55920000D03*
D33*
X14875000Y-53190000D03*
G04 #@! TD*
D15*
G04 #@! TO.C,KiKit_MB_8_4*
X42475502Y-24500254D03*
G04 #@! TD*
D24*
G04 #@! TO.C,1-J4*
X64875000Y-33750000D03*
G04 #@! TD*
D15*
G04 #@! TO.C,KiKit_MB_19_5*
X39924000Y-82000000D03*
G04 #@! TD*
G04 #@! TO.C,KiKit_MB_9_1*
X62325999Y-39500000D03*
G04 #@! TD*
D17*
G04 #@! TO.C,0-SW1*
X27250000Y-11500000D03*
X27250000Y-17500000D03*
X23500000Y-11500000D03*
X23500000Y-17500000D03*
G04 #@! TD*
D15*
G04 #@! TO.C,KiKit_MB_25_7*
X8375000Y-47000000D03*
G04 #@! TD*
G04 #@! TO.C,KiKit_MB_29_7*
X8375000Y-89000000D03*
G04 #@! TD*
G04 #@! TO.C,KiKit_MB_7_2*
X42475499Y-39500000D03*
G04 #@! TD*
D28*
G04 #@! TO.C,2-U7*
X39675000Y-57837500D03*
X40625000Y-57837500D03*
X41575000Y-57837500D03*
X41575000Y-55562500D03*
X39675000Y-55562500D03*
G04 #@! TD*
D24*
G04 #@! TO.C,2-J4*
X64875000Y-58750000D03*
G04 #@! TD*
D15*
G04 #@! TO.C,KiKit_MB_6_3*
X24124998Y-20499815D03*
G04 #@! TD*
G04 #@! TO.C,KiKit_MB_1_4*
X40774500Y-22000000D03*
G04 #@! TD*
D18*
G04 #@! TO.C,2-R11*
X59875000Y-58575000D03*
X59875000Y-56925000D03*
G04 #@! TD*
D15*
G04 #@! TO.C,KiKit_MB_21_3*
X60625000Y-82000000D03*
G04 #@! TD*
G04 #@! TO.C,KiKit_MB_34_2*
X69535714Y-82000000D03*
G04 #@! TD*
D18*
G04 #@! TO.C,3-R11*
X59875000Y-76075000D03*
X59875000Y-74425000D03*
G04 #@! TD*
D15*
G04 #@! TO.C,KiKit_MB_27_1*
X8375000Y0D03*
G04 #@! TD*
G04 #@! TO.C,KiKit_MB_31_2*
X910715Y-7000000D03*
G04 #@! TD*
G04 #@! TO.C,KiKit_MB_9_5*
X58924000Y-39500000D03*
G04 #@! TD*
G04 #@! TO.C,KiKit_MB_7_4*
X40774500Y-39500000D03*
G04 #@! TD*
D16*
G04 #@! TO.C,1-R6*
X58200000Y-33500000D03*
X56550000Y-33500000D03*
G04 #@! TD*
D19*
G04 #@! TO.C,0-D3*
X52375000Y-18700000D03*
X52375000Y-20800000D03*
G04 #@! TD*
D15*
G04 #@! TO.C,KiKit_MB_13_3*
X41625000Y-64500000D03*
G04 #@! TD*
G04 #@! TO.C,KiKit_MB_29_6*
X8375000Y-88166666D03*
G04 #@! TD*
G04 #@! TO.C,KiKit_MB_26_2*
X66625000Y-42833333D03*
G04 #@! TD*
G04 #@! TO.C,KiKit_MB_25_6*
X8375000Y-46166666D03*
G04 #@! TD*
G04 #@! TO.C,KiKit_MB_1_2*
X42475499Y-22000000D03*
G04 #@! TD*
D36*
G04 #@! TO.C,KiKit_TO_1*
X2500000Y-2500000D03*
G04 #@! TD*
D15*
G04 #@! TO.C,KiKit_MB_22_3*
X60625002Y-67000050D03*
G04 #@! TD*
G04 #@! TO.C,KiKit_MB_28_2*
X66625000Y-833334D03*
G04 #@! TD*
G04 #@! TO.C,KiKit_MB_1_5*
X39924000Y-22000000D03*
G04 #@! TD*
D36*
G04 #@! TO.C,KiKit_TO_2*
X72500000Y-2500000D03*
G04 #@! TD*
D24*
G04 #@! TO.C,2-J3*
X64875000Y-55250000D03*
G04 #@! TD*
D18*
G04 #@! TO.C,3-R8*
X46875000Y-80525000D03*
X46875000Y-78875000D03*
G04 #@! TD*
G04 #@! TO.C,1-R11*
X59875000Y-33575000D03*
X59875000Y-31925000D03*
G04 #@! TD*
D15*
G04 #@! TO.C,KiKit_MB_23_3*
X24124998Y-68500184D03*
G04 #@! TD*
G04 #@! TO.C,KiKit_MB_3_3*
X60625000Y-22000000D03*
G04 #@! TD*
D38*
G04 #@! TO.C,1-L2*
X51525000Y-28250000D03*
X49225000Y-28250000D03*
G04 #@! TD*
D15*
G04 #@! TO.C,KiKit_MB_4_4*
X61475502Y-7000042D03*
G04 #@! TD*
G04 #@! TO.C,KiKit_MB_29_3*
X8375000Y-85666666D03*
G04 #@! TD*
G04 #@! TO.C,KiKit_MB_34_3*
X70446428Y-82000000D03*
G04 #@! TD*
D33*
G04 #@! TO.C,1-J1*
X14875000Y-35810000D03*
D34*
X15125000Y-33080000D03*
X15125000Y-30920000D03*
D33*
X14875000Y-28190000D03*
G04 #@! TD*
D15*
G04 #@! TO.C,KiKit_MB_23_2*
X23274498Y-68500173D03*
G04 #@! TD*
G04 #@! TO.C,KiKit_MB_4_1*
X58924002Y-7000070D03*
G04 #@! TD*
D18*
G04 #@! TO.C,3-R7*
X45125000Y-80525000D03*
X45125000Y-78875000D03*
G04 #@! TD*
D15*
G04 #@! TO.C,KiKit_MB_2_1*
X39924002Y-7000284D03*
G04 #@! TD*
D38*
G04 #@! TO.C,1-L1*
X60525000Y-37000000D03*
X58225000Y-37000000D03*
G04 #@! TD*
D18*
G04 #@! TO.C,0-R2*
X43375000Y-20500000D03*
X43375000Y-18850000D03*
G04 #@! TD*
G04 #@! TO.C,1-R5*
X38375000Y-28325000D03*
X38375000Y-26675000D03*
G04 #@! TD*
D15*
G04 #@! TO.C,KiKit_MB_8_2*
X40774502Y-24500274D03*
G04 #@! TD*
D16*
G04 #@! TO.C,0-R3*
X55000000Y-16000000D03*
X53350000Y-16000000D03*
G04 #@! TD*
D15*
G04 #@! TO.C,KiKit_MB_9_3*
X60625000Y-39500000D03*
G04 #@! TD*
G04 #@! TO.C,KiKit_MB_27_4*
X8375000Y-2500000D03*
G04 #@! TD*
D24*
G04 #@! TO.C,2-J5*
X64875000Y-62250000D03*
G04 #@! TD*
D15*
G04 #@! TO.C,KiKit_MB_9_4*
X59774500Y-39500000D03*
G04 #@! TD*
D35*
G04 #@! TO.C,1-C7*
X47150000Y-30000000D03*
X45600000Y-30000000D03*
G04 #@! TD*
D32*
G04 #@! TO.C,3-D2*
X26162500Y-79000000D03*
X24587500Y-79000000D03*
G04 #@! TD*
D15*
G04 #@! TO.C,KiKit_MB_18_5*
X22423998Y-62999837D03*
G04 #@! TD*
G04 #@! TO.C,KiKit_MB_22_4*
X61475502Y-67000041D03*
G04 #@! TD*
G04 #@! TO.C,KiKit_MB_7_3*
X41625000Y-39500000D03*
G04 #@! TD*
D31*
G04 #@! TO.C,2-C2*
X37875000Y-60725000D03*
X37875000Y-62275000D03*
G04 #@! TD*
D25*
G04 #@! TO.C,1-D5*
X50375000Y-38300000D03*
X50375000Y-36200000D03*
G04 #@! TD*
D15*
G04 #@! TO.C,KiKit_MB_16_5*
X62326001Y-49500031D03*
G04 #@! TD*
D39*
G04 #@! TO.C,2-U3*
X49237500Y-57800000D03*
X49237500Y-58750000D03*
X49237500Y-59700000D03*
X51512500Y-59700000D03*
X51512500Y-57800000D03*
G04 #@! TD*
D15*
G04 #@! TO.C,KiKit_MB_2_3*
X41625002Y-7000265D03*
G04 #@! TD*
D18*
G04 #@! TO.C,1-R7*
X45125000Y-38025000D03*
X45125000Y-36375000D03*
G04 #@! TD*
D24*
G04 #@! TO.C,1-J2*
X64875000Y-26750000D03*
G04 #@! TD*
D15*
G04 #@! TO.C,KiKit_MB_27_3*
X8375000Y-1666667D03*
G04 #@! TD*
G04 #@! TO.C,KiKit_MB_15_3*
X60625000Y-64500000D03*
G04 #@! TD*
G04 #@! TO.C,KiKit_MB_28_5*
X66625000Y-3333334D03*
G04 #@! TD*
D27*
G04 #@! TO.C,0-C3*
X45600000Y-16200000D03*
X47150000Y-16200000D03*
G04 #@! TD*
D15*
G04 #@! TO.C,KiKit_MB_25_1*
X8375000Y-42000000D03*
G04 #@! TD*
D30*
G04 #@! TO.C,1-C6*
X43375000Y-34775000D03*
X43375000Y-33225000D03*
G04 #@! TD*
D19*
G04 #@! TO.C,1-D3*
X52375000Y-36200000D03*
X52375000Y-38300000D03*
G04 #@! TD*
D18*
G04 #@! TO.C,3-R1*
X37875000Y-75100000D03*
X37875000Y-73450000D03*
G04 #@! TD*
D15*
G04 #@! TO.C,KiKit_MB_10_1*
X58924002Y-24500069D03*
G04 #@! TD*
G04 #@! TO.C,KiKit_MB_3_5*
X58924000Y-22000000D03*
G04 #@! TD*
G04 #@! TO.C,KiKit_MB_19_4*
X40774500Y-82000000D03*
G04 #@! TD*
G04 #@! TO.C,KiKit_MB_20_5*
X43326001Y-67000245D03*
G04 #@! TD*
G04 #@! TO.C,KiKit_MB_12_2*
X24975498Y-37999804D03*
G04 #@! TD*
D31*
G04 #@! TO.C,2-C4*
X48625000Y-61425000D03*
X48625000Y-62975000D03*
G04 #@! TD*
D15*
G04 #@! TO.C,KiKit_MB_27_2*
X8375000Y-833334D03*
G04 #@! TD*
G04 #@! TO.C,KiKit_MB_16_4*
X61475502Y-49500041D03*
G04 #@! TD*
G04 #@! TO.C,KiKit_MB_20_3*
X41625002Y-67000264D03*
G04 #@! TD*
G04 #@! TO.C,KiKit_MB_14_3*
X41625002Y-49500264D03*
G04 #@! TD*
G04 #@! TO.C,KiKit_MB_19_2*
X42475499Y-82000000D03*
G04 #@! TD*
D21*
G04 #@! TO.C,3-JP1*
X61875000Y-71800000D03*
D22*
X61875000Y-70500000D03*
D23*
X61875000Y-69200000D03*
G04 #@! TD*
D15*
G04 #@! TO.C,KiKit_MB_34_5*
X72267857Y-82000000D03*
G04 #@! TD*
D38*
G04 #@! TO.C,0-L1*
X60525000Y-19500000D03*
X58225000Y-19500000D03*
G04 #@! TD*
D18*
G04 #@! TO.C,0-R8*
X46875000Y-20525000D03*
X46875000Y-18875000D03*
G04 #@! TD*
D15*
G04 #@! TO.C,KiKit_MB_5_5*
X25825998Y-8500207D03*
G04 #@! TD*
G04 #@! TO.C,KiKit_MB_7_5*
X39924000Y-39500000D03*
G04 #@! TD*
D39*
G04 #@! TO.C,1-U3*
X49237500Y-32800000D03*
X49237500Y-33750000D03*
X49237500Y-34700000D03*
X51512500Y-34700000D03*
X51512500Y-32800000D03*
G04 #@! TD*
D15*
G04 #@! TO.C,KiKit_MB_23_4*
X24975498Y-68500195D03*
G04 #@! TD*
G04 #@! TO.C,KiKit_MB_25_5*
X8375000Y-45333333D03*
G04 #@! TD*
D35*
G04 #@! TO.C,2-C7*
X47150000Y-55000000D03*
X45600000Y-55000000D03*
G04 #@! TD*
D15*
G04 #@! TO.C,KiKit_MB_34_6*
X73178571Y-82000000D03*
G04 #@! TD*
G04 #@! TO.C,KiKit_MB_8_1*
X39924002Y-24500283D03*
G04 #@! TD*
G04 #@! TO.C,KiKit_MB_31_6*
X4553572Y-7000000D03*
G04 #@! TD*
G04 #@! TO.C,KiKit_MB_32_1*
X0Y-82000000D03*
G04 #@! TD*
G04 #@! TO.C,KiKit_MB_33_6*
X73178571Y-7000000D03*
G04 #@! TD*
D24*
G04 #@! TO.C,KiKit_FID_T_4*
X70500000Y-84500000D03*
G04 #@! TD*
D18*
G04 #@! TO.C,1-R2*
X43375000Y-38000000D03*
X43375000Y-36350000D03*
G04 #@! TD*
D15*
G04 #@! TO.C,KiKit_MB_29_2*
X8375000Y-84833333D03*
G04 #@! TD*
D25*
G04 #@! TO.C,3-D5*
X50375000Y-80800000D03*
X50375000Y-78700000D03*
G04 #@! TD*
D21*
G04 #@! TO.C,1-JP4*
X61875000Y-34250000D03*
D22*
X61875000Y-32950000D03*
D23*
X61875000Y-31650000D03*
G04 #@! TD*
D29*
G04 #@! TO.C,3-R10*
X62375000Y-78675000D03*
X62375000Y-80325000D03*
G04 #@! TD*
D17*
G04 #@! TO.C,3-SW1*
X27250000Y-71500000D03*
X27250000Y-77500000D03*
X23500000Y-71500000D03*
X23500000Y-77500000D03*
G04 #@! TD*
D35*
G04 #@! TO.C,3-C7*
X47150000Y-72500000D03*
X45600000Y-72500000D03*
G04 #@! TD*
D31*
G04 #@! TO.C,1-C2*
X37875000Y-35725000D03*
X37875000Y-37275000D03*
G04 #@! TD*
D28*
G04 #@! TO.C,1-U6*
X54575000Y-37900000D03*
X55525000Y-37900000D03*
X56475000Y-37900000D03*
X56475000Y-35625000D03*
X54575000Y-35625000D03*
G04 #@! TD*
D15*
G04 #@! TO.C,KiKit_MB_11_2*
X23274498Y-26000173D03*
G04 #@! TD*
G04 #@! TO.C,KiKit_MB_22_5*
X62326001Y-67000031D03*
G04 #@! TD*
G04 #@! TO.C,KiKit_MB_26_1*
X66625000Y-42000000D03*
G04 #@! TD*
G04 #@! TO.C,KiKit_MB_26_3*
X66625000Y-43666666D03*
G04 #@! TD*
D24*
G04 #@! TO.C,0-J3*
X64875000Y-12750000D03*
G04 #@! TD*
D15*
G04 #@! TO.C,KiKit_MB_29_5*
X8375000Y-87333333D03*
G04 #@! TD*
D18*
G04 #@! TO.C,2-R2*
X43375000Y-63000000D03*
X43375000Y-61350000D03*
G04 #@! TD*
G04 #@! TO.C,0-R11*
X59875000Y-16075000D03*
X59875000Y-14425000D03*
G04 #@! TD*
D24*
G04 #@! TO.C,3-J2*
X64875000Y-69250000D03*
G04 #@! TD*
D38*
G04 #@! TO.C,3-L1*
X60525000Y-79500000D03*
X58225000Y-79500000D03*
G04 #@! TD*
D15*
G04 #@! TO.C,KiKit_MB_17_4*
X24975498Y-51000195D03*
G04 #@! TD*
G04 #@! TO.C,KiKit_MB_30_7*
X66625000Y-89000000D03*
G04 #@! TD*
D21*
G04 #@! TO.C,3-JP4*
X61875000Y-76750000D03*
D22*
X61875000Y-75450000D03*
D23*
X61875000Y-74150000D03*
G04 #@! TD*
D27*
G04 #@! TO.C,3-C1*
X56600000Y-74250000D03*
X58150000Y-74250000D03*
G04 #@! TD*
D15*
G04 #@! TO.C,KiKit_MB_14_1*
X39924002Y-49500283D03*
G04 #@! TD*
D28*
G04 #@! TO.C,3-U7*
X39675000Y-75337500D03*
X40625000Y-75337500D03*
X41575000Y-75337500D03*
X41575000Y-73062500D03*
X39675000Y-73062500D03*
G04 #@! TD*
D29*
G04 #@! TO.C,2-R10*
X62375000Y-61175000D03*
X62375000Y-62825000D03*
G04 #@! TD*
D18*
G04 #@! TO.C,0-R9*
X43375000Y-14325000D03*
X43375000Y-12675000D03*
G04 #@! TD*
D35*
G04 #@! TO.C,3-C5*
X51150000Y-73500000D03*
X49600000Y-73500000D03*
G04 #@! TD*
D15*
G04 #@! TO.C,KiKit_MB_11_3*
X24124998Y-26000184D03*
G04 #@! TD*
D36*
G04 #@! TO.C,KiKit_TO_4*
X72500000Y-86500000D03*
G04 #@! TD*
D38*
G04 #@! TO.C,2-L1*
X60525000Y-62000000D03*
X58225000Y-62000000D03*
G04 #@! TD*
D26*
G04 #@! TO.C,0-U5*
X42650000Y-10950000D03*
X42650000Y-10000000D03*
X42650000Y-9050000D03*
X40375000Y-9050000D03*
X40375000Y-10000000D03*
X40375000Y-10950000D03*
G04 #@! TD*
D15*
G04 #@! TO.C,KiKit_MB_16_2*
X59774502Y-49500060D03*
G04 #@! TD*
G04 #@! TO.C,KiKit_MB_14_5*
X43326001Y-49500245D03*
G04 #@! TD*
G04 #@! TO.C,KiKit_MB_30_2*
X66625000Y-84833333D03*
G04 #@! TD*
D37*
G04 #@! TO.C,0-D4*
X45325000Y-14250000D03*
X47425000Y-14250000D03*
G04 #@! TD*
D15*
G04 #@! TO.C,KiKit_MB_31_1*
X0Y-7000000D03*
G04 #@! TD*
D21*
G04 #@! TO.C,2-JP1*
X61875000Y-54300000D03*
D22*
X61875000Y-53000000D03*
D23*
X61875000Y-51700000D03*
G04 #@! TD*
D21*
G04 #@! TO.C,2-JP4*
X61875000Y-59250000D03*
D22*
X61875000Y-57950000D03*
D23*
X61875000Y-56650000D03*
G04 #@! TD*
D28*
G04 #@! TO.C,2-U6*
X54575000Y-62900000D03*
X55525000Y-62900000D03*
X56475000Y-62900000D03*
X56475000Y-60625000D03*
X54575000Y-60625000D03*
G04 #@! TD*
D16*
G04 #@! TO.C,0-R6*
X58200000Y-16000000D03*
X56550000Y-16000000D03*
G04 #@! TD*
D15*
G04 #@! TO.C,KiKit_MB_33_5*
X72267857Y-7000000D03*
G04 #@! TD*
G04 #@! TO.C,KiKit_MB_31_7*
X5464286Y-7000000D03*
G04 #@! TD*
D27*
G04 #@! TO.C,3-C3*
X45600000Y-76200000D03*
X47150000Y-76200000D03*
G04 #@! TD*
D15*
G04 #@! TO.C,KiKit_MB_26_6*
X66625000Y-46166666D03*
G04 #@! TD*
G04 #@! TO.C,KiKit_MB_33_7*
X74089285Y-7000000D03*
G04 #@! TD*
D38*
G04 #@! TO.C,0-L2*
X51525000Y-10750000D03*
X49225000Y-10750000D03*
G04 #@! TD*
D24*
G04 #@! TO.C,1-J3*
X64875000Y-30250000D03*
G04 #@! TD*
D15*
G04 #@! TO.C,KiKit_MB_8_3*
X41625002Y-24500264D03*
G04 #@! TD*
G04 #@! TO.C,KiKit_MB_20_4*
X42475502Y-67000254D03*
G04 #@! TD*
D30*
G04 #@! TO.C,0-C6*
X43375000Y-17275000D03*
X43375000Y-15725000D03*
G04 #@! TD*
D28*
G04 #@! TO.C,0-U6*
X54575000Y-20400000D03*
X55525000Y-20400000D03*
X56475000Y-20400000D03*
X56475000Y-18125000D03*
X54575000Y-18125000D03*
G04 #@! TD*
D31*
G04 #@! TO.C,0-C4*
X48625000Y-18925000D03*
X48625000Y-20475000D03*
G04 #@! TD*
D15*
G04 #@! TO.C,KiKit_MB_22_2*
X59774502Y-67000060D03*
G04 #@! TD*
G04 #@! TO.C,KiKit_MB_6_1*
X25825998Y-20499793D03*
G04 #@! TD*
D18*
G04 #@! TO.C,2-R7*
X45125000Y-63025000D03*
X45125000Y-61375000D03*
G04 #@! TD*
D25*
G04 #@! TO.C,0-D5*
X50375000Y-20800000D03*
X50375000Y-18700000D03*
G04 #@! TD*
D15*
G04 #@! TO.C,KiKit_MB_17_5*
X25825998Y-51000206D03*
G04 #@! TD*
D39*
G04 #@! TO.C,3-U3*
X49237500Y-75300000D03*
X49237500Y-76250000D03*
X49237500Y-77200000D03*
X51512500Y-77200000D03*
X51512500Y-75300000D03*
G04 #@! TD*
D18*
G04 #@! TO.C,0-R5*
X38375000Y-10825000D03*
X38375000Y-9175000D03*
G04 #@! TD*
D15*
G04 #@! TO.C,KiKit_MB_28_3*
X66625000Y-1666667D03*
G04 #@! TD*
D26*
G04 #@! TO.C,2-U4*
X47262500Y-53450000D03*
X47262500Y-52500000D03*
X47262500Y-51550000D03*
X44987500Y-51550000D03*
X44987500Y-52500000D03*
X44987500Y-53450000D03*
G04 #@! TD*
D15*
G04 #@! TO.C,KiKit_MB_15_1*
X62325999Y-64500000D03*
G04 #@! TD*
D31*
G04 #@! TO.C,3-C4*
X48625000Y-78925000D03*
X48625000Y-80475000D03*
G04 #@! TD*
D20*
G04 #@! TO.C,1-U1*
X55325000Y-27112500D03*
X54375000Y-27112500D03*
X53425000Y-27112500D03*
X53425000Y-29387500D03*
X54375000Y-29387500D03*
X55325000Y-29387500D03*
G04 #@! TD*
D15*
G04 #@! TO.C,KiKit_MB_26_5*
X66625000Y-45333333D03*
G04 #@! TD*
G04 #@! TO.C,KiKit_MB_27_6*
X8375000Y-4166667D03*
G04 #@! TD*
D24*
G04 #@! TO.C,1-J5*
X64875000Y-37250000D03*
G04 #@! TD*
D14*
G04 #@! TO.C,1-R4*
X53350000Y-31750000D03*
X55000000Y-31750000D03*
G04 #@! TD*
D15*
G04 #@! TO.C,KiKit_MB_32_3*
X1821429Y-82000000D03*
G04 #@! TD*
G04 #@! TO.C,KiKit_MB_23_5*
X25825998Y-68500206D03*
G04 #@! TD*
G04 #@! TO.C,KiKit_MB_11_1*
X22423998Y-26000162D03*
G04 #@! TD*
G04 #@! TO.C,KiKit_MB_12_4*
X23274498Y-37999826D03*
G04 #@! TD*
D28*
G04 #@! TO.C,0-Q1*
X57675000Y-11887500D03*
X58625000Y-11887500D03*
X59575000Y-11887500D03*
X59575000Y-9612500D03*
X58625000Y-9612500D03*
X57675000Y-9612500D03*
G04 #@! TD*
D38*
G04 #@! TO.C,2-L2*
X51525000Y-53250000D03*
X49225000Y-53250000D03*
G04 #@! TD*
D28*
G04 #@! TO.C,3-Q1*
X57675000Y-71887500D03*
X58625000Y-71887500D03*
X59575000Y-71887500D03*
X59575000Y-69612500D03*
X58625000Y-69612500D03*
X57675000Y-69612500D03*
G04 #@! TD*
D15*
G04 #@! TO.C,KiKit_MB_21_1*
X62325999Y-82000000D03*
G04 #@! TD*
G04 #@! TO.C,KiKit_MB_32_8*
X6375000Y-82000000D03*
G04 #@! TD*
G04 #@! TO.C,KiKit_MB_34_7*
X74089285Y-82000000D03*
G04 #@! TD*
G04 #@! TO.C,KiKit_MB_30_4*
X66625000Y-86500000D03*
G04 #@! TD*
D26*
G04 #@! TO.C,0-U4*
X47262500Y-10950000D03*
X47262500Y-10000000D03*
X47262500Y-9050000D03*
X44987500Y-9050000D03*
X44987500Y-10000000D03*
X44987500Y-10950000D03*
G04 #@! TD*
D24*
G04 #@! TO.C,KiKit_FID_T_2*
X70500000Y-4500000D03*
G04 #@! TD*
D18*
G04 #@! TO.C,2-R1*
X37875000Y-57600000D03*
X37875000Y-55950000D03*
G04 #@! TD*
D39*
G04 #@! TO.C,0-U3*
X49237500Y-15300000D03*
X49237500Y-16250000D03*
X49237500Y-17200000D03*
X51512500Y-17200000D03*
X51512500Y-15300000D03*
G04 #@! TD*
D15*
G04 #@! TO.C,KiKit_MB_18_1*
X25825998Y-62999793D03*
G04 #@! TD*
G04 #@! TO.C,KiKit_MB_25_4*
X8375000Y-44500000D03*
G04 #@! TD*
D37*
G04 #@! TO.C,2-D4*
X45325000Y-56750000D03*
X47425000Y-56750000D03*
G04 #@! TD*
D15*
G04 #@! TO.C,KiKit_MB_30_3*
X66625000Y-85666666D03*
G04 #@! TD*
D18*
G04 #@! TO.C,0-R1*
X37875000Y-15100000D03*
X37875000Y-13450000D03*
G04 #@! TD*
D15*
G04 #@! TO.C,KiKit_MB_17_3*
X24124998Y-51000184D03*
G04 #@! TD*
D31*
G04 #@! TO.C,0-C2*
X37875000Y-18225000D03*
X37875000Y-19775000D03*
G04 #@! TD*
D15*
G04 #@! TO.C,KiKit_MB_8_5*
X43326001Y-24500245D03*
G04 #@! TD*
D27*
G04 #@! TO.C,0-C1*
X56600000Y-14250000D03*
X58150000Y-14250000D03*
G04 #@! TD*
D24*
G04 #@! TO.C,3-J5*
X64875000Y-79750000D03*
G04 #@! TD*
D15*
G04 #@! TO.C,KiKit_MB_22_1*
X58924002Y-67000069D03*
G04 #@! TD*
G04 #@! TO.C,KiKit_MB_1_3*
X41625000Y-22000000D03*
G04 #@! TD*
D32*
G04 #@! TO.C,2-D2*
X26162500Y-61500000D03*
X24587500Y-61500000D03*
G04 #@! TD*
D15*
G04 #@! TO.C,KiKit_MB_29_1*
X8375000Y-84000000D03*
G04 #@! TD*
D28*
G04 #@! TO.C,2-Q1*
X57675000Y-54387500D03*
X58625000Y-54387500D03*
X59575000Y-54387500D03*
X59575000Y-52112500D03*
X58625000Y-52112500D03*
X57675000Y-52112500D03*
G04 #@! TD*
D15*
G04 #@! TO.C,KiKit_MB_25_3*
X8375000Y-43666666D03*
G04 #@! TD*
G04 #@! TO.C,KiKit_MB_31_4*
X2732143Y-7000000D03*
G04 #@! TD*
G04 #@! TO.C,KiKit_MB_18_3*
X24124998Y-62999815D03*
G04 #@! TD*
G04 #@! TO.C,KiKit_MB_13_4*
X40774500Y-64500000D03*
G04 #@! TD*
D28*
G04 #@! TO.C,1-U7*
X39675000Y-32837500D03*
X40625000Y-32837500D03*
X41575000Y-32837500D03*
X41575000Y-30562500D03*
X39675000Y-30562500D03*
G04 #@! TD*
D15*
G04 #@! TO.C,KiKit_MB_18_2*
X24975498Y-62999804D03*
G04 #@! TD*
G04 #@! TO.C,KiKit_MB_6_5*
X22423998Y-20499837D03*
G04 #@! TD*
D35*
G04 #@! TO.C,2-C5*
X51150000Y-56000000D03*
X49600000Y-56000000D03*
G04 #@! TD*
G04 #@! TO.C,0-C7*
X47150000Y-12500000D03*
X45600000Y-12500000D03*
G04 #@! TD*
D32*
G04 #@! TO.C,1-D2*
X26162500Y-36500000D03*
X24587500Y-36500000D03*
G04 #@! TD*
%LPD*%
M02*
