M48
; DRILL file {KiCad 8.0.1} date 2025-05-23T10:36:48+0200
; FORMAT={-:-/ absolute / metric / decimal}
; #@! TF.CreationDate,2025-05-23T10:36:48+02:00
; #@! TF.GenerationSoftware,Kicad,Pcbnew,8.0.1
; #@! TF.FileFunction,Plated,1,2,PTH
FMAT,2
METRIC
; #@! TA.AperFunction,Plated,PTH,ViaDrill
T1C0.300
; #@! TA.AperFunction,Plated,PTH,ComponentDrill
T2C1.000
%
G90
G05
T1
X23.125Y-9.5
X23.125Y-10.5
X23.125Y-27.0
X23.125Y-28.0
X23.125Y-52.0
X23.125Y-53.0
X23.125Y-69.5
X23.125Y-70.5
X23.475Y-12.7
X23.475Y-30.2
X23.475Y-55.2
X23.475Y-72.7
X23.5Y-17.5
X23.5Y-35.0
X23.5Y-60.0
X23.5Y-77.5
X24.125Y-9.5
X24.125Y-10.5
X24.125Y-27.0
X24.125Y-28.0
X24.125Y-52.0
X24.125Y-53.0
X24.125Y-69.5
X24.125Y-70.5
X24.575Y-19.7
X24.575Y-37.2
X24.575Y-62.2
X24.575Y-79.7
X25.125Y-9.5
X25.125Y-10.5
X25.125Y-27.0
X25.125Y-28.0
X25.125Y-52.0
X25.125Y-53.0
X25.125Y-69.5
X25.125Y-70.5
X26.125Y-17.5
X26.125Y-35.0
X26.125Y-60.0
X26.125Y-77.5
X26.775Y-19.0
X26.775Y-36.5
X26.775Y-61.5
X26.775Y-79.0
X28.375Y-17.5
X28.375Y-35.0
X28.375Y-60.0
X28.375Y-77.5
X30.775Y-18.65
X30.775Y-36.15
X30.775Y-61.15
X30.775Y-78.65
X32.075Y-9.3
X32.075Y-26.8
X32.075Y-51.8
X32.075Y-69.3
X32.775Y-18.65
X32.775Y-36.15
X32.775Y-61.15
X32.775Y-78.65
X34.075Y-9.3
X34.075Y-26.8
X34.075Y-51.8
X34.075Y-69.3
X34.425Y-17.05
X34.425Y-34.55
X34.425Y-59.55
X34.425Y-77.05
X35.375Y-16.1
X35.375Y-33.6
X35.375Y-58.6
X35.375Y-76.1
X36.083Y-17.35
X36.083Y-34.85
X36.083Y-59.85
X36.083Y-77.35
X36.275Y-12.0
X36.275Y-13.4
X36.275Y-29.5
X36.275Y-30.9
X36.275Y-54.5
X36.275Y-55.9
X36.275Y-72.0
X36.275Y-73.4
X36.975Y-16.0
X36.975Y-17.4
X36.975Y-33.5
X36.975Y-34.9
X36.975Y-58.5
X36.975Y-59.9
X36.975Y-76.0
X36.975Y-77.4
X37.325Y-11.3
X37.325Y-28.8
X37.325Y-53.8
X37.325Y-71.3
X38.625Y-16.0
X38.625Y-33.5
X38.625Y-58.5
X38.625Y-76.0
X38.875Y-12.0
X38.875Y-14.2
X38.875Y-18.0
X38.875Y-29.5
X38.875Y-31.7
X38.875Y-35.5
X38.875Y-54.5
X38.875Y-56.7
X38.875Y-60.5
X38.875Y-72.0
X38.875Y-74.2
X38.875Y-78.0
X39.675Y-13.4
X39.675Y-16.55
X39.675Y-30.9
X39.675Y-34.05
X39.675Y-55.9
X39.675Y-59.05
X39.675Y-73.4
X39.675Y-76.55
X40.575Y-16.6
X40.575Y-34.1
X40.575Y-59.1
X40.575Y-76.6
X41.575Y-14.75
X41.575Y-15.8
X41.575Y-32.25
X41.575Y-33.3
X41.575Y-57.25
X41.575Y-58.3
X41.575Y-74.75
X41.575Y-75.8
X42.125Y-10.0
X42.125Y-12.0
X42.125Y-27.5
X42.125Y-29.5
X42.125Y-52.5
X42.125Y-54.5
X42.125Y-70.0
X42.125Y-72.0
X42.475Y-17.3
X42.475Y-34.8
X42.475Y-59.8
X42.475Y-77.3
X43.375Y-20.0
X43.375Y-37.5
X43.375Y-62.5
X43.375Y-80.0
X43.875Y-7.8
X43.875Y-10.0
X43.875Y-25.3
X43.875Y-27.5
X43.875Y-50.3
X43.875Y-52.5
X43.875Y-67.8
X43.875Y-70.0
X44.375Y-17.25
X44.375Y-34.75
X44.375Y-59.75
X44.375Y-77.25
X45.125Y-18.0
X45.125Y-35.5
X45.125Y-60.5
X45.125Y-78.0
X46.575Y-14.4
X46.575Y-31.9
X46.575Y-56.9
X46.575Y-74.4
X46.625Y-10.0
X46.625Y-27.5
X46.625Y-52.5
X46.625Y-70.0
X47.125Y-12.5
X47.125Y-30.0
X47.125Y-55.0
X47.125Y-72.5
X47.175Y-16.2
X47.175Y-33.7
X47.175Y-58.7
X47.175Y-76.2
X47.965Y-17.278
X47.965Y-34.778
X47.965Y-59.778
X47.965Y-77.278
X48.377Y-17.975
X48.377Y-35.475
X48.377Y-60.475
X48.377Y-77.975
X48.603Y-19.875
X48.603Y-37.375
X48.603Y-62.375
X48.603Y-79.875
X48.875Y-16.25
X48.875Y-33.75
X48.875Y-58.75
X48.875Y-76.25
X49.625Y-13.5
X49.625Y-16.25
X49.625Y-19.75
X49.625Y-31.0
X49.625Y-33.75
X49.625Y-37.25
X49.625Y-56.0
X49.625Y-58.75
X49.625Y-62.25
X49.625Y-73.5
X49.625Y-76.25
X49.625Y-79.75
X50.375Y-8.75
X50.375Y-14.45
X50.375Y-26.25
X50.375Y-31.95
X50.375Y-51.25
X50.375Y-56.95
X50.375Y-68.75
X50.375Y-74.45
X50.625Y-16.25
X50.625Y-33.75
X50.625Y-58.75
X50.625Y-76.25
X51.375Y-21.0
X51.375Y-38.5
X51.375Y-63.5
X51.375Y-81.0
X51.512Y-17.2
X51.512Y-34.7
X51.512Y-59.7
X51.512Y-77.2
X53.375Y-16.0
X53.375Y-17.0
X53.375Y-33.5
X53.375Y-34.5
X53.375Y-58.5
X53.375Y-59.5
X53.375Y-76.0
X53.375Y-77.0
X55.375Y-20.0
X55.375Y-20.75
X55.375Y-37.5
X55.375Y-38.25
X55.375Y-62.5
X55.375Y-63.25
X55.375Y-80.0
X55.375Y-80.75
X56.625Y-13.15
X56.625Y-17.0
X56.625Y-30.65
X56.625Y-34.5
X56.625Y-55.65
X56.625Y-59.5
X56.625Y-73.15
X56.625Y-77.0
X59.375Y-18.25
X59.375Y-20.75
X59.375Y-35.75
X59.375Y-38.25
X59.375Y-60.75
X59.375Y-63.25
X59.375Y-78.25
X59.375Y-80.75
X59.625Y-11.5
X59.625Y-12.25
X59.625Y-29.0
X59.625Y-29.75
X59.625Y-54.0
X59.625Y-54.75
X59.625Y-71.5
X59.625Y-72.25
X61.875Y-9.25
X61.875Y-10.5
X61.875Y-26.75
X61.875Y-28.0
X61.875Y-51.75
X61.875Y-53.0
X61.875Y-69.25
X61.875Y-70.5
T2
X64.875Y-9.25
X64.875Y-12.75
X64.875Y-16.25
X64.875Y-19.75
X64.875Y-26.75
X64.875Y-30.25
X64.875Y-33.75
X64.875Y-37.25
X64.875Y-51.75
X64.875Y-55.25
X64.875Y-58.75
X64.875Y-62.25
X64.875Y-69.25
X64.875Y-72.75
X64.875Y-76.25
X64.875Y-79.75
M30
